<svg xmlns="http://www.w3.org/2000/svg" viewBox="0 0 4756.852 9965.222">
  <path d="M127.214-17.423v6.84c2.303-9.486 52.66-8.928 54.716 0v-6.84c-.979-8.64-51.98-9.575-54.716 0" class="stroke-orange fill-orange" style="display:inline;fill:#ff851b;fill-opacity:1;stroke:none;stroke-width:.362491;stroke-dasharray:none;stroke-opacity:1" transform="translate(-1430.926 5227.743)scale(33.9288)"/>
  <path d="M132.506-14.628c4.98-1.695 13.009-2.795 22.066-2.795 9.087 0 17.14 1.108 22.115 2.812" class="stroke-blue fill-blue" style="display:inline;fill:none;stroke:#0074d9;stroke-width:.891166;stroke-dasharray:none;stroke-opacity:1" transform="translate(-1430.926 5227.743)scale(33.9288)"/>
  <path d="M127.214-17.423c0-3.777 12.249-6.84 27.358-6.84s27.358 3.063 27.358 6.84" class="stroke-blue fill-blue" style="display:inline;fill:none;stroke:#0074d9;stroke-width:.891166;stroke-dasharray:none;stroke-opacity:1" transform="translate(-1430.926 5227.743)scale(33.9288)"/>
  <path d="M162.32-23.968c3.353.248 5.673.585 8.944 1.116l-.917 6.662c-3.588-.545-5.306-.745-8.422-.983z" class="stroke-comment fill-comment stroke-comment" style="fill:#616161;fill-opacity:.696605;stroke:#616161;stroke-width:.0889131;stroke-dasharray:none;stroke-opacity:1" transform="translate(-1430.926 5227.743)scale(33.9288)"/>
  <g style="display:inline">
    <path d="M40.746 109.886c-7.915-.388-14.91-1.963-15.746-4.886v5c.424 2.826 7.572 4.455 15.71 4.885m4.038.099c2.152.007 3.53-.011 5.596-.164.683-.051 1.22-.139 2.652-2.476 1.927 2.064 1.883 1.994 2.452 1.92 5.866-.763 9.272-2.583 9.552-4.264v-5c-.215 2.05-4.083 3.45-9.62 4.239-.811.115-2.039 2.31-2.384 3.105-.522-.436-1.94-2.584-2.724-2.53a83 83 0 0 1-5.6.186" style="display:inline;fill:#ffb86e;fill-opacity:1;stroke:none;stroke-width:.264999;stroke-dasharray:none;stroke-opacity:1" transform="translate(-1145.159 -235.742)scale(46.41107)"/>
    <path d="M25 105v5c1.684-6.934 38.497-6.526 40 0v-5c-.716-6.316-38-7-40 0" class="stroke-orange fill-orange" style="display:inline;fill:#ff851b;fill-opacity:1;stroke:none;stroke-width:.264999;stroke-dasharray:none;stroke-opacity:1" transform="translate(-1145.159 -235.742)scale(46.41107)"/>
    <path d="M63.47 108.079c.986.591 1.53 1.24 1.53 1.921 0 1.804-3.822 3.385-9.552 4.264m-5.104.556a78 78 0 0 1-5.63.18m-4.03-.117C31.715 114.39 25 112.391 25 110c0-.656.505-1.283 1.424-1.857m2.445-1.099C32.509 105.804 38.379 105 45 105c6.643 0 12.53.81 16.167 2.056" class="stroke-blue fill-blue" style="display:inline;fill:none;stroke:#0074d9;stroke-width:.651487;stroke-dasharray:none;stroke-opacity:1" transform="translate(-1145.159 -235.742)scale(46.41107)"/>
    <path d="M40.776 109.888C31.76 109.404 25 107.4 25 105c0-2.761 8.954-5 20-5s20 2.239 20 5c0 1.787-3.886 3.354-9.62 4.239m-5.347.581a79 79 0 0 1-5.361.18" class="stroke-blue fill-blue" style="display:inline;fill:none;stroke:#0074d9;stroke-width:.651487;stroke-dasharray:none;stroke-opacity:1" transform="translate(-1145.159 -235.742)scale(46.41107)"/>
    <path d="M25 105v5m40-5v5" class="stroke-blue fill-blue" style="display:inline;fill:none;fill-opacity:1;stroke:#0074d9;stroke-width:.651487;stroke-dasharray:none;stroke-opacity:1" transform="translate(-1145.159 -235.742)scale(46.41107)"/>
    <path d="M28.117 102.26c2.422-.802 2.257-.693 4.59-1.15l.67 4.82c-2.027.48-1.74.35-3.985.943zm22.548-2.045c2.45.181 4.147.428 6.538.816l-.67 4.87c-2.624-.398-3.88-.544-6.158-.718z" class="stroke-comment fill-comment stroke-comment" style="fill:#616161;fill-opacity:.696605;stroke:#616161;stroke-width:.0649999;stroke-dasharray:none;stroke-opacity:1" transform="translate(-1145.159 -235.742)scale(46.41107)"/>
    <path d="M40.742 110.005c2.452.181 1.567-.255 3.958.134l.018 4.69c-.034-.006-3.99-.06-3.99-.06z" class="stroke-comment fill-comment stroke-comment" style="fill:#616161;fill-opacity:.878431;stroke:#616161;stroke-width:.0649999;stroke-dasharray:none;stroke-opacity:1" transform="translate(-1145.159 -235.742)scale(46.41107)"/>
  </g>
  <path d="M76.896-10.808c1.403-.106 1.266.778 2.634 2.146m2.652 2.652c1.368 1.368.884 1.458 2.204 1.274" class="stroke-blue fill-blue" style="fill:none;fill-opacity:1;stroke:#0074d9;stroke-width:.891166;stroke-linecap:round;stroke-dasharray:none;stroke-opacity:1" transform="translate(-1430.926 5227.743)scale(33.9288)"/>
  <g style="display:inline">
    <g style="display:inline">
      <path d="M103.883-11.255v5c1 6.664 39.39 6.671 40 0v-5c-.66 6.273-38 7-40 0" class="stroke-yellow fill-yellow" style="display:inline;fill:#ffdc00;fill-opacity:1;stroke:none;stroke-width:.264999;stroke-dasharray:none;stroke-opacity:1" transform="rotate(-90 6894.016 2665.333)scale(37.27643)"/>
      <path d="M125.68-11.256c8.924.256 17.501 1.955 18.203 5.001v-5c-.338-2.981-9.006-4.707-18.082-4.963m-5.908.05c-8.022.37-15.165 1.956-16.01 4.913v5c.714-2.944 7.864-4.581 15.852-4.972" class="stroke-yellow fill-yellow" style="display:inline;fill:#ffdc00;fill-opacity:1;stroke:none;stroke-width:.264999;stroke-dasharray:none;stroke-opacity:1" transform="rotate(-90 6894.016 2665.333)scale(37.27643)"/>
      <path d="M143.81-5.825c-.872 2.56-9.46 4.57-19.927 4.57-11.046 0-20-2.238-20-5 0-.656.505-1.282 1.424-1.856l2.445-1.1c2.846-.97 7.142-1.728 12.01-1.988m5.911-.033c5.846.14 14.336 1.187 17.303 3.764" style="display:inline;fill:none;stroke:#ff4136;stroke-width:.811135;stroke-dasharray:none;stroke-opacity:1" transform="rotate(-90 6894.016 2665.333)scale(37.27643)"/>
      <path d="M125.8-16.241c8.736.224 15.92 1.865 17.673 3.983M139.4-8.1c-3.668 1.126-9.673 1.751-15.933 1.751-5.797 0-11.019-.616-14.671-1.601m-3.513-1.464a6 6 0 0 1-.46-.322c-.61-.48-.94-.99-.94-1.519 0-2.407 6.966-4.433 16.031-4.909" style="display:inline;fill:none;stroke:#ff4136;stroke-width:.811135;stroke-dasharray:none;stroke-opacity:1" transform="rotate(-90 6894.016 2665.333)scale(37.27643)"/>
      <path d="M103.883-11.255v5" style="display:inline;fill:none;fill-opacity:1;stroke:#ff4136;stroke-width:.811135;stroke-dasharray:none;stroke-opacity:1" transform="rotate(-90 6894.016 2665.333)scale(37.27643)"/>
    </g>
    <path d="M1015.642 3183.817c117.95 64.197 214.729 245.552 265.056 496.697 38.27 190.975 43.723 445.646 13.835 646.092-27.105 181.778-86.91 357.453-157.146 461.606-51.098 75.774-120.489 127.892-180.491 135.563l-26.413 3.377 25.585-26.926c173.076-182.145 266.295-635.994 217.066-1056.808-36.137-308.9-125.841-522.862-276.63-644.158Zm-262.149 36.213c-103.811 113.062-181.028 323.15-215.932 587.494-11.968 90.644-13.822 362.565-3.069 450.055 35.374 287.795 114.87 503.578 227.766 618.24 17.982 18.263 44.368 40.472 58.637 49.353l25.943 16.147-29.587 8.787c-37.702 11.196-56.427 10.861-92.666-1.656-13.044-4.506-25.725-10.243-38.075-17.243-58.999-33.445-110.422-95.735-157.63-190.44-63.642-127.668-102.681-277.355-123.42-473.221-11.163-105.433-8.108-342.807 5.672-440.695 28.592-203.104 88.42-386.108 161.186-493.044 39.631-58.242 88.793-102.445 134.962-123.063z" class="stroke-green fill-green stroke-green" style="fill:#2ecc40;stroke:#2ecc40;stroke-width:18.8976;stroke-miterlimit:4.1;stroke-dasharray:none;stroke-opacity:1" transform="rotate(180 2278.214 3348.346)scale(.77723)"/>
    <path d="M10.288 78.44c-2.616 3.394-1.579 11.683 2.777 19.99 4.547 8.671 11.134 14.358 15.415 13.59m3.475-3.64c1.151-4.08-.177-10.967-3.794-17.865-3.558-6.785-8.365-11.742-12.338-13.21" class="stroke-comment fill-comment" style="fill:none;stroke:#616161;stroke-width:.647686;stroke-miterlimit:4.1" transform="scale(36.07208 -36.07208)rotate(27.67 455.177 171.577)"/>
    <path d="M13.437 77.848c-2.225 3.63-1.101 11.583 3.078 19.552 4.026 7.68 9.653 13.017 13.861 13.605m4.34-2.013c2.188-3.65 1.056-11.57-3.106-19.507-4.39-8.372-10.681-13.962-14.963-13.646" class="stroke-comment fill-comment" style="fill:none;stroke:#616161;stroke-width:.647686;stroke-miterlimit:4.1" transform="scale(36.07208 -36.07208)rotate(27.67 455.177 171.577)"/>
    <g style="display:inline">
      <path d="M104.09-5.636c3.21 6.039 39.203 5.839 39.793-.619v-5c-.628 5.979-34.576 6.92-39.493.935" class="stroke-yellow fill-yellow" style="display:inline;fill:#ffdc00;fill-opacity:1;stroke:none;stroke-width:.264999;stroke-dasharray:none;stroke-opacity:1" transform="rotate(-90 5487.615 1253.794)scale(37.27643)"/>
      <path d="M125.68-11.256c8.924.256 17.501 1.955 18.203 5.001v-5c-.338-2.981-9.006-4.707-18.082-4.963zm-21.455 4.364c2.202-2.648 13.647-4.717 21.454-4.364l.122-4.962c-10.913.597-19.775 1.821-21.625 4.375" class="stroke-yellow fill-yellow" style="display:inline;fill:#ffdc00;fill-opacity:1;stroke:none;stroke-width:.264999;stroke-dasharray:none;stroke-opacity:1" transform="rotate(-90 5487.615 1253.794)scale(37.27643)"/>
      <path d="M143.81-5.825c-.872 2.56-9.46 4.57-19.927 4.57-10.143 0-18.522-1.887-19.824-4.334m.512-2.046c6.25-3.006 10.316-3.537 15.19-3.564l5.912-.033c5.848-.032 15.214 1.05 17.404 3.898" style="display:inline;fill:none;stroke:#ff4136;stroke-width:.811135;stroke-dasharray:none;stroke-opacity:1" transform="rotate(-90 5487.615 1253.794)scale(37.27643)"/>
      <path d="M139.035-7.991c-3.668 1.063-9.096 1.736-15.152 1.736-6.477 0-11.825-.623-15.48-1.816m-4.309-3.963c2.903-5.21 34.797-5.763 39.38-.224" style="display:inline;fill:none;stroke:#ff4136;stroke-width:.811135;stroke-dasharray:none;stroke-opacity:1" transform="rotate(-90 5487.615 1253.794)scale(37.27643)"/>
    </g>
    <path d="M1015.642 3183.817c117.95 64.197 214.729 245.552 265.056 496.697 38.27 190.975 43.723 445.646 13.835 646.092-27.105 181.778-86.91 357.453-157.146 461.606-51.098 75.774-120.489 127.892-180.491 135.563l-26.413 3.377 25.585-26.926c173.076-182.145 266.295-635.994 217.066-1056.808-36.137-308.9-125.841-522.862-276.63-644.158m-143.011 20.77c-103.811 113.062-181.028 323.15-215.932 587.494-11.968 90.644-13.822 362.565-3.069 450.055 35.374 287.795 114.87 503.578 227.766 618.24 17.982 18.263 44.368 40.472 58.637 49.353l25.943 16.147-29.587 8.787c-37.702 11.196-56.427 10.861-92.666-1.656-75.363-26.032-138.615-93.155-195.706-207.682-63.641-127.67-102.68-277.356-123.418-473.222-11.164-105.433-8.109-342.807 5.671-440.695 28.592-203.104 88.42-386.108 161.186-493.044 39.631-58.242 88.793-102.445 134.962-123.063" class="stroke-green fill-green stroke-green" style="fill:#2ecc40;stroke:#2ecc40;stroke-width:18.8976;stroke-miterlimit:4.1;stroke-dasharray:none;stroke-opacity:1" transform="rotate(180 2280.783 1939.375)scale(.77723)"/>
    <path d="M10.288 78.44c-2.616 3.394-1.579 11.683 2.777 19.99 4.688 8.94 11.545 14.708 15.807 13.5m3.083-3.55c1.151-4.08-.177-10.967-3.794-17.865-3.558-6.785-8.365-11.742-12.338-13.21" class="stroke-comment fill-comment" style="fill:none;stroke:#616161;stroke-width:.647686;stroke-miterlimit:4.1" transform="scale(36.07208 -36.07208)rotate(27.67 296.643 210.926)"/>
    <path d="M13.437 77.848c-2.225 3.63-1.101 11.583 3.078 19.552 4.97 9.478 12.378 15.39 16.546 13.204 4.169-2.185 3.52-11.641-1.45-21.12-4.39-8.371-10.682-13.96-14.964-13.645" class="stroke-comment fill-comment" style="fill:none;stroke:#616161;stroke-width:.647686;stroke-miterlimit:4.1" transform="scale(36.07208 -36.07208)rotate(27.67 296.643 210.926)"/>
  </g>
  <path d="M84.204-11.578c-2.306.293-3.527 7.336-6.94 7.61" class="stroke-blue fill-blue" style="fill:none;fill-opacity:1;stroke:#0074d9;stroke-width:.891166;stroke-linecap:round;stroke-dasharray:none;stroke-opacity:1" transform="translate(-1430.926 5227.743)scale(33.9288)"/>
  <path d="M127.214-10.584c0-.897.691-1.754 1.948-2.54m50.675-.088c1.348.81 2.093 1.697 2.093 2.628" class="stroke-blue fill-blue" style="display:inline;fill:none;stroke:#0074d9;stroke-width:.891166;stroke-dasharray:none;stroke-opacity:1" transform="translate(-1430.926 5227.743)scale(33.9288)"/>
  <path d="M127.214-17.423v6.84m54.716-6.84v6.84" class="stroke-blue fill-blue" style="display:inline;fill:none;fill-opacity:1;stroke:#0074d9;stroke-width:.891166;stroke-dasharray:none;stroke-opacity:1" transform="translate(-1430.926 5227.743)scale(33.9288)"/>
  <path d="M131.478-21.172c3.313-1.097 3.087-.947 6.28-1.573l.916 6.595c-2.773.655-2.381.478-5.452 1.29z" class="stroke-comment fill-comment stroke-comment" style="fill:#616161;fill-opacity:.696605;stroke:#616161;stroke-width:.0889131;stroke-dasharray:none;stroke-opacity:1" transform="translate(-1430.926 5227.743)scale(33.9288)"/>
  <path d="M148.753-10.74c2.987.102 2.173.052 5.43.2l.003 6.562c-.047-.008-5.456-.081-5.456-.081z" class="stroke-comment fill-comment stroke-comment" style="fill:#616161;fill-opacity:.878431;stroke:#616161;stroke-width:.0889131;stroke-dasharray:none;stroke-opacity:1" transform="translate(-1430.926 5227.743)scale(33.9288)"/>
  <path d="M148.753-10.74c-1.934-.095-4.06-.298-5.872-.498-1.44-.158-3.366 2.044-4.517 3.124-.76-1.478-1.59-4.09-2.693-4.366-4.467-1.12-7.835-2.765-8.457-4.943v6.84c.293 1.955 2.94 3.491 6.926 4.608 1 .28 3.35-1.388 4.224-2.139.36.05 1.141 3.297 2.151 3.446 2.613.386 5.24.61 8.19.766m5.522.135c13.52.041 27.282-2.215 27.703-6.817v-6.84c-.464 4.411-14.184 6.818-27.782 6.814" style="display:inline;fill:#ffb86e;fill-opacity:1;stroke:none;stroke-width:.362491;stroke-dasharray:none;stroke-opacity:1" transform="translate(-1430.926 5227.743)scale(33.9288)"/>
  <path d="M181.93-17.423c0 3.777-12.698 6.84-27.807 6.84m-5.329-.153a93 93 0 0 1-5.988-.51m-7.153-1.237c-5.2-1.245-8.44-2.998-8.44-4.94m54.717 6.839c0 3.778-12.249 6.84-27.358 6.84h-.391" class="stroke-blue fill-blue" style="display:inline;fill:none;stroke:#0074d9;stroke-width:.891166;stroke-dasharray:none;stroke-opacity:1" transform="translate(-1430.926 5227.743)scale(33.9288)"/>
  <path d="M135.67-12.48c1.372.313 1.02 1.075 1.922 2.786" class="stroke-blue fill-blue" style="fill:none;fill-opacity:1;stroke:#0074d9;stroke-width:.891166;stroke-linecap:round;stroke-dasharray:none;stroke-opacity:1" transform="translate(-1430.926 5227.743)scale(33.9288)"/>
  <path d="M148.705-3.902a90 90 0 0 1-7.564-.722m-7.273-1.489q-.376-.108-.733-.22c-3.707-1.168-5.921-2.645-5.921-4.25" class="stroke-blue fill-blue" style="display:inline;fill:none;stroke:#0074d9;stroke-width:.891166;stroke-dasharray:none;stroke-opacity:1" transform="translate(-1430.926 5227.743)scale(33.9288)"/>
  <path d="M142.88-11.238c-2.29-.403-5.574 5.9-8.916 5.153m5.102-.662c.902 1.712.649 1.924 1.964 2.138" class="stroke-blue fill-blue" style="fill:none;fill-opacity:1;stroke:#0074d9;stroke-width:.891166;stroke-linecap:round;stroke-dasharray:none;stroke-opacity:1" transform="translate(-1430.926 5227.743)scale(33.9288)"/>
  <path d="M112.206-10.702v3.331h-10.419v2.718h10.419v3.332l8.014-4.69z" class="stroke-comment fill-comment" style="display:inline;fill:#616161;stroke:none;stroke-width:.891466;stroke-miterlimit:4.1;stroke-dasharray:none" transform="translate(-1430.926 5227.743)scale(33.9288)"/>
  <g style="display:inline">
    <path d="M103.883-11.255v5c1 6.664 39.39 6.671 40 0v-5c-.66 6.273-38 7-40 0" class="stroke-yellow fill-yellow" style="display:inline;fill:#ffdc00;fill-opacity:1;stroke:none;stroke-width:.264999;stroke-dasharray:none;stroke-opacity:1" transform="rotate(90 -39.895 365.978)scale(37.27643)"/>
    <path d="M125.68-11.256c8.924.256 17.501 1.955 18.203 5.001v-5c-.338-2.981-9.006-4.707-18.082-4.963m-5.908.05c-8.022.37-15.165 1.956-16.01 4.913v5c.714-2.944 7.864-4.581 15.852-4.972" class="stroke-yellow fill-yellow" style="display:inline;fill:#ffdc00;fill-opacity:1;stroke:none;stroke-width:.264999;stroke-dasharray:none;stroke-opacity:1" transform="rotate(90 -39.895 365.978)scale(37.27643)"/>
    <path d="M143.81-5.825c-.872 2.56-9.46 4.57-19.927 4.57-11.046 0-20-2.238-20-5 0-.656.505-1.282 1.424-1.856m2.445-1.1c2.846-.97 7.142-1.728 12.01-1.988m5.911-.033c5.846.14 11.096.909 14.377 2.033" style="display:inline;fill:none;stroke:#ff4136;stroke-width:.811135;stroke-dasharray:none;stroke-opacity:1" transform="rotate(90 -39.895 365.978)scale(37.27643)"/>
    <path d="M125.8-16.241c8.736.224 15.92 1.865 17.673 3.983m-.264 2.294c-2.277 2.136-10.067 3.71-19.326 3.71-11.046 0-20-2.24-20-5 0-2.408 6.965-4.434 16.03-4.91" style="display:inline;fill:none;stroke:#ff4136;stroke-width:.811135;stroke-dasharray:none;stroke-opacity:1" transform="rotate(90 -39.895 365.978)scale(37.27643)"/>
    <path d="M103.883-11.255v5" style="display:inline;fill:none;fill-opacity:1;stroke:#ff4136;stroke-width:.811135;stroke-dasharray:none;stroke-opacity:1" transform="rotate(90 -39.895 365.978)scale(37.27643)"/>
  </g>
  <path d="M1015.642 3183.817c117.95 64.197 214.729 245.552 265.056 496.697 38.27 190.975 43.723 445.646 13.835 646.092-27.105 181.778-86.91 357.453-157.146 461.606-51.098 75.774-120.489 127.892-180.491 135.563l-26.413 3.377 25.585-26.926c173.076-182.145 266.295-635.994 217.066-1056.808-36.137-308.9-125.841-522.862-276.63-644.158Zm-262.149 36.213c-103.811 113.062-181.028 323.15-215.932 587.494-11.968 90.644-13.822 362.565-3.069 450.055 35.374 287.795 114.87 503.578 227.766 618.24 17.982 18.263 44.368 40.472 58.637 49.353l25.943 16.147-29.587 8.787c-37.702 11.196-56.427 10.861-92.666-1.656-13.044-4.506-25.725-10.243-38.075-17.243-58.999-33.445-110.422-95.735-157.63-190.44-63.642-127.668-102.681-277.355-123.42-473.221-11.163-105.433-8.108-342.807 5.672-440.695 28.592-203.104 88.42-386.108 161.186-493.044 39.631-58.242 88.793-102.445 134.962-123.063z" class="stroke-green fill-green stroke-green" style="fill:#2ecc40;stroke:#2ecc40;stroke-width:18.8976;stroke-miterlimit:4.1;stroke-dasharray:none;stroke-opacity:1" transform="translate(-1.663 3268.53)scale(.77723)"/>
  <path d="M10.288 78.44c-2.616 3.394-1.579 11.683 2.777 19.99 4.547 8.671 11.134 14.358 15.415 13.59m3.475-3.64c1.151-4.08-.177-10.967-3.794-17.865-3.558-6.785-8.365-11.742-12.338-13.21" class="stroke-comment fill-comment" style="fill:none;stroke:#616161;stroke-width:.647686;stroke-miterlimit:4.1" transform="scale(-36.07208 36.07208)rotate(27.67 -168.842 53.345)"/>
  <path d="M13.437 77.848c-2.225 3.63-1.101 11.583 3.078 19.552 4.026 7.68 9.653 13.017 13.861 13.605m4.34-2.013c2.188-3.65 1.056-11.57-3.106-19.507-4.39-8.372-10.681-13.962-14.963-13.646" class="stroke-comment fill-comment" style="fill:none;stroke:#616161;stroke-width:.647686;stroke-miterlimit:4.1" transform="scale(-36.07208 36.07208)rotate(27.67 -168.842 53.345)"/>
  <g style="display:inline">
    <path d="M104.09-5.636c3.21 6.039 39.203 5.839 39.793-.619v-5c-.628 5.979-34.576 6.92-39.493.935" class="stroke-yellow fill-yellow" style="display:inline;fill:#ffdc00;fill-opacity:1;stroke:none;stroke-width:.264999;stroke-dasharray:none;stroke-opacity:1" transform="rotate(90 -1451.435 1772.379)scale(37.27643)"/>
    <path d="M125.68-11.256c8.924.256 17.501 1.955 18.203 5.001v-5c-.338-2.981-9.006-4.707-18.082-4.963zm-21.455 4.364c2.202-2.648 13.647-4.717 21.454-4.364l.122-4.962c-10.913.597-19.775 1.821-21.625 4.375" class="stroke-yellow fill-yellow" style="display:inline;fill:#ffdc00;fill-opacity:1;stroke:none;stroke-width:.264999;stroke-dasharray:none;stroke-opacity:1" transform="rotate(90 -1451.435 1772.379)scale(37.27643)"/>
    <path d="M143.81-5.825c-.872 2.56-9.46 4.57-19.927 4.57-10.143 0-18.522-1.887-19.824-4.334m3.693-3.622c2.846-.97 7.135-1.961 12.01-1.988l5.911-.033c5.848-.032 11.096.909 14.377 2.033" style="display:inline;fill:none;stroke:#ff4136;stroke-width:.811135;stroke-dasharray:none;stroke-opacity:1" transform="rotate(90 -1451.435 1772.379)scale(37.27643)"/>
    <path d="M143.21-9.964c-2.278 2.136-10.068 3.71-19.327 3.71-9.549 0-17.534-1.674-19.524-3.91m-.265-1.87c2.903-5.21 34.797-5.763 39.38-.224" style="display:inline;fill:none;stroke:#ff4136;stroke-width:.811135;stroke-dasharray:none;stroke-opacity:1" transform="rotate(90 -1451.435 1772.379)scale(37.27643)"/>
  </g>
  <path d="M1015.642 3183.817c117.95 64.197 214.729 245.552 265.056 496.697 38.27 190.975 43.723 445.646 13.835 646.092-27.105 181.778-86.91 357.453-157.146 461.606-51.098 75.774-120.489 127.892-180.491 135.563l-26.413 3.377 25.585-26.926c173.076-182.145 266.295-635.994 217.066-1056.808-36.137-308.9-125.841-522.862-276.63-644.158m-143.011 20.77c-103.811 113.062-181.028 323.15-215.932 587.494-11.968 90.644-13.822 362.565-3.069 450.055 35.374 287.795 114.87 503.578 227.766 618.24 17.982 18.263 44.368 40.472 58.637 49.353l25.943 16.147-29.587 8.787c-37.702 11.196-56.427 10.861-92.666-1.656-75.363-26.032-138.615-93.155-195.706-207.682-63.641-127.67-102.68-277.356-123.418-473.222-11.164-105.433-8.109-342.807 5.671-440.695 28.592-203.104 88.42-386.108 161.186-493.044 39.631-58.242 88.793-102.445 134.962-123.063" class="stroke-green fill-green stroke-green" style="fill:#2ecc40;stroke:#2ecc40;stroke-width:18.8976;stroke-miterlimit:4.1;stroke-dasharray:none;stroke-opacity:1" transform="translate(-6.802 6086.471)scale(.77723)"/>
  <path d="M10.288 78.44c-2.616 3.394-1.579 11.683 2.777 19.99 4.688 8.94 11.545 14.708 15.807 13.5m3.083-3.55c1.151-4.08-.177-10.967-3.794-17.865-3.558-6.785-8.365-11.742-12.338-13.21" class="stroke-comment fill-comment" style="fill:none;stroke:#616161;stroke-width:.647686;stroke-miterlimit:4.1" transform="scale(-36.07208 36.07208)rotate(27.67 -327.376 92.694)"/>
  <path d="M13.437 77.848c-2.225 3.63-1.101 11.583 3.078 19.552 4.97 9.478 12.378 15.39 16.546 13.204 4.169-2.185 3.52-11.641-1.45-21.12-4.39-8.371-10.682-13.96-14.964-13.645" class="stroke-comment fill-comment" style="fill:none;stroke:#616161;stroke-width:.647686;stroke-miterlimit:4.1" transform="scale(-36.07208 36.07208)rotate(27.67 -327.376 92.694)"/>
</svg>
