<!-- Created with Inkscape (http://www.inkscape.org/) -->
<svg xmlns:inkscape="http://www.inkscape.org/namespaces/inkscape" xmlns:sodipodi="http://sodipodi.sourceforge.net/DTD/sodipodi-0.dtd" xmlns="http://www.w3.org/2000/svg" xmlns:svg="http://www.w3.org/2000/svg" viewBox="0 0 21.079151 7.7445779" version="1.1" id="svg1" inkscape:version="1.3.2 (091e20ef0f, 2023-11-25)" sodipodi:docname="arbor_band_with_twist_2.svg" xml:space="preserve">
  <sodipodi:namedview id="namedview1" pagecolor="#282a36" bordercolor="#000000" borderopacity="0.25" inkscape:showpageshadow="2" inkscape:pageopacity="0.0" inkscape:pagecheckerboard="0" inkscape:deskcolor="#44475a" inkscape:document-units="mm" showgrid="true" inkscape:zoom="5.6568542" inkscape:cx="-29.96365" inkscape:cy="-22.273864" inkscape:window-width="1920" inkscape:window-height="1126" inkscape:window-x="0" inkscape:window-y="0" inkscape:window-maximized="1" inkscape:current-layer="layer1-1">
    <inkscape:grid id="grid1" units="mm" originx="-122.38616" originy="-59.474154" spacingx="0.99999998" spacingy="1" empcolor="#0099e5" empopacity="0.30196078" color="#0099e5" opacity="0.14901961" empspacing="5" dotted="false" gridanglex="30" gridanglez="30" visible="true"/>
  </sodipodi:namedview>
  <defs id="defs1"/>
  <g inkscape:label="Layer 1" inkscape:groupmode="layer" id="layer1" transform="translate(-122.38616,-59.474156)">
    <g inkscape:label="Layer 1" id="layer1-1" transform="translate(43.204441,-15.052344)" style="display:inline">
      <g id="g7-7-9-4-10" inkscape:label="band_3" style="display:inline" transform="matrix(0.52269456,0.00545807,-0.00654738,0.52010179,66.903881,22.326717)">
        <path style="display:inline;fill:#ffb86c;fill-opacity:0.333333;stroke:none;stroke-width:0.264999;stroke-dasharray:none;stroke-opacity:1" d="m 50.375411,105.15511 c 7.557169,0.54733 14.013201,2.18977 14.62459,4.84489 v -5 c -0.3084,-2.72229 -7.41019,-4.3983 -15.552181,-4.86375 m -7.373294,-0.0903 C 33.628994,100.31979 25.882162,101.91243 25,105 v 5 c 0.781215,-3.21737 9.125262,-4.85408 17.995981,-5.03241" id="path10-4-0-8-8" sodipodi:nodetypes="cccccccc"/>
        <path style="display:inline;fill:#ffb86c;fill-opacity:0.333333;stroke:none;stroke-width:0.264999;stroke-dasharray:none;stroke-opacity:1" d="m 25,105 v 5 c 0.382298,2.54752 6.229264,4.12221 13.340823,4.72283 0.74209,0.0627 1.975692,-1.34788 2.637985,-2.73085 0.613382,-1.28083 1.813827,-2.32955 2.333211,-2.39952 0.877348,-0.11819 0.995786,0.94241 2.666789,2.39952 0.743562,0.64838 1.37439,2.13079 2.248084,2.52495 0.895756,0.40412 2.527857,-2.19284 2.717625,-2.48208 0.609278,-0.92863 1.244608,-2.30611 2.469534,-2.49754 C 58.118704,108.80209 65,107.61722 64.978808,104.99198 L 64.999999,110 c -0.101215,1.90687 -6.814662,4.82192 -11.555481,4.53486 -0.842056,-0.051 -1.755696,-1.73411 -2.500001,-2.50001 -1.748723,-1.79944 -1.835421,-2.64154 -2.710497,-2.44239 -0.950529,0.21633 -1.672519,1.14395 -2.255212,2.39952 -0.401789,0.86577 -1.821018,2.70951 -2.703863,2.53231 -1.089235,-0.21863 -1.296137,-1.79784 -2.296137,-2.53231 -0.695724,-0.51099 -1.675461,-2.1861 -2.483505,-2.25094 C 31.544048,109.18324 25.754852,107.64198 25,105 Z" id="path8-4-5-1-5" sodipodi:nodetypes="ccsssssssccsssssssc"/>
        <path style="display:inline;fill:none;stroke:#ffb86c;stroke-width:0.264999;stroke-opacity:1" d="M 38.381192,114.7197 C 30.588253,114.0367 25.000001,112.1815 25,110 c 0,-0.65601 0.505348,-1.28252 1.424032,-1.85651" id="path14-2-06"/>
        <path style="display:inline;fill:none;stroke:#ffb86c;stroke-width:0.264999;stroke-opacity:1" d="M 63.46998,108.0786 C 64.45571,108.67014 65,109.31918 65,110 c -10e-7,2.0087 -4.738035,3.74075 -11.572558,4.53576" id="path9-3-4-9-46"/>
        <path style="display:inline;fill:none;stroke:#ffb86c;stroke-width:0.264999;stroke-opacity:1" d="m 28.86897,107.04361 c 3.265696,-1.11179 8.326174,-1.87358 14.113904,-2.0185 m 7.452906,0.16177 c 4.365576,0.30753 8.125619,0.97628 10.731249,1.86902" id="path4-9-0-8-3-2" sodipodi:nodetypes="cccc"/>
        <path style="display:inline;fill:none;stroke:#ffb86c;stroke-width:0.264999;stroke-opacity:1" d="m 38.44163,109.72496 c -7.824467,-0.67869 -13.441631,-2.53784 -13.441626,-4.72497 6e-6,-2.50528 7.370194,-4.58021 16.985749,-4.94359" id="path12-9-5" sodipodi:nodetypes="csc"/>
        <path style="display:inline;fill:none;stroke:#ffb86c;stroke-width:0.264999;stroke-opacity:1" d="m 49.5735,100.13132 c 8.841711,0.51709 15.426504,2.50064 15.426504,4.86867 v 0 c 10e-7,2.01001 -4.744226,3.74301 -11.585953,4.53732" id="path4-7-7-0-8" sodipodi:nodetypes="cssc"/>
        <path style="display:inline;fill:none;fill-opacity:1;stroke:#ffb86c;stroke-width:0.264999;stroke-dasharray:none;stroke-opacity:1" d="m 25,105 v 5" id="path6-8-1-8-62"/>
        <path style="display:inline;fill:none;fill-opacity:1;stroke:#ffb86c;stroke-width:0.264999;stroke-dasharray:none;stroke-opacity:1" d="m 65.000001,105 -2e-6,5" id="path7-6-7-8-8"/>
        <g id="g22-2-5-4" inkscape:label="Crossing" transform="translate(13.444517,-35.465137)">
          <path style="fill:none;fill-opacity:1;stroke:#ffb86c;stroke-width:0.264999;stroke-linecap:round;stroke-dasharray:none;stroke-opacity:1" d="m 24.997113,145.1901 c 1,0 1.002888,0.8099 2.002888,1.8099" id="path20-6-0-7" sodipodi:nodetypes="cc"/>
          <path style="fill:none;fill-opacity:1;stroke:#ffb86c;stroke-width:0.264999;stroke-linecap:round;stroke-dasharray:none;stroke-opacity:1" d="M 27.999999,147.99999 C 29.000001,149 29.000001,150 30.000001,150" id="path21-1-9-2" sodipodi:nodetypes="cc"/>
          <path style="fill:none;fill-opacity:1;stroke:#ffb86c;stroke-width:0.264999;stroke-linecap:round;stroke-dasharray:none;stroke-opacity:1" d="m 30,144.99999 c -1.999999,1e-5 -3.063324,5.18486 -5.063325,5.18485" id="path22-0-6-4" sodipodi:nodetypes="cc"/>
        </g>
        <g id="g22-1-3-0" inkscape:label="Crossing" transform="translate(23.444517,-35.465137)">
          <path style="fill:none;fill-opacity:1;stroke:#ffb86c;stroke-width:0.264999;stroke-linecap:round;stroke-dasharray:none;stroke-opacity:1" d="m 25.000001,145 c 1,0 1,1 2,2" id="path20-1-8-62" sodipodi:nodetypes="cc"/>
          <path style="fill:none;fill-opacity:1;stroke:#ffb86c;stroke-width:0.264999;stroke-linecap:round;stroke-dasharray:none;stroke-opacity:1" d="M 27.999999,147.99999 C 29.000001,149 29.000001,150 30.000001,150" id="path21-5-5-9" sodipodi:nodetypes="cc"/>
          <path style="fill:none;fill-opacity:1;stroke:#ffb86c;stroke-width:0.264999;stroke-linecap:round;stroke-dasharray:none;stroke-opacity:1" d="m 30,144.99999 c -1.999999,1e-5 -2.999999,5.00001 -5,5" id="path22-9-6-9" sodipodi:nodetypes="cc"/>
        </g>
        <g id="g22-7-1-0" inkscape:label="Crossing" transform="translate(18.444518,-35.465127)">
          <path style="fill:none;fill-opacity:1;stroke:#ffb86c;stroke-width:0.264999;stroke-linecap:round;stroke-dasharray:none;stroke-opacity:1" d="m 25.000001,145 c 1,0 1,1 2,2" id="path20-3-1-81" sodipodi:nodetypes="cc"/>
          <path style="fill:none;fill-opacity:1;stroke:#ffb86c;stroke-width:0.264999;stroke-linecap:round;stroke-dasharray:none;stroke-opacity:1" d="M 27.999999,147.99999 C 29.000001,149 29.000001,150 30.000001,150" id="path21-6-5-3" sodipodi:nodetypes="cc"/>
          <path style="fill:none;fill-opacity:1;stroke:#ffb86c;stroke-width:0.264999;stroke-linecap:round;stroke-dasharray:none;stroke-opacity:1" d="m 30,144.99999 c -1.999999,1e-5 -2.999999,5.00001 -5,5" id="path22-5-9-1" sodipodi:nodetypes="cc"/>
        </g>
      </g>
    </g>
  </g>
</svg>
