<!-- Created with Inkscape (http://www.inkscape.org/) -->
<svg xmlns:inkscape="http://www.inkscape.org/namespaces/inkscape" xmlns:sodipodi="http://sodipodi.sourceforge.net/DTD/sodipodi-0.dtd" xmlns="http://www.w3.org/2000/svg" xmlns:svg="http://www.w3.org/2000/svg" viewBox="0 0 66.969396 99.993003" version="1.1" id="svg1" inkscape:version="1.3.2 (091e20ef0f, 2023-11-25)" sodipodi:docname="watt_rooted.svg">
  <sodipodi:namedview id="namedview1" pagecolor="#282a36" bordercolor="#000000" borderopacity="0.25" inkscape:showpageshadow="2" inkscape:pageopacity="0.0" inkscape:pagecheckerboard="0" inkscape:deskcolor="#44475a" inkscape:document-units="mm" showgrid="true" inkscape:zoom="4.8556769" inkscape:cx="-29.553037" inkscape:cy="68.579522" inkscape:window-width="1920" inkscape:window-height="1126" inkscape:window-x="0" inkscape:window-y="0" inkscape:window-maximized="1" inkscape:current-layer="layer1">
    <inkscape:grid id="grid1" units="mm" originx="-17.052969" originy="-119.33049" spacingx="0.99999998" spacingy="1" empcolor="#0099e5" empopacity="0.30196078" color="#0099e5" opacity="0.14901961" empspacing="5" dotted="false" gridanglex="30" gridanglez="30" visible="true"/>
  </sodipodi:namedview>
  <defs id="defs1"/>
  <g inkscape:label="Layer 1" inkscape:groupmode="layer" id="layer1" transform="translate(-17.05297,-119.33049)">
    <path style="display:inline;fill:none;stroke:#f8f8f2;stroke-width:1.065;stroke-dasharray:none;stroke-opacity:1" d="m 25,150 10,-15 m 0,0 10,15" id="path1-2" sodipodi:nodetypes="cccc"/>
    <path d="m 22.52251,148.42484 q 0.224792,0.0481 0.350366,0.19998 Q 23,148.77675 23,149 q 0,0.34261 -0.235644,0.5302 -0.235645,0.18758 -0.669727,0.18758 -0.145728,0 -0.300757,-0.0295 -0.153479,-0.0279 -0.31781,-0.0853 v -0.30231 q 0.130225,0.076 0.285254,0.11472 0.155029,0.0388 0.324011,0.0388 0.294556,0 0.448035,-0.11627 0.155029,-0.11627 0.155029,-0.33796 0,-0.20464 -0.144177,-0.31936 -0.142627,-0.11628 -0.398425,-0.11628 h -0.269751 v -0.25735 h 0.282153 q 0.230994,0 0.353467,-0.0915 0.122473,-0.093 0.122473,-0.26665 0,-0.17829 -0.127124,-0.27285 -0.125574,-0.0961 -0.361218,-0.0961 -0.128675,0 -0.275952,0.0279 -0.147278,0.0279 -0.324012,0.0868 v -0.27905 q 0.178284,-0.0496 0.333313,-0.0744 0.15658,-0.0248 0.294556,-0.0248 0.356567,0 0.564307,0.16278 0.207739,0.16123 0.207739,0.43718 0,0.19224 -0.110071,0.32556 -0.110071,0.13178 -0.313159,0.18294 z" id="text3-61" style="font-size:3.175px;display:inline;fill:#f8f8f2;stroke:#f8f8f2;stroke-width:0.265" aria-label="3"/>
    <path d="m 33.012403,133.77815 h 1.092957 v 0.26355 h -1.469678 v -0.26355 q 0.178284,-0.18449 0.485242,-0.49455 0.308508,-0.3116 0.387573,-0.40152 0.150378,-0.16898 0.20929,-0.28526 0.06046,-0.11782 0.06046,-0.23099 0,-0.18448 -0.130225,-0.30076 -0.128674,-0.11627 -0.336413,-0.11627 -0.147278,0 -0.311609,0.0512 -0.162781,0.0512 -0.348816,0.15503 v -0.31626 q 0.189136,-0.076 0.353467,-0.11472 0.164331,-0.0388 0.300757,-0.0388 0.359668,0 0.573608,0.17984 0.21394,0.17983 0.21394,0.48059 0,0.14262 -0.05426,0.2713 -0.05271,0.12712 -0.193786,0.30076 -0.03876,0.045 -0.246497,0.26044 -0.207739,0.21394 -0.58601,0.59997 z" id="text3-1-1" style="font-size:3.175px;display:inline;fill:#f8f8f2;stroke:#f8f8f2;stroke-width:0.265" aria-label="2"/>
    <path d="m 72.095887,135.38431 h 1.092957 v 0.26355 h -1.469678 v -0.26355 q 0.178284,-0.18449 0.485242,-0.49455 0.308508,-0.3116 0.387573,-0.40152 0.150378,-0.16898 0.20929,-0.28526 0.06046,-0.11782 0.06046,-0.23099 0,-0.18448 -0.130225,-0.30076 -0.128674,-0.11627 -0.336413,-0.11627 -0.147278,0 -0.311609,0.0512 -0.162781,0.0512 -0.348816,0.15503 v -0.31626 q 0.189136,-0.076 0.353467,-0.11472 0.164331,-0.0388 0.300757,-0.0388 0.359668,0 0.573608,0.17984 0.21394,0.17983 0.21394,0.48059 0,0.14262 -0.05426,0.2713 -0.05271,0.12712 -0.193786,0.30076 -0.03876,0.045 -0.246497,0.26044 -0.207739,0.21394 -0.58601,0.59997 z" id="text3-1-1-1" style="font-size:3.175px;display:inline;fill:#f8f8f2;stroke:#f8f8f2;stroke-width:0.265" aria-label="2"/>
    <path d="m 47.14895,148.9582 h 0.835608 v 0.25425 H 47.14895 Z m 2.278931,-0.25115 q 0.224792,0.0481 0.350366,0.19999 0.127124,0.15193 0.127124,0.37517 0,0.34262 -0.235645,0.5302 Q 49.434082,150 49,150 q -0.145728,0 -0.300757,-0.0295 -0.153479,-0.0279 -0.31781,-0.0853 v -0.30231 q 0.130224,0.076 0.285254,0.11472 0.155029,0.0388 0.324011,0.0388 0.294556,0 0.448035,-0.11627 0.155029,-0.11627 0.155029,-0.33797 0,-0.20464 -0.144177,-0.31936 -0.142627,-0.11627 -0.398426,-0.11627 h -0.269751 v -0.25735 h 0.282154 q 0.230993,0 0.353467,-0.0915 0.122473,-0.093 0.122473,-0.26666 0,-0.17828 -0.127124,-0.27285 -0.125574,-0.0961 -0.361219,-0.0961 -0.128674,0 -0.275952,0.0279 -0.147278,0.0279 -0.324011,0.0868 v -0.27906 q 0.178284,-0.0496 0.333313,-0.0744 0.15658,-0.0248 0.294556,-0.0248 0.356567,0 0.564306,0.16278 0.20774,0.16123 0.20774,0.43718 0,0.19224 -0.110071,0.32556 -0.110071,0.13178 -0.313159,0.18293 z" id="text3-3-9" style="font-size:3.175px;display:inline;fill:#f8f8f2;stroke:#f8f8f2;stroke-width:0.265" aria-label="-3"/>
    <path d="m 61.24358,151.67599 h 0.835608 v 0.25425 H 61.24358 Z" id="text3-3-9-4" style="font-size:3.175px;display:inline;fill:#f8f8f2;stroke:#f8f8f2;stroke-width:0.265" aria-label="-3" sodipodi:nodetypes="ccccc"/>
    <path id="path5-19-9" style="display:inline;fill:#f8f8f2;stroke-width:0.0762529" d="m 25.546176,148.84418 a 1.1647059,1.1805601 26.087256 0 1 0.526913,1.57246 1.1647059,1.1805601 26.087256 0 1 -1.565191,0.54812 1.1647059,1.1805601 26.087256 0 1 -0.526913,-1.57246 1.1647059,1.1805601 26.087256 0 1 1.565191,-0.54812 z"/>
    <path id="path5-19-4-0" style="display:inline;fill:#f8f8f2;stroke-width:0.0762529" d="M 36.18056,134.98822 A 1.1805601,1.1647059 0 0 1 35,136.15293 1.1805601,1.1647059 0 0 1 33.81944,134.98822 1.1805601,1.1647059 0 0 1 35,133.82351 a 1.1805601,1.1647059 0 0 1 1.18056,1.16471 z"/>
    <path id="path5-19-6-9" style="display:inline;fill:#f8f8f2;stroke-width:0.0762529" d="M 45.473092,148.8342 A 1.1647059,1.1805601 26.087256 0 1 46,150.40665 a 1.1647059,1.1805601 26.087256 0 1 -1.565185,0.54813 1.1647059,1.1805601 26.087256 0 1 -0.526917,-1.57246 1.1647059,1.1805601 26.087256 0 1 1.565194,-0.54812 z"/>
    <path style="display:inline;fill:none;stroke:#f8f8f2;stroke-width:1.065;stroke-dasharray:none;stroke-opacity:1" d="M 35,135 51,124" id="path2-1" sodipodi:nodetypes="cc"/>
    <path style="fill:none;stroke:#f8f8f2;stroke-width:1.06583;stroke-linejoin:round;stroke-miterlimit:4.1;stroke-dasharray:none" d="m 54.000001,124 15.905536,10.60165" id="path6-1" sodipodi:nodetypes="cc"/>
    <path id="path5-19-3-4-2" style="display:inline;fill:#f8f8f2;stroke-width:0.0762529" d="m 69.501766,135.71101 a 1.1647059,1.1805601 20 0 1 -0.690695,-1.50771 1.1647059,1.1805601 20 0 1 1.498245,-0.71101 1.1647059,1.1805601 20 0 1 0.690685,1.50771 1.1647059,1.1805601 20 0 1 -1.498235,0.71101 z"/>
    <path style="fill:none;stroke:#f8f8f2;stroke-width:1.06583;stroke-linejoin:round;stroke-miterlimit:4.1;stroke-dasharray:none" d="M 69.905537,134.60165 60.000001,150 m -0.118186,-0.15889" id="path6-1-2" sodipodi:nodetypes="cc"/>
    <path id="path5-19-3-4-2-2" style="display:inline;fill:#f8f8f2;stroke-width:0.0762529" d="m 59.690696,151.04552 a 1.1647059,1.1805601 20 0 1 -0.690695,-1.50771 1.1647059,1.1805601 20 0 1 1.498245,-0.71101 1.1647059,1.1805601 20 0 1 0.690685,1.50771 1.1647059,1.1805601 20 0 1 -1.498235,0.71101 z"/>
    <path id="path5-19-7-9-1" style="display:inline;fill:none;stroke:#ff5555;stroke-width:0.982677" d="m 55.084612,122.19662 a 2.3800533,2.3747916 0 0 1 -2.380053,2.37479 2.3800533,2.3747916 0 0 1 -2.380053,-2.37479 2.3800533,2.3747916 0 0 1 2.380053,-2.37479 2.3800533,2.3747916 0 0 1 2.380053,2.37479 z"/>
    <path d="m 52.178346,123 h 0.511596 v -1.76578 l -0.556555,0.11162 v -0.28525 l 0.553455,-0.11162 h 0.313159 V 123 h 0.511596 v 0.26355 h -1.333251 z" id="text3-1-6-3" style="font-size:3.175px;display:inline;fill:#ff5555;stroke:#ff5555;stroke-width:0.265" aria-label="1"/>
    <g id="g2" transform="translate(-19.844971,33.02933)">
      <g id="g1" transform="translate(-0.92410834,-17.953691)">
        <path d="m 70.257483,153.69014 h 0.511597 v -1.76578 l -0.556556,0.11162 v -0.28526 l 0.553455,-0.11162 h 0.313159 v 2.05104 h 0.511597 v 0.26355 h -1.333252 z" id="text3-1-6" style="font-size:3.175px;fill:#f8f8f2;stroke:#f8f8f2;stroke-width:0.265" aria-label="1"/>
        <path id="path5-19-7-9-5" style="fill:none;stroke:#f8f8f2;stroke-width:0.982677" d="m 73.211154,152.77547 a 2.3800533,2.3747916 0 0 1 -2.380054,2.37479 2.3800533,2.3747916 0 0 1 -2.380053,-2.37479 2.3800533,2.3747916 0 0 1 2.380053,-2.37479 2.3800533,2.3747916 0 0 1 2.380054,2.37479 z"/>
      </g>
      <path d="m 47.781133,167.41876 q -0.241846,0 -0.364319,0.23875 -0.120923,0.23719 -0.120923,0.71468 0,0.47594 0.120923,0.71469 0.122473,0.23719 0.364319,0.23719 0.243396,0 0.364319,-0.23719 0.122473,-0.23875 0.122473,-0.71469 0,-0.47749 -0.122473,-0.71468 -0.120923,-0.23875 -0.364319,-0.23875 z m 0,-0.24804 q 0.389123,0 0.593762,0.3085 0.206189,0.30696 0.206189,0.89297 0,0.58446 -0.206189,0.89297 -0.204639,0.30696 -0.593762,0.30696 -0.389124,0 -0.595313,-0.30696 -0.204638,-0.30851 -0.204638,-0.89297 0,-0.58601 0.204638,-0.89297 0.206189,-0.3085 0.595313,-0.3085 z" id="text3-6-7" style="font-size:3.175px;fill:#f8f8f2;stroke:#f8f8f2;stroke-width:0.265" aria-label="0"/>
      <path d="m 62.688396,183.50396 -0.790649,1.23559 h 0.790649 z m -0.08217,-0.27285 h 0.393775 v 1.50844 h 0.330212 V 185 h -0.330212 v 0.5457 H 62.688392 V 185 h -1.044897 v -0.30231 z" id="text3-2-7" style="font-size:3.175px;fill:#f8f8f2;stroke:#f8f8f2;stroke-width:0.265" aria-label="4"/>
      <path d="m 38.076889,184.86871 q 0.224792,0.0481 0.350366,0.19999 0.127124,0.15193 0.127124,0.37517 0,0.34262 -0.235644,0.5302 -0.235645,0.18759 -0.669727,0.18759 -0.145727,0 -0.300757,-0.0295 -0.153479,-0.0279 -0.31781,-0.0853 v -0.30231 q 0.130225,0.076 0.285254,0.11472 0.155029,0.0388 0.324011,0.0388 0.294556,0 0.448035,-0.11627 0.155029,-0.11628 0.155029,-0.33797 0,-0.20464 -0.144177,-0.31936 -0.142627,-0.11627 -0.398425,-0.11627 h -0.269751 v -0.25735 h 0.282153 q 0.230994,0 0.353467,-0.0915 0.122473,-0.093 0.122473,-0.26665 0,-0.17828 -0.127124,-0.27285 -0.125574,-0.0961 -0.361218,-0.0961 -0.128675,0 -0.275952,0.0279 -0.147278,0.0279 -0.324012,0.0868 v -0.27906 q 0.178284,-0.0496 0.333313,-0.0744 0.15658,-0.0248 0.294556,-0.0248 0.356567,0 0.564307,0.16279 0.207739,0.16123 0.207739,0.43718 0,0.19223 -0.110071,0.32556 -0.110071,0.13177 -0.313159,0.18293 z" id="text3-5-6" style="font-size:3.175px;fill:#f8f8f2;stroke:#f8f8f2;stroke-width:0.265" aria-label="3"/>
      <path style="fill:none;stroke:#f8f8f2;stroke-width:1.06583;stroke-dasharray:none;stroke-opacity:1" d="M 67.835182,136.1325 50,170 60.000001,185" id="path4-3" sodipodi:nodetypes="ccc"/>
      <path style="fill:none;stroke:#f8f8f2;stroke-width:1.065;stroke-dasharray:none;stroke-opacity:1" d="M 50,170 40,185" id="path3-9" sodipodi:nodetypes="cc"/>
      <path style="fill:none;stroke:#f8f8f2;stroke-width:1.065;stroke-dasharray:none;stroke-opacity:1" d="M 69.977521,150.1325 70.000001,137" id="path3-9-3" sodipodi:nodetypes="cc"/>
      <path id="path5-19-3-4" style="fill:#f8f8f2;stroke-width:0.0762529" d="M 49.690695,171.10215 A 1.1647059,1.1805601 20 0 1 49,169.59444 a 1.1647059,1.1805601 20 0 1 1.498245,-0.71101 1.1647059,1.1805601 20 0 1 0.690685,1.50771 1.1647059,1.1805601 20 0 1 -1.498235,0.71101 z"/>
      <path id="path5-19-1-8" style="fill:#f8f8f2;stroke-width:0.0762529" d="m 39.742926,185.89356 a 1.1647059,1.1805601 20 0 1 -0.690691,-1.50772 1.1647059,1.1805601 20 0 1 1.498241,-0.71101 1.1647059,1.1805601 20 0 1 0.690694,1.50772 1.1647059,1.1805601 20 0 1 -1.498244,0.71101 z"/>
      <path id="path5-19-7-1" style="fill:#f8f8f2;stroke-width:0.0762529" d="m 59.606581,185.89356 a 1.1647059,1.1805601 20 0 1 -0.690694,-1.50771 1.1647059,1.1805601 20 0 1 1.498245,-0.71101 1.1647059,1.1805601 20 0 1 0.690684,1.50771 1.1647059,1.1805601 20 0 1 -1.498235,0.71101 z"/>
      <path d="m 89.333375,174.73645 h 0.511596 v -1.76578 l -0.556555,0.11162 v -0.28526 l 0.553455,-0.11162 h 0.313159 v 2.05104 h 0.511596 V 175 h -1.333251 z" id="text9-6" style="font-size:3.175px;fill:#f8f8f2;stroke:#f8f8f2;stroke-width:0.265" aria-label="1"/>
      <path d="m 102.64189,185.73645 h 1.09295 V 186 h -1.46967 v -0.26355 q 0.17828,-0.18448 0.48524,-0.49454 0.30851,-0.31161 0.38757,-0.40153 0.15038,-0.16898 0.20929,-0.28525 0.0605,-0.11782 0.0605,-0.23099 0,-0.18449 -0.13022,-0.30076 -0.12868,-0.11627 -0.33642,-0.11627 -0.14727,0 -0.31161,0.0512 -0.16278,0.0512 -0.34881,0.15503 v -0.31626 q 0.18913,-0.076 0.35347,-0.11472 0.16433,-0.0388 0.30075,-0.0388 0.35967,0 0.57361,0.17983 0.21394,0.17984 0.21394,0.48059 0,0.14263 -0.0543,0.2713 -0.0527,0.12713 -0.19379,0.30076 -0.0388,0.045 -0.24649,0.26045 -0.20774,0.21394 -0.58601,0.59996 z" id="text10-0" style="font-size:3.175px;fill:#f8f8f2;stroke:#f8f8f2;stroke-width:0.265" aria-label="2"/>
      <path d="m 76.700796,185.82935 h 1.092956 v 0.26355 h -1.469677 v -0.26355 q 0.178283,-0.18449 0.485241,-0.49455 0.308509,-0.31161 0.387573,-0.40152 0.150379,-0.16898 0.20929,-0.28526 0.06046,-0.11782 0.06046,-0.23099 0,-0.18449 -0.130224,-0.30076 Q 77.20774,184 77.000001,184 q -0.147278,0 -0.311609,0.0512 -0.16278,0.0512 -0.348816,0.15503 v -0.31626 q 0.189136,-0.076 0.353467,-0.11472 0.164331,-0.0388 0.300757,-0.0388 0.359668,0 0.573608,0.17984 0.213941,0.17983 0.213941,0.48059 0,0.14262 -0.05426,0.2713 -0.05271,0.12712 -0.193787,0.30075 -0.03876,0.045 -0.246497,0.26045 -0.207739,0.21394 -0.58601,0.59997 z" id="text11-3" style="font-size:3.175px;fill:#f8f8f2;stroke:#f8f8f2;stroke-width:0.265" inkscape:transform-center-x="-18.562382" inkscape:transform-center-y="10.075305" aria-label="2"/>
      <path d="m 70.000001,153 q -0.223243,0 -0.351917,0.11938 -0.127124,0.11937 -0.127124,0.32866 0,0.20929 0.127124,0.32866 0.128674,0.11937 0.351917,0.11937 0.223242,0 0.351916,-0.11937 0.128674,-0.12092 0.128674,-0.32866 0,-0.20929 -0.128674,-0.32866 Q 70.224793,153 70.000001,153 Z m -0.31316,-0.13332 q -0.201538,-0.0496 -0.314709,-0.18759 -0.111621,-0.13797 -0.111621,-0.33641 0,-0.2775 0.196887,-0.43873 0.198438,-0.16123 0.542603,-0.16123 0.345715,0 0.542602,0.16123 0.196887,0.16123 0.196887,0.43873 0,0.19844 -0.113171,0.33641 -0.111621,0.13798 -0.311609,0.18759 0.226343,0.0527 0.351917,0.20619 0.127124,0.15348 0.127124,0.37517 0,0.33641 -0.206189,0.51625 -0.204639,0.17983 -0.587561,0.17983 -0.382923,0 -0.589112,-0.17983 -0.204638,-0.17984 -0.204638,-0.51625 0,-0.22169 0.127124,-0.37517 0.127124,-0.15348 0.353466,-0.20619 z m -0.114721,-0.49454 q 0,0.17983 0.111621,0.2806 0.113171,0.10077 0.31626,0.10077 0.201538,0 0.314709,-0.10077 0.114722,-0.10077 0.114722,-0.2806 0,-0.17984 -0.114722,-0.28061 -0.113171,-0.10077 -0.314709,-0.10077 -0.203089,0 -0.31626,0.10077 -0.111621,0.10077 -0.111621,0.28061 z" id="text11-3-3" style="font-size:3.175px;fill:#f8f8f2;stroke:#f8f8f2;stroke-width:0.265" inkscape:transform-center-x="-18.562382" inkscape:transform-center-y="10.075305" aria-label="8"/>
      <path style="fill:none;stroke:#f8f8f2;stroke-width:1.06583;stroke-dasharray:none;stroke-opacity:1" d="m 72.000001,136 18,34 L 100,185" id="path11-6" sodipodi:nodetypes="ccc"/>
      <path style="fill:none;stroke:#f8f8f2;stroke-width:1.065;stroke-dasharray:none;stroke-opacity:1" d="m 90.000001,170 -10,15" id="path12-1" sodipodi:nodetypes="cc"/>
      <path id="ellipse12-5" style="fill:#f8f8f2;stroke-width:0.0762529" d="m 91.000001,170.72164 a 1.1805601,1.1647059 33.033237 0 1 -1.624639,0.33288 1.1805601,1.1647059 33.033237 0 1 -0.354817,-1.61999 1.1805601,1.1647059 33.033237 0 1 1.624639,-0.33288 1.1805601,1.1647059 33.033237 0 1 0.354817,1.61999 z"/>
      <path id="ellipse13-5" style="fill:#f8f8f2;stroke-width:0.0762529" d="m 80.982006,185.6792 a 1.1805601,1.1647059 33.033237 0 1 -1.624641,0.33289 1.1805601,1.1647059 33.033237 0 1 -0.354815,-1.61999 1.1805601,1.1647059 33.033237 0 1 1.624635,-0.33288 1.1805601,1.1647059 33.033237 0 1 0.354821,1.61998 z"/>
      <path id="ellipse13-5-1" style="fill:#f8f8f2;stroke-width:0.0762529" d="m 70.978491,150.77696 a 1.1805601,1.1647059 33.033237 0 1 -1.62464,0.33289 1.1805601,1.1647059 33.033237 0 1 -0.354815,-1.62 1.1805601,1.1647059 33.033237 0 1 1.624635,-0.33287 1.1805601,1.1647059 33.033237 0 1 0.35482,1.61998 z"/>
      <path id="ellipse14-4" style="fill:#f8f8f2;stroke-width:0.0762529" d="m 101.00357,185.61998 a 1.1805601,1.1647059 33.033237 0 1 -1.624643,0.33289 1.1805601,1.1647059 33.033237 0 1 -0.354816,-1.61999 1.1805601,1.1647059 33.033237 0 1 1.624639,-0.33288 1.1805601,1.1647059 33.033237 0 1 0.35482,1.61998 z"/>
    </g>
    <path style="fill:none;stroke:#f8f8f2;stroke-width:1.06583;stroke-linejoin:round;stroke-miterlimit:4.1;stroke-dasharray:none" d="M 69.905537,134.60165 60.000001,150 m -0.118186,-0.15889" id="path2" sodipodi:nodetypes="cc"/>
    <path style="fill:none;stroke:#f8f8f2;stroke-width:1.06583;stroke-linejoin:round;stroke-miterlimit:4.1;stroke-dasharray:none" d="m 60.000001,150 -9.905536,15.39835 m -0.118186,-0.15889" id="path3" sodipodi:nodetypes="cc"/>
    <path d="m 62.904371,152.71779 h 1.092957 v 0.26355 H 62.52765 v -0.26355 q 0.178284,-0.18449 0.485242,-0.49455 0.308508,-0.3116 0.387573,-0.40152 0.150378,-0.16898 0.20929,-0.28526 0.06046,-0.11782 0.06046,-0.23099 0,-0.18448 -0.130225,-0.30076 -0.128674,-0.11627 -0.336413,-0.11627 -0.147278,0 -0.311609,0.0512 -0.162781,0.0512 -0.348816,0.15503 v -0.31626 q 0.189136,-0.076 0.353467,-0.11472 0.164331,-0.0388 0.300757,-0.0388 0.359668,0 0.573608,0.17984 0.21394,0.17983 0.21394,0.48059 0,0.14262 -0.05426,0.2713 -0.05271,0.12712 -0.193786,0.30076 -0.03876,0.045 -0.246497,0.26044 -0.207739,0.21394 -0.58601,0.59997 z" id="path4" style="font-size:3.175px;display:inline;fill:#f8f8f2;stroke:#f8f8f2;stroke-width:0.265" aria-label="2"/>
  </g>
</svg>
