<?xml version="1.0" encoding="UTF-8" standalone="no"?>
<!-- Created with Inkscape (http://www.inkscape.org/) -->

<svg
   viewBox="0 0 349.02886 425.51222"
   version="1.1"
   id="svg1"
   inkscape:version="1.4 (e7c3feb100, 2024-10-09)"
   sodipodi:docname="watt_walk.svg"
   xmlns:inkscape="http://www.inkscape.org/namespaces/inkscape"
   xmlns:sodipodi="http://sodipodi.sourceforge.net/DTD/sodipodi-0.dtd"
   xmlns="http://www.w3.org/2000/svg"
   xmlns:svg="http://www.w3.org/2000/svg">
  <sodipodi:namedview
     id="namedview1"
     pagecolor="#282a36"
     bordercolor="#000000"
     borderopacity="0.25"
     inkscape:showpageshadow="2"
     inkscape:pageopacity="0.0"
     inkscape:pagecheckerboard="0"
     inkscape:deskcolor="#44475a"
     inkscape:document-units="mm"
     showgrid="true"
     inkscape:zoom="1.7282144"
     inkscape:cx="236.37113"
     inkscape:cy="350.36162"
     inkscape:window-width="2234"
     inkscape:window-height="1418"
     inkscape:window-x="0"
     inkscape:window-y="0"
     inkscape:window-maximized="1"
     inkscape:current-layer="layer1"
     showguides="true">
    <inkscape:grid
       id="grid1"
       units="mm"
       originx="132.21457"
       originy="182.15056"
       spacingx="0.99999998"
       spacingy="1"
       empcolor="#0099e5"
       empopacity="0.30196078"
       color="#0099e5"
       opacity="0.14901961"
       empspacing="5"
       dotted="false"
       gridanglex="30"
       gridanglez="30"
       visible="true" />
  </sodipodi:namedview>
  <defs
     id="defs1" />
  <g
     inkscape:label="Layer 1"
     inkscape:groupmode="layer"
     id="layer1"
     transform="translate(132.21457,182.15056)">
    <g
       id="text2"
       style="font-size:18.8976px;font-family:FreeMono;-inkscape-font-specification:FreeMono;fill:#ff5555;stroke-width:0.982677;stroke-linejoin:round;stroke-miterlimit:4.1"
       inkscape:label="text2"
       aria-label="ι&lt;1(2[3][-3]){2 -2 &lt;2([3][4])[8]([2]1[2])&gt;}&gt;">
      <path
         style="font-family:'Fira Code';-inkscape-font-specification:'Fira Code';fill:#f8f8f2"
         d="m -127.06342,216.37137 c 0.406,0 0.83969,-0.0738 1.01501,-0.11995 v -1.3472 c -0.19377,0.0185 -0.47982,0.0461 -0.66437,0.0461 -0.82123,0 -1.19033,-0.35064 -1.19033,-1.22724 v -7.04046 h -1.60555 v 7.12351 c 0,1.84547 0.68282,2.5652 2.44524,2.5652 z"
         id="path1" />
      <path
         style="font-family:'Fira Code';-inkscape-font-specification:'Fira Code'"
         d="m -124.46131,211.73925 9.13507,3.49716 v -1.45792 l -7.7971,-2.92507 7.7971,-2.91584 v -1.42101 l -9.13507,3.49716 z m 14.75452,4.53985 h 1.60556 v -13.31506 h -1.62401 l -3.5433,2.54675 v 1.67015 l 3.52485,-2.45448 h 0.0369 z"
         id="path4" />
      <path
         style="font-family:'Fira Code';-inkscape-font-specification:'Fira Code';fill:#bd93f9"
         d="m -101.42986,219.50867 h 1.3472 c -1.32874,-1.54097 -2.33452,-5.195 -2.33452,-8.27693 0,-3.08193 1.00578,-6.72673 2.33452,-8.2677 h -1.3472 c -1.79933,2.28838 -2.62056,4.98277 -2.62056,8.2677 0,3.28494 0.82123,5.99777 2.62056,8.27693 z m 2.795888,-3.22957 h 8.784431 v -1.47638 h -6.505277 v -0.0369 l 3.164979,-3.24802 c 2.445246,-2.50061 3.118842,-3.59867 3.118842,-5.05659 v -0.0185 c 0,-2.08538 -1.762423,-3.70016 -4.17076,-3.70016 -2.482155,0 -4.475261,1.70705 -4.475261,4.01389 v 0.0554 h 1.605557 v -0.0461 c 0,-1.43024 1.236464,-2.57443 2.897386,-2.57443 1.448693,0 2.472929,0.9781 2.482156,2.33452 v 0.0185 c 0,1.10728 -0.415231,1.82701 -2.214563,3.70017 l -4.68749,4.89049 z m 11.515724,3.22957 h 4.004667 v -1.24569 h -2.454474 v -14.04402 h 2.454474 v -1.25492 h -4.004667 z m 9.753305,-3.00812 c 2.666702,0 4.622899,-1.64246 4.622899,-3.86625 v -0.0185 c 0,-1.8916 -1.31951,-3.10038 -3.257252,-3.26648 v -0.0369 c 1.660922,-0.35064 2.823567,-1.47637 2.823567,-3.11884 v -0.0185 c 0,-2.02079 -1.670149,-3.43257 -4.207669,-3.43257 -2.491383,0 -4.207669,1.44869 -4.419897,3.61711 l -0.0092,0.0923 h 1.596331 l 0.0092,-0.0923 c 0.13841,-1.34719 1.254919,-2.17765 2.823567,-2.17765 1.624013,0 2.53752,0.80278 2.53752,2.19611 v 0.0185 c 0,1.32874 -1.107281,2.30684 -2.694385,2.30684 h -1.59633 v 1.40256 h 1.670149 c 1.863924,0 3.035796,0.9135 3.035796,2.54674 v 0.0185 c 0,1.41178 -1.190327,2.38988 -2.934295,2.38988 -1.77165,0 -2.971205,-0.90428 -3.109615,-2.21456 l -0.0092,-0.0923 h -1.596331 l 0.0092,0.11073 c 0.175319,2.10384 1.956196,3.63557 4.705945,3.63557 z m 9.808666,3.00812 v -16.54463 h -4.004667 v 1.25492 h 2.454473 v 14.04402 h -2.454473 v 1.24569 z m 3.801661,0 h 4.004667 v -1.24569 h -2.454473 v -14.04402 h 2.454473 v -1.25492 h -4.004667 z m 5.287271,-7.88015 h 5.9055 v -1.49483 h -5.9055 z m 12.567642,4.87203 c 2.666703,0 4.6229,-1.64246 4.6229,-3.86625 v -0.0185 c 0,-1.8916 -1.31951,-3.10038 -3.257253,-3.26648 v -0.0369 c 1.660922,-0.35064 2.823568,-1.47637 2.823568,-3.11884 v -0.0185 c 0,-2.02079 -1.67015,-3.43257 -4.207669,-3.43257 -2.491383,0 -4.207669,1.44869 -4.419898,3.61711 l -0.0092,0.0923 h 1.59633 l 0.0092,-0.0923 c 0.13841,-1.34719 1.254918,-2.17765 2.823567,-2.17765 1.624012,0 2.537519,0.80278 2.537519,2.19611 v 0.0185 c 0,1.32874 -1.107281,2.30684 -2.694384,2.30684 h -1.596331 v 1.40256 h 1.67015 c 1.863923,0 3.035796,0.9135 3.035796,2.54674 v 0.0185 c 0,1.41178 -1.190328,2.38988 -2.934296,2.38988 -1.77165,0 -2.971204,-0.90428 -3.109614,-2.21456 l -0.0092,-0.0923 h -1.59633 l 0.0092,0.11073 c 0.17532,2.10384 1.956197,3.63557 4.705945,3.63557 z m 9.808667,3.00812 v -16.54463 h -4.004668 v 1.25492 h 2.454474 v 14.04402 h -2.454474 v 1.24569 z m 3.617121,0 c 1.799332,-2.27916 2.620566,-4.99199 2.620566,-8.27693 0,-3.28493 -0.821234,-5.97932 -2.620566,-8.2677 h -1.347192 c 1.328737,1.54097 2.334518,5.18577 2.334518,8.2677 0,3.08193 -1.005781,6.73596 -2.334518,8.27693 z"
         id="path5" />
      <path
         style="font-family:'Fira Code';-inkscape-font-specification:'Fira Code'"
         d="m -22.702163,219.50867 h 0.507504 v -1.30106 h -0.369093 c -1.301056,0 -1.827014,-0.59977 -1.827014,-2.07615 v -2.62979 c 0,-1.32874 -0.664369,-2.02079 -2.020789,-2.1592 v -0.22146 c 1.35642,-0.13841 2.020789,-0.83046 2.020789,-2.1592 v -2.62056 c 0,-1.47638 0.525958,-2.07615 1.827014,-2.07615 h 0.369093 v -1.30106 h -0.507504 c -2.214562,0 -3.201888,1.02424 -3.201888,3.17421 v 2.25147 c 0,1.47637 -0.507504,1.96542 -2.011561,1.96542 v 1.7532 c 1.504057,0 2.011561,0.48905 2.011561,1.96542 v 2.2607 c 0,2.14997 1.024235,3.17421 3.201888,3.17421 z m 1.771653,-3.22957 h 8.784432 v -1.47638 h -6.505278 v -0.0369 l 3.164979,-3.24802 c 2.445246,-2.50061 3.118842,-3.59867 3.118842,-5.05659 v -0.0185 c 0,-2.08538 -1.762422,-3.70016 -4.170759,-3.70016 -2.482156,0 -4.475262,1.70705 -4.475262,4.01389 v 0.0554 h 1.605558 v -0.0461 c 0,-1.43024 1.236464,-2.57443 2.897386,-2.57443 1.448693,0 2.472928,0.9781 2.482155,2.33452 v 0.0185 c 0,1.10728 -0.41523,1.82701 -2.214562,3.70017 l -4.687491,4.89049 z m 14.5884318,-4.65058 h 5.90550003 v -1.49483 H -6.3420782 Z m 8.0831459,4.65058 h 8.7844313 v -1.47638 H 4.0202217 v -0.0369 l 3.1649789,-3.24802 c 2.4452461,-2.50061 3.1188424,-3.59867 3.1188424,-5.05659 v -0.0185 c 0,-2.08538 -1.7624229,-3.70016 -4.1707596,-3.70016 -2.4821555,0 -4.4752618,1.70705 -4.4752618,4.01389 v 0.0554 h 1.6055579 v -0.0461 c 0,-1.43024 1.236464,-2.57443 2.8973859,-2.57443 1.448693,0 2.4729282,0.9781 2.4821555,2.33452 v 0.0185 c 0,1.10728 -0.4152304,1.82701 -2.2145625,3.70017 l -4.6874907,4.89049 z"
         id="path6" />
      <path
         style="font-family:'Fira Code';-inkscape-font-specification:'Fira Code';fill:#ffb86c"
         d="m 16.375636,211.73925 9.13507,3.49716 v -1.45792 l -7.797105,-2.92507 7.797105,-2.91584 v -1.42101 l -9.13507,3.49716 z m 11.35887,4.53985 h 8.784432 v -1.47638 H 30.01366 v -0.0369 l 3.164979,-3.24802 c 2.445246,-2.50061 3.118843,-3.59867 3.118843,-5.05659 v -0.0185 c 0,-2.08538 -1.762423,-3.70016 -4.17076,-3.70016 -2.482155,0 -4.475262,1.70705 -4.475262,4.01389 v 0.0554 h 1.605558 v -0.0461 c 0,-1.43024 1.236464,-2.57443 2.897386,-2.57443 1.448693,0 2.472928,0.9781 2.482156,2.33452 v 0.0185 c 0,1.10728 -0.415231,1.82701 -2.214563,3.70017 l -4.687491,4.89049 z"
         id="path7" />
      <path
         style="font-family:'Fira Code';-inkscape-font-specification:'Fira Code';fill:#50fa7b"
         d="m 41.723157,219.50867 h 1.347192 c -1.328738,-1.54097 -2.334518,-5.195 -2.334518,-8.27693 0,-3.08193 1.00578,-6.72673 2.334518,-8.2677 h -1.347192 c -1.799332,2.28838 -2.620566,4.98277 -2.620566,8.2677 0,3.28494 0.821234,5.99777 2.620566,8.27693 z m 3.617114,0 h 4.004667 v -1.24569 h -2.454474 v -14.04402 h 2.454474 v -1.25492 h -4.004667 z m 9.753297,-3.00812 c 2.666703,0 4.6229,-1.64246 4.6229,-3.86625 v -0.0185 c 0,-1.8916 -1.319511,-3.10038 -3.257253,-3.26648 v -0.0369 c 1.660922,-0.35064 2.823567,-1.47637 2.823567,-3.11884 v -0.0185 c 0,-2.02079 -1.670149,-3.43257 -4.207668,-3.43257 -2.491383,0 -4.207669,1.44869 -4.419898,3.61711 l -0.0092,0.0923 h 1.59633 l 0.0092,-0.0923 c 0.138411,-1.34719 1.254919,-2.17765 2.823568,-2.17765 1.624012,0 2.537519,0.80278 2.537519,2.19611 v 0.0185 c 0,1.32874 -1.107281,2.30684 -2.694384,2.30684 h -1.596331 v 1.40256 h 1.67015 c 1.863923,0 3.035796,0.9135 3.035796,2.54674 v 0.0185 c 0,1.41178 -1.190328,2.38988 -2.934296,2.38988 -1.77165,0 -2.971204,-0.90428 -3.109615,-2.21456 l -0.0092,-0.0923 h -1.59633 l 0.0092,0.11073 c 0.175319,2.10384 1.956197,3.63557 4.705945,3.63557 z m 9.808674,3.00812 v -16.54463 h -4.004667 v 1.25492 h 2.454473 v 14.04402 h -2.454473 v 1.24569 z m 3.801661,0 h 4.004667 v -1.24569 h -2.454473 v -14.04402 h 2.454473 v -1.25492 h -4.004667 z m 11.598782,-3.22957 h 1.605557 v -2.7682 h 1.882379 v -1.45792 h -1.882379 v -9.08894 h -2.454473 l -5.840909,9.0428 v 1.50406 h 6.689825 z m -5.047358,-4.22612 v -0.0369 l 4.991993,-7.63102 h 0.05536 v 7.66793 z m 13.250461,7.45569 v -16.54463 h -4.004667 v 1.25492 h 2.454473 v 14.04402 h -2.454473 v 1.24569 z m 3.617114,0 c 1.799332,-2.27916 2.620566,-4.99199 2.620566,-8.27693 0,-3.28493 -0.821234,-5.97932 -2.620566,-8.2677 H 90.77571 c 1.328737,1.54097 2.334518,5.18577 2.334518,8.2677 0,3.08193 -1.005781,6.73596 -2.334518,8.27693 z"
         id="path8" />
      <path
         style="font-family:'Fira Code';-inkscape-font-specification:'Fira Code';fill:#ffb86c"
         d="m 98.397506,219.50867 h 4.004664 v -1.24569 H 99.9477 v -14.04402 h 2.45447 v -1.25492 h -4.004664 z m 9.854794,-3.00812 c 2.82357,0 4.83513,-1.5871 4.83513,-3.82012 v -0.0185 c 0,-1.64247 -1.15341,-3.00811 -2.86047,-3.40489 v -0.0369 c 1.45792,-0.45214 2.38065,-1.55942 2.38065,-2.96198 v -0.0185 c 0,-2.01156 -1.83624,-3.49716 -4.35531,-3.49716 -2.51906,0 -4.3553,1.4856 -4.3553,3.49716 v 0.0185 c 0,1.40256 0.92273,2.50984 2.38065,2.96198 v 0.0369 c -1.70706,0.39678 -2.86047,1.76242 -2.86047,3.40489 v 0.0185 c 0,2.23302 2.01156,3.82012 4.83512,3.82012 z m 0,-7.8986 c -1.60555,0 -2.70361,-0.91351 -2.70361,-2.20534 v -0.0185 c 0,-1.29183 1.09806,-2.20534 2.70361,-2.20534 1.60556,0 2.70362,0.91351 2.70362,2.20534 v 0.0185 c 0,1.29183 -1.09806,2.20534 -2.70362,2.20534 z m 0,6.44991 c -1.83624,0 -3.14652,-1.03346 -3.14652,-2.47293 v -0.0185 c 0,-1.45792 1.30106,-2.50061 3.14652,-2.50061 1.84547,0 3.14653,1.04269 3.14653,2.50061 v 0.0185 c 0,1.43947 -1.31028,2.47293 -3.14653,2.47293 z m 9.85481,4.45681 v -16.54463 h -4.00467 v 1.25492 h 2.45447 v 14.04402 h -2.45447 v 1.24569 z"
         id="path9" />
      <path
         style="font-family:'Fira Code';-inkscape-font-specification:'Fira Code';fill:#8be9fd"
         d="m 124.3817,219.50867 h 1.34719 c -1.32874,-1.54097 -2.33452,-5.195 -2.33452,-8.27693 0,-3.08193 1.00578,-6.72673 2.33452,-8.2677 h -1.34719 c -1.79934,2.28838 -2.62057,4.98277 -2.62057,8.2677 0,3.28494 0.82123,5.99777 2.62057,8.27693 z m 3.61711,0 h 4.00467 v -1.24569 H 129.549 v -14.04402 h 2.45448 v -1.25492 h -4.00467 z m 5.26882,-3.22957 h 8.78443 v -1.47638 h -6.50527 v -0.0369 l 3.16498,-3.24802 c 2.44524,-2.50061 3.11884,-3.59867 3.11884,-5.05659 v -0.0185 c 0,-2.08538 -1.76242,-3.70016 -4.17076,-3.70016 -2.48216,0 -4.47526,1.70705 -4.47526,4.01389 v 0.0554 h 1.60556 v -0.0461 c 0,-1.43024 1.23646,-2.57443 2.89738,-2.57443 1.44869,0 2.47293,0.9781 2.48216,2.33452 v 0.0185 c 0,1.10728 -0.41523,1.82701 -2.21457,3.70017 l -4.68749,4.89049 z m 13.80411,3.22957 v -16.54463 h -4.00467 v 1.25492 h 2.45447 v 14.04402 h -2.45447 v 1.24569 z m 6.3761,-3.22957 h 1.60556 v -13.31506 h -1.62401 l -3.5433,2.54675 v 1.67015 l 3.52484,-2.45448 h 0.0369 z m 5.80399,3.22957 h 4.00467 v -1.24569 h -2.45448 v -14.04402 h 2.45448 v -1.25492 h -4.00467 z m 5.26882,-3.22957 h 8.78444 v -1.47638 h -6.50528 v -0.0369 l 3.16498,-3.24802 c 2.44524,-2.50061 3.11884,-3.59867 3.11884,-5.05659 v -0.0185 c 0,-2.08538 -1.76242,-3.70016 -4.17076,-3.70016 -2.48216,0 -4.47526,1.70705 -4.47526,4.01389 v 0.0554 h 1.60556 v -0.0461 c 0,-1.43024 1.23646,-2.57443 2.89738,-2.57443 1.4487,0 2.47293,0.9781 2.48216,2.33452 v 0.0185 c 0,1.10728 -0.41523,1.82701 -2.21456,3.70017 l -4.6875,4.89049 z m 13.80411,3.22957 v -16.54463 h -4.00467 v 1.25492 h 2.45447 v 14.04402 h -2.45447 v 1.24569 z m 3.6171,0 c 1.79933,-2.27916 2.62056,-4.99199 2.62056,-8.27693 0,-3.28493 -0.82123,-5.97932 -2.62056,-8.2677 h -1.3472 c 1.32874,1.54097 2.33452,5.18577 2.33452,8.2677 0,3.08193 -1.00578,6.73596 -2.33452,8.27693 z"
         id="path10" />
      <path
         style="font-family:'Fira Code';-inkscape-font-specification:'Fira Code';fill:#ffb86c"
         d="m 196.59489,210.01373 -9.13507,-3.49716 v 1.45792 l 7.7971,2.91584 -7.7971,2.92507 v 1.42101 l 9.13507,-3.49716 z"
         id="path11" />
      <path
         style="font-family:'Fira Code';-inkscape-font-specification:'Fira Code'"
         d="m 198.43114,219.50867 c 2.17765,0 3.20189,-1.02424 3.20189,-3.17421 v -2.2607 c 0,-1.47637 0.5075,-1.96542 2.01156,-1.96542 v -1.7532 c -1.50406,0 -2.01156,-0.48905 -2.01156,-1.96542 v -2.25147 c 0,-2.14997 -0.98733,-3.17421 -3.20189,-3.17421 h -0.5075 v 1.30106 h 0.36909 c 1.30106,0 1.82701,0.59977 1.82701,2.07615 v 2.62056 c 0,1.32874 0.66437,2.02079 2.02079,2.1592 v 0.22146 c -1.35642,0.13841 -2.02079,0.83046 -2.02079,2.1592 v 2.62979 c 0,1.47638 -0.52595,2.07615 -1.82701,2.07615 h -0.36909 v 1.30106 z m 15.67724,-9.49494 -9.13507,-3.49716 v 1.45792 l 7.7971,2.91584 -7.7971,2.92507 v 1.42101 l 9.13507,-3.49716 z"
         id="path12" />
    </g>
    <g
       id="text2-6"
       style="font-size:18.8976px;font-family:FreeMono;-inkscape-font-specification:FreeMono;fill:#ff5555;stroke-width:0.982677;stroke-linejoin:round;stroke-miterlimit:4.1"
       inkscape:label="text2"
       aria-label="ι&lt;1(2[3][-3])((&lt;2([3][4])[8]([2]1[2])&gt;-2)2)&gt;">
      <path
         style="font-family:'Fira Code';-inkscape-font-specification:'Fira Code';fill:#f8f8f2"
         d="m -129.27799,239.73304 c 0.40601,0 0.83969,-0.0738 1.01501,-0.11996 v -1.34719 c -0.19377,0.0184 -0.47982,0.0461 -0.66437,0.0461 -0.82123,0 -1.19033,-0.35063 -1.19033,-1.22723 v -7.04047 h -1.60555 v 7.12351 c 0,1.84547 0.68282,2.56521 2.44524,2.56521 z"
         id="path15" />
      <path
         style="font-family:'Fira Code';-inkscape-font-specification:'Fira Code'"
         d="m -126.67588,235.10091 9.13507,3.49716 v -1.45792 l -7.7971,-2.92507 7.7971,-2.91584 v -1.42101 l -9.13507,3.49717 z m 14.75453,4.53985 h 1.60555 v -13.31505 h -1.62401 l -3.5433,2.54674 v 1.67015 l 3.52485,-2.45447 h 0.0369 z"
         id="path16" />
      <path
         style="font-family:'Fira Code';-inkscape-font-specification:'Fira Code';fill:#bd93f9"
         d="m -103.64443,242.87033 h 1.3472 c -1.32874,-1.54096 -2.33452,-5.19499 -2.33452,-8.27692 0,-3.08194 1.00578,-6.72674 2.33452,-8.2677 h -1.3472 c -1.79933,2.28838 -2.62056,4.98276 -2.62056,8.2677 0,3.28493 0.82123,5.99777 2.62056,8.27692 z m 2.79589,-3.22957 h 8.78443 v -1.47637 h -6.505277 v -0.0369 l 3.164978,-3.24803 c 2.445247,-2.50061 3.118843,-3.59866 3.118843,-5.05658 v -0.0185 c 0,-2.08538 -1.762423,-3.70016 -4.17076,-3.70016 -2.482155,0 -4.475264,1.70706 -4.475264,4.01389 v 0.0554 h 1.60556 v -0.0461 c 0,-1.43024 1.236464,-2.57443 2.897386,-2.57443 1.448693,0 2.472928,0.9781 2.482156,2.33452 v 0.0185 c 0,1.10729 -0.415231,1.82702 -2.214563,3.70017 l -4.687489,4.89049 z m 11.515723,3.22957 h 4.004667 v -1.24569 h -2.454474 v -14.04402 h 2.454474 v -1.25491 h -4.004667 z m 9.753305,-3.00811 c 2.666702,0 4.622899,-1.64247 4.622899,-3.86626 v -0.0185 c 0,-1.89161 -1.31951,-3.10039 -3.257252,-3.26648 v -0.0369 c 1.660922,-0.35064 2.823567,-1.47638 2.823567,-3.11884 v -0.0185 c 0,-2.02079 -1.670149,-3.43257 -4.207669,-3.43257 -2.491383,0 -4.207669,1.44869 -4.419898,3.61712 l -0.0092,0.0923 h 1.596331 l 0.0092,-0.0923 c 0.13841,-1.34719 1.254919,-2.17766 2.823567,-2.17766 1.624013,0 2.53752,0.80278 2.53752,2.19611 v 0.0185 c 0,1.32873 -1.107282,2.30683 -2.694385,2.30683 h -1.59633 v 1.40256 h 1.670149 c 1.863924,0 3.035796,0.91351 3.035796,2.54675 v 0.0185 c 0,1.41178 -1.190327,2.38988 -2.934295,2.38988 -1.77165,0 -2.971205,-0.90428 -3.109615,-2.21456 l -0.0092,-0.0923 h -1.596331 l 0.0092,0.11073 c 0.175319,2.10383 1.956196,3.63557 4.705945,3.63557 z m 9.808666,3.00811 v -16.54462 h -4.004667 v 1.25491 h 2.454473 v 14.04402 h -2.454473 v 1.24569 z m 3.801661,0 h 4.004667 v -1.24569 h -2.454473 v -14.04402 h 2.454473 v -1.25491 h -4.004667 z m 5.287271,-7.88015 h 5.9055 v -1.49483 h -5.9055 z m 12.567642,4.87204 c 2.666703,0 4.6229,-1.64247 4.6229,-3.86626 v -0.0185 c 0,-1.89161 -1.319511,-3.10039 -3.257253,-3.26648 v -0.0369 c 1.660922,-0.35064 2.823567,-1.47638 2.823567,-3.11884 v -0.0185 c 0,-2.02079 -1.670149,-3.43257 -4.207668,-3.43257 -2.491383,0 -4.207669,1.44869 -4.419898,3.61712 l -0.0092,0.0923 h 1.59633 l 0.0092,-0.0923 c 0.138411,-1.34719 1.254919,-2.17766 2.823568,-2.17766 1.624012,0 2.537519,0.80278 2.537519,2.19611 v 0.0185 c 0,1.32873 -1.107281,2.30683 -2.694384,2.30683 h -1.596331 v 1.40256 h 1.67015 c 1.863923,0 3.035796,0.91351 3.035796,2.54675 v 0.0185 c 0,1.41178 -1.190328,2.38988 -2.934296,2.38988 -1.77165,0 -2.971204,-0.90428 -3.109615,-2.21456 l -0.0092,-0.0923 h -1.59633 l 0.0092,0.11073 c 0.17532,2.10383 1.956197,3.63557 4.705945,3.63557 z m 9.808666,3.00811 v -16.54462 h -4.004667 v 1.25491 h 2.454474 v 14.04402 h -2.454474 v 1.24569 z m 3.617122,0 c 1.799332,-2.27915 2.620566,-4.99199 2.620566,-8.27692 0,-3.28494 -0.821234,-5.97932 -2.620566,-8.2677 h -1.347192 c 1.328737,1.54096 2.334518,5.18576 2.334518,8.2677 0,3.08193 -1.005781,6.73596 -2.334518,8.27692 z"
         id="path17" />
      <path
         style="font-family:'Fira Code';-inkscape-font-specification:'Fira Code'"
         d="m -25.940967,242.87033 h 1.347192 c -1.328737,-1.54096 -2.334518,-5.19499 -2.334518,-8.27692 0,-3.08194 1.005781,-6.72674 2.334518,-8.2677 h -1.347192 c -1.799332,2.28838 -2.620565,4.98276 -2.620565,8.2677 0,3.28493 0.821233,5.99777 2.620565,8.27692 z m 6.09005,0 h 1.347192 c -1.328737,-1.54096 -2.334518,-5.19499 -2.334518,-8.27692 0,-3.08194 1.005781,-6.72674 2.334518,-8.2677 h -1.347192 c -1.799332,2.28838 -2.620566,4.98276 -2.620566,8.2677 0,3.28493 0.821234,5.99777 2.620566,8.27692 z"
         id="path18" />
      <path
         style="font-family:'Fira Code';-inkscape-font-specification:'Fira Code';fill:#ffb86c"
         d="m -16.990438,235.10091 9.1350707,3.49716 v -1.45792 l -7.7971057,-2.92507 7.7971057,-2.91584 v -1.42101 l -9.1350707,3.49717 z m 11.3588556,4.53985 h 8.7844313 v -1.47637 h -6.5052774 v -0.0369 l 3.16497895,-3.24803 c 2.44524615,-2.50061 3.11884225,-3.59866 3.11884225,-5.05658 v -0.0185 c 0,-2.08538 -1.7624227,-3.70016 -4.1707594,-3.70016 -2.4821555,0 -4.4752618,1.70706 -4.4752618,4.01389 v 0.0554 h 1.6055578 v -0.0461 c 0,-1.43024 1.2364641,-2.57443 2.897386,-2.57443 1.44869297,0 2.4729281,0.9781 2.4821555,2.33452 v 0.0185 c 0,1.10729 -0.4152305,1.82702 -2.21456254,3.70017 l -4.68749066,4.89049 z"
         id="path19" />
      <path
         style="font-family:'Fira Code';-inkscape-font-specification:'Fira Code';fill:#50fa7b"
         d="m 8.3570679,242.87033 h 1.3471922 c -1.3287375,-1.54096 -2.334518,-5.19499 -2.334518,-8.27692 0,-3.08194 1.0057805,-6.72674 2.334518,-8.2677 H 8.3570679 c -1.7993321,2.28838 -2.6205657,4.98276 -2.6205657,8.2677 0,3.28493 0.8212336,5.99777 2.6205657,8.27692 z m 3.6171291,0 h 4.004667 v -1.24569 h -2.454473 v -14.04402 h 2.454473 v -1.25491 h -4.004667 z m 9.753298,-3.00811 c 2.666702,0 4.622899,-1.64247 4.622899,-3.86626 v -0.0185 c 0,-1.89161 -1.31951,-3.10039 -3.257252,-3.26648 v -0.0369 c 1.660921,-0.35064 2.823567,-1.47638 2.823567,-3.11884 v -0.0185 c 0,-2.02079 -1.670149,-3.43257 -4.207669,-3.43257 -2.491383,0 -4.207669,1.44869 -4.419898,3.61712 l -0.0092,0.0923 h 1.59633 l 0.0092,-0.0923 c 0.13841,-1.34719 1.254919,-2.17766 2.823567,-2.17766 1.624013,0 2.53752,0.80278 2.53752,2.19611 v 0.0185 c 0,1.32873 -1.107282,2.30683 -2.694385,2.30683 h -1.59633 v 1.40256 h 1.670149 c 1.863923,0 3.035796,0.91351 3.035796,2.54675 v 0.0185 c 0,1.41178 -1.190327,2.38988 -2.934295,2.38988 -1.77165,0 -2.971205,-0.90428 -3.109615,-2.21456 l -0.0092,-0.0923 h -1.59633 l 0.0092,0.11073 c 0.17532,2.10383 1.956197,3.63557 4.705946,3.63557 z m 9.808658,3.00811 v -16.54462 h -4.004667 v 1.25491 h 2.454473 v 14.04402 h -2.454473 v 1.24569 z m 3.801676,0 h 4.004668 v -1.24569 h -2.454474 v -14.04402 h 2.454474 v -1.25491 h -4.004668 z m 11.598767,-3.22957 h 1.605558 v -2.7682 h 1.882378 v -1.45792 h -1.882378 v -9.08893 H 46.08768 l -5.840909,9.04279 v 1.50406 h 6.689825 z m -5.047357,-4.22612 v -0.0369 l 4.991993,-7.63101 h 0.05536 v 7.66792 z m 13.25046,7.45569 v -16.54462 h -4.004667 v 1.25491 h 2.454474 v 14.04402 h -2.454474 v 1.24569 z m 3.61713,0 c 1.799332,-2.27915 2.620565,-4.99199 2.620565,-8.27692 0,-3.28494 -0.821233,-5.97932 -2.620565,-8.2677 h -1.347193 c 1.328738,1.54096 2.334518,5.18576 2.334518,8.2677 0,3.08193 -1.00578,6.73596 -2.334518,8.27692 z"
         id="path20" />
      <path
         style="font-family:'Fira Code';-inkscape-font-specification:'Fira Code';fill:#ffb86c"
         d="m 65.031418,242.87033 h 4.004667 v -1.24569 h -2.454474 v -14.04402 h 2.454474 v -1.25491 h -4.004667 z m 9.854798,-3.00811 c 2.823567,0 4.835128,-1.5871 4.835128,-3.82012 v -0.0185 c 0,-1.64246 -1.153418,-3.00811 -2.860476,-3.40489 v -0.0369 c 1.45792,-0.45214 2.380654,-1.55942 2.380654,-2.96197 v -0.0185 c 0,-2.01156 -1.836241,-3.49716 -4.355306,-3.49716 -2.519065,0 -4.355306,1.4856 -4.355306,3.49716 v 0.0185 c 0,1.40255 0.922734,2.50983 2.380654,2.96197 v 0.0369 c -1.707058,0.39678 -2.860476,1.76243 -2.860476,3.40489 v 0.0185 c 0,2.23302 2.011561,3.82012 4.835128,3.82012 z m 0,-7.89861 c -1.605558,0 -2.703612,-0.9135 -2.703612,-2.20533 v -0.0185 c 0,-1.29183 1.098054,-2.20533 2.703612,-2.20533 1.605558,0 2.703612,0.9135 2.703612,2.20533 v 0.0185 c 0,1.29183 -1.098054,2.20533 -2.703612,2.20533 z m 0,6.44992 c -1.836241,0 -3.146524,-1.03347 -3.146524,-2.47293 v -0.0185 c 0,-1.45792 1.301055,-2.50061 3.146524,-2.50061 1.845469,0 3.146524,1.04269 3.146524,2.50061 v 0.0185 c 0,1.43946 -1.310283,2.47293 -3.146524,2.47293 z m 9.854802,4.4568 V 226.32571 H 80.73635 v 1.25491 h 2.454474 v 14.04402 H 80.73635 v 1.24569 z"
         id="path21" />
      <path
         style="font-family:'Fira Code';-inkscape-font-specification:'Fira Code';fill:#8be9fd"
         d="m 91.015622,242.87033 h 1.347192 c -1.328737,-1.54096 -2.334518,-5.19499 -2.334518,-8.27692 0,-3.08194 1.005781,-6.72674 2.334518,-8.2677 h -1.347192 c -1.799332,2.28838 -2.620566,4.98276 -2.620566,8.2677 0,3.28493 0.821234,5.99777 2.620566,8.27692 z m 3.617114,0 h 4.004667 v -1.24569 H 96.18293 v -14.04402 h 2.454473 v -1.25491 h -4.004667 z m 5.268808,-3.22957 h 8.784436 v -1.47637 h -6.50528 v -0.0369 l 3.16498,-3.24803 c 2.44524,-2.50061 3.11884,-3.59866 3.11884,-5.05658 v -0.0185 c 0,-2.08538 -1.76242,-3.70016 -4.17076,-3.70016 -2.48216,0 -4.475262,1.70706 -4.475262,4.01389 v 0.0554 h 1.605562 v -0.0461 c 0,-1.43024 1.23646,-2.57443 2.89738,-2.57443 1.4487,0 2.47293,0.9781 2.48216,2.33452 v 0.0185 c 0,1.10729 -0.41523,1.82702 -2.21456,3.70017 l -4.687496,4.89049 z m 13.804116,3.22957 V 226.32571 H 109.701 v 1.25491 h 2.45447 v 14.04402 H 109.701 v 1.24569 z m 6.37609,-3.22957 h 1.60556 v -13.31505 h -1.62401 l -3.5433,2.54674 v 1.67015 l 3.52484,-2.45447 h 0.0369 z m 5.80399,3.22957 h 4.00467 v -1.24569 h -2.45447 v -14.04402 h 2.45447 v -1.25491 h -4.00467 z m 5.26883,-3.22957 h 8.78443 v -1.47637 h -6.50528 v -0.0369 l 3.16498,-3.24803 c 2.44524,-2.50061 3.11884,-3.59866 3.11884,-5.05658 v -0.0185 c 0,-2.08538 -1.76242,-3.70016 -4.17076,-3.70016 -2.48215,0 -4.47526,1.70706 -4.47526,4.01389 v 0.0554 h 1.60556 v -0.0461 c 0,-1.43024 1.23646,-2.57443 2.89738,-2.57443 1.4487,0 2.47293,0.9781 2.48216,2.33452 v 0.0185 c 0,1.10729 -0.41523,1.82702 -2.21456,3.70017 l -4.68749,4.89049 z m 13.8041,3.22957 V 226.32571 H 140.954 v 1.25491 h 2.45448 v 14.04402 H 140.954 v 1.24569 z m 3.61713,0 c 1.79933,-2.27915 2.62056,-4.99199 2.62056,-8.27692 0,-3.28494 -0.82123,-5.97932 -2.62056,-8.2677 h -1.34719 c 1.32873,1.54096 2.33451,5.18576 2.33451,8.2677 0,3.08193 -1.00578,6.73596 -2.33451,8.27692 z"
         id="path22" />
      <path
         style="font-family:'Fira Code';-inkscape-font-specification:'Fira Code';fill:#ffb86c"
         d="m 163.2288,233.3754 -9.13507,-3.49717 v 1.45792 l 7.79711,2.91584 -7.79711,2.92507 v 1.42101 l 9.13507,-3.49716 z"
         id="path23" />
      <path
         style="font-family:'Fira Code';-inkscape-font-specification:'Fira Code'"
         d="m 165.47106,234.99018 h 5.9055 v -1.49483 h -5.9055 z m 8.08313,4.65058 h 8.78443 v -1.47637 h -6.50527 v -0.0369 l 3.16498,-3.24803 c 2.44524,-2.50061 3.11884,-3.59866 3.11884,-5.05658 v -0.0185 c 0,-2.08538 -1.76242,-3.70016 -4.17076,-3.70016 -2.48216,0 -4.47526,1.70706 -4.47526,4.01389 v 0.0554 h 1.60556 v -0.0461 c 0,-1.43024 1.23646,-2.57443 2.89738,-2.57443 1.44869,0 2.47293,0.9781 2.48216,2.33452 v 0.0185 c 0,1.10729 -0.41523,1.82702 -2.21457,3.70017 l -4.68749,4.89049 z m 11.33121,3.22957 c 1.79933,-2.27915 2.62056,-4.99199 2.62056,-8.27692 0,-3.28494 -0.82123,-5.97932 -2.62056,-8.2677 h -1.34719 c 1.32873,1.54096 2.33451,5.18576 2.33451,8.2677 0,3.08193 -1.00578,6.73596 -2.33451,8.27692 z m 5.45334,-3.22957 h 8.78443 v -1.47637 h -6.50528 v -0.0369 l 3.16498,-3.24803 c 2.44525,-2.50061 3.11884,-3.59866 3.11884,-5.05658 v -0.0185 c 0,-2.08538 -1.76242,-3.70016 -4.17076,-3.70016 -2.48215,0 -4.47526,1.70706 -4.47526,4.01389 v 0.0554 h 1.60556 v -0.0461 c 0,-1.43024 1.23647,-2.57443 2.89739,-2.57443 1.44869,0 2.47293,0.9781 2.48215,2.33452 v 0.0185 c 0,1.10729 -0.41523,1.82702 -2.21456,3.70017 l -4.68749,4.89049 z m 11.33117,3.22957 c 1.79934,-2.27915 2.62057,-4.99199 2.62057,-8.27692 0,-3.28494 -0.82123,-5.97932 -2.62057,-8.2677 h -1.34719 c 1.32874,1.54096 2.33452,5.18576 2.33452,8.2677 0,3.08193 -1.00578,6.73596 -2.33452,8.27692 z m 14.65304,-9.49493 -9.13507,-3.49717 v 1.45792 l 7.7971,2.91584 -7.7971,2.92507 v 1.42101 l 9.13507,-3.49716 z"
         id="path24" />
    </g>
    <path
       style="display:inline;fill:#bd93f9;stroke:#bd93f9;stroke-width:3.35234;stroke-dasharray:none;stroke-opacity:1"
       d="M -38.086161,-36.699229 -6.6087341,-83.91537 m 0,0 31.4774271,47.216141"
       id="path1-2-1"
       sodipodi:nodetypes="cccc" />
    <path
       d="m -45.884662,-41.657427 q 0.707581,0.151406 1.102875,0.629485 0.400141,0.478237 0.400141,1.180971 0,1.078448 -0.741734,1.668933 -0.741766,0.590453 -2.108138,0.590453 -0.45872,0 -0.946715,-0.09286 -0.483116,-0.08782 -1.000384,-0.268502 v -0.951594 q 0.40993,0.239228 0.897925,0.361109 0.487995,0.122132 1.0199,0.122132 0.927168,0 1.410283,-0.365988 0.487995,-0.365988 0.487995,-1.063811 0,-0.644154 -0.453842,-1.005263 -0.448931,-0.36602 -1.254123,-0.36602 h -0.849104 v -0.810072 h 0.888136 q 0.727128,0 1.112632,-0.288018 0.385504,-0.29274 0.385504,-0.839346 0,-0.561211 -0.400141,-0.858861 -0.395293,-0.302498 -1.137027,-0.302498 -0.405052,0 -0.86862,0.08782 -0.463599,0.08782 -1.0199,0.273224 v -0.878378 q 0.561179,-0.156128 1.049174,-0.234192 0.492874,-0.07806 0.927168,-0.07806 1.12239,0 1.776302,0.51239 0.653912,0.50751 0.653912,1.37613 0,0.605122 -0.346472,1.024779 -0.346472,0.41481 -0.985747,0.575848 z"
       id="text3-61-0"
       style="font-size:3.175px;display:inline;fill:#bd93f9;stroke:none;stroke-width:0.834152"
       aria-label="3" />
    <path
       d="m -12.865187,-87.761439 h 3.4403573 v 0.829588 h -4.6261743 v -0.829588 q 0.56121,-0.580727 1.527442,-1.556715 0.971078,-0.980837 1.21997,-1.263883 0.473358,-0.531905 0.658791,-0.897925 0.190438,-0.370866 0.190438,-0.727096 0,-0.580696 -0.40993,-0.946716 -0.40502,-0.365988 -1.058931,-0.365988 -0.4636,0 -0.980869,0.161164 -0.512389,0.161164 -1.097995,0.487995 v -0.995505 q 0.595364,-0.239228 1.112632,-0.361109 0.517268,-0.122131 0.946715,-0.122131 1.132148,0 1.805577,0.56609 0.6734279,0.566058 0.6734279,1.512774 0,0.44893 -0.1709222,0.853982 -0.1658859,0.400141 -0.6100007,0.946715 -0.122132,0.141649 -0.77592,0.819799 -0.65388,0.673428 -1.844608,1.888549 z"
       id="text3-1-1-6"
       style="font-size:3.175px;display:inline;fill:#bd93f9;stroke:none;stroke-width:0.834152"
       aria-label="2" />
    <path
       d="m 110.15959,-82.70566 h 3.44032 v 0.829587 h -4.62614 v -0.829587 q 0.56117,-0.580728 1.5274,-1.556717 0.97112,-0.980835 1.21997,-1.263881 0.47337,-0.531905 0.6588,-0.897925 0.19044,-0.370868 0.19044,-0.727097 0,-0.580695 -0.4099,-0.946715 -0.40506,-0.365989 -1.05896,-0.365989 -0.46357,0 -0.98084,0.161165 -0.51242,0.161164 -1.098,0.487995 v -0.995505 q 0.59537,-0.23923 1.11264,-0.36111 0.51727,-0.122131 0.94667,-0.122131 1.13216,0 1.80558,0.566091 0.67343,0.566058 0.67343,1.512773 0,0.448931 -0.17092,0.853983 -0.16588,0.400141 -0.61,0.946715 -0.12216,0.141649 -0.77588,0.819798 -0.65392,0.673428 -1.84461,1.888551 z"
       id="text3-1-1-1"
       style="font-size:3.175px;display:inline;fill:#ff5555;stroke:none;stroke-width:0.834152"
       aria-label="2" />
    <path
       d="m 31.633035,-39.978547 h 2.630286 v 0.800313 h -2.630286 z m 7.173486,-0.790556 q 0.70758,0.151407 1.102874,0.629517 0.400141,0.478237 0.400141,1.180939 0,1.07848 -0.741734,1.668933 -0.741766,0.590485 -2.108137,0.590485 -0.458722,0 -0.946716,-0.09286 -0.483115,-0.08782 -1.000384,-0.268502 v -0.951595 q 0.409931,0.239229 0.897925,0.36111 0.487995,0.122132 1.0199,0.122132 0.927168,0 1.410284,-0.365988 0.487994,-0.365988 0.487994,-1.063843 0,-0.644154 -0.45381,-1.005263 -0.448963,-0.365988 -1.254156,-0.365988 H 36.7716 v -0.810072 h 0.888135 q 0.727129,0 1.112632,-0.288018 0.385504,-0.29274 0.385504,-0.839377 0,-0.56118 -0.400141,-0.858862 -0.395294,-0.302498 -1.137028,-0.302498 -0.405019,0 -0.868619,0.08782 -0.463599,0.08782 -1.019899,0.273224 v -0.878409 q 0.561178,-0.156128 1.049173,-0.234192 0.492874,-0.07806 0.927199,-0.07806 1.12236,0 1.776272,0.51239 0.653912,0.50751 0.653912,1.37613 0,0.605122 -0.346472,1.024779 -0.346473,0.41481 -0.985747,0.575817 z"
       id="text3-3-9-3"
       style="font-size:3.175px;display:inline;fill:#bd93f9;stroke:none;stroke-width:0.834152"
       aria-label="-3" />
    <path
       d="m 75.999304,-31.423643 h 2.630285 v 0.800313 h -2.630285 z"
       id="text3-3-9-4"
       style="font-size:3.175px;display:inline;fill:#ff5555;stroke:none;stroke-width:0.834152"
       aria-label="-3"
       sodipodi:nodetypes="ccccc" />
    <path
       id="path5-19-9-2"
       style="display:inline;fill:#bd93f9;stroke:#bd93f9;stroke-width:0.240025"
       d="m -36.366927,-40.337453 a 3.6661945,3.7160994 26.087256 0 1 1.658577,4.9497 3.6661945,3.7160994 26.087256 0 1 -4.926815,1.725341 3.6661945,3.7160994 26.087256 0 1 -1.658577,-4.9497 3.6661945,3.7160994 26.087256 0 1 4.926815,-1.725341 z" />
    <path
       id="path5-19-6-9-6"
       style="display:inline;fill:#bd93f9;stroke:#bd93f9;stroke-width:0.240025"
       d="m 26.357859,-40.368867 a 3.6661945,3.7160994 26.087256 0 1 1.658576,4.949668 3.6661945,3.7160994 26.087256 0 1 -4.926783,1.725372 3.6661945,3.7160994 26.087256 0 1 -1.658609,-4.949699 3.6661945,3.7160994 26.087256 0 1 4.926816,-1.725341 z" />
    <path
       style="display:inline;fill:none;stroke:#ff5555;stroke-width:3.35234;stroke-dasharray:none;stroke-opacity:1"
       d="M -6.6087341,-83.91537 43.75515,-118.54054"
       id="path2-1-1"
       sodipodi:nodetypes="cc" />
    <path
       style="fill:none;stroke:#ff5555;stroke-width:3.35496;stroke-linejoin:round;stroke-miterlimit:4.1;stroke-dasharray:none"
       d="m 53.198377,-118.54054 50.066543,33.371268"
       id="path6-1-5"
       sodipodi:nodetypes="cc" />
    <path
       style="fill:none;stroke:#f8f8f2;stroke-width:3.35496;stroke-linejoin:round;stroke-miterlimit:4.1;stroke-dasharray:none"
       d="m 49.355192,-170 v 38"
       id="path6-1-5-1"
       sodipodi:nodetypes="cc" />
    <path
       id="path5-19-3-4-2"
       style="display:inline;fill:#ff5555;stroke:#ff5555;stroke-width:0.240025"
       d="m 101.99396,-81.677293 a 3.6661945,3.7160994 20 0 1 -2.174147,-4.745883 3.6661945,3.7160994 20 0 1 4.716107,-2.238076 3.6661945,3.7160994 20 0 1 2.17409,4.745882 3.6661945,3.7160994 20 0 1 -4.71605,2.238077 z" />
    <path
       style="fill:#ff5555;stroke:#ff5555;stroke-width:3.35496;stroke-linejoin:round;stroke-miterlimit:4.1;stroke-dasharray:none"
       d="m 103.26492,-85.169272 -31.180086,48.470043 m -0.372,-0.500145"
       id="path6-1-2"
       sodipodi:nodetypes="cc" />
    <path
       id="path5-19-3-4-2-2"
       style="display:inline;fill:#ff5555;stroke:#ff5555;stroke-width:0.240025"
       d="m 71.111237,-33.408201 a 3.6661945,3.7160994 20 0 1 -2.174145,-4.745883 3.6661945,3.7160994 20 0 1 4.716105,-2.238076 3.6661945,3.7160994 20 0 1 2.174083,4.745883 3.6661945,3.7160994 20 0 1 -4.716043,2.238076 z" />
    <path
       id="path5-19-7-9-1-5"
       style="display:inline;fill:none;stroke:#ff5555;stroke-width:3.09322"
       d="m 56.612451,-124.21712 a 7.4917953,7.4752329 0 0 1 -7.491785,7.47523 7.4917953,7.4752329 0 0 1 -7.491785,-7.47523 7.4917953,7.4752329 0 0 1 7.491785,-7.47522 7.4917953,7.4752329 0 0 1 7.491785,7.47522 z" />
    <path
       id="path5-19-4-0-0"
       style="display:inline;fill:#bd93f9;stroke:#bd93f9;stroke-width:0.240025"
       d="m -2.8926347,-83.95245 a 3.7160994,3.6661945 0 0 1 -3.7160994,3.666208 3.7160994,3.6661945 0 0 1 -3.7160979,-3.666208 3.7160994,3.6661945 0 0 1 3.7160979,-3.666207 3.7160994,3.6661945 0 0 1 3.7160994,3.666207 z" />
    <path
       d="m 47.464292,-121.68828 h 1.610354 v -5.55822 l -1.751876,0.35135 v -0.8979 l 1.742118,-0.35135 h 0.985747 v 6.45612 h 1.610386 v 0.82959 h -4.196729 z"
       id="text3-1-6-3-4"
       style="font-size:3.175px;display:inline;fill:#ff5555;stroke:none;stroke-width:0.834152"
       aria-label="1" />
    <path
       d="m -28.843875,122.09838 q -0.761269,0 -1.146782,0.75152 -0.380635,0.74662 -0.380635,2.24963 0,1.49814 0.380635,2.24966 0.385513,0.74661 1.146782,0.74661 0.766148,0 1.146783,-0.74661 0.385513,-0.75152 0.385513,-2.24966 0,-1.50301 -0.385513,-2.24963 -0.380635,-0.75152 -1.146783,-0.75152 z m 0,-0.78077 q 1.224859,0 1.86901,0.97108 0.649029,0.96623 0.649029,2.81084 0,1.83973 -0.649029,2.81084 -0.644151,0.96623 -1.86901,0.96623 -1.224862,0 -1.873892,-0.96623 -0.644148,-0.97111 -0.644148,-2.81084 0,-1.84461 0.644148,-2.81084 0.64903,-0.97108 1.873892,-0.97108 z"
       id="text3-6-7-6"
       style="font-size:3.175px;fill:#50fa7b;stroke:none;stroke-width:0.834152"
       aria-label="0" />
    <path
       d="m 18.080353,172.73045 -2.48876,3.88931 h 2.48876 z m -0.258649,-0.85886 h 1.239502 v 4.74817 h 1.039422 v 0.81984 h -1.039422 v 1.71772 H 18.08034 v -1.71772 h -3.289067 v -0.95159 z"
       id="text3-2-7-9"
       style="font-size:3.175px;fill:#50fa7b;stroke:none;stroke-width:0.834152"
       aria-label="4" />
    <path
       d="m -59.390339,177.02633 q 0.707588,0.15141 1.102862,0.62951 0.400154,0.47825 0.400154,1.18095 0,1.07848 -0.741746,1.66893 -0.741751,0.59049 -2.108129,0.59049 -0.458711,0 -0.946705,-0.0928 -0.483112,-0.0878 -1.000385,-0.2685 v -0.95159 q 0.409915,0.23923 0.897907,0.36111 0.487991,0.12216 1.019903,0.12216 0.927187,0 1.410299,-0.36599 0.487992,-0.36603 0.487992,-1.06385 0,-0.64415 -0.453833,-1.00526 -0.448952,-0.36598 -1.254139,-0.36598 h -0.849106 v -0.81008 h 0.888144 q 0.727109,0 1.112623,-0.28802 0.385513,-0.29274 0.385513,-0.83935 0,-0.56117 -0.400152,-0.85885 -0.395276,-0.3025 -1.137022,-0.3025 -0.405036,0 -0.868627,0.0878 -0.463593,0.0878 -1.019906,0.27322 v -0.87841 q 0.561193,-0.15613 1.049184,-0.23419 0.492874,-0.0781 0.927187,-0.0781 1.122381,0 1.776293,0.51242 0.653909,0.50752 0.653909,1.37614 0,0.60508 -0.346475,1.02477 -0.346476,0.41478 -0.985745,0.57582 z"
       id="text3-5-6-3"
       style="font-size:3.175px;fill:#50fa7b;stroke:none;stroke-width:0.834152"
       aria-label="3" />
    <path
       style="fill:#50fa7b;stroke:#50fa7b;stroke-width:3.35496;stroke-dasharray:none;stroke-opacity:1"
       d="M -21.859453,130.22346 9.6179771,177.4396"
       id="path13" />
    <path
       style="fill:none;stroke:#ffb86c;stroke-width:3.35496;stroke-dasharray:none;stroke-opacity:1"
       d="M 34.281112,23.617283 -21.859453,130.22346"
       id="path4-3-7" />
    <path
       style="fill:#50fa7b;stroke:#50fa7b;stroke-width:3.35234;stroke-dasharray:none;stroke-opacity:1"
       d="M -21.859453,130.22346 -53.33688,177.4396"
       id="path3-9-4"
       sodipodi:nodetypes="cc" />
    <path
       style="fill:none;stroke:#ffb86c;stroke-width:3.35234;stroke-dasharray:none;stroke-opacity:1"
       d="M 41.024643,67.68568 41.0954,26.34795"
       id="path3-9-3-5"
       sodipodi:nodetypes="cc" />
    <path
       id="path5-19-3-4-25"
       style="fill:#50fa7b;stroke:#50fa7b;stroke-width:0.240025"
       d="m -22.833065,133.69274 a 3.6661945,3.7160994 20 0 1 -2.17413,-4.74588 3.6661945,3.7160994 20 0 1 4.71609,-2.23808 3.6661945,3.7160994 20 0 1 2.174098,4.74589 3.6661945,3.7160994 20 0 1 -4.716058,2.23807 z" />
    <path
       id="path5-19-1-8-4"
       style="fill:#50fa7b;stroke:#50fa7b;stroke-width:0.240025"
       d="m -54.146083,180.25229 a 3.6661945,3.7160994 20 0 1 -2.174117,-4.74591 3.6661945,3.7160994 20 0 1 4.716077,-2.23808 3.6661945,3.7160994 20 0 1 2.174127,4.74592 3.6661945,3.7160994 20 0 1 -4.716087,2.23807 z" />
    <path
       id="path5-19-7-1-7"
       style="fill:#50fa7b;stroke:#50fa7b;stroke-width:0.240025"
       d="m 8.3795924,180.25229 a 3.6661945,3.7160994 20 0 1 -2.1741272,-4.74587 3.6661945,3.7160994 20 0 1 4.7160898,-2.23808 3.6661945,3.7160994 20 0 1 2.174096,4.74588 3.6661945,3.7160994 20 0 1 -4.7160586,2.23807 z" />
    <path
       d="m 101.95189,145.13258 h 1.61038 v -5.55821 l -1.7519,0.35135 v -0.89793 l 1.74213,-0.35136 h 0.98576 v 6.45615 h 1.61036 v 0.8296 h -4.19673 z"
       id="text9-6-4"
       style="font-size:3.175px;fill:#8be9fd;stroke:none;stroke-width:0.834152"
       aria-label="1" />
    <path
       d="m 143.84368,179.75776 h 3.44032 v 0.82958 h -4.62615 v -0.82958 q 0.56118,-0.58071 1.52742,-1.55669 0.97111,-0.98087 1.21996,-1.26392 0.47337,-0.53191 0.6588,-0.89789 0.19044,-0.37087 0.19044,-0.7271 0,-0.58073 -0.4099,-0.94671 -0.40506,-0.36599 -1.05896,-0.36599 -0.46357,0 -0.98088,0.16117 -0.51238,0.16116 -1.09796,0.48799 v -0.9955 q 0.59534,-0.23923 1.11263,-0.36111 0.51727,-0.12216 0.94669,-0.12216 1.13215,0 1.80557,0.56606 0.67343,0.56609 0.67343,1.51277 0,0.44896 -0.17093,0.85398 -0.16588,0.40018 -0.61,0.94672 -0.12215,0.14165 -0.77587,0.81982 -0.65392,0.67344 -1.84461,1.88853 z"
       id="text10-0-4"
       style="font-size:3.175px;fill:#8be9fd;stroke:none;stroke-width:0.834152"
       aria-label="2" />
    <path
       d="m 62.187783,180.05017 h 3.440344 v 0.8296 h -4.626165 v -0.8296 q 0.561189,-0.58071 1.527414,-1.55671 0.971107,-0.98087 1.21998,-1.26388 0.473355,-0.53191 0.658792,-0.89792 0.190312,-0.37086 0.190312,-0.72709 0,-0.58073 -0.409912,-0.94672 -0.405035,-0.366 -1.058945,-0.366 -0.463593,0 -0.980864,0.16117 -0.512389,0.16116 -1.097984,0.48799 v -0.9955 q 0.595352,-0.23923 1.112624,-0.36111 0.517272,-0.12216 0.946706,-0.12216 1.132141,0 1.805569,0.5661 0.673433,0.56605 0.673433,1.51277 0,0.44893 -0.170798,0.85398 -0.165917,0.40014 -0.609991,0.94668 -0.122,0.14164 -0.77591,0.81984 -0.653908,0.67342 -1.844607,1.88854 z"
       id="text11-3-30"
       style="font-size:3.175px;fill:#8be9fd;stroke:none;stroke-width:0.834152"
       inkscape:transform-center-x="-18.562382"
       inkscape:transform-center-y="10.075305"
       aria-label="2" />
    <path
       d="m 41.095404,76.711832 q -0.70271,0 -1.107744,0.375778 -0.400153,0.375746 -0.400153,1.034538 0,0.65879 0.400153,1.034536 0.405034,0.375746 1.107744,0.375746 0.702709,0 1.107742,-0.375746 0.405032,-0.380624 0.405032,-1.034536 0,-0.658792 -0.405032,-1.034538 -0.400154,-0.375778 -1.107742,-0.375778 z m -0.985747,-0.419657 q -0.634389,-0.156128 -0.990623,-0.590484 -0.351354,-0.434294 -0.351354,-1.058933 0,-0.873499 0.61975,-1.381009 0.624631,-0.50751 1.707974,-0.50751 1.088223,0 1.707973,0.50751 0.619748,0.50751 0.619748,1.381009 0,0.624639 -0.356232,1.058933 -0.351354,0.434325 -0.980865,0.590484 0.712469,0.165886 1.107743,0.649034 0.400154,0.483116 0.400154,1.180939 0,1.058931 -0.649029,1.625022 -0.644152,0.566058 -1.849492,0.566058 -1.205343,0 -1.854372,-0.566058 -0.644148,-0.566091 -0.644148,-1.625022 0,-0.697823 0.400153,-1.180939 0.400154,-0.483116 1.11262,-0.649034 z m -0.361112,-1.556684 q 0,0.566059 0.351354,0.883256 0.356234,0.317198 0.995505,0.317198 0.634391,0 0.990624,-0.317198 0.361115,-0.317197 0.361115,-0.883256 0,-0.566091 -0.361115,-0.883288 -0.356233,-0.317198 -0.990624,-0.317198 -0.639271,0 -0.995505,0.317198 -0.351354,0.317197 -0.351354,0.883288 z"
       id="text11-3-3-7"
       style="font-size:3.175px;fill:#ffb86c;stroke:none;stroke-width:0.834152"
       inkscape:transform-center-x="-18.562382"
       inkscape:transform-center-y="10.075305"
       aria-label="8" />
    <path
       style="fill:#8be9fd;stroke:#8be9fd;stroke-width:3.35496;stroke-dasharray:none;stroke-opacity:1"
       d="m 104.05026,130.22346 31.47742,47.21614"
       id="path14" />
    <path
       style="fill:none;stroke:#ffb86c;stroke-width:3.35496;stroke-dasharray:none;stroke-opacity:1"
       d="M 47.390891,23.200207 104.05026,130.22346"
       id="path11-6-8" />
    <path
       style="fill:#8be9fd;stroke:#8be9fd;stroke-width:3.35234;stroke-dasharray:none;stroke-opacity:1"
       d="M 104.05026,130.22346 72.572831,177.4396"
       id="path12-1-6"
       sodipodi:nodetypes="cc" />
    <path
       id="ellipse12-5-8"
       style="fill:#8be9fd;stroke:#8be9fd;stroke-width:0.240025"
       d="m 107.19801,132.49499 a 3.7160994,3.6661945 33.033237 0 1 -5.11395,1.04782 3.7160994,3.6661945 33.033237 0 1 -1.11687,-5.0993 3.7160994,3.6661945 33.033237 0 1 5.11394,-1.04782 3.7160994,3.6661945 33.033237 0 1 1.11688,5.0993 z" />
    <path
       id="ellipse13-5-8"
       style="fill:#8be9fd;stroke:#8be9fd;stroke-width:0.240025"
       d="m 75.66393,179.57755 a 3.7160994,3.6661945 33.033237 0 1 -5.113952,1.04784 3.7160994,3.6661945 33.033237 0 1 -1.116866,-5.0993 3.7160994,3.6661945 33.033237 0 1 5.113934,-1.04782 3.7160994,3.6661945 33.033237 0 1 1.116884,5.09928 z" />
    <path
       id="ellipse13-5-1-4"
       style="fill:#ffb86c;stroke:#ffb86c;stroke-width:0.240025"
       d="m 44.175439,69.714274 a 3.7160994,3.6661945 33.033237 0 1 -5.113949,1.047853 3.7160994,3.6661945 33.033237 0 1 -1.116866,-5.099343 3.7160994,3.6661945 33.033237 0 1 5.113933,-1.047789 3.7160994,3.6661945 33.033237 0 1 1.116882,5.099279 z" />
    <path
       id="ellipse14-4-3"
       style="fill:#8be9fd;stroke:#8be9fd;stroke-width:0.240025"
       d="m 138.68666,179.39114 a 3.7160994,3.6661945 33.033237 0 1 -5.11396,1.04785 3.7160994,3.6661945 33.033237 0 1 -1.11687,-5.09932 3.7160994,3.6661945 33.033237 0 1 5.11395,-1.04782 3.7160994,3.6661945 33.033237 0 1 1.11688,5.09929 z" />
    <path
       style="fill:#ff5555;stroke:#ff5555;stroke-width:3.35496;stroke-linejoin:round;stroke-miterlimit:4.1;stroke-dasharray:none"
       d="m 103.26492,-85.169272 -31.180086,48.470043 m -0.372,-0.500145"
       id="path2"
       sodipodi:nodetypes="cc" />
    <path
       style="fill:#ff5555;stroke:#ff5555;stroke-width:3.35496;stroke-linejoin:round;stroke-miterlimit:4.1;stroke-dasharray:none"
       d="M 72.084834,-36.699229 40.904774,11.770815 M 40.532742,11.27067"
       id="path3"
       sodipodi:nodetypes="cc" />
    <path
       d="m 81.227044,-28.144326 h 3.440357 v 0.829588 h -4.626175 v -0.829588 q 0.561179,-0.580726 1.527411,-1.556715 0.971109,-0.980837 1.220002,-1.263882 0.473326,-0.531906 0.65879,-0.897925 0.190439,-0.370867 0.190439,-0.727097 0,-0.580696 -0.409931,-0.946715 -0.405019,-0.365988 -1.058931,-0.365988 -0.4636,0 -0.980869,0.161164 -0.512389,0.161165 -1.097995,0.487994 v -0.995504 q 0.595364,-0.239229 1.112632,-0.361109 0.517269,-0.122133 0.946716,-0.122133 1.132116,0 1.805544,0.56609 0.673429,0.566058 0.673429,1.512774 0,0.44893 -0.170922,0.853982 -0.165886,0.400141 -0.60997,0.946716 -0.122131,0.141648 -0.775918,0.819798 -0.653913,0.673428 -1.844609,1.88855 z"
       id="path4-1"
       style="font-size:3.175px;display:inline;fill:#ff5555;stroke:#ff5555;stroke-width:0.834152"
       aria-label="2" />
    <path
       id="path5-19-7-9-5-5"
       style="fill:none;stroke:#ffb86c;stroke-width:3.09322"
       d="m 48.294436,19.491468 a 7.4917953,7.4752329 0 0 1 -7.491797,7.475227 7.4917953,7.4752329 0 0 1 -7.491796,-7.475227 7.4917953,7.4752329 0 0 1 7.491796,-7.475229 7.4917953,7.4752329 0 0 1 7.491797,7.475229 z" />
    <text
       xml:space="preserve"
       style="font-size:15.0136px;font-family:'Roboto Condensed';-inkscape-font-specification:'Roboto Condensed, ';fill:#bd93f9;stroke:none;stroke-width:1.32994;stroke-miterlimit:4.1;stroke-dasharray:none;font-weight:normal;font-style:normal;font-stretch:normal;font-variant:normal"
       x="46.730747"
       y="-173.55362"
       id="text5"><tspan
         sodipodi:role="line"
         id="tspan5-4"
         x="46.730747"
         y="-173.55362"
         style="stroke-width:1.32994;stroke:none;-inkscape-font-specification:'Roboto Condensed, ';font-family:'Roboto Condensed';font-weight:normal;font-style:normal;font-stretch:normal;font-variant:normal"><tspan
           style="font-style:normal;font-variant:normal;font-weight:normal;font-stretch:normal;font-family:'Roboto Condensed';-inkscape-font-specification:'Roboto Condensed, ';fill:#f8f8f2;stroke:none;stroke-width:1.32994"
           id="tspan6-4">ι</tspan></tspan></text>
    <path
       d="m 39.944398,22.445628 h 3.440325 v 0.829587 h -4.626149 v -0.829587 q 0.561176,-0.580728 1.527406,-1.556717 0.971121,-0.980836 1.219973,-1.263881 0.473364,-0.531906 0.658797,-0.897925 0.190442,-0.370868 0.190442,-0.727098 0,-0.580695 -0.409905,-0.946714 -0.405054,-0.365989 -1.058959,-0.365989 -0.463568,0 -0.980839,0.161165 -0.512418,0.161164 -1.097999,0.487994 v -0.995505 q 0.595364,-0.239229 1.112635,-0.361109 0.51727,-0.122132 0.946676,-0.122132 1.132161,0 1.80558,0.566092 0.673433,0.566058 0.673433,1.512772 0,0.448932 -0.170929,0.853984 -0.16588,0.400141 -0.61,0.946714 -0.122158,0.141649 -0.775879,0.819798 -0.653918,0.673429 -1.844608,1.888551 z"
       id="text3-1-1-1-1"
       style="font-size:3.175px;display:inline;fill:#ffb86c;stroke:none;stroke-width:0.834152"
       aria-label="2" />
  </g>
</svg>
