<!-- Created with Inkscape (http://www.inkscape.org/) -->
<svg xmlns:inkscape="http://www.inkscape.org/namespaces/inkscape" xmlns:sodipodi="http://sodipodi.sourceforge.net/DTD/sodipodi-0.dtd" xmlns="http://www.w3.org/2000/svg" xmlns:svg="http://www.w3.org/2000/svg" viewBox="0 0 497.65074 355.66448" version="1.1" id="svg1" inkscape:version="1.3.2 (091e20ef0f, 2023-11-25)" sodipodi:docname="watt_walk.svg">
  <sodipodi:namedview id="namedview1" pagecolor="#282a36" bordercolor="#000000" borderopacity="0.25" inkscape:showpageshadow="2" inkscape:pageopacity="0.0" inkscape:pagecheckerboard="0" inkscape:deskcolor="#44475a" inkscape:document-units="mm" showgrid="true" inkscape:zoom="1.9595885" inkscape:cx="203.86933" inkscape:cy="214.84102" inkscape:window-width="1920" inkscape:window-height="1126" inkscape:window-x="0" inkscape:window-y="0" inkscape:window-maximized="1" inkscape:current-layer="layer1" showguides="true">
    <inkscape:grid id="grid1" units="mm" originx="210.88071" originy="133.23895" spacingx="0.99999998" spacingy="1" empcolor="#0099e5" empopacity="0.30196078" color="#0099e5" opacity="0.14901961" empspacing="5" dotted="false" gridanglex="30" gridanglez="30" visible="true"/>
  </sodipodi:namedview>
  <defs id="defs1"/>
  <g inkscape:label="Layer 1" inkscape:groupmode="layer" id="layer1" transform="translate(210.88071,133.23895)">
    <text xml:space="preserve" style="font-size:18.8976px;font-family:FreeMono;-inkscape-font-specification:FreeMono;fill:#ff5555;stroke:#ff5555;stroke-width:0.982677;stroke-linejoin:round;stroke-miterlimit:4.1" x="-212.095" y="219.22067" id="text2" inkscape:label="text2"><tspan sodipodi:role="line" id="tspan2" x="-212.095" y="219.22067" style="font-style:normal;font-variant:normal;font-weight:normal;font-stretch:normal;font-size:18.8976px;font-family:'Fira Code';-inkscape-font-specification:'Fira Code'">&lt;1<tspan style="fill:#bd93f9;stroke:#bd93f9" id="tspan3">(2[3][-3])</tspan><tspan id="tspan10" style="fill:#ff79c6;stroke:#ff79c6">{2 -2 </tspan><tspan style="fill:#ffb86c;stroke:#ffb86c" id="tspan5">&lt;1</tspan><tspan style="fill:#50fa7b;stroke:#50fa7b" id="tspan8">([3][4])</tspan><tspan style="fill:#ffb86c;stroke:#ffb86c" id="tspan7">[8]</tspan><tspan style="fill:#8be9fd;stroke:#8be9fd" id="tspan9">([2]1[2])</tspan><tspan style="fill:#ffb86c;stroke:#ffb86c" id="tspan6">&gt;</tspan><tspan id="tspan13" style="fill:#ff79c6;stroke:#ff79c6">}</tspan>&gt;</tspan></text>
    <g id="g14" transform="matrix(1.3149377,0,0,1.3149377,-45.013668,-46.557577)">
      <path style="display:inline;fill:#bd93f9;stroke:#bd93f9;stroke-width:2.54943;stroke-dasharray:none;stroke-opacity:1" d="M 1.9562184,7.497198 25.894559,-28.410314 m 0,0 L 49.8329,7.497198" id="path1-2-1" sodipodi:nodetypes="cccc"/>
      <path d="m -3.9744816,3.7265263 q 0.5381099,0.1151434 0.8387276,0.4787189 0.3043042,0.3636952 0.3043042,0.8981187 0,0.8201515 -0.5640831,1.2692108 -0.564107,0.4490354 -1.6032225,0.4490354 -0.3488534,0 -0.7199695,-0.070618 -0.3674057,-0.066788 -0.7607844,-0.204194 v -0.72368 q 0.311749,0.1819314 0.6828651,0.2746206 0.3711161,0.092881 0.7756262,0.092881 0.7051038,0 1.0725095,-0.2783311 0.3711161,-0.2783311 0.3711161,-0.8090202 0,-0.4898742 -0.345143,-0.7644948 Q -4.2639441,4.0604182 -4.8762868,4.0604182 H -5.5220236 V 3.444365 h 0.6754203 q 0.5529757,0 0.8461486,-0.2190358 0.2931728,-0.2226266 0.2931728,-0.6383159 0,-0.4267966 -0.3043042,-0.6531576 -0.3006177,-0.2300474 -0.8647007,-0.2300474 -0.3080386,0 -0.6605785,0.066788 -0.3525639,0.066788 -0.7756262,0.2077848 V 1.3103816 q 0.4267727,-0.1187341 0.7978888,-0.1781012 0.3748266,-0.059367 0.7051038,-0.059367 0.8535695,0 1.3508646,0.3896683 0.4972951,0.3859579 0.4972951,1.0465364 0,0.4601907 -0.2634894,0.7793366 -0.2634893,0.3154595 -0.749653,0.437928 z" id="text3-61-0" style="font-size:3.175px;display:inline;fill:#bd93f9;stroke:#bd93f9;stroke-width:0.634366" aria-label="3"/>
      <path d="m 21.136575,-31.33522 h 2.616365 v 0.630895 h -3.51817 v -0.630895 q 0.426796,-0.441638 1.161608,-1.18387 0.738497,-0.745919 0.927778,-0.961173 0.359985,-0.40451 0.501005,-0.682865 0.144827,-0.282041 0.144827,-0.552951 0,-0.441615 -0.311749,-0.71997 -0.308014,-0.278331 -0.805309,-0.278331 -0.352564,0 -0.745943,0.122564 -0.389668,0.122564 -0.835017,0.371116 v -0.757074 q 0.45277,-0.181931 0.846148,-0.27462 0.393379,-0.09288 0.71997,-0.09288 0.86099,0 1.373127,0.430507 0.512137,0.430483 0.512137,1.150453 0,0.341408 -0.129985,0.649447 -0.126155,0.304304 -0.463901,0.719969 -0.09288,0.107723 -0.590081,0.623451 -0.497271,0.512137 -1.40281,1.436227 z" id="text3-1-1-6" style="font-size:3.175px;display:inline;fill:#bd93f9;stroke:#bd93f9;stroke-width:0.634366" aria-label="2"/>
      <path d="m 114.69597,-27.490339 h 2.61634 v 0.630895 h -3.51815 v -0.630895 q 0.42677,-0.441639 1.16158,-1.183871 0.73853,-0.745918 0.92778,-0.961172 0.35999,-0.40451 0.50101,-0.682865 0.14483,-0.282042 0.14483,-0.552952 0,-0.441614 -0.31173,-0.719969 -0.30804,-0.278332 -0.80533,-0.278332 -0.35254,0 -0.74592,0.122565 -0.38969,0.122564 -0.83502,0.371116 v -0.757074 q 0.45277,-0.181932 0.84615,-0.274621 0.39338,-0.09288 0.71994,-0.09288 0.861,0 1.37313,0.430508 0.51214,0.430483 0.51214,1.150452 0,0.341409 -0.12999,0.649448 -0.12615,0.304304 -0.4639,0.719969 -0.0929,0.107723 -0.59005,0.62345 -0.4973,0.512137 -1.40281,1.436229 z" id="text3-1-1-1" style="font-size:3.175px;display:inline;fill:#ff79c6;stroke:#ff79c6;stroke-width:0.634366" aria-label="2"/>
      <path d="m 54.97713,5.0033016 h 2.000312 V 5.6119339 H 54.97713 Z m 5.455381,-0.6012114 q 0.538109,0.1151434 0.838727,0.4787429 0.304304,0.3636952 0.304304,0.8980947 0,0.8201754 -0.564083,1.2692108 -0.564107,0.4490594 -1.603222,0.4490594 -0.348854,0 -0.71997,-0.070618 -0.367405,-0.066788 -0.760784,-0.2041941 v -0.72368 q 0.311749,0.1819314 0.682865,0.2746207 0.371116,0.092881 0.775626,0.092881 0.705104,0 1.07251,-0.278331 Q 60.8296,6.3095451 60.8296,5.778832 60.8296,5.2889578 60.484481,5.0143372 60.143048,4.7360061 59.530705,4.7360061 H 58.884969 V 4.1199529 h 0.67542 q 0.552976,0 0.846148,-0.2190358 0.293173,-0.2226266 0.293173,-0.6383398 0,-0.4267728 -0.304304,-0.6531577 -0.300618,-0.2300474 -0.864701,-0.2300474 -0.308014,0 -0.660578,0.066788 -0.352564,0.066788 -0.775626,0.2077848 V 1.9859216 q 0.426772,-0.1187342 0.797888,-0.1781013 0.374827,-0.059367 0.705128,-0.059367 0.853546,0 1.350841,0.3896683 0.497295,0.3859578 0.497295,1.0465364 0,0.4601906 -0.263489,0.7793366 -0.26349,0.3154595 -0.749653,0.4379041 z" id="text3-3-9-3" style="font-size:3.175px;display:inline;fill:#bd93f9;stroke:#bd93f9;stroke-width:0.634366" aria-label="-3"/>
      <path d="m 88.717336,11.50924 h 2.000312 v 0.608632 h -2.000312 z" id="text3-3-9-4" style="font-size:3.175px;display:inline;fill:#ff79c6;stroke:#ff79c6;stroke-width:0.634366" aria-label="-3" sodipodi:nodetypes="ccccc"/>
      <path id="path5-19-9-2" style="display:inline;fill:#bd93f9;stroke:#bd93f9;stroke-width:0.182537" d="M 3.2636827,4.7303566 A 2.7881127,2.826065 26.087256 0 1 4.5250178,8.494565 2.7881127,2.826065 26.087256 0 1 0.77821264,9.8066734 2.7881127,2.826065 26.087256 0 1 -0.48312249,6.042465 2.7881127,2.826065 26.087256 0 1 3.2636827,4.7303566 Z"/>
      <path id="path5-19-6-9-6" style="display:inline;fill:#bd93f9;stroke:#bd93f9;stroke-width:0.182537" d="M 50.965399,4.7064662 A 2.7881127,2.826065 26.087256 0 1 52.226734,8.4706506 2.7881127,2.826065 26.087256 0 1 48.479953,9.7827829 2.7881127,2.826065 26.087256 0 1 47.218594,6.0185745 2.7881127,2.826065 26.087256 0 1 50.965399,4.7064662 Z"/>
      <path style="display:inline;fill:none;stroke:#ff5555;stroke-width:2.54943;stroke-dasharray:none;stroke-opacity:1" d="M 25.894559,-28.410314 64.195905,-54.742489" id="path2-1-1" sodipodi:nodetypes="cc"/>
      <path style="fill:none;stroke:#ff5555;stroke-width:2.55142;stroke-linejoin:round;stroke-miterlimit:4.1;stroke-dasharray:none" d="m 71.377407,-54.742489 38.075223,25.378592" id="path6-1-5" sodipodi:nodetypes="cc"/>
      <path id="path5-19-3-4-2" style="display:inline;fill:#ff79c6;stroke:#ff79c6;stroke-width:0.182537" d="m 108.48607,-26.708274 a 2.7881127,2.826065 20 0 1 -1.65342,-3.609207 2.7881127,2.826065 20 0 1 3.58656,-1.70204 2.7881127,2.826065 20 0 1 1.65338,3.609207 2.7881127,2.826065 20 0 1 -3.58652,1.70204 z"/>
      <path style="fill:none;stroke:#f8f8f2;stroke-width:2.55142;stroke-linejoin:round;stroke-miterlimit:4.1;stroke-dasharray:none" d="M 109.45263,-29.363897 85.740412,7.497198 M 85.457509,7.1168417" id="path6-1-2" sodipodi:nodetypes="cc"/>
      <path id="path5-19-3-4-2-2" style="display:inline;fill:#ff79c6;stroke:#ff79c6;stroke-width:0.182537" d="m 84.999999,9.9999994 a 2.7881127,2.826065 20 0 1 -1.653421,-3.6092076 2.7881127,2.826065 20 0 1 3.586562,-1.70204 2.7881127,2.826065 20 0 1 1.653373,3.6092076 2.7881127,2.826065 20 0 1 -3.586514,1.70204 z"/>
      <path id="path5-19-7-9-1-5" style="display:inline;fill:none;stroke:#ff5555;stroke-width:2.35237" d="m 73.973784,-59.059481 a 5.6974527,5.6848571 0 0 1 -5.697445,5.684853 5.6974527,5.6848571 0 0 1 -5.697445,-5.684853 5.6974527,5.6848571 0 0 1 5.697445,-5.684853 5.6974527,5.6848571 0 0 1 5.697445,5.684853 z"/>
      <path id="path5-19-4-0-0" style="display:inline;fill:#bd93f9;stroke:#bd93f9;stroke-width:0.182537" d="m 28.720624,-28.438513 a 2.826065,2.7881127 0 0 1 -2.826065,2.788123 2.826065,2.7881127 0 0 1 -2.826064,-2.788123 2.826065,2.7881127 0 0 1 2.826064,-2.788122 2.826065,2.7881127 0 0 1 2.826065,2.788122 z"/>
      <path d="m 67.016679,-57.136323 h 1.224662 v -4.226984 l -1.332288,0.2672 v -0.682842 l 1.324867,-0.267199 h 0.749653 v 4.909825 h 1.224686 v 0.630895 h -3.19158 z" id="text3-1-6-3-4" style="font-size:3.175px;display:inline;fill:#ff5555;stroke:#ff5555;stroke-width:0.634366" aria-label="1"/>
      <path d="m 60.577399,52.419358 h 1.224678 v -4.226984 l -1.332303,0.267199 v -0.682865 l 1.32488,-0.2672 h 0.74965 v 4.90985 h 1.224679 v 0.630895 h -3.191584 z" id="text3-1-6-6" style="font-size:3.175px;fill:#f8f8f2;stroke:#ffb86c;stroke-width:0.634366" aria-label="1"/>
      <path d="m 8.9849055,128.26156 q -0.5789392,0 -0.8721192,0.57152 -0.2894696,0.5678 -0.2894696,1.71083 0,1.13932 0.2894696,1.71085 0.29318,0.56779 0.8721192,0.56779 0.5826497,0 0.8721193,-0.56779 0.2931802,-0.57153 0.2931802,-1.71085 0,-1.14303 -0.2931802,-1.71083 -0.2894696,-0.57152 -0.8721193,-0.57152 z m 0,-0.59377 q 0.9314959,0 1.4213675,0.7385 0.493582,0.73481 0.493582,2.13762 0,1.3991 -0.493582,2.13762 -0.4898716,0.73481 -1.4213675,0.73481 -0.9314983,0 -1.4250805,-0.73481 -0.4898695,-0.73852 -0.4898695,-2.13762 0,-1.40281 0.4898695,-2.13762 0.4935822,-0.7385 1.4250805,-0.7385 z" id="text3-6-7-6" style="font-size:3.175px;fill:#50fa7b;stroke:#50fa7b;stroke-width:0.634366" aria-label="0"/>
      <path d="m 44.67042,166.76686 -1.892683,2.95779 h 1.892683 z m -0.196701,-0.65316 h 0.942632 v 3.61095 h 0.790472 v 0.62348 h -0.790472 v 1.30631 H 44.67041 v -1.30631 H 42.1691 v -0.72368 z" id="text3-2-7-9" style="font-size:3.175px;fill:#50fa7b;stroke:#50fa7b;stroke-width:0.634366" aria-label="4"/>
      <path d="m -14.245445,170.03384 q 0.538115,0.11515 0.838718,0.47874 0.304314,0.3637 0.304314,0.8981 0,0.82018 -0.564092,1.26921 -0.564096,0.44906 -1.603216,0.44906 -0.348846,0 -0.719962,-0.0706 -0.367403,-0.0668 -0.760785,-0.20419 v -0.72368 q 0.311737,0.18193 0.682851,0.27462 0.371114,0.0929 0.775629,0.0929 0.705118,0 1.072521,-0.27833 0.371114,-0.27836 0.371114,-0.80905 0,-0.48987 -0.345136,-0.76449 -0.341425,-0.27833 -0.953763,-0.27833 h -0.645739 v -0.61606 h 0.675427 q 0.552961,0 0.846141,-0.21903 0.29318,-0.22263 0.29318,-0.63832 0,-0.42677 -0.304313,-0.65315 -0.300604,-0.23005 -0.864696,-0.23005 -0.308027,0 -0.660584,0.0668 -0.352559,0.0668 -0.775631,0.20778 v -0.66802 q 0.426783,-0.11874 0.797896,-0.1781 0.374827,-0.0594 0.705119,-0.0594 0.853562,0 1.350857,0.38969 0.497293,0.38596 0.497293,1.04654 0,0.46016 -0.263492,0.77933 -0.263492,0.31544 -0.749651,0.43791 z" id="text3-5-6-3" style="font-size:3.175px;fill:#50fa7b;stroke:#50fa7b;stroke-width:0.634366" aria-label="3"/>
      <path style="fill:#50fa7b;stroke:#50fa7b;stroke-width:2.55142;stroke-dasharray:none;stroke-opacity:1" d="m 14.296505,134.44062 23.938343,35.90751" id="path13"/>
      <path style="fill:none;stroke:#ffb86c;stroke-width:2.55142;stroke-dasharray:none;stroke-opacity:1" d="M 56.990972,53.367441 14.296505,134.44062" id="path4-3-7"/>
      <path style="fill:#50fa7b;stroke:#50fa7b;stroke-width:2.54943;stroke-dasharray:none;stroke-opacity:1" d="M 14.296505,134.44062 -9.641836,170.34813" id="path3-9-4" sodipodi:nodetypes="cc"/>
      <path style="fill:none;stroke:#ffb86c;stroke-width:2.54943;stroke-dasharray:none;stroke-opacity:1" d="m 62.119376,86.881118 0.05381,-31.437026" id="path3-9-3-5" sodipodi:nodetypes="cc"/>
      <path id="path5-19-3-4-25" style="fill:#50fa7b;stroke:#50fa7b;stroke-width:0.182537" d="m 13.55608,137.07898 a 2.7881127,2.826065 20 0 1 -1.653409,-3.60921 2.7881127,2.826065 20 0 1 3.58655,-1.70204 2.7881127,2.826065 20 0 1 1.653385,3.60921 2.7881127,2.826065 20 0 1 -3.586526,1.70204 z"/>
      <path id="path5-19-1-8-4" style="fill:#50fa7b;stroke:#50fa7b;stroke-width:0.182537" d="m -10.257229,172.48716 a 2.7881127,2.826065 20 0 1 -1.653399,-3.60923 2.7881127,2.826065 20 0 1 3.5865402,-1.70204 2.7881127,2.826065 20 0 1 1.6534069,3.60923 2.7881127,2.826065 20 0 1 -3.5865481,1.70204 z"/>
      <path id="path5-19-7-1-7" style="fill:#50fa7b;stroke:#50fa7b;stroke-width:0.182537" d="m 37.293066,172.48716 a 2.7881127,2.826065 20 0 1 -1.653407,-3.6092 2.7881127,2.826065 20 0 1 3.58655,-1.70204 2.7881127,2.826065 20 0 1 1.653383,3.6092 2.7881127,2.826065 20 0 1 -3.586526,1.70204 z"/>
      <path d="m 108.45408,145.77889 h 1.22468 v -4.22698 l -1.33231,0.2672 v -0.68287 l 1.32488,-0.2672 h 0.74966 v 4.90985 h 1.22467 v 0.6309 h -3.19158 z" id="text9-6-4" style="font-size:3.175px;fill:#8be9fd;stroke:#8be9fd;stroke-width:0.634366" aria-label="1"/>
      <path d="m 140.31246,172.11107 h 2.61634 v 0.63089 h -3.51815 v -0.63089 q 0.42677,-0.44162 1.16159,-1.18385 0.73852,-0.74594 0.92777,-0.9612 0.35999,-0.40451 0.50101,-0.68284 0.14483,-0.28204 0.14483,-0.55295 0,-0.44164 -0.31173,-0.71997 -0.30804,-0.27833 -0.80533,-0.27833 -0.35254,0 -0.74595,0.12257 -0.38966,0.12256 -0.83499,0.37111 v -0.75707 q 0.45275,-0.18193 0.84615,-0.27462 0.39338,-0.0929 0.71995,-0.0929 0.86099,0 1.37312,0.43048 0.51214,0.43051 0.51214,1.15045 0,0.34143 -0.12999,0.64945 -0.12615,0.30433 -0.4639,0.71997 -0.0929,0.10772 -0.59005,0.62347 -0.4973,0.51214 -1.40281,1.43621 z" id="text10-0-4" style="font-size:3.175px;fill:#8be9fd;stroke:#8be9fd;stroke-width:0.634366" aria-label="2"/>
      <path d="m 78.213781,172.33345 h 2.616355 v 0.6309 h -3.518163 v -0.6309 q 0.42678,-0.44163 1.161587,-1.18387 0.738519,-0.74594 0.927785,-0.96117 0.359983,-0.40451 0.501006,-0.68286 0.144731,-0.28204 0.144731,-0.55295 0,-0.44164 -0.311735,-0.71997 -0.308026,-0.27834 -0.805319,-0.27834 -0.352559,0 -0.74594,0.12257 -0.389668,0.12256 -0.835008,0.37111 v -0.75707 q 0.45276,-0.18193 0.846142,-0.27462 0.393381,-0.0929 0.719962,-0.0929 0.860985,0 1.373122,0.43051 0.51214,0.43048 0.51214,1.15045 0,0.34141 -0.12989,0.64945 -0.126179,0.3043 -0.463894,0.71994 -0.09278,0.10772 -0.590073,0.62348 -0.497292,0.51213 -1.40281,1.43622 z" id="text11-3-30" style="font-size:3.175px;fill:#8be9fd;stroke:#8be9fd;stroke-width:0.634366" inkscape:transform-center-x="-18.562382" inkscape:transform-center-y="10.075305" aria-label="2"/>
      <path d="m 62.173189,93.745437 q -0.534406,0 -0.842431,0.285776 -0.304313,0.285752 -0.304313,0.786758 0,0.501005 0.304313,0.786757 0.308025,0.285752 0.842431,0.285752 0.534405,0 0.842429,-0.285752 0.308024,-0.289462 0.308024,-0.786757 0,-0.501006 -0.308024,-0.786758 -0.304314,-0.285776 -0.842429,-0.285776 z m -0.749653,-0.319146 q -0.482448,-0.118734 -0.753361,-0.449059 -0.267202,-0.330277 -0.267202,-0.80531 0,-0.664289 0.471315,-1.050247 0.475027,-0.385957 1.298901,-0.385957 0.827585,0 1.2989,0.385957 0.471314,0.385958 0.471314,1.050247 0,0.475033 -0.270912,0.80531 -0.267202,0.330301 -0.74594,0.449059 0.541827,0.126155 0.84243,0.493585 0.304314,0.367406 0.304314,0.898095 0,0.805309 -0.493582,1.235817 -0.489872,0.430483 -1.406524,0.430483 -0.916654,0 -1.410236,-0.430483 -0.489869,-0.430508 -0.489869,-1.235817 0,-0.530689 0.304313,-0.898095 0.304314,-0.367406 0.846139,-0.493585 z m -0.274623,-1.183846 q 0,0.430483 0.267202,0.671709 0.270913,0.241227 0.757074,0.241227 0.482449,0 0.753362,-0.241227 0.274625,-0.241226 0.274625,-0.671709 0,-0.430508 -0.274625,-0.671734 -0.270913,-0.241227 -0.753362,-0.241227 -0.486161,0 -0.757074,0.241227 -0.267202,0.241226 -0.267202,0.671734 z" id="text11-3-3-7" style="font-size:3.175px;fill:#f8f8f2;stroke:#ffb86c;stroke-width:0.634366" inkscape:transform-center-x="-18.562382" inkscape:transform-center-y="10.075305" aria-label="8"/>
      <path style="fill:#8be9fd;stroke:#8be9fd;stroke-width:2.55142;stroke-dasharray:none;stroke-opacity:1" d="m 110.04987,134.44062 23.93834,35.90751" id="path14"/>
      <path style="fill:none;stroke:#ffb86c;stroke-width:2.55142;stroke-dasharray:none;stroke-opacity:1" d="M 66.960858,53.050258 110.04987,134.44062" id="path11-6-8"/>
      <path style="fill:#8be9fd;stroke:#8be9fd;stroke-width:2.54943;stroke-dasharray:none;stroke-opacity:1" d="M 110.04987,134.44062 86.11153,170.34813" id="path12-1-6" sodipodi:nodetypes="cc"/>
      <path id="ellipse12-5-8" style="fill:#8be9fd;stroke:#8be9fd;stroke-width:0.182537" d="m 112.44371,136.1681 a 2.826065,2.7881127 33.033237 0 1 -3.88912,0.79686 2.826065,2.7881127 33.033237 0 1 -0.84937,-3.87798 2.826065,2.7881127 33.033237 0 1 3.88911,-0.79686 2.826065,2.7881127 33.033237 0 1 0.84938,3.87798 z"/>
      <path id="ellipse13-5-8" style="fill:#8be9fd;stroke:#8be9fd;stroke-width:0.182537" d="m 88.462287,171.97402 a 2.826065,2.7881127 33.033237 0 1 -3.889121,0.79688 2.826065,2.7881127 33.033237 0 1 -0.849368,-3.87798 2.826065,2.7881127 33.033237 0 1 3.889107,-0.79686 2.826065,2.7881127 33.033237 0 1 0.849382,3.87796 z"/>
      <path id="ellipse13-5-1-4" style="fill:#ffb86c;stroke:#ffb86c;stroke-width:0.182537" d="m 64.515532,88.423848 a 2.826065,2.7881127 33.033237 0 1 -3.889119,0.796884 2.826065,2.7881127 33.033237 0 1 -0.849368,-3.878011 2.826065,2.7881127 33.033237 0 1 3.889107,-0.796836 2.826065,2.7881127 33.033237 0 1 0.84938,3.877963 z"/>
      <path id="ellipse14-4-3" style="fill:#8be9fd;stroke:#8be9fd;stroke-width:0.182537" d="m 136.39059,171.83226 a 2.826065,2.7881127 33.033237 0 1 -3.88913,0.79688 2.826065,2.7881127 33.033237 0 1 -0.84937,-3.87799 2.826065,2.7881127 33.033237 0 1 3.88912,-0.79686 2.826065,2.7881127 33.033237 0 1 0.84938,3.87797 z"/>
      <path style="fill:#ff79c6;stroke:#ff79c6;stroke-width:2.55142;stroke-linejoin:round;stroke-miterlimit:4.1;stroke-dasharray:none" d="M 109.45263,-29.363897 85.740412,7.497198 M 85.457509,7.1168417" id="path2" sodipodi:nodetypes="cc"/>
      <path style="fill:#ff79c6;stroke:#ff79c6;stroke-width:2.55142;stroke-linejoin:round;stroke-miterlimit:4.1;stroke-dasharray:none" d="M 85.740412,7.497198 62.028216,44.358293 m -0.282927,-0.380356" id="path3" sodipodi:nodetypes="cc"/>
      <path d="m 92.692992,14.003136 h 2.616365 v 0.630895 h -3.51817 v -0.630895 q 0.426772,-0.441638 1.161584,-1.18387 0.738521,-0.745919 0.927802,-0.961173 0.359961,-0.40451 0.501005,-0.682865 0.144827,-0.282041 0.144827,-0.552951 0,-0.441615 -0.311749,-0.71997 -0.308014,-0.2783311 -0.805309,-0.2783311 -0.352564,0 -0.745943,0.1225644 -0.389668,0.1225643 -0.835017,0.3711157 V 9.3605824 q 0.45277,-0.1819314 0.846148,-0.2746207 0.393379,-0.092881 0.71997,-0.092881 0.860966,0 1.373103,0.4305071 0.512137,0.4304832 0.512137,1.1504532 0,0.341408 -0.129985,0.649447 -0.126155,0.304304 -0.463877,0.71997 -0.09288,0.107722 -0.59008,0.62345 -0.497296,0.512137 -1.402811,1.436228 z" id="path4-1" style="font-size:3.175px;display:inline;fill:#ff79c6;stroke:#ff79c6;stroke-width:0.634366" aria-label="2"/>
      <path id="path5-19-7-9-5-5" style="fill:none;stroke:#ffb86c;stroke-width:2.35237" d="m 67.647997,50.22979 a 5.6974527,5.6848571 0 0 1 -5.697454,5.684853 5.6974527,5.6848571 0 0 1 -5.697453,-5.684853 5.6974527,5.6848571 0 0 1 5.697453,-5.684854 5.6974527,5.6848571 0 0 1 5.697454,5.684854 z"/>
    </g>
  </g>
</svg>
