<svg xmlns="http://www.w3.org/2000/svg" viewBox="0 0 4756.852 1521.294">
  <g style="display:inline">
    <path d="M40.746 109.886c-7.915-.388-14.91-1.963-15.746-4.886v5c.424 2.826 7.572 4.455 15.71 4.885m4.038.099c2.152.007 3.53-.011 5.596-.164.683-.051 1.22-.139 2.652-2.476 1.927 2.064 1.883 1.994 2.452 1.92.67-.087 2.03-1.336 2.999-2.952.215.43 1.777 2.055 2.155 1.939 2.8-.862 4.172-1.894 4.398-3.251v-5c-.18 1.722-.24 2.252-4.398 3.08-.07.013-2.086 3.218-2.155 3.232-.733.141-2.258-2.189-3.068-2.073-.81.115-2.038 2.31-2.383 3.105-.522-.437-1.94-2.584-2.724-2.53a83 83 0 0 1-5.6.186" style="display:inline;fill:#ff851b;fill-opacity:.7;stroke:none;stroke-width:.264999;stroke-dasharray:none;stroke-opacity:1" transform="translate(-1145.159 -4498.87)scale(46.41107)"/>
    <path d="M25 105v5c1.684-6.934 38.497-6.526 40 0v-5c-.716-6.316-38-7-40 0" class="stroke-orange fill-orange" style="display:inline;fill:#ff851b;fill-opacity:.7;stroke:none;stroke-width:.264999;stroke-dasharray:none;stroke-opacity:1" transform="translate(-1145.159 -4498.87)scale(46.41107)"/>
    <path d="M63.47 108.079c.986.591 1.53 1.24 1.53 1.921 0 .95-2.023 2.28-3.86 3.035m-10.796 1.785a78 78 0 0 1-5.63.18m-4.03-.117C31.715 114.39 25 112.391 25 110c0-.656.505-1.283 1.424-1.857m2.445-1.099C32.509 105.804 38.379 105 45 105c6.643 0 12.53.81 16.167 2.056" class="stroke-blue fill-blue" style="display:inline;fill:none;stroke:#ff851b;stroke-width:.651487;stroke-dasharray:none;stroke-opacity:1" transform="translate(-1145.159 -4498.87)scale(46.41107)"/>
    <path d="M40.776 109.888C31.76 109.404 25 107.4 25 105c0-2.761 8.954-5 20-5s20 2.239 20 5c0 1.056-2.104 2.272-4.398 3.08m-10.57 1.74c-1.713.117-3.512.18-5.36.18" class="stroke-blue fill-blue" style="display:inline;fill:none;stroke:#ff851b;stroke-width:.651487;stroke-dasharray:none;stroke-opacity:1" transform="translate(-1145.159 -4498.87)scale(46.41107)"/>
    <path d="M25 105v5m40-5v5" class="stroke-blue fill-blue" style="display:inline;fill:none;fill-opacity:1;stroke:#ff851b;stroke-width:.651487;stroke-dasharray:none;stroke-opacity:1" transform="translate(-1145.159 -4498.87)scale(46.41107)"/>
    <path d="M50.665 100.215c2.45.181 4.147.428 6.538.816l-.67 4.87c-2.624-.398-3.88-.544-6.158-.718zm-9.923 9.79c2.452.181 1.567-.255 3.958.134l.018 4.69c-.034-.006-3.99-.06-3.99-.06z" class="stroke-comment fill-comment stroke-comment" style="fill:#616161;fill-opacity:1;stroke:#616161;stroke-width:.0649999;stroke-dasharray:none;stroke-opacity:1" transform="translate(-1145.159 -4498.87)scale(46.41107)"/>
  </g>
  <path d="M81.94-8.863c1.6-.121 3.48 4.738 5.75 4.402.775-.142 1.376-.789 1.89-1.613M91-8.865c.455-.896.914-1.608 1.483-1.737" class="stroke-blue fill-blue" style="fill:none;fill-opacity:1;stroke:#ff851b;stroke-width:.651487;stroke-linecap:round;stroke-dasharray:none;stroke-opacity:1" transform="translate(-2624.864 1009.257)scale(46.41107)"/>
  <path d="M93.023-5.646c-1.831.523-4.373-3.996-5.79-3.762-.618.074-1.131.856-1.664 1.812m-1.528 2.542c-.513.654-1.104 1.133-1.832 1.192" class="stroke-blue fill-blue" style="fill:none;fill-opacity:1;stroke:#ff851b;stroke-width:.651487;stroke-linecap:round;stroke-dasharray:none;stroke-opacity:1" transform="translate(-2624.864 1009.257)scale(46.41107)"/>
  <g style="display:inline">
    <path d="M103.883-11.255v5c1 6.664 39.39 6.671 40 0v-5c-.66 6.273-38 7-40 0" class="stroke-yellow fill-yellow" style="display:inline;fill:#b10dc9;fill-opacity:.7;stroke:none;stroke-width:.264999;stroke-dasharray:none;stroke-opacity:1" transform="rotate(90 2091.668 -1765.586)scale(37.27643)"/>
    <path d="M125.68-11.256c8.924.256 17.501 1.955 18.203 5.001v-5c-.338-2.981-9.006-4.707-18.082-4.963m-5.908.05c-8.022.37-15.165 1.956-16.01 4.913v5c.714-2.944 7.864-4.581 15.852-4.972" class="stroke-yellow fill-yellow" style="display:inline;fill:#b10dc9;fill-opacity:.7;stroke:none;stroke-width:.264999;stroke-dasharray:none;stroke-opacity:1" transform="rotate(90 2091.668 -1765.586)scale(37.27643)"/>
    <path d="M142.353-8.176c.985.591 1.53 1.24 1.53 1.921 0 2.762-8.955 5-20 5s-20-2.238-20-5c0-.656.505-1.282 1.424-1.856m2.445-1.1c2.846-.97 7.142-1.728 12.01-1.988m5.911-.033c5.846.14 11.096.909 14.377 2.033" style="display:inline;fill:none;stroke:#b10dc9;stroke-width:.811135;stroke-dasharray:none;stroke-opacity:1" transform="rotate(90 2091.668 -1765.586)scale(37.27643)"/>
    <path d="M125.8-16.241c10.072.259 18.083 2.4 18.083 4.986 0 2.762-8.955 5-20 5s-20-2.238-20-5c0-2.407 6.965-4.433 16.03-4.909" style="display:inline;fill:none;stroke:#b10dc9;stroke-width:.811135;stroke-dasharray:none;stroke-opacity:1" transform="rotate(90 2091.668 -1765.586)scale(37.27643)"/>
    <path d="M103.883-11.255v5m40-5v5" style="display:inline;fill:none;fill-opacity:1;stroke:#b10dc9;stroke-width:.811135;stroke-dasharray:none;stroke-opacity:1" transform="rotate(90 2091.668 -1765.586)scale(37.27643)"/>
  </g>
  <path d="M112.206-10.702v3.331h-10.419v2.718h10.419v3.332l8.014-4.69z" class="stroke-comment fill-comment" style="display:inline;fill:#616161;stroke:none;stroke-width:.891466;stroke-miterlimit:4.1;stroke-dasharray:none;fill-opacity:1" transform="translate(-1430.926 964.615)scale(33.9288)"/>
  <g style="display:inline">
    <path d="M40.746 109.886c-7.915-.388-14.91-1.963-15.746-4.886v5c.424 2.826 7.572 4.455 15.71 4.885m4.038.099c2.152.007 3.53-.011 5.596-.164.683-.051 1.22-.139 2.652-2.476 1.927 2.064 1.883 1.994 2.452 1.92.67-.087 2.03-1.336 2.999-2.952.215.43 1.777 2.055 2.155 1.939 2.8-.862 4.172-1.894 4.398-3.251v-5c-.18 1.722-.24 2.252-4.398 3.08-.07.013-2.086 3.218-2.155 3.232-.733.141-2.258-2.189-3.068-2.073-.81.115-2.038 2.31-2.383 3.105-.522-.437-1.94-2.584-2.724-2.53a83 83 0 0 1-5.6.186" style="display:inline;fill:#ff851b;fill-opacity:.7;stroke:none;stroke-width:.264999;stroke-dasharray:none;stroke-opacity:1" transform="matrix(-46.41107 0 0 46.41107 5902.01 -4498.87)"/>
    <path d="M25 105v5c1.684-6.934 38.497-6.526 40 0v-5c-.716-6.316-38-7-40 0" class="stroke-orange fill-orange" style="display:inline;fill:#ff851b;fill-opacity:.7;stroke:none;stroke-width:.264999;stroke-dasharray:none;stroke-opacity:1" transform="matrix(-46.41107 0 0 46.41107 5902.01 -4498.87)"/>
    <path d="M63.47 108.079c.986.591 1.53 1.24 1.53 1.921 0 .95-2.023 2.28-3.86 3.035m-10.796 1.785a78 78 0 0 1-5.63.18m-4.03-.117C31.715 114.39 25 112.391 25 110c0-.656.505-1.283 1.424-1.857m2.445-1.099C32.509 105.804 38.379 105 45 105c6.643 0 12.53.81 16.167 2.056" class="stroke-blue fill-blue" style="display:inline;fill:none;stroke:#ff851b;stroke-width:.651487;stroke-dasharray:none;stroke-opacity:1" transform="matrix(-46.41107 0 0 46.41107 5902.01 -4498.87)"/>
    <path d="M40.776 109.888C31.76 109.404 25 107.4 25 105c0-2.761 8.954-5 20-5s20 2.239 20 5c0 1.056-2.104 2.272-4.398 3.08m-10.57 1.74c-1.713.117-3.512.18-5.36.18" class="stroke-blue fill-blue" style="display:inline;fill:none;stroke:#ff851b;stroke-width:.651487;stroke-dasharray:none;stroke-opacity:1" transform="matrix(-46.41107 0 0 46.41107 5902.01 -4498.87)"/>
    <path d="M25 105v5m40-5v5" class="stroke-blue fill-blue" style="display:inline;fill:none;fill-opacity:1;stroke:#ff851b;stroke-width:.651487;stroke-dasharray:none;stroke-opacity:1" transform="matrix(-46.41107 0 0 46.41107 5902.01 -4498.87)"/>
    <path d="M28.117 102.26c2.422-.802 2.257-.693 4.59-1.15l.67 4.82c-2.027.48-1.74.35-3.985.943zm12.625 7.745c2.452.181 1.567-.255 3.958.134l.018 4.69c-.034-.006-3.99-.06-3.99-.06z" class="stroke-comment fill-comment stroke-comment" style="fill:#616161;fill-opacity:1;stroke:#616161;stroke-width:.0649999;stroke-dasharray:none;stroke-opacity:1" transform="matrix(-46.41107 0 0 46.41107 5902.01 -4498.87)"/>
  </g>
  <path d="M81.94-8.863c1.026-.078.925.568 1.925 1.568m8.619-3.307c-1.658.377-2.384 5.7-4.794 6.141-.91.135-.885.106-1.885-.894m5.565-.919c1.092.899.899.843 1.653.628m-3.77-2.37c-1.093-.899-1.055-1.552-2.02-1.392-1.637.196-2.529 5.345-5.024 5.546" class="stroke-blue fill-blue" style="fill:none;fill-opacity:1;stroke:#ff851b;stroke-width:.651487;stroke-linecap:round;stroke-dasharray:none;stroke-opacity:1" transform="matrix(-46.41107 0 0 46.41107 7381.716 1009.257)"/>
  <g style="display:inline">
    <path d="M103.883-11.255v5c1 6.664 39.39 6.671 40 0v-5c-.66 6.273-38 7-40 0" class="stroke-yellow fill-yellow" style="display:inline;fill:#b10dc9;fill-opacity:.7;stroke:none;stroke-width:.264999;stroke-dasharray:none;stroke-opacity:1" transform="matrix(0 37.27643 37.27643 0 4430.77 -3857.254)"/>
    <path d="M125.68-11.256c8.924.256 17.501 1.955 18.203 5.001v-5c-.338-2.981-9.006-4.707-18.082-4.963m-5.908.05c-8.022.37-15.165 1.956-16.01 4.913v5c.714-2.944 7.864-4.581 15.852-4.972" class="stroke-yellow fill-yellow" style="display:inline;fill:#b10dc9;fill-opacity:.7;stroke:none;stroke-width:.264999;stroke-dasharray:none;stroke-opacity:1" transform="matrix(0 37.27643 37.27643 0 4430.77 -3857.254)"/>
    <path d="M142.353-8.176c.985.591 1.53 1.24 1.53 1.921 0 2.762-8.955 5-20 5s-20-2.238-20-5c0-.656.505-1.282 1.424-1.856m2.445-1.1c2.846-.97 7.142-1.728 12.01-1.988m5.911-.033c5.846.14 11.096.909 14.377 2.033" style="display:inline;fill:none;stroke:#b10dc9;stroke-width:.811135;stroke-dasharray:none;stroke-opacity:1" transform="matrix(0 37.27643 37.27643 0 4430.77 -3857.254)"/>
    <path d="M125.8-16.241c10.072.259 18.083 2.4 18.083 4.986 0 2.762-8.955 5-20 5s-20-2.238-20-5c0-2.407 6.965-4.433 16.03-4.909" style="display:inline;fill:none;stroke:#b10dc9;stroke-width:.811135;stroke-dasharray:none;stroke-opacity:1" transform="matrix(0 37.27643 37.27643 0 4430.77 -3857.254)"/>
    <path d="M103.883-11.255v5m40-5v5" style="display:inline;fill:none;fill-opacity:1;stroke:#b10dc9;stroke-width:.811135;stroke-dasharray:none;stroke-opacity:1" transform="matrix(0 37.27643 37.27643 0 4430.77 -3857.254)"/>
  </g>
  <path d="M-1893 1520h190l23 225c-1.591-.278-185 0-185 0zm3818-40 190.088 8.333-22.752 223.912C2090.746 1711.966 1910 1700 1910 1700Z" class="stroke-comment fill-comment stroke-comment" style="display:inline;fill:#616161;fill-opacity:1;stroke:#616161;stroke-width:3.01671;stroke-dasharray:none;stroke-opacity:1" transform="translate(2267.423 -567.78)"/>
</svg>
