<?xml version="1.0" encoding="UTF-8" standalone="no"?>
<svg
   viewBox="0 0 1865.4713 321.9362"
   version="1.1"
   id="svg10"
   sodipodi:docname="f3p_def.svg"
   inkscape:version="1.4.2 (ebf0e940d0, 2025-05-08)"
   width="1865.4713"
   height="321.93619"
   xmlns:inkscape="http://www.inkscape.org/namespaces/inkscape"
   xmlns:sodipodi="http://sodipodi.sourceforge.net/DTD/sodipodi-0.dtd"
   xmlns="http://www.w3.org/2000/svg"
   xmlns:svg="http://www.w3.org/2000/svg">
  <defs
     id="defs10" />
  <sodipodi:namedview
     id="namedview10"
     pagecolor="#ffffff"
     bordercolor="#000000"
     borderopacity="0.25"
     inkscape:showpageshadow="2"
     inkscape:pageopacity="0.0"
     inkscape:pagecheckerboard="0"
     inkscape:deskcolor="#d1d1d1"
     inkscape:zoom="0.7215687"
     inkscape:cx="487.82604"
     inkscape:cy="-49.198365"
     inkscape:window-width="2234"
     inkscape:window-height="1418"
     inkscape:window-x="0"
     inkscape:window-y="0"
     inkscape:window-maximized="1"
     inkscape:current-layer="svg10" />
  <path
     d="m 465.47129,180.9686 h -250 v -40 h 250 z"
     style="fill:#b10dc9;stroke-width:1.84012;stroke-linecap:round;stroke-linejoin:round;paint-order:stroke fill markers"
     id="path2" />
  <text
     x="169.46431"
     y="87.70858"
     style="font-size:112.438px;font-family:Inter;-inkscape-font-specification:Inter;text-align:start;writing-mode:lr-tb;direction:ltr;text-anchor:start;fill:#616161;stroke-width:3.02362;stroke-linecap:round;stroke-linejoin:round;paint-order:stroke fill markers"
     id="text2"><tspan
       x="169.46431"
       y="87.70858"
       id="tspan2">w</tspan></text>
  <g
     id="svg12-36"
     transform="translate(700.00001,4.9725453e-4)">
    <g
       id="svg12-3-7"
       transform="matrix(-0.81559531,0.57862275,0.57862275,0.81559531,125.74831,34.498941)">
      <path
         d="M 250,175.063 H 0 v -40 h 250 z"
         style="fill:#0074d9;stroke-width:1.84012;stroke-linecap:round;stroke-linejoin:round;paint-order:stroke fill markers"
         id="path1-6-5" />
    </g>
    <g
       id="svg12-7-3"
       transform="matrix(1,0,0,-1,36.521869,260.63975)">
      <g
         id="svg12-3-5-5"
         transform="matrix(-0.81559531,0.57862275,0.57862275,0.81559531,89.226434,-26.7965)">
        <path
           d="M 250,175.063 H 0 v -40 h 250 z"
           style="fill:#0074d9;stroke-width:1.84012;stroke-linecap:round;stroke-linejoin:round;paint-order:stroke fill markers"
           id="path1-6-3-6" />
      </g>
    </g>
    <ellipse
       style="fill:#0074d9;fill-opacity:0.998543;stroke:none;stroke-width:2.2023;stroke-linejoin:round;stroke-dasharray:2.2023, 4.40461;paint-order:stroke fill markers"
       id="path12-2"
       cx="24.516127"
       cy="163.02235"
       rx="18.899014"
       ry="19.017635" />
    <g
       id="svg12-2-9"
       transform="translate(-23.269233,-49.143319)">
      <ellipse
         style="fill:#0074d9;fill-opacity:0.998543;stroke:none;stroke-width:2.2023;stroke-linejoin:round;stroke-dasharray:2.2023, 4.40461;paint-order:stroke fill markers"
         id="path12-9-1"
         cx="47.785358"
         cy="157.44334"
         rx="18.899014"
         ry="19.017635" />
    </g>
    <g
       id="svg12-5-2"
       transform="translate(-25.562735,372.21765)">
      <ellipse
         style="fill:#0074d9;fill-opacity:0.998543;stroke:none;stroke-width:2.2023;stroke-linejoin:round;stroke-dasharray:2.2023, 4.40461;paint-order:stroke fill markers"
         id="path12-6-7"
         cx="50.078861"
         cy="-154.47296"
         rx="18.899014"
         ry="19.017635" />
    </g>
  </g>
  <path
     d="M 1165.4713,180.9686 H 915.47129 v -40 h 250.00001 z"
     style="fill:#b10dc9;stroke-width:1.84012;stroke-linecap:round;stroke-linejoin:round;paint-order:stroke fill markers"
     id="path5" />
  <text
     x="869.46429"
     y="87.70858"
     style="font-size:112.438px;font-family:Inter;-inkscape-font-specification:Inter;text-align:start;writing-mode:lr-tb;direction:ltr;text-anchor:start;fill:#616161;stroke-width:3.02362;stroke-linecap:round;stroke-linejoin:round;paint-order:stroke fill markers"
     id="text5"><tspan
       x="869.46429"
       y="87.70858"
       id="tspan5">w</tspan></text>
  <path
     d="m 865.47129,160.9686 a 50,50 0 0 1 50,-50 50,50 0 0 1 50,50 50,50 0 0 1 -50,50 50,50 0 0 1 -50,-50"
     style="fill:#616161;stroke-width:2.25367;stroke-linecap:round;stroke-linejoin:round;paint-order:stroke fill markers"
     id="path6" />
  <path
     d="m 1055.0013,125.1376 15.309,-10.301 -0.237,-0.351 -0.236,-0.352 -0.247,-0.366 -0.073,-0.11 -0.251,-0.353 -0.251,-0.353 -0.25,-0.353 -0.251,-0.353 -0.251,-0.353 -0.079,-0.104 -0.26,-0.346 -0.26,-0.347 -0.259,-0.346 -0.26,-0.347 -0.076,-0.105 -0.268,-0.34 -0.269,-0.339 -0.268,-0.34 -0.269,-0.339 -0.268,-0.34 -0.082,-0.1 -0.277,-0.333 -0.277,-0.332 -0.277,-0.333 -0.277,-0.332 -0.277,-0.333 -0.086,-0.094 -0.286,-0.326 -0.285,-0.325 -0.286,-0.325 -0.286,-0.326 -0.082,-0.096 -0.294,-0.318 -0.294,-0.318 -0.294,-0.318 -0.294,-0.318 -0.294,-0.317 -0.086,-0.092 -0.302,-0.31 -0.303,-0.31 -0.302,-0.31 -0.302,-0.31 -0.302,-0.31 -0.091,-0.087 -0.31,-0.302 -0.31,-0.302 -0.31,-0.302 -0.31,-0.302 -0.086,-0.09 -0.318,-0.294 -0.318,-0.294 -0.318,-0.294004 -0.318,-0.294 -0.318,-0.294 -0.09,-0.085 -0.325,-0.286 -0.326,-0.285 -0.325,-0.286 -0.326,-0.285 -0.325,-0.286 -0.093,-0.081 -0.333,-0.277 -0.333,-0.277 -0.339,-0.282 -0.333,-0.277 -0.333,-0.277 -0.096,-0.077 -0.34,-0.269 -0.34,-0.268 -0.34,-0.268 -0.34,-0.268 -0.34,-0.268 -0.099,-0.074 -0.347,-0.259 -0.347,-0.259 -0.347,-0.259 -0.346,-0.26 -0.347,-0.259 -0.102,-0.071 -0.353,-0.25 -0.354,-0.25 -0.353,-0.25 -0.354,-0.249 -0.353,-0.25 -0.104,-0.069 -0.36,-0.24 -0.36,-0.241 -0.36,-0.241 -0.36,-0.24 -0.36,-0.241 -0.106,-0.066 -0.366,-0.231 -0.366,-0.232 -0.366,-0.231 -0.366,-0.231 -0.366,-0.231 -0.108,-0.065 -0.371,-0.221 -0.372,-0.222 -0.372,-0.221 -0.372,-0.222 -0.372,-0.222 -0.11,-0.063 -0.377,-0.212 -0.378,-0.212 -0.377,-0.212 -0.378,-0.212 -0.377,-0.211 -0.111,-0.063 -0.383,-0.202 -0.383,-0.203 -0.383,-0.202 -0.383,-0.202 -0.383,-0.202 -0.112,-0.063 -0.388,-0.192 -0.388,-0.192 -0.388,-0.192 -0.388,-0.193 -0.388,-0.192 -0.388,-0.192 -0.118,-0.054 -0.393,-0.182 -0.393,-0.182 -0.393,-0.182 -0.392,-0.182 -0.393,-0.183 -0.12,-0.055 -0.397,-0.172 -0.397,-0.172 -0.398,-0.172 -0.397,-0.172 -0.397,-0.172 -0.397,-0.172 -0.126,-0.047 -0.401,-0.162 -0.402,-0.162 -0.401,-0.162 -0.401,-0.162 -0.402,-0.162 -0.126,-0.05 -0.406,-0.152 -0.405,-0.152 -0.406,-0.152 -0.405,-0.152 -0.405,-0.151 -0.406,-0.152 -0.131,-0.043 -0.409,-0.142 -0.409,-0.142 -0.409,-0.141 -0.409,-0.142 -0.409,-0.142 -0.133,-0.047 -0.412,-0.131 -0.413,-0.132 -0.412,-0.131 -0.413,-0.132 -0.412,-0.131 -0.412,-0.132 -0.137,-0.042 -0.416,-0.121 -0.415,-0.121 -0.416,-0.122 -0.416,-0.121 -0.415,-0.122 -0.416,-0.121 -0.141,-0.037 -0.418,-0.111 -0.418,-0.111 -0.419,-0.112 -0.418,-0.111 -0.418,-0.111 -0.419,-0.111 -0.145,-0.034 -0.421,-0.101 -0.42,-0.101 -0.421,-0.101 -0.421,-0.101 -0.421,-0.102 -0.421,-0.101 -0.149,-0.03 -0.423,-0.091 -0.423,-0.091 -0.423,-0.091 -0.424,-0.091 -0.423,-0.092 -0.423,-0.091 -0.152,-0.028 -0.425,-0.081 -0.426,-0.081 -0.425,-0.081 -0.425,-0.081 -0.425,-0.081 -0.425,-0.081 -0.156,-0.027 -0.427,-0.071 -0.427,-0.072 -0.427,-0.071 -0.427,-0.071 -0.427,-0.071 -0.427,-0.071 -0.159,-0.027 -0.429,-0.061 -0.428,-0.062 -0.429,-0.061 -0.428,-0.061 -0.429,-0.062 -0.428,-0.061 -0.429,-0.061 -0.164,-0.017 -0.43,-0.052 -0.43,-0.052 -0.429,-0.051 -0.43,-0.052 -0.43,-0.052 -0.43001,-0.051 -0.167,-0.019 -0.431,-0.041 -0.431,-0.042 -0.431,-0.042 -0.43,-0.042 -0.431,-0.042 -0.431,-0.042 -0.431,-0.042 -0.172,-0.011 -0.431,-0.033 -0.432,-0.032 -0.432,-0.033 -0.431,-0.032 -0.432,-0.033 -0.432,-0.032 -0.175,-0.014 -0.432,-0.023 -0.432,-0.023 -0.433,-0.023 -0.432,-0.023 -0.432,-0.023 -0.432,-0.023 -0.433,-0.023 -0.179,-0.009 -0.432,-0.014 -0.433,-0.013 -0.433,-0.014 -0.433,-0.014 -0.432,-0.014 -0.433,-0.013 -0.433,-0.014 -0.183,-0.004 -0.432,-0.005 -0.433,-0.005 -0.433,-0.004 -0.433,-0.005 -0.433,-0.004 -0.433,-0.005 -0.433,-0.004 10e-4,-0.083 -0.003,-0.075 0.005,-0.077 -0.003,-0.075 10e-4,-0.083 v -0.069 l 10e-4,-0.082 -0.003,-0.075 10e-4,-0.083 v -0.069 l 10e-4,-0.083 -0.003,-0.075 10e-4,-0.082 v -0.069 l 10e-4,-0.083 -0.003,-0.075 0.001,-0.083 -0.001,-0.069 0.002,-0.082 -0.004,-0.075 0.002,-0.083 -10e-4,-0.069 -0.003,-0.075 0.001,-0.083 -0.003,-0.074 0.005,-0.077 -0.003,-0.075 0.001,-0.083 -0.003,-0.075 0.004,-0.077 -0.003,-0.074 10e-4,-0.083 -0.003,-0.075 0.005,-0.077 -0.003,-0.075 10e-4,-0.083 -0.003,-0.074 0.005,-0.078 -0.004,-0.074 0.002,-0.083 -0.004,-0.075 0.005,-0.077 -0.003,-0.075 10e-4,-0.083 -0.003,-0.074 0.005,-0.077 -0.004,-0.075 0.002,-0.083 -10e-4,-0.069 0.002,-0.083 -0.004,-0.075 0.002,-0.082 -10e-4,-0.069 10e-4,-0.083 -0.003,-0.075 0.001,-0.083 v -0.069 l -0.003,-0.074 0.005,-0.077 -0.003,-0.075 0.001,-0.083 -0.003,-0.075 0.004,-0.077 -0.003,-0.074 10e-4,-0.083 -0.003,-0.075 0.005,-0.077 -0.003,-0.075 10e-4,-0.083 -0.003,-0.075 0.004,-0.077 -0.003,-0.074 10e-4,-0.083 -0.003,-0.075 0.005,-0.077 -0.003,-0.075 10e-4,-0.083 -0.003,-0.075 0.005,-0.077 -0.004,-0.074 0.002,-0.083 -10e-4,-0.069 10e-4,-0.083 -0.003,-0.075 10e-4,-0.083 v -0.068 l 10e-4,-0.083 -0.003,-0.075 0.001,-0.083 v -0.069 l 10e-4,-0.083 -0.003,-0.074 10e-4,-0.083 v -0.069 l 0.001,-0.083 -0.003,-0.075 10e-4,-0.083 v -0.068 l 10e-4,-0.083 -0.003,-0.075 -0.003,-0.075 0.004,-0.077 -0.003,-0.075 0.001,-0.083 -0.003,-0.074 0.005,-0.077 -0.003,-0.075 0.001,-0.083 -0.003,-0.075 0.005,-0.077 -0.004,-0.075 0.002,-0.082 -0.004,-0.075 0.005,-0.077 -0.003,-0.075 10e-4,-0.083 -0.003,-0.075 0.005,-0.077 -10e-4,-0.068 0.002,-0.083 -0.004,-0.075 0.002,-0.083 -0.001,-0.069 0.002,-0.083 -0.004,-0.074 0.002,-0.083 -10e-4,-0.069 10e-4,-0.083 -0.003,-0.075 10e-4,-0.083 v -0.069 l 10e-4,-0.082 -0.003,-0.075 10e-4,-0.083 v -0.069 l -0.003,-0.075 10e-4,-0.083 -0.003,-0.074 0.005,-0.077 -0.004,-0.075 0.002,-0.083 -0.004,-0.075 0.005,-0.077 -0.003,-0.075 10e-4,-0.082 -0.003,-0.075 0.005,-0.077 -0.003,-0.075 10e-4,-0.083 -0.003,-0.075 0.004,-0.077 -0.003,-0.074 10e-4,-0.083 -0.003,-0.075 0.005,-0.077 -0.003,-0.075 10e-4,-0.083 -0.003,-0.074 0.004,-0.078 -0.003,-0.074 0.001,-0.083 v -0.069 l 10e-4,-0.083 -0.003,-0.075 10e-4,-0.083 v -0.068 l 0.001,-0.083 -0.003,-0.075 10e-4,-0.083 v -0.069 l 10e-4,-0.083 -0.003,-0.074 10e-4,-0.083 v -0.069 l 10e-4,-0.083 -0.003,-0.075 10e-4,-0.083 v -0.068 l -0.003,-0.075 10e-4,-0.083 -0.003,-0.075 -10e-4,-0.069 -0.003,-0.074 0.005,-0.077 -0.003,-0.075 0.001,-0.083 -0.003,-0.075 0.004,-0.077 -0.003,-0.075 10e-4,-0.082 -0.003,-0.075 0.005,-0.077 -0.003,-0.075 10e-4,-0.083 -0.003,-0.075 0.005,-0.077 -0.004,-0.074 10e-4,-0.083 v -0.069 l 10e-4,-0.083 -0.003,-0.075 10e-4,-0.083 v -0.068 l 10e-4,-0.083 -0.003,-0.075 10e-4,-0.083 v -0.069 l 10e-4,-0.083 -0.003,-0.074 0.001,-0.083 v -0.069 l 10e-4,-0.083 -0.003,-0.075 -0.003,-0.074 0.005,-0.077 -0.004,-0.075 10e-4,-0.083 -0.003,-0.075 0.005,-0.077 -0.003,-0.075 10e-4,-0.082 -0.003,-0.075 0.005,-0.077 -0.004,-0.075 0.002,-0.083 -0.004,-0.075 0.005,-0.077 -0.003,-0.074 10e-4,-0.083 -0.003,-0.075 0.005,-0.077 -0.003,-0.075 10e-4,-0.083 -0.004,-0.074 0.005,-0.078 -0.003,-0.074 0.001,-0.083 v -0.069 l 10e-4,-0.083 -0.003,-0.075 10e-4,-0.082 v -0.069 l 0.001,-0.083 v -0.069 l 10e-4,-0.083 -0.003,-0.075 10e-4,-0.082 v -0.069 l 0.001,-0.083 -0.003,-0.075 -0.003,-0.075 0.004,-0.077 -0.003,-0.074 0.001,-0.083 -0.003,-0.075 0.005,-0.077 0.433,0.004 0.433,0.005 0.433,0.005 0.432,0.004 0.433,0.005 0.433,0.004 0.433,0.005 0.433,0.004 0.6,0.017 0.433,0.014 0.433,0.014 0.433,0.013 0.432,0.014 0.433,0.014 0.433,0.014 0.603,0.021 0.432,0.023 0.432,0.023 0.432,0.023 0.433,0.023 0.432,0.023 0.432,0.023 0.433,0.023 0.604,0.036 0.432,0.032 0.432,0.033 0.431,0.032 0.432,0.033 0.432,0.032 0.431,0.033 0.432,0.032 0.606,0.052 0.431,0.042 0.431,0.042 0.431,0.042 0.43101,0.042 0.43,0.042 0.431,0.042 0.431,0.042 0.607,0.07 0.43,0.052 0.429,0.051 0.43,0.052 0.43,0.052 0.43,0.051 0.43,0.052 0.607,0.079 0.429,0.062 0.429,0.061 0.428,0.061 0.429,0.062 0.428,0.061 0.429,0.061 0.608,0.09 0.427,0.072 0.427,0.071 0.427,0.071 0.427,0.071 0.427,0.071 0.427,0.072 0.427,0.071 0.608,0.111 0.425,0.082 0.425,0.081 0.425,0.081 0.426,0.081 0.425,0.081 0.425,0.081 0.607,0.125 0.423,0.091 0.424,0.091 0.423,0.091 0.423,0.091 0.423,0.091 0.423,0.091 0.607,0.139 0.42,0.101 0.421,0.101 0.421,0.102 0.421,0.101 0.421,0.101 0.421,0.101 0.604,0.154 0.419,0.111 0.418,0.111 0.419,0.112 0.418,0.111 0.418,0.111 0.419,0.111 0.602,0.17 0.415,0.122 0.416,0.121 0.415,0.122 0.416,0.121 0.415,0.121 0.416,0.122 0.599,0.187 0.412,0.131 0.413,0.132 0.412,0.132 0.412,0.131 0.413,0.132 0.598,0.195 0.409,0.141 0.409,0.142 0.409,0.142 0.409,0.142 0.409,0.141 0.409,0.142 0.594,0.214 0.405,0.152 0.405,0.152 0.406,0.152 0.405,0.151 0.406,0.152 0.405,0.152 0.587,0.234 0.402,0.162 0.401,0.162 0.402,0.162 0.401,0.162 0.402,0.162 0.584,0.244 0.398,0.172 0.397,0.172 0.397,0.172 0.397,0.172 0.398,0.172 0.581,0.255 0.393,0.182 0.393,0.182 0.392,0.182 0.393,0.182 0.393,0.182 0.393,0.183 0.572,0.276 0.388,0.192 0.388,0.192 0.388,0.192 0.388,0.192 0.388,0.192 0.568,0.289 0.383,0.202 0.383,0.202 0.383,0.202 0.383,0.202 0.382,0.202 0.563,0.301 0.377,0.212 0.378,0.212 0.377,0.212 0.378,0.212 0.377,0.211 0.378,0.212 0.55,0.324 0.372,0.222 0.372,0.221 0.372,0.222 0.372,0.221 0.372,0.222 0.543,0.337 0.366,0.231 0.366,0.231 0.366,0.231 0.366,0.232 0.366,0.231 0.535,0.35 0.36,0.241 0.36,0.241 0.36,0.24 0.36,0.241 0.36,0.241 0.526,0.364 0.353,0.25 0.354,0.25 0.353,0.25 0.354,0.25 0.353,0.25 0.517,0.378 0.346,0.259 0.347,0.259 0.347,0.259 0.347,0.259 0.347,0.26 0.506,0.392 0.34,0.268 0.34,0.268 0.34,0.268 0.34,0.268 0.34,0.268 0.495,0.406 0.332,0.277 0.34,0.283 0.332,0.277 0.333,0.276 0.49,0.412 0.326,0.286 0.325,0.285 0.326,0.286 0.325,0.285 0.326,0.286 0.478,0.426 0.317,0.293 0.318,0.294 0.318,0.294 0.318,0.294 0.318,0.294 0.465,0.44 0.31,0.302 0.31,0.302 0.31,0.302 0.31,0.302 0.31,0.302 0.451,0.454 0.302,0.31 0.302,0.31 0.302,0.31 0.303,0.31 0.302,0.31 0.436,0.467 0.294,0.317 0.294,0.318 0.294,0.318 0.294,0.318 0.43,0.472 0.285,0.325 0.286,0.326 0.286,0.325 0.285,0.325 0.286,0.326 0.414,0.485 0.277,0.332 0.277,0.333 0.277,0.332 0.277,0.333 0.278,0.333 0.398,0.497 0.268,0.34 0.269,0.339 0.268,0.34 0.269,0.34 0.39,0.502 0.259,0.347 0.26,0.346 0.26,0.346 0.259,0.347 0.26,0.346004 0.37,0.515 0.25,0.353 0.25,0.353 0.26,0.352 0.25,0.353 0.36,0.52 0.25,0.366 0.23,0.352 0.24,0.351 18.54,-12.470004 -8.48,73.453004 z m -29.09,99.024 7.335,16.932 0.114,-0.047 0.384,-0.178 0.401,-0.186 0.392,-0.182 0.393,-0.182 0.393,-0.183 0.393,-0.182 0.116,-0.059 0.388,-0.192 0.388,-0.192 0.388,-0.192 0.388,-0.192 0.388,-0.192 0.115,-0.059 0.383,-0.202 0.383,-0.202 0.382,-0.202 0.383,-0.202 0.383,-0.202 0.114,-0.058 0.377,-0.212 0.378,-0.212 0.377,-0.212 0.378,-0.212 0.378,-0.212 0.112,-0.059 0.372,-0.221 0.371,-0.222 0.372,-0.221 0.372,-0.222 0.372,-0.221 0.372,-0.222 0.105,-0.07 0.366,-0.231 0.366,-0.231 0.366,-0.231 0.366,-0.231 0.366,-0.232 0.103,-0.071 0.36,-0.241 0.359,-0.24 0.36,-0.241 0.36,-0.24 0.36,-0.241 0.101,-0.073 0.353,-0.25 0.354,-0.25 0.353,-0.25 0.353,-0.25 0.354,-0.25 0.098,-0.076 0.347,-0.259 0.347,-0.259 0.347,-0.259 0.346,-0.26 0.347,-0.259 0.096,-0.078 0.34,-0.269 0.34,-0.268 0.34,-0.268 0.339,-0.268 0.34,-0.268 0.093,-0.082 0.339,-0.282 0.333,-0.277 0.333,-0.277 0.333,-0.277 0.096,-0.078 0.326,-0.285 0.325,-0.286 0.326,-0.285 0.325,-0.286 0.326,-0.285 0.093,-0.082 0.318,-0.294 0.318,-0.294 0.318,-0.293 0.318,-0.294 0.318,-0.294 0.09,-0.086 0.31,-0.302 0.31,-0.303 0.31,-0.302 0.31,-0.302 0.31,-0.302 0.087,-0.091 0.302,-0.31 0.302,-0.31 0.302,-0.31 0.302,-0.31 0.091,-0.088 0.293,-0.318 0.294,-0.317 0.294,-0.318 0.294,-0.318 0.294,-0.318 0.086,-0.093 0.286,-0.325 0.286,-0.326 0.285,-0.325 0.286,-0.325 0.286,-0.326 0.081,-0.098 0.277,-0.332 0.277,-0.333 0.278,-0.333 0.277,-0.332 0.085,-0.097 0.268,-0.339 0.269,-0.34 0.268,-0.34 0.269,-0.339 0.268,-0.34 0.08,-0.102 0.26,-0.346 0.26,-0.347 0.26,-0.346 0.259,-0.346 0.26,-0.347 0.075,-0.107 0.25,-0.353 0.251,-0.353 0.251,-0.353 0.251,-0.353 0.078,-0.107 0.241,-0.359 0.242,-0.359 0.242,-0.359 0.241,-0.359 0.242,-0.359 0.072,-0.113 0.233,-0.365 0.232,-0.365 0.233,-0.365 0.232,-0.365 0.075,-0.112 0.223,-0.371 0.224,-0.371 0.223,-0.371 0.223,-0.371 0.223,-0.371 -0.01,0.01 0.209,-0.379 0.209,-0.379 0.209,-0.379 0.209,-0.379 0.209,-0.379 0.21,-0.379 0.209,-0.379 0.209,-0.379 0.209,-0.379 0.209,-0.379 -0.072,0.138 0.19,-0.389 0.19,-0.389 0.19,-0.389 0.19,-0.389 0.191,-0.389 0.19,-0.389 0.19,-0.389 0.19,-0.389 0.19,-0.389 0.19,-0.389 -0.063,0.136 0.171,-0.398 0.17,-0.398 0.171,-0.397 0.17,-0.398 0.171,-0.398 0.171,-0.398 0.17,-0.398 0.171,-0.397 0.17,-0.398 0.171,-0.398 -0.055,0.133 0.151,-0.405 0.151,-0.406 0.151,-0.406 0.151,-0.406 0.151,-0.405 0.151,-0.406 0.151,-0.406 0.151,-0.405 0.151,-0.406 0.151,-0.406 -0.048,0.131 0.131,-0.413 0.131,-0.412 0.131,-0.413 0.131,-0.412 0.131,-0.413 0.132,-0.412 0.131,-0.413 0.131,-0.412 0.131,-0.413 0.131,-0.412 -0.043,0.128 0.112,-0.419 0.111,-0.418 0.111,-0.418 0.111,-0.419 0.112,-0.418 0.111,-0.419 0.111,-0.418 0.111,-0.418 0.111,-0.419 0.112,-0.418 -0.039,0.125 0.091,-0.423 0.092,-0.423 0.091,-0.423 0.091,-0.423 0.091,-0.424 0.091,-0.423 0.091,-0.423 0.091,-0.423 0.091,-0.423 -0.014,0.126 0.071,-0.427 0.071,-0.427 0.071,-0.427 0.071,-0.427 0.071,-0.427 0.071,-0.427 0.071,-0.427 0.071,-0.427 0.071,-0.427 0.071,-0.427 -0.011,0.124 0.051,-0.43 0.05,-0.429 0.051,-0.43 0.051,-0.43 0.053,-0.43 0.05,-0.43 0.05,-0.43 0.05,-0.43 0.05,-0.43 0.05,-0.43 -0.01,0.123 0.03,-0.432 0.03,-0.432 0.03,-0.432 0.03,-0.432 0.04,-0.431 0.03,-0.432 0.03,-0.432 0.03,-0.432 0.03,-0.432 0.03,-0.431 -0.01,0.121 0.01,-0.433 0.01,-0.433 0.01,-0.433 0.01,-0.432 0.01,-0.433 0.09,0.002 0.07,-0.002 0.08,0.006 0.07,-0.003 0.09,0.003 h 0.06 l 0.09,0.003 0.07,-0.003 0.08,0.003 h 0.07 l 0.09,0.002 0.07,-0.002 0.08,0.002 0.07,0.001 0.09,0.002 0.07,-0.002 0.08,0.002 0.07,0.001 0.08,0.002 0.08,-0.002 0.08,0.002 0.07,0.001 0.08,-0.002 0.08,0.002 0.07,-0.002 0.08,0.006 0.08,-0.003 0.08,0.003 0.07,-0.003 0.08,0.006 0.07,-0.002 0.09,0.002 0.07,-0.002 0.08,0.006 0.07,-0.003 0.09,0.003 0.07,-0.003 0.08,0.006 0.07,-0.002 0.09,0.002 0.07,-0.002 0.08,0.006 0.07,-0.002 0.09,0.002 0.07,-0.002 0.08,0.005 0.07,-0.002 0.08,0.002 0.07,0.001 0.09,0.002 0.07,-0.002 0.08,0.002 0.07,10e-4 0.09,0.002 0.07,-0.002 0.08,0.002 0.07,0.001 0.08,-0.002 0.07,0.006 0.08,-0.003 0.08,0.003 0.08,-0.003 0.07,0.006 0.08,-0.002 0.08,0.002 0.08,-0.002 0.07,0.006 0.08,-0.003 0.08,0.003 0.08,-0.003 0.07,0.006 0.08,-0.002 0.08,0.002 0.07,-0.002 0.08,0.006 0.08,-0.002 0.08,0.002 0.07,-0.002 0.08,0.005 0.08,-0.002 0.08,0.002 0.07,0.001 0.08,0.002 0.08,-0.002 0.08,0.002 0.07,0.001 0.08,0.002 0.07,-0.002 0.09,0.002 0.07,0.001 0.08,0.002 0.07,-0.002 0.09,0.002 0.07,0.001 0.08,0.002 0.07,-0.002 0.09,0.002 0.06,0.001 0.09,0.002 0.07,-0.002 0.08,-0.002 0.07,0.005 0.08,-0.002 0.08,0.002 0.08,-0.002 0.07,0.006 0.08,-0.002 0.08,0.002 0.08,-0.002 0.07,0.006 0.08,-0.003 0.08,0.003 0.08,-0.003 0.07,0.006 0.08,-0.002 0.08,0.002 0.07,-0.002 0.08,0.006 h 0.07 l 0.08,0.003 0.08,-0.003 0.08,0.003 h 0.07 l 0.08,0.003 0.08,-0.003 0.08,0.003 h 0.07 l 0.08,0.002 0.08,-0.002 0.08,0.002 0.07,0.001 0.08,0.002 0.08,-0.002 0.08,0.002 0.07,0.001 0.07,-0.002 0.09,0.002 0.07,-0.002 0.08,0.006 0.07,-0.003 0.09,0.003 0.07,-0.003 0.08,0.006 0.07,-0.002 0.08,0.002 0.08,-0.002 0.08,0.006 0.07,-0.002 0.08,0.002 0.08,-0.002 0.08,0.005 0.07,-0.002 0.08,0.002 0.08,-0.002 0.07,0.006 0.08,-0.002 0.08,0.002 0.08,-0.002 0.07,0.005 0.08,-0.002 0.08,0.002 0.07,0.001 0.08,0.002 0.08,-0.002 0.08,0.002 0.07,0.001 0.08,0.002 0.08,-0.002 0.08,0.002 0.07,0.001 0.08,0.002 0.08,-0.002 0.08,0.002 0.07,0.001 0.08,0.002 0.08,-0.002 0.08,0.002 0.07,0.001 0.07,-0.002 0.09,0.002 0.07,-0.002 h 0.07 l 0.07,-0.002 0.08,0.006 0.08,-0.002 0.08,0.002 0.07,-0.002 0.08,0.005 0.08,-0.002 0.08,0.002 0.07,-0.002 0.08,0.006 0.07,-0.002 0.09,0.002 0.07,-0.002 0.08,0.006 0.07,-0.003 0.09,0.003 h 0.07 l 0.08,0.002 0.07,-0.002 0.09,0.003 h 0.06 l 0.09,0.002 0.07,-0.002 0.09,0.002 0.06,0.001 0.09,0.002 0.07,-0.002 0.08,0.002 0.07,0.001 0.09,0.002 0.07,-0.002 0.08,-0.002 0.07,0.006 0.08,-0.003 0.08,0.003 0.08,-0.003 0.07,0.006 0.08,-0.002 0.08,0.002 0.07,-0.002 0.08,0.006 0.08,-0.003 0.08,0.003 0.07,-0.002 0.08,0.005 0.08,-0.002 0.08,0.002 0.07,-0.002 0.08,0.006 0.08,-0.002 0.08,0.002 0.07,-0.002 0.08,0.005 0.07,-0.002 0.09,0.002 0.07,0.001 0.08,0.002 0.07,-0.002 0.09,0.002 0.07,0.001 0.08,0.002 0.07,0.001 0.08,0.002 0.07,-0.002 0.09,0.002 0.07,0.001 0.08,0.002 0.07,-0.002 0.08,-0.002 0.08,0.005 0.07,-0.002 0.08,0.002 0.08,-0.002 0.08,0.006 -0.02,0.433 -0.01,0.433 -0.01,0.432 -0.01,0.433 -0.01,0.433 -0.01,0.433 -0.04,0.803 -0.03,0.432 -0.03,0.432 -0.03,0.432 -0.03,0.431 -0.03,0.432 -0.03,0.432 -0.04,0.432 -0.03,0.432 -0.03,0.431 -0.06,0.804 -0.05,0.429 -0.05,0.43 -0.05,0.43 -0.06,0.43 -0.05,0.43 -0.05,0.43 -0.05,0.43 -0.05,0.43 -0.05,0.43 -0.05,0.429 -0.11,0.8 -0.07,0.427 -0.07,0.427 -0.07,0.427 -0.07,0.427 -0.07,0.427 -0.07,0.427 -0.07,0.427 -0.08,0.427 -0.07,0.427 -0.07,0.427 -0.15,0.795 -0.09,0.424 -0.09,0.423 -0.09,0.423 -0.09,0.423 -0.09,0.423 -0.09,0.423 -0.09,0.424 -0.1,0.423 -0.09,0.423 -0.09,0.423 -0.19,0.789 -0.11,0.418 -0.11,0.418 -0.11,0.419 -0.11,0.418 -0.11,0.418 -0.11,0.419 -0.12,0.418 -0.11,0.418 -0.11,0.419 -0.11,0.418 -0.23,0.781 -0.13,0.412 -0.13,0.413 -0.13,0.412 -0.14,0.413 -0.13,0.412 -0.13,0.413 -0.13,0.412 -0.13,0.413 -0.13,0.412 -0.13,0.413 -0.27,0.77 -0.15,0.406 -0.16,0.406 -0.15,0.405 -0.15,0.406 -0.15,0.406 -0.15,0.405 -0.15,0.406 -0.15,0.406 -0.15,0.405 -0.15,0.406 -0.31,0.759 -0.17,0.398 -0.18,0.398 -0.17,0.397 -0.17,0.398 -0.17,0.398 -0.17,0.398 -0.17,0.398 -0.17,0.398 -0.17,0.397 -0.17,0.398 -0.35,0.746 -0.19,0.388 -0.19,0.389 -0.19,0.389 -0.19,0.389 -0.19,0.389 -0.19,0.389 -0.19,0.389 -0.19,0.389 -0.19,0.389 -0.19,0.389 -0.39,0.73 -0.21,0.379 -0.21,0.379 -0.21,0.379 -0.21,0.379 -0.21,0.379 -0.21,0.379 -0.2,0.379 -0.21,0.379 -0.21,0.379 -0.21,0.379 -0.37,0.631 -0.22,0.371 -0.23,0.37 -0.22,0.371 -0.22,0.371 -0.34,0.539 -0.23,0.366 -0.23,0.365 -0.23,0.365 -0.24,0.365 -0.23,0.365 -0.35,0.529 -0.24,0.359 -0.24,0.359 -0.24,0.36 -0.24,0.359 -0.36,0.524 -0.25,0.353 -0.25,0.353 -0.25,0.353 -0.26,0.352 -0.25,0.353 -0.37,0.513 -0.262,0.346 -0.259,0.347 -0.26,0.346 -0.26,0.347 -0.384,0.507 -0.268,0.34 -0.269,0.339 -0.268,0.34 -0.268,0.34 -0.269,0.339 -0.4,0.496 -0.278,0.332 -0.277,0.333 -0.277,0.333 -0.277,0.332 -0.277,0.333 -0.417,0.483 -0.285,0.325 -0.286,0.325 -0.285,0.326 -0.286,0.325 -0.424,0.478 -0.294,0.317 -0.294,0.318 -0.294,0.318 -0.294,0.318 -0.294,0.318 -0.438,0.464 -0.302,0.31 -0.303,0.31 -0.302,0.31 -0.302,0.311 -0.302,0.31 -0.453,0.451 -0.31,0.302 -0.31,0.302 -0.31,0.302 -0.31,0.302 -0.311,0.302 -0.466,0.438 -0.318,0.293 -0.318,0.294 -0.318,0.294 -0.318,0.294 -0.472,0.432 -0.326,0.286 -0.325,0.285 -0.326,0.286 -0.325,0.285 -0.326,0.286 -0.485,0.418 -0.332,0.276 -0.333,0.277 -0.333,0.277 -0.339,0.283 -0.333,0.276 -0.497,0.404 -0.34,0.268 -0.34,0.268 -0.34,0.269 -0.34,0.268 -0.34,0.268 -0.508,0.389 -0.346,0.26 -0.347,0.259 -0.347,0.259 -0.347,0.259 -0.347,0.259 -0.518,0.376 -0.354,0.25 -0.353,0.25 -0.354,0.25 -0.353,0.25 -0.353,0.25 -0.528,0.361 -0.36,0.241 -0.36,0.241 -0.36,0.24 -0.36,0.241 -0.36,0.241 -0.536,0.347 -0.367,0.232 -0.366,0.231 -0.366,0.231 -0.366,0.231 -0.366,0.231 -0.544,0.335 -0.372,0.221 -0.372,0.222 -0.372,0.221 -0.372,0.222 -0.372,0.222 -0.552,0.321 -0.377,0.211 -0.378,0.212 -0.378,0.212 -0.377,0.212 -0.378,0.212 -0.558,0.308 -0.383,0.202 -0.383,0.202 -0.383,0.202 -0.383,0.202 -0.382,0.202 -0.383,0.202 -0.57,0.286 -0.388,0.192 -0.388,0.192 -0.388,0.192 -0.387,0.192 -0.388,0.193 -0.575,0.273 -0.392,0.182 -0.393,0.182 -0.393,0.182 -0.4,0.186 -0.385,0.179 -0.57,0.258 8.88,20.499 -70.38201,-16.764 z"
     style="display:inline;fill:#ff851b;stroke-width:32.221;stroke-miterlimit:4.1"
     id="path7" />
  <path
     d="m 1865.4713,140.9676 h -250 v 40 h 250 z"
     style="fill:#b10dc9;stroke-width:1.84012;stroke-linecap:round;stroke-linejoin:round;paint-order:stroke fill markers"
     id="path9" />
  <text
     x="1569.4644"
     y="295.6076"
     style="font-size:112.438px;font-family:Inter;-inkscape-font-specification:Inter;text-align:start;writing-mode:lr-tb;direction:ltr;text-anchor:start;fill:#616161;stroke-width:3.02362;stroke-linecap:round;stroke-linejoin:round;paint-order:stroke fill markers"
     id="text9"><tspan
       x="1569.4644"
       y="295.6076"
       id="tspan9">w</tspan></text>
  <g
     id="svg12"
     transform="translate(1.6749993e-8,9.9925453e-4)">
    <g
       id="svg12-3"
       transform="matrix(-0.81559531,0.57862275,0.57862275,0.81559531,125.74831,34.498941)">
      <path
         d="M 250,175.063 H 0 v -40 h 250 z"
         style="fill:#0074d9;stroke-width:1.84012;stroke-linecap:round;stroke-linejoin:round;paint-order:stroke fill markers"
         id="path1-6" />
    </g>
    <g
       id="svg12-7"
       transform="matrix(1,0,0,-1,36.521869,260.63975)">
      <g
         id="svg12-3-5"
         transform="matrix(-0.81559531,0.57862275,0.57862275,0.81559531,89.226434,-26.7965)">
        <path
           d="M 250,175.063 H 0 v -40 h 250 z"
           style="fill:#0074d9;stroke-width:1.84012;stroke-linecap:round;stroke-linejoin:round;paint-order:stroke fill markers"
           id="path1-6-3" />
      </g>
    </g>
    <ellipse
       style="fill:#0074d9;fill-opacity:0.998543;stroke:none;stroke-width:2.2023;stroke-linejoin:round;stroke-dasharray:2.2023, 4.40461;paint-order:stroke fill markers"
       id="path12"
       cx="24.516127"
       cy="163.02235"
       rx="18.899014"
       ry="19.017635" />
    <g
       id="svg12-2"
       transform="translate(-23.269233,-49.143319)">
      <ellipse
         style="fill:#0074d9;fill-opacity:0.998543;stroke:none;stroke-width:2.2023;stroke-linejoin:round;stroke-dasharray:2.2023, 4.40461;paint-order:stroke fill markers"
         id="path12-9"
         cx="47.785358"
         cy="157.44334"
         rx="18.899014"
         ry="19.017635" />
    </g>
    <g
       id="svg12-5"
       transform="translate(-25.562735,372.21765)">
      <ellipse
         style="fill:#0074d9;fill-opacity:0.998543;stroke:none;stroke-width:2.2023;stroke-linejoin:round;stroke-dasharray:2.2023, 4.40461;paint-order:stroke fill markers"
         id="path12-6"
         cx="50.078861"
         cy="-154.47296"
         rx="18.899014"
         ry="19.017635" />
    </g>
  </g>
  <g
     id="svg12-0"
     transform="translate(1400)">
    <g
       id="svg12-3-9"
       transform="matrix(-0.81559531,0.57862275,0.57862275,0.81559531,125.74831,34.498941)">
      <path
         d="M 250,175.063 H 0 v -40 h 250 z"
         style="fill:#0074d9;stroke-width:1.84012;stroke-linecap:round;stroke-linejoin:round;paint-order:stroke fill markers"
         id="path1-6-36" />
    </g>
    <g
       id="svg12-7-0"
       transform="matrix(1,0,0,-1,36.521869,260.63975)">
      <g
         id="svg12-3-5-6"
         transform="matrix(-0.81559531,0.57862275,0.57862275,0.81559531,89.226434,-26.7965)">
        <path
           d="M 250,175.063 H 0 v -40 h 250 z"
           style="fill:#0074d9;stroke-width:1.84012;stroke-linecap:round;stroke-linejoin:round;paint-order:stroke fill markers"
           id="path1-6-3-2" />
      </g>
    </g>
    <ellipse
       style="fill:#0074d9;fill-opacity:0.998543;stroke:none;stroke-width:2.2023;stroke-linejoin:round;stroke-dasharray:2.2023, 4.40461;paint-order:stroke fill markers"
       id="path12-61"
       cx="24.516127"
       cy="163.02235"
       rx="18.899014"
       ry="19.017635" />
    <g
       id="svg12-2-8"
       transform="translate(-23.269233,-49.143319)">
      <ellipse
         style="fill:#0074d9;fill-opacity:0.998543;stroke:none;stroke-width:2.2023;stroke-linejoin:round;stroke-dasharray:2.2023, 4.40461;paint-order:stroke fill markers"
         id="path12-9-7"
         cx="47.785358"
         cy="157.44334"
         rx="18.899014"
         ry="19.017635" />
    </g>
    <g
       id="svg12-5-9"
       transform="translate(-25.562735,372.21765)">
      <ellipse
         style="fill:#0074d9;fill-opacity:0.998543;stroke:none;stroke-width:2.2023;stroke-linejoin:round;stroke-dasharray:2.2023, 4.40461;paint-order:stroke fill markers"
         id="path12-6-2"
         cx="50.078861"
         cy="-154.47296"
         rx="18.899014"
         ry="19.017635" />
    </g>
  </g>
  <path
     d="m 1565.4713,160.9676 a 50,50 0 0 0 50,50 50,50 0 0 0 50,-50 50,50 0 0 0 -50,-50 50,50 0 0 0 -50,50"
     style="fill:#616161;stroke-width:2.25367;stroke-linecap:round;stroke-linejoin:round;paint-order:stroke fill markers"
     id="path10" />
  <path
     d="m 165.47129,160.9686 a 50,50 0 0 1 50,-50 50,50 0 0 1 50,50 50,50 0 0 1 -50,50 50,50 0 0 1 -50,-50"
     style="fill:#616161;stroke-width:2.25367;stroke-linecap:round;stroke-linejoin:round;paint-order:stroke fill markers"
     id="path3" />
</svg>
