<svg xmlns:inkscape="http://www.inkscape.org/namespaces/inkscape" xmlns:sodipodi="http://sodipodi.sourceforge.net/DTD/sodipodi-0.dtd" xmlns="http://www.w3.org/2000/svg" xmlns:svg="http://www.w3.org/2000/svg" viewBox="0 0 189.513 97.014" version="1.1" id="svg65" sodipodi:docname="watt_rooted_even.svg" inkscape:version="1.4.2 (ebf0e940d0, 2025-05-08)">
  <defs id="defs65"/>
  <sodipodi:namedview id="namedview65" pagecolor="#ffffff" bordercolor="#000000" borderopacity="0.25" inkscape:showpageshadow="2" inkscape:pageopacity="0.0" inkscape:pagecheckerboard="0" inkscape:deskcolor="#d1d1d1" inkscape:zoom="8.6326531" inkscape:cx="102.05437" inkscape:cy="88.906619" inkscape:window-width="3838" inkscape:window-height="2158" inkscape:window-x="0" inkscape:window-y="0" inkscape:window-maximized="1" inkscape:current-layer="svg65"/>
  <path d="m92.386 43.01.067 10.978 13.11-5.53zm-18.973 3.682v3.63h13.586v-3.63z" style="fill:none;stroke:#616161;stroke-width:7.68828;stroke-linejoin:miter;stroke-miterlimit:4.1" id="path1"/>
  <path d="m9.9 27.178 10-15m0 0 10 15" class="stroke-comment fill-comment" style="display:inline;fill:none;stroke:#616161;stroke-width:1.065;stroke-dasharray:none;stroke-opacity:1" id="path2"/>
  <path d="M7.424 25.603q.223.047.35.2.126.151.126.374 0 .343-.236.53-.235.188-.67.188-.145 0-.3-.03-.154-.028-.318-.085v-.302q.13.076.285.114.156.04.325.04.295 0 .448-.117.155-.116.155-.338 0-.205-.144-.32-.142-.116-.398-.116h-.27v-.257h.282q.23 0 .354-.092.122-.093.122-.266 0-.178-.127-.273-.126-.096-.361-.096-.13 0-.276.028t-.324.087v-.28q.178-.05.333-.074.157-.025.295-.025.356 0 .564.163.208.161.208.437 0 .193-.11.326-.11.132-.313.183z" aria-label="3" class="stroke-comment fill-comment stroke-comment" style="font-size:3.175px;display:inline;fill:#616161;stroke:#616161;stroke-width:.265" id="path3"/>
  <path d="M15.959 11.468h1.093v.264h-1.47v-.264q.178-.184.485-.494.308-.312.387-.402.15-.169.21-.285.06-.118.06-.231 0-.185-.13-.3-.129-.117-.336-.117-.147 0-.311.051-.163.051-.35.155v-.316q.19-.076.355-.115t.3-.039q.36 0 .574.18t.214.48q0 .143-.054.272-.053.127-.194.3-.04.046-.247.261-.207.214-.586.6zm39.084 1.606h1.093v.264h-1.47v-.264q.178-.184.485-.494.309-.312.388-.402.15-.169.21-.285.06-.118.06-.231 0-.184-.13-.3-.13-.117-.337-.117-.147 0-.312.051-.162.051-.348.155v-.316q.189-.076.353-.115t.3-.039q.36 0 .575.18.213.18.213.48 0 .143-.054.272-.053.127-.194.3-.038.046-.246.261z" aria-label="2" class="stroke-comment fill-comment stroke-comment" style="font-size:3.175px;display:inline;fill:#616161;stroke:#616161;stroke-width:.265" id="path4"/>
  <path d="M32.05 26.136h.836v.254h-.837zm2.279-.25q.225.047.35.199.127.152.127.375 0 .343-.235.53-.236.188-.67.188-.146 0-.3-.03-.154-.027-.32-.085v-.302q.13.076.287.115.155.038.324.038.294 0 .448-.116t.155-.338q0-.204-.144-.32-.143-.115-.4-.115h-.27v-.258h.284q.23 0 .353-.091.123-.093.123-.267 0-.178-.128-.273-.125-.096-.36-.096-.13 0-.277.028t-.324.087v-.28q.178-.05.334-.075t.294-.024q.357 0 .564.162.208.162.208.437 0 .193-.11.326-.11.132-.313.183z" aria-label="-3" class="stroke-comment fill-comment stroke-comment" style="font-size:3.175px;display:inline;fill:#616161;stroke:#616161;stroke-width:.265" id="path5"/>
  <path d="M36.42.117c.577.283.813.988.526 1.573s-.986.83-1.564.548a1.173 1.173 0 0 1-.527-1.573c.286-.585.987-.83 1.565-.548m-2.86 41.911c.577.283.813.988.526 1.573s-.986.83-1.564.548a1.173 1.173 0 0 1-.527-1.573c.286-.585.987-.83 1.565-.548m-3.186-16.016c.578.283.814.987.527 1.572a1.173 1.173 0 0 1-1.565.548 1.173 1.173 0 0 1-.527-1.573c.285-.585.986-.83 1.564-.548m-9.292-13.845c0 .643-.528 1.165-1.18 1.165s-1.18-.522-1.18-1.165c0-.644.529-1.164 1.18-1.164s1.18.52 1.18 1.164M10.447 26.022c.578.283.814.987.527 1.573-.287.585-.988.83-1.566.548a1.173 1.173 0 0 1-.526-1.573 1.17 1.17 0 0 1 1.565-.548" style="display:inline;fill:#616161;stroke-width:.0762529" id="path6"/>
  <path d="m19.9 12.178 16-11" class="stroke-comment fill-comment" style="display:inline;fill:none;stroke:#616161;stroke-width:1.065;stroke-dasharray:none;stroke-opacity:1" id="path7"/>
  <path d="m36.947 1.69 15.905 10.602" class="stroke-comment fill-comment" style="fill:none;stroke:#616161;stroke-width:1.06583;stroke-linejoin:round;stroke-miterlimit:4.1;stroke-dasharray:none" id="path8"/>
  <path d="M52.449 13.401a1.165 1.18 20 0 1-.69-1.508 1.165 1.18 20 0 1 1.497-.71 1.165 1.18 20 0 1 .69 1.507 1.165 1.18 20 0 1-1.497.711" class="stroke-comment fill-comment" style="display:inline;fill:#616161;stroke-width:.0762529" id="path9"/>
  <path d="M52.853 12.292 42.945 27.69m-.117-.159" class="stroke-comment fill-comment" style="fill:none;stroke:#616161;stroke-width:1.06583;stroke-linejoin:round;stroke-miterlimit:4.1;stroke-dasharray:none" id="path10"/>
  <path d="M10.884 78.138q-.243 0-.365.239-.12.237-.12.714 0 .476.12.715.122.237.364.237.244 0 .364-.237.123-.239.123-.715 0-.477-.123-.714-.12-.24-.364-.24zm0-.248q.39 0 .593.308.206.307.206.893 0 .585-.206.893-.205.307-.594.307-.388 0-.594-.307-.206-.308-.206-.893 0-.586.205-.893.206-.308.595-.308z" aria-label="0" class="stroke-comment fill-comment stroke-comment" style="font-size:3.175px;fill:#616161;stroke:#616161;stroke-width:.265" id="path11"/>
  <path d="M25.79 94.223 25 95.459h.79zm-.081-.273h.394v1.509h.33v.26h-.33v.546h-.313v-.546h-1.045v-.302z" aria-label="4" class="stroke-comment fill-comment stroke-comment" style="font-size:3.175px;fill:#616161;stroke:#616161;stroke-width:.265" id="path12"/>
  <path d="M1.18 95.588q.225.048.35.2.127.152.127.375 0 .342-.235.53-.236.188-.67.188-.147 0-.3-.03-.155-.028-.32-.085v-.302q.13.076.286.114.155.04.324.04.295 0 .449-.117.155-.116.155-.338 0-.205-.144-.32-.143-.116-.4-.116h-.27v-.257h.283q.23 0 .354-.092.123-.093.123-.266 0-.179-.128-.273-.125-.096-.36-.096-.13 0-.278.028-.147.028-.324.086v-.279q.178-.05.334-.074.156-.025.294-.025.357 0 .564.163.208.161.208.437 0 .192-.11.326-.11.131-.313.183z" aria-label="3" class="stroke-comment fill-comment stroke-comment" style="font-size:3.175px;fill:#616161;stroke:#616161;stroke-width:.265" id="path13"/>
  <path d="M33.04 43.088 13.104 80.719l10 15" class="stroke-comment fill-comment" style="fill:none;stroke:#616161;stroke-width:1.06583;stroke-dasharray:none;stroke-opacity:1" id="path14"/>
  <path d="m13.103 80.719-10 15M33.08 60.852l-.04-17.764" class="stroke-comment fill-comment" style="fill:none;stroke:#616161;stroke-width:1.065;stroke-dasharray:none;stroke-opacity:1" id="path15"/>
  <path d="M12.793 81.821a1.165 1.18 20 0 1-.69-1.508 1.165 1.18 20 0 1 1.498-.71 1.165 1.18 20 0 1 .69 1.507 1.165 1.18 20 0 1-1.498.711" class="stroke-comment fill-comment" style="fill:#616161;stroke-width:.0762529" id="path16"/>
  <path d="M2.846 96.613a1.165 1.18 20 0 1-.69-1.508 1.165 1.18 20 0 1 1.497-.711 1.165 1.18 20 0 1 .69 1.508 1.165 1.18 20 0 1-1.498.71zm19.864 0a1.165 1.18 20 0 1-.691-1.508 1.165 1.18 20 0 1 1.498-.711 1.165 1.18 20 0 1 .69 1.508 1.165 1.18 20 0 1-1.497.71z" class="stroke-comment fill-comment stroke-comment" style="fill:#616161;stroke:#616161;stroke-width:.0762529" id="path17"/>
  <path d="M52.436 85.455h.511V83.69l-.557.111v-.285l.554-.112h.313v2.051h.513v.264h-1.335z" aria-label="1" class="stroke-comment fill-comment stroke-comment" style="font-size:3.175px;fill:#616161;stroke:#616161;stroke-width:.265" id="path18"/>
  <path d="M65.745 96.455h1.092v.264h-1.47v-.264q.179-.184.486-.494.309-.312.388-.402.15-.169.21-.285.06-.118.06-.23 0-.185-.13-.302t-.337-.116q-.147 0-.311.051-.164.052-.35.155v-.316q.19-.076.354-.115.165-.038.3-.038.36 0 .574.18t.214.48q0 .143-.055.271-.052.127-.193.301-.039.045-.247.26zm-25.943.094h1.095v.263h-1.47v-.264q.178-.184.485-.494.309-.312.388-.402.15-.169.21-.285.06-.118.06-.231 0-.184-.13-.3-.131-.117-.337-.117-.148 0-.313.051-.161.051-.347.155v-.316q.189-.076.353-.115t.3-.039q.36 0 .574.18t.213.48q0 .144-.054.272-.053.127-.194.3-.038.046-.246.261z" aria-label="2" class="stroke-comment fill-comment stroke-comment" style="font-size:3.175px;fill:#616161;stroke:#616161;stroke-width:.265" id="path19"/>
  <path d="M33.103 63.719q-.224 0-.353.12-.126.119-.126.328t.126.329q.13.12.353.12t.351-.12.13-.329q0-.21-.13-.329-.126-.119-.352-.119zm-.314-.133q-.202-.05-.315-.188-.11-.138-.11-.336 0-.278.196-.439.198-.161.542-.161.347 0 .544.161.195.161.195.439 0 .198-.113.336-.11.138-.31.188.225.052.351.206.127.153.127.375 0 .336-.206.516-.205.18-.588.18t-.59-.18q-.204-.18-.204-.516 0-.222.127-.375.127-.154.354-.206zm-.115-.495q0 .18.112.28.113.102.316.102t.316-.101.113-.28-.114-.281-.315-.101-.315.1q-.113.101-.113.281z" aria-label="8" class="stroke-comment fill-comment stroke-comment" style="font-size:3.175px;fill:#616161;stroke:#616161;stroke-width:.265" id="path20"/>
  <path d="m33.04 43.088 20.063 37.631 10 15" class="stroke-comment fill-comment" style="fill:none;stroke:#616161;stroke-width:1.06583;stroke-dasharray:none;stroke-opacity:1" id="path21"/>
  <path d="m53.103 80.719-10 15" class="stroke-comment fill-comment" style="fill:none;stroke:#616161;stroke-width:1.065;stroke-dasharray:none;stroke-opacity:1" id="path22"/>
  <path d="M54.103 81.441a1.18 1.165 33.033 0 1-1.626.333 1.18 1.165 33.033 0 1-.353-1.62 1.18 1.165 33.033 0 1 1.623-.333 1.18 1.165 33.033 0 1 .356 1.62" class="stroke-comment fill-comment" style="fill:#616161;stroke-width:.0762529" id="path23"/>
  <path d="M44.085 96.399a1.18 1.165 33.033 0 1-1.626.332 1.18 1.165 33.033 0 1-.354-1.62 1.18 1.165 33.033 0 1 1.625-.333 1.18 1.165 33.033 0 1 .355 1.62z" class="stroke-comment fill-comment stroke-comment" style="fill:#616161;stroke:#616161;stroke-width:.0762529" id="path24"/>
  <path d="M34.08 61.496a1.18 1.165 33.033 0 1-1.623.333 1.18 1.165 33.033 0 1-.356-1.62 1.18 1.165 33.033 0 1 1.626-.333 1.18 1.165 33.033 0 1 .354 1.62" class="stroke-comment fill-comment" style="fill:#616161;stroke-width:.0762529" id="path25"/>
  <path d="M64.107 96.339a1.18 1.165 33.033 0 1-1.626.333 1.18 1.165 33.033 0 1-.355-1.62 1.18 1.165 33.033 0 1 1.626-.333 1.18 1.165 33.033 0 1 .354 1.62z" class="stroke-comment fill-comment stroke-comment" style="fill:#616161;stroke:#616161;stroke-width:.0762529" id="path26"/>
  <path d="M52.853 12.292 42.945 27.69m0 0L33.04 43.088m-.118-.159" class="stroke-comment fill-comment" style="fill:none;stroke:#616161;stroke-width:1.06583;stroke-linejoin:round;stroke-miterlimit:4.1;stroke-dasharray:none" id="path27"/>
  <path d="M42.637 28.736a1.165 1.18 20 0 1-.69-1.508 1.165 1.18 20 0 1 1.497-.711 1.165 1.18 20 0 1 .69 1.508 1.165 1.18 20 0 1-1.497.71z" class="stroke-orange fill-orange stroke-orange" style="display:inline;fill:#ff851b;stroke:#ff851b;stroke-width:.0762529" id="path28"/>
  <path d="M44.8 28.78h.836v.254H44.8z" aria-label="-3" class="stroke-orange fill-orange stroke-orange" style="font-size:3.175px;display:inline;fill:#ff851b;stroke:#ff851b;stroke-width:.265" id="path29"/>
  <path d="M46.46 29.822h1.094v.263h-1.47v-.263q.178-.185.485-.495.308-.311.387-.401.15-.17.21-.286.06-.117.06-.23 0-.185-.13-.301-.128-.117-.335-.117-.149 0-.313.052-.162.05-.348.155v-.317q.19-.076.354-.114.164-.04.3-.04.36 0 .574.18t.213.48q0 .144-.053.273-.054.127-.195.3-.039.045-.247.26-.207.215-.586.6z" aria-label="2" class="stroke-orange fill-orange stroke-orange" style="font-size:3.175px;display:inline;fill:#ff851b;stroke:#ff851b;stroke-width:.265" id="path30"/>
  <path d="m44.11 22.291.022-.052.022-.053.02-.053.023-.052.02-.053.023-.052.02-.053.023-.052.02-.053.023-.053.02-.052.023-.053.02-.052.022-.053.021-.052.022-.053-.21-.058-.257-.068-.21-.056-.262-.049-.262-.05-.216-.032-.266-.03-.265-.03-.22-.01-.266-.01-.22-.005-.266.01-.268.01-.219.017-.265.03-.266.03-.009-.07-.009-.07-.009-.07-.009-.072-.009-.07-.009-.07-.009-.07-.009-.07-.009-.072-.009-.07-.009-.07-.009-.07-.009-.07-.009-.072-.009-.07-.009-.07.266-.03.266-.03.315-.025.267-.01.268-.01.316.006.267.01.316.017.266.03.266.03.312.047.262.05.263.05.306.076.257.07.303.086.021-.052.022-.053.021-.053.022-.052.021-.053.022-.052.021-.053.022-.052.021-.053.022-.052.021-.053.022-.053.021-.052.022-.053.021-.052.022-.053.138.147.138.148.138.147.224.186.124.157.125.157.125.157.183.192.11.167.11.167.108.166.11.167.127.188.091.175.092.176.09.176-.207-.028-.207-.028-.208-.028h-.18l-.21-.009-.209-.009-.209-.009-.21-.009-.144.036-.21.01-.21.008-.209.01-.118.055-.208.024-.208.024zm4.423 3.645.053-.026.055-.024q.027-.014.054-.025l.054-.025.054-.025q.027-.014.054-.025l.054-.025.054-.025q.027-.014.054-.025l.054-.025.054-.025q.027-.014.054-.025l.054-.025.054-.025.054-.025.054-.025-.12-.223-.12-.223-.104-.17-.142-.21-.142-.213-.118-.16-.163-.198-.163-.198-.131-.152-.183-.183-.182-.182-.143-.142-.2-.166-.2-.165-.2-.166-.17-.113.045-.058.045-.057.045-.058.044-.057.045-.057.044-.058.045-.057.045-.058.044-.057.045-.057.044-.058.045-.057.045-.058.044-.057.045-.057.045-.058.26.183.2.166.2.166.202.165.227.22.183.182.182.183.207.235.163.198.163.198.184.25.142.212.142.212.16.263.12.224.12.223.055-.025.054-.025.054-.025.054-.025.054-.025.054-.025.054-.025.054-.025.054-.024.054-.025.054-.025.055-.025.054-.025q.027-.014.054-.025.027-.014.054-.025.027-.014.054-.025l.05.315-.026.194-.026.194-.026.194-.025.194-.006.28-.046.19-.045.19-.046.192-.034.242-.065.186-.065.185-.065.186-.065.186-.075.195-.084.18-.112-.166-.116-.146-.13-.154-.128-.154-.13-.155-.128-.154-.13-.09-.144-.142-.144-.142-.144-.142-.12-.048-.158-.129-.157-.128-.158-.129-.102-.009zm.053 5.274.055.024.055.023.055.024.054.023.055.024.055.024.055.023.054.024q.028.011.055.024l.055.023.055.024.054.024.055.023.055.024.055.024.054.023.112-.227.076-.176.086-.236.085-.236.062-.182.058-.244.06-.243.044-.187.032-.248.03-.247.028-.19.005-.25.005-.25.005-.25-.018-.192-.021-.25.076-.005.075-.005.076-.006.076-.006.076-.006.075-.006.076-.006.076-.005.076-.006.075-.006.076-.006.076-.006.076-.006.075-.006.076-.005.076-.006.02.25.023.304-.005.25-.005.25-.005.25-.036.304-.031.25-.032.247-.066.3-.06.245-.058.243-.096.295-.085.237-.086.237-.124.286-.112.227.055.024.055.024.055.023.054.024.055.024.055.023.055.024.054.024.055.023.055.024.055.024.054.024.055.022q.028.014.055.024l.054.024.055.024-.167.12-.167.116-.24.224-.18.101-.178.1-.18.101-.178.102-.24.155-.19.083-.19.084-.19.083-.22.107-.197.065-.198.064-.198.065-.197.064.053-.189.054-.189.053-.188.054-.19.01-.16.033-.192.032-.194.032-.193-.02-.122.01-.195.01-.195.01-.195.01-.196-.062-.08-.012-.195zm-4.282 3.42.013.055.015.055.014.055.014.054.014.055.014.055.014.055.014.055.014.054.014.055.014.055.014.055.014.055.014.054.014.055.014.055.2-.056.253-.082.252-.08.195-.074.243-.103.243-.104.186-.086.23-.127.232-.125.177-.1.216-.147.217-.146.165-.115.2-.165.2-.167.154-.127.056.047.056.05.056.047.056.047.056.05.056.046.056.048.056.05.056.046.056.048.056.048.056.048.056.047.056.05.056.047.056.047-.242.21-.2.165-.2.166-.262.187-.217.146-.217.146-.277.163-.232.125-.231.126-.292.138-.243.103-.244.105-.303.112-.253.08-.253.083-.312.087.014.053.014.055.014.055.014.055.013.055.014.054.014.055.014.055.014.055.014.055.014.054.014.055.014.055.014.055.014.054.014.055-.203-.049-.203-.049-.202-.05-.314-.034-.197-.066-.197-.067-.196-.067-.197-.066-.263-.074-.19-.083-.19-.085-.187-.084-.217-.088-.18-.1-.18-.1-.18-.1.19-.083.19-.083.19-.084.152-.095.18-.1.18-.099.18-.098.107-.098.17-.115.17-.115.17-.115.169-.115.048-.105.157-.13.157-.129zm-5.826-.752-.03.05-.03.046-.03.05-.03.048-.03.05-.03.047-.03.05-.03.048-.03.05-.03.048-.03.048-.03.05-.03.048-.032.05-.03.048-.03.048.232.124.232.124.195.084.243.103.243.105.194.07.252.083.253.082.198.06.26.058.26.06.203.045.265.035.265.035.264.035.21.01-.005.07-.004.072-.004.07-.004.07-.003.07-.004.072-.003.072-.004.07-.004.07-.004.072-.004.07-.004.071-.004.072-.004.07-.003.071-.004.071-.325-.018-.265-.037-.265-.035-.265-.035-.318-.067-.26-.06-.26-.058-.313-.09-.253-.082-.253-.083-.303-.112-.244-.104-.243-.105-.29-.129-.232-.124-.232-.123-.03.048-.03.048-.03.05-.03.047-.031.05-.03.048-.03.05-.03.048-.031.048-.03.05-.03.048-.03.05-.03.047-.03.05-.031.048-.03.05-.205-.225-.097-.173-.097-.174-.098-.172-.16-.224-.082-.18-.082-.179-.083-.18-.115-.218-.068-.185-.068-.185-.087-.205-.053-.19-.053-.19-.053-.188-.047-.193.192.07.197.064.198.065.198.065.18.031.202.052.202.05.16.013.206.037.206.036.206.036.138-.019.208.022.209.022.208.021z" class="stroke-orange fill-orange" style="fill:#ff851b;fill-opacity:1;stroke:none;stroke-width:2.51146;stroke-linejoin:miter;stroke-miterlimit:4.1;stroke-dasharray:none" id="path31"/>
  <path d="m128.036 27.178 10-15m0 0 10 15" class="stroke-comment fill-comment" style="display:inline;fill:none;stroke:#616161;stroke-width:1.065;stroke-dasharray:none;stroke-opacity:1" id="path32"/>
  <path d="M125.56 25.603q.223.047.35.2.126.151.126.374 0 .343-.236.53-.235.188-.67.188-.145 0-.3-.03-.154-.028-.318-.085v-.302q.13.076.285.114.155.04.324.04.295 0 .448-.117.155-.116.155-.338 0-.205-.144-.32-.142-.116-.398-.116h-.27v-.257h.282q.231 0 .354-.092.122-.093.122-.266 0-.178-.127-.273-.126-.096-.36-.096-.13 0-.277.028t-.324.087v-.28q.178-.05.333-.074.157-.025.295-.025.356 0 .564.163.208.161.208.437 0 .193-.11.326-.11.132-.313.183z" aria-label="3" class="stroke-comment fill-comment stroke-comment" style="font-size:3.175px;display:inline;fill:#616161;stroke:#616161;stroke-width:.265" id="path33"/>
  <path d="M134.095 11.468h1.093v.264h-1.47v-.264q.179-.184.486-.494.307-.312.386-.402.15-.169.21-.285.06-.118.06-.231 0-.185-.13-.3-.128-.117-.335-.117-.149 0-.313.051-.163.051-.349.155v-.316q.19-.076.354-.115.165-.039.3-.039.36 0 .575.18t.214.48q0 .143-.054.272-.053.127-.194.3-.04.046-.247.261-.207.214-.586.6zm39.084 1.606h1.093v.264h-1.47v-.264q.178-.184.485-.494.309-.312.388-.402.15-.169.21-.285.06-.118.06-.231 0-.184-.13-.3-.13-.117-.337-.117-.147 0-.312.051-.162.051-.348.155v-.316q.189-.076.353-.115t.3-.039q.36 0 .575.18.213.18.213.48 0 .143-.054.272-.053.127-.194.3-.038.046-.246.261z" aria-label="2" class="stroke-comment fill-comment stroke-comment" style="font-size:3.175px;display:inline;fill:#616161;stroke:#616161;stroke-width:.265" id="path34"/>
  <path d="M150.186 26.136h.835v.254h-.835zm2.278-.25q.225.047.35.199.127.152.127.375 0 .343-.235.53-.236.188-.67.188-.146 0-.3-.03-.154-.027-.319-.085v-.302q.13.076.286.115.155.038.324.038.295 0 .449-.116t.155-.338q0-.204-.144-.32-.143-.115-.4-.115h-.27v-.258h.283q.23 0 .353-.091.123-.093.123-.267 0-.178-.128-.273-.125-.096-.36-.096-.13 0-.277.028t-.324.087v-.28q.178-.05.334-.075t.294-.024q.357 0 .564.162.208.162.208.437 0 .193-.11.326-.11.132-.313.183z" aria-label="-3" class="stroke-comment fill-comment stroke-comment" style="font-size:3.175px;display:inline;fill:#616161;stroke:#616161;stroke-width:.265" id="path35"/>
  <path d="M154.556.117c.577.283.813.988.526 1.573s-.987.83-1.565.548a1.173 1.173 0 0 1-.527-1.573c.286-.585.987-.83 1.565-.548m-2.859 41.911c.578.283.814.988.527 1.573-.288.585-.988.83-1.566.548a1.173 1.173 0 0 1-.527-1.573c.287-.585.988-.83 1.566-.548m-3.186-16.016c.578.283.814.987.527 1.572a1.173 1.173 0 0 1-1.566.548 1.173 1.173 0 0 1-.527-1.573c.287-.585.988-.83 1.566-.548m-9.293-13.845c0 .643-.529 1.165-1.18 1.165-.653 0-1.18-.522-1.18-1.165 0-.644.528-1.164 1.18-1.164.65 0 1.18.52 1.18 1.164m-10.635 13.856c.578.283.814.987.527 1.573-.286.585-.987.83-1.565.548a1.173 1.173 0 0 1-.527-1.573 1.17 1.17 0 0 1 1.565-.548" style="display:inline;fill:#616161;stroke-width:.0762529" id="path36"/>
  <path d="m138.037 12.178 16-11" class="stroke-comment fill-comment" style="display:inline;fill:none;stroke:#616161;stroke-width:1.065;stroke-dasharray:none;stroke-opacity:1" id="path37"/>
  <path d="m155.083 1.69 15.906 10.602" class="stroke-comment fill-comment" style="fill:none;stroke:#616161;stroke-width:1.06583;stroke-linejoin:round;stroke-miterlimit:4.1;stroke-dasharray:none" id="path38"/>
  <path d="M170.585 13.401a1.165 1.18 20 0 1-.69-1.508 1.165 1.18 20 0 1 1.496-.71 1.165 1.18 20 0 1 .692 1.507 1.165 1.18 20 0 1-1.498.711" class="stroke-comment fill-comment" style="display:inline;fill:#616161;stroke-width:.0762529" id="path39"/>
  <path d="m170.989 12.292-9.907 15.398m-.118-.159" class="stroke-comment fill-comment" style="fill:none;stroke:#616161;stroke-width:1.06583;stroke-linejoin:round;stroke-miterlimit:4.1;stroke-dasharray:none" id="path40"/>
  <path d="M129.02 78.138q-.243 0-.365.239-.12.237-.12.714 0 .476.12.715.122.237.364.237.244 0 .364-.237.123-.239.123-.715 0-.477-.123-.714-.12-.24-.364-.24zm0-.248q.39 0 .593.308.206.307.206.893 0 .585-.206.893-.205.307-.594.307t-.595-.307q-.205-.308-.205-.893 0-.586.205-.893.206-.308.595-.308z" aria-label="0" class="stroke-comment fill-comment stroke-comment" style="font-size:3.175px;fill:#616161;stroke:#616161;stroke-width:.265" id="path41"/>
  <path d="m143.927 94.223-.79 1.236h.79zm-.082-.273h.394v1.509h.33v.26h-.33v.546h-.312v-.546h-1.045v-.302z" aria-label="4" class="stroke-comment fill-comment stroke-comment" style="font-size:3.175px;fill:#616161;stroke:#616161;stroke-width:.265" id="path42"/>
  <path d="M119.316 95.588q.224.048.35.2t.126.375q0 .342-.235.53-.236.188-.67.188-.146 0-.3-.03-.154-.028-.319-.085v-.302q.13.076.286.114.155.04.324.04.294 0 .448-.117.155-.116.155-.338 0-.205-.144-.32-.143-.116-.399-.116h-.27v-.257h.283q.23 0 .353-.092.123-.093.123-.266 0-.179-.128-.273-.125-.096-.36-.096-.13 0-.277.028t-.324.086v-.279q.178-.05.334-.074.156-.025.294-.025.357 0 .564.163.208.161.208.437 0 .192-.11.326-.11.131-.313.183z" aria-label="3" class="stroke-comment fill-comment stroke-comment" style="font-size:3.175px;fill:#616161;stroke:#616161;stroke-width:.265" id="path43"/>
  <path d="m151.177 43.088-19.938 37.631 10 15" class="stroke-comment fill-comment" style="fill:none;stroke:#616161;stroke-width:1.06583;stroke-dasharray:none;stroke-opacity:1" id="path44"/>
  <path d="m131.239 80.719-10 15m29.977-34.867-.04-17.764" class="stroke-comment fill-comment" style="fill:none;stroke:#616161;stroke-width:1.065;stroke-dasharray:none;stroke-opacity:1" id="path45"/>
  <path d="M130.929 81.821a1.165 1.18 20 0 1-.69-1.508 1.165 1.18 20 0 1 1.498-.71 1.165 1.18 20 0 1 .69 1.507 1.165 1.18 20 0 1-1.497.711" class="stroke-comment fill-comment" style="fill:#616161;stroke-width:.0762529" id="path46"/>
  <path d="M120.982 96.613a1.165 1.18 20 0 1-.69-1.508 1.165 1.18 20 0 1 1.496-.711 1.165 1.18 20 0 1 .692 1.508 1.165 1.18 20 0 1-1.499.71zm19.864 0a1.165 1.18 20 0 1-.692-1.508 1.165 1.18 20 0 1 1.498-.711 1.165 1.18 20 0 1 .69 1.508 1.165 1.18 20 0 1-1.497.71z" class="stroke-comment fill-comment stroke-comment" style="fill:#616161;stroke:#616161;stroke-width:.0762529" id="path47"/>
  <path d="M170.572 85.455h.511V83.69l-.557.111v-.285l.554-.112h.313v2.051h.512v.264h-1.334z" aria-label="1" class="stroke-comment fill-comment stroke-comment" style="font-size:3.175px;fill:#616161;stroke:#616161;stroke-width:.265" id="path48"/>
  <path d="M183.88 96.455h1.094v.264h-1.47v-.264q.178-.184.485-.494.309-.312.388-.402.15-.169.21-.285.06-.118.06-.23 0-.185-.13-.302t-.337-.116q-.147 0-.311.051-.163.052-.35.155v-.316q.19-.076.354-.115.165-.038.3-.038.36 0 .575.18.213.18.213.48 0 .143-.054.271-.053.127-.194.301-.038.045-.246.26zm-25.941.094h1.094v.263h-1.47v-.264q.178-.184.485-.494.309-.312.388-.402.15-.169.21-.285.06-.118.06-.231 0-.184-.13-.3-.131-.117-.337-.117-.147 0-.312.051-.162.051-.348.155v-.316q.189-.076.353-.115t.3-.039q.36 0 .574.18t.214.48q0 .144-.054.272-.053.127-.194.3-.038.046-.246.261z" aria-label="2" class="stroke-comment fill-comment stroke-comment" style="font-size:3.175px;fill:#616161;stroke:#616161;stroke-width:.265" id="path49"/>
  <path d="M151.239 63.719q-.224 0-.353.12-.127.119-.127.328t.127.329q.13.12.352.12.223 0 .352-.12.13-.121.13-.329 0-.21-.13-.329-.126-.119-.352-.119zm-.314-.133q-.202-.05-.315-.188-.11-.138-.11-.336 0-.278.196-.439.199-.161.543-.161.346 0 .543.161.196.161.196.439 0 .198-.113.336-.111.138-.311.188.226.052.352.206.127.153.127.375 0 .336-.206.516-.205.18-.588.18t-.59-.18q-.204-.18-.204-.516 0-.222.127-.375.127-.154.354-.206zm-.115-.495q0 .18.112.28.113.102.316.102.202 0 .315-.101.114-.101.114-.28t-.114-.281q-.113-.101-.315-.101-.203 0-.316.1-.112.101-.112.281z" aria-label="8" class="stroke-comment fill-comment stroke-comment" style="font-size:3.175px;fill:#616161;stroke:#616161;stroke-width:.265" id="path50"/>
  <path d="m151.177 43.088 20.062 37.631 10 15" class="stroke-comment fill-comment" style="fill:none;stroke:#616161;stroke-width:1.06583;stroke-dasharray:none;stroke-opacity:1" id="path51"/>
  <path d="m171.239 80.719-10 15" class="stroke-comment fill-comment" style="fill:none;stroke:#616161;stroke-width:1.065;stroke-dasharray:none;stroke-opacity:1" id="path52"/>
  <path d="M172.239 81.441a1.18 1.165 33.033 0 1-1.626.333 1.18 1.165 33.033 0 1-.354-1.62 1.18 1.165 33.033 0 1 1.624-.333 1.18 1.165 33.033 0 1 .355 1.62" class="stroke-comment fill-comment" style="fill:#616161;stroke-width:.0762529" id="path53"/>
  <path d="M162.22 96.399a1.18 1.165 33.033 0 1-1.625.332 1.18 1.165 33.033 0 1-.354-1.62 1.18 1.165 33.033 0 1 1.624-.333 1.18 1.165 33.033 0 1 .355 1.62z" class="stroke-comment fill-comment stroke-comment" style="fill:#616161;stroke:#616161;stroke-width:.0762529" id="path54"/>
  <path d="M152.217 61.496a1.18 1.165 33.033 0 1-1.625.333 1.18 1.165 33.033 0 1-.355-1.62 1.18 1.165 33.033 0 1 1.626-.333 1.18 1.165 33.033 0 1 .354 1.62" class="stroke-comment fill-comment" style="fill:#616161;stroke-width:.0762529" id="path55"/>
  <path d="M182.243 96.339a1.18 1.165 33.033 0 1-1.625.333 1.18 1.165 33.033 0 1-.355-1.62 1.18 1.165 33.033 0 1 1.625-.333 1.18 1.165 33.033 0 1 .355 1.62z" class="stroke-comment fill-comment stroke-comment" style="fill:#616161;stroke:#616161;stroke-width:.0762529" id="path56"/>
  <path d="m170.989 12.292-9.907 15.398m0 0-9.906 15.398m-.118-.159" class="stroke-comment fill-comment" style="fill:none;stroke:#616161;stroke-width:1.06583;stroke-linejoin:round;stroke-miterlimit:4.1;stroke-dasharray:none" id="path57"/>
  <path d="M160.773 28.736a1.165 1.18 20 0 1-.69-1.508 1.165 1.18 20 0 1 1.498-.711 1.165 1.18 20 0 1 .69 1.508 1.165 1.18 20 0 1-1.497.71z" class="stroke-orange fill-orange stroke-orange" style="display:inline;fill:#ff851b;stroke:#ff851b;stroke-width:.0762529" id="path58"/>
  <path d="M156.933 25.71h.835v.254h-.835z" aria-label="-3" class="stroke-orange fill-orange stroke-orange" style="font-size:3.175px;display:inline;fill:#ff851b;stroke:#ff851b;stroke-width:.265" id="path59"/>
  <path d="M158.593 26.752h1.093v.263h-1.47v-.263q.178-.185.485-.495.308-.311.387-.401.15-.17.21-.286.06-.117.06-.23 0-.185-.13-.301-.129-.117-.336-.117-.148 0-.312.052-.163.05-.349.155v-.317q.19-.076.354-.114.164-.04.3-.04.36 0 .575.18t.214.481q0 .143-.054.272-.053.127-.194.3-.04.045-.247.26t-.586.6z" aria-label="2" class="stroke-orange fill-orange stroke-orange" style="font-size:3.175px;display:inline;fill:#ff851b;stroke:#ff851b;stroke-width:.265" id="path60"/>
  <path d="m63.103 96.422 3.861-9.286" style="fill:#616161;fill-opacity:1;stroke:#616161;stroke-width:1.066;stroke-linejoin:round;stroke-dasharray:none;stroke-opacity:1;paint-order:stroke fill markers" transform="translate(0 -.703)" id="path61"/>
  <path d="m52.854 12.995 3.861-9.286" style="fill:#616161;fill-opacity:1;stroke:#616161;stroke-width:1.066;stroke-linejoin:round;stroke-dasharray:none;stroke-opacity:1;paint-order:stroke fill markers" transform="translate(.249 67.724)" id="path62"/>
  <text x="56.964" y="72.136" style="font-size:8.47591px;font-family:Inter;-inkscape-font-specification:Inter;text-align:start;writing-mode:lr-tb;direction:ltr;text-anchor:start;fill:#616161;fill-opacity:1;stroke:#616161;stroke-width:.0806726;stroke-linejoin:round;stroke-dasharray:none;stroke-opacity:1;paint-order:stroke fill markers" transform="translate(0 -.703)" id="text62">
    <tspan x="56.964" y="72.136" style="stroke-width:.0806726" id="tspan62">&#953;</tspan>
  </text>
  <text x="39.267" y="-8.107" style="font-size:8.47591px;font-family:Inter;-inkscape-font-specification:Inter;text-align:start;writing-mode:lr-tb;direction:ltr;text-anchor:start;fill:#616161;fill-opacity:1;stroke:#616161;stroke-width:.0806726;stroke-linejoin:round;stroke-dasharray:none;stroke-opacity:1;paint-order:stroke fill markers" transform="translate(27.004 93.41)" id="text63">
    <tspan x="39.267" y="-8.107" style="stroke-width:.0806726" id="tspan63">&#953;</tspan>
  </text>
  <text x="173.91682" y="70.425545" style="font-size:8.47591px;font-family:Inter;-inkscape-font-specification:Inter;text-align:start;writing-mode:lr-tb;direction:ltr;text-anchor:start;fill:#616161;fill-opacity:1;stroke:#616161;stroke-width:0.0806726;stroke-linejoin:round;stroke-dasharray:none;stroke-opacity:1;paint-order:stroke fill markers" id="text62-6">     <tspan x="173.91682" y="70.425545" style="stroke-width:0.0806726" id="tspan62-7">&#953;</tspan>  </text>
  <text x="184.7453" y="85.568436" style="font-size:8.47591px;font-family:Inter;-inkscape-font-specification:Inter;text-align:start;writing-mode:lr-tb;direction:ltr;text-anchor:start;fill:#616161;fill-opacity:1;stroke:#616161;stroke-width:0.0806726;stroke-linejoin:round;stroke-dasharray:none;stroke-opacity:1;paint-order:stroke fill markers" id="text63-5">     <tspan x="184.7453" y="85.568436" style="stroke-width:0.0806726" id="tspan63-3">&#953;</tspan>  </text>
  <path d="m52.854 12.995 3.861-9.286" style="fill:#616161;fill-opacity:1;stroke:#616161;stroke-width:1.066;stroke-linejoin:round;stroke-dasharray:none;stroke-opacity:1;paint-order:stroke fill markers" transform="translate(118.399 67.7)" id="path63"/>
  <path d="m181.253 95.696 3.861-9.286" style="fill:#616161;fill-opacity:1;stroke:#616161;stroke-width:1.066;stroke-linejoin:round;stroke-dasharray:none;stroke-opacity:1;paint-order:stroke fill markers" id="path64"/>
</svg>
