<svg xmlns="http://www.w3.org/2000/svg" viewBox="0 0 185.976 98.655">
  <path d="m93.909 43.83.067 10.979 13.11-5.531zm-18.973 3.68v3.63H88.52v-3.63z" style="fill:none;stroke:#616161;stroke-width:7.68828;stroke-linejoin:miter;stroke-miterlimit:4.1"/>
  <path d="M119.365 97.662h1.093v.264h-1.47v-.264q.179-.184.486-.494.308-.312.387-.402.15-.17.21-.285.06-.118.06-.23 0-.186-.13-.3-.13-.118-.337-.118-.147 0-.311.05-.163.052-.35.156v-.316q.19-.076.354-.115.165-.04.3-.04.36 0 .575.18t.214.48q0 .144-.055.273-.053.127-.194.3-.04.046-.246.26z" aria-label="2" class="stroke-yellow fill-yellow stroke-yellow" style="font-size:3.175px;fill:#616161;fill-opacity:1;stroke:#616161;stroke-width:.265;stroke-opacity:1"/>
  <path d="m127.448 28.605 10-15m0 0 10 15" class="stroke-comment fill-comment" style="display:inline;fill:none;stroke:#616161;stroke-width:1.065;stroke-dasharray:none;stroke-opacity:1"/>
  <path d="M124.97 27.03q.225.048.35.2.128.152.128.375 0 .343-.237.53-.235.188-.67.188-.145 0-.3-.03-.154-.027-.318-.085v-.302q.13.076.285.115.155.038.324.038.295 0 .448-.116.155-.116.155-.338 0-.204-.144-.32-.143-.115-.398-.115h-.27v-.258h.282q.23 0 .353-.09.123-.094.123-.268 0-.178-.127-.273-.126-.096-.36-.096-.13 0-.277.028t-.324.087v-.28q.178-.05.333-.074.157-.024.294-.024.357 0 .565.162t.208.437q0 .193-.11.326-.11.132-.314.183z" aria-label="3" class="stroke-comment fill-comment stroke-comment" style="font-size:3.175px;display:inline;fill:#616161;stroke:#616161;stroke-width:.265"/>
  <path d="M135.46 12.383h1.092v.264h-1.47v-.264l.487-.494q.308-.312.387-.402.15-.17.21-.285.06-.118.06-.23 0-.185-.13-.3-.13-.118-.337-.118-.147 0-.311.05-.163.052-.35.156v-.316q.19-.076.354-.115.165-.04.3-.04.36 0 .575.18t.214.48q0 .145-.055.273-.052.127-.193.3-.04.046-.247.26zm39.083 1.607h1.093v.263h-1.47v-.263q.178-.185.485-.495.31-.312.388-.402.15-.17.21-.285.06-.118.06-.23 0-.185-.13-.302t-.336-.116q-.147 0-.312.05-.162.053-.35.156v-.316q.19-.076.355-.115.164-.038.3-.038.36 0 .574.18t.214.48q0 .143-.054.27-.053.128-.194.302-.04.045-.246.26-.208.215-.586.6z" aria-label="2" class="stroke-comment fill-comment stroke-comment" style="font-size:3.175px;display:inline;fill:#616161;stroke:#616161;stroke-width:.265"/>
  <path d="M149.597 27.563h.834v.255h-.835zm2.278-.25q.224.047.35.2.127.15.127.374 0 .343-.235.53-.236.188-.67.188-.146 0-.3-.03-.153-.027-.318-.085v-.302q.13.076.284.115.156.04.324.04.295 0 .45-.118.155-.116.155-.338 0-.204-.145-.32-.142-.115-.398-.115h-.27v-.258h.281q.23 0 .355-.09.122-.094.122-.268 0-.178-.127-.273-.125-.096-.361-.096-.13 0-.276.028t-.324.087v-.28q.178-.05.333-.073.157-.025.295-.025.356 0 .564.163.207.16.207.437 0 .192-.11.325-.11.132-.313.183z" aria-label="-3" class="stroke-comment fill-comment stroke-comment" style="font-size:3.175px;display:inline;fill:#616161;stroke:#616161;stroke-width:.265"/>
  <path d="M127.994 27.45c.576.284.812.987.526 1.572a1.17 1.17 0 0 1-1.565.548 1.173 1.173 0 0 1-.526-1.572 1.173 1.173 0 0 1 1.564-.55m10.635-13.855c0 .644-.53 1.165-1.18 1.165-.653 0-1.18-.521-1.18-1.165 0-.643.527-1.164 1.18-1.164.651 0 1.18.52 1.18 1.164m9.293 13.847c.577.284.813.987.527 1.572a1.17 1.17 0 0 1-1.566.548 1.173 1.173 0 0 1-.527-1.572 1.173 1.173 0 0 1 1.566-.55" class="stroke-comment fill-comment" style="display:inline;fill:#616161;stroke-width:.0762529"/>
  <path d="m137.448 13.605 17.57-12.428" class="stroke-comment fill-comment" style="display:inline;fill:none;stroke:#616161;stroke-width:1.065;stroke-dasharray:none;stroke-opacity:1"/>
  <path d="m155.019 1.177 17.333 12.03" class="stroke-comment fill-comment" style="fill:none;stroke:#616161;stroke-width:1.06583;stroke-linejoin:round;stroke-miterlimit:4.1;stroke-dasharray:none"/>
  <path d="M171.95 14.316a1.165 1.18 20 0 1-.691-1.507 1.165 1.18 20 0 1 1.498-.71 1.165 1.18 20 0 1 .69 1.506 1.165 1.18 20 0 1-1.498.71" class="stroke-comment fill-comment" style="display:inline;fill:#616161;stroke-width:.0762529"/>
  <path d="m172.353 13.207-9.906 15.398m-.118-.16" class="stroke-comment fill-comment" style="fill:none;stroke:#616161;stroke-width:1.06583;stroke-linejoin:round;stroke-miterlimit:4.1;stroke-dasharray:none"/>
  <path d="M174.63 79.344q.243 0 .365.24.12.236.12.714 0 .476-.12.715-.122.237-.364.237-.243 0-.364-.237-.123-.24-.123-.715 0-.478.123-.715.12-.24.364-.24zm0-.248q-.39 0-.593.31-.206.306-.206.892 0 .584.206.893.205.307.594.307.39 0 .595-.307.205-.31.205-.893 0-.586-.205-.893-.206-.31-.595-.31z" aria-label="0" class="stroke-comment fill-comment stroke-comment" style="font-size:3.175px;fill:#616161;stroke:#616161;stroke-width:.265"/>
  <path d="m185.203 95.736-.79 1.235h.79zm-.083-.273h.393v1.508h.33v.26h-.33v.546h-.31v-.545h-1.047v-.303z" aria-label="4" class="stroke-yellow fill-yellow stroke-yellow" style="font-size:3.175px;fill:#616161;fill-opacity:1;stroke:#616161;stroke-width:.265;stroke-opacity:1"/>
  <path d="M159.427 96.526q.225.05.35.2.128.152.128.376 0 .342-.236.53-.236.187-.67.187-.145 0-.3-.03-.154-.027-.318-.084v-.303q.13.076.285.115t.324.04q.295 0 .448-.117.155-.117.155-.338 0-.205-.144-.32-.143-.116-.398-.116h-.27v-.257h.282q.23 0 .353-.092.123-.093.123-.267 0-.178-.127-.272-.126-.097-.361-.097-.13 0-.276.028-.148.028-.324.087v-.28q.178-.05.333-.073.156-.025.294-.025.357 0 .565.163.208.16.208.437 0 .192-.11.325-.11.132-.314.183z" aria-label="3" class="stroke-yellow fill-yellow stroke-yellow" style="font-size:3.175px;fill:#616161;fill-opacity:1;stroke:#616161;stroke-width:.265;stroke-opacity:1"/>
  <path d="m152.54 44.004 19.87 37.922-10 15" class="stroke-comment fill-comment" style="fill:none;stroke:#616161;stroke-width:1.06583;stroke-dasharray:none;stroke-opacity:1"/>
  <path d="m172.41 81.926 10 15m-29.974-34.867.107-18.054" class="stroke-comment fill-comment" style="fill:none;stroke:#616161;stroke-width:1.065;stroke-dasharray:none;stroke-opacity:1"/>
  <path d="M172.72 83.029a1.18 1.165 70 0 0 .69-1.51 1.18 1.165 70 0 0-1.497-.71 1.18 1.165 70 0 0-.69 1.508 1.18 1.165 70 0 0 1.498.71" class="stroke-comment fill-comment" style="fill:#616161;stroke-width:.0762529"/>
  <path d="M182.669 97.82a1.18 1.165 70 0 0 .69-1.508 1.18 1.165 70 0 0-1.498-.71 1.18 1.165 70 0 0-.69 1.506 1.18 1.165 70 0 0 1.497.71zm-19.864 0a1.18 1.165 70 0 0 .69-1.508 1.18 1.165 70 0 0-1.498-.71 1.18 1.165 70 0 0-.69 1.506 1.18 1.165 70 0 0 1.499.71z" class="stroke-yellow fill-yellow stroke-yellow" style="fill:#616161;fill-opacity:1;stroke:#616161;stroke-width:.0762529;stroke-opacity:1"/>
  <path d="M131.79 86.662h.51v-1.766l-.555.112v-.285l.553-.112h.313v2.05h.512v.265h-1.333z" aria-label="1" class="stroke-comment fill-comment stroke-comment" style="font-size:3.175px;fill:#616161;stroke:#616161;stroke-width:.265"/>
  <path d="M141.583 92.532h1.093v.263h-1.47v-.263q.178-.185.485-.495.309-.31.388-.4.15-.17.21-.286.06-.118.06-.23 0-.186-.13-.302-.13-.117-.337-.117-.147 0-.312.052-.162.05-.348.155v-.317q.189-.076.353-.114.164-.04.3-.04.36 0 .575.18.213.18.213.481 0 .143-.054.272-.053.127-.194.3-.038.045-.246.26t-.586.6z" aria-label="2" class="stroke-yellow fill-yellow stroke-yellow" style="font-size:3.175px;fill:#616161;fill-opacity:1;stroke:#616161;stroke-width:.265;stroke-opacity:1"/>
  <path d="M152.41 64.926q.225 0 .354.12.127.118.127.328t-.127.328q-.13.12-.352.12-.223 0-.352-.12-.13-.12-.128-.328 0-.21.128-.33.127-.12.352-.12zm.315-.134q.202-.05.315-.187.112-.138.112-.337 0-.277-.197-.438-.2-.162-.544-.162-.346 0-.542.162-.197.16-.197.438 0 .2.113.337.112.138.312.187-.227.053-.352.207-.128.153-.128.375 0 .336.208.516.204.18.587.18.382 0 .59-.18.203-.18.203-.516 0-.222-.127-.375-.127-.154-.354-.207zm.115-.494q0 .18-.112.28-.113.1-.316.1-.201 0-.314-.1-.115-.1-.115-.28t.115-.28q.113-.102.314-.102.203 0 .316.1.113.102.112.28z" aria-label="8" class="stroke-comment fill-comment stroke-comment" style="font-size:3.175px;fill:#616161;stroke:#616161;stroke-width:.265"/>
  <path d="m152.54 44.004-20.13 37.922-10 15" class="stroke-comment fill-comment" style="fill:none;stroke:#616161;stroke-width:1.06583;stroke-dasharray:none;stroke-opacity:1"/>
  <path d="m132.41 81.926 10 15" class="stroke-comment fill-comment" style="fill:none;stroke:#616161;stroke-width:1.065;stroke-dasharray:none;stroke-opacity:1"/>
  <path d="M131.41 82.647a1.165 1.18 56.967 0 0 1.627.333 1.165 1.18 56.967 0 0 .355-1.62 1.165 1.18 56.967 0 0-1.625-.333 1.165 1.18 56.967 0 0-.355 1.62" class="stroke-comment fill-comment" style="fill:#616161;stroke-width:.0762529"/>
  <path d="M141.43 97.605a1.165 1.18 56.967 0 0 1.624.333 1.165 1.18 56.967 0 0 .355-1.62 1.165 1.18 56.967 0 0-1.625-.333 1.165 1.18 56.967 0 0-.355 1.62z" class="stroke-yellow fill-yellow stroke-yellow" style="fill:#616161;fill-opacity:1;stroke:#616161;stroke-width:.0762529;stroke-opacity:1"/>
  <path d="M151.434 62.703a1.165 1.18 56.967 0 0 1.624.333 1.165 1.18 56.967 0 0 .355-1.62 1.165 1.18 56.967 0 0-1.625-.333 1.165 1.18 56.967 0 0-.355 1.62" class="stroke-comment fill-comment" style="fill:#616161;stroke-width:.0762529"/>
  <path d="M121.409 97.546a1.165 1.18 56.967 0 0 1.623.333 1.165 1.18 56.967 0 0 .356-1.62 1.165 1.18 56.967 0 0-1.626-.333 1.165 1.18 56.967 0 0-.353 1.62z" class="stroke-yellow fill-yellow stroke-yellow" style="fill:#616161;fill-opacity:1;stroke:#616161;stroke-width:.0762529;stroke-opacity:1"/>
  <path d="m172.353 13.207-9.906 15.398m0 0-9.906 15.4m-.118-.16" class="stroke-comment fill-comment" style="fill:none;stroke:#616161;stroke-width:1.06583;stroke-linejoin:round;stroke-miterlimit:4.1;stroke-dasharray:none"/>
  <path d="M162.138 29.65a1.165 1.18 20 0 1-.69-1.507 1.165 1.18 20 0 1 1.497-.71 1.165 1.18 20 0 1 .69 1.507 1.165 1.18 20 0 1-1.498.71z" class="stroke-orange fill-orange stroke-orange" style="display:inline;fill:#ff851b;stroke:#ff851b;stroke-width:.0762529"/>
  <path d="M159.114 27.34h.511v-1.765l-.557.11v-.284l.554-.11h.313v2.05h.512v.263h-1.334z" aria-label="1" class="stroke-comment fill-comment stroke-comment" style="font-size:3.175px;fill:#ff851b;fill-opacity:1;stroke:#ff851b;stroke-width:.265;stroke-opacity:1"/>
  <path d="M155.538.117c.577.283.813.987.526 1.572s-.987.83-1.565.548a1.173 1.173 0 0 1-.527-1.572 1.173 1.173 0 0 1 1.565-.55m-2.477 42.83c.577.283.813.987.527 1.572-.287.585-.987.83-1.565.548a1.173 1.173 0 0 1-.527-1.572 1.173 1.173 0 0 1 1.565-.55" style="display:inline;fill:#616161;stroke-width:.0762529"/>
  <path d="m7.949 28.92 10-15m0 0 10 15" class="stroke-comment fill-comment" style="display:inline;fill:none;stroke:#616161;stroke-width:1.065;stroke-dasharray:none;stroke-opacity:1"/>
  <path d="M5.47 27.346q.226.048.35.2.127.152.127.375 0 .343-.236.53-.235.188-.67.188-.145 0-.3-.03-.152-.028-.316-.085v-.302q.13.076.285.114.155.04.324.04.295 0 .448-.117.155-.116.155-.338 0-.205-.144-.32-.142-.116-.398-.116h-.27v-.257h.282q.23 0 .354-.092.122-.093.122-.266 0-.178-.127-.273-.126-.096-.361-.096-.13 0-.276.028t-.324.087v-.28q.178-.05.333-.074.157-.025.295-.025.356 0 .564.163.208.16.208.437 0 .193-.11.326-.11.132-.313.183z" aria-label="3" class="stroke-comment fill-comment stroke-comment" style="font-size:3.175px;display:inline;fill:#616161;stroke:#616161;stroke-width:.265"/>
  <path d="M15.96 12.699h1.092v.264h-1.47v-.264l.487-.494q.308-.312.387-.402.15-.17.21-.285.06-.118.06-.231 0-.185-.13-.3-.13-.117-.336-.117-.148 0-.312.05-.162.052-.35.156v-.316q.19-.076.356-.115t.3-.04q.36 0 .574.18t.214.48q0 .144-.054.273-.053.127-.194.3-.04.046-.247.26t-.586.6zm39.085 1.606h1.092v.264h-1.47v-.264q.178-.184.485-.494.31-.312.388-.402.15-.17.21-.285.06-.118.06-.231 0-.184-.13-.3-.13-.117-.337-.117-.148 0-.313.05-.161.052-.347.156v-.316q.19-.076.353-.115.165-.04.3-.04.36 0 .575.18t.214.48q0 .144-.055.273-.053.127-.194.3-.038.046-.246.26z" aria-label="2" class="stroke-comment fill-comment stroke-comment" style="font-size:3.175px;display:inline;fill:#616161;stroke:#616161;stroke-width:.265"/>
  <path d="M30.098 27.879h.835v.254h-.836zm2.278-.25q.226.047.35.199.128.152.128.375 0 .343-.235.53-.236.188-.67.188-.146 0-.3-.03-.154-.027-.32-.085v-.302q.13.076.287.115.155.038.324.038.294 0 .448-.116t.155-.338q0-.204-.144-.32-.143-.115-.4-.115h-.27v-.258h.284q.23 0 .353-.091.123-.093.123-.267 0-.178-.128-.273-.125-.096-.36-.096-.13 0-.277.028t-.324.087v-.28q.178-.05.334-.074.156-.025.294-.024.356 0 .563.162.208.162.208.437 0 .193-.11.326-.11.132-.313.183z" aria-label="-3" class="stroke-comment fill-comment stroke-comment" style="font-size:3.175px;display:inline;fill:#616161;stroke:#616161;stroke-width:.265"/>
  <path d="M8.495 27.765a1.165 1.18 26.087 0 1 .526 1.573 1.165 1.18 26.087 0 1-1.566.548 1.165 1.18 26.087 0 1-.526-1.573 1.165 1.18 26.087 0 1 1.565-.548m10.635-13.856a1.18 1.165 0 0 1-1.181 1.164 1.18 1.165 0 0 1-1.18-1.165 1.18 1.165 0 0 1 1.18-1.164 1.18 1.165 0 0 1 1.18 1.164m9.292 13.846a1.165 1.18 26.087 0 1 .526 1.573 1.165 1.18 26.087 0 1-1.565.548 1.165 1.18 26.087 0 1-.527-1.573 1.165 1.18 26.087 0 1 1.565-.548" class="stroke-comment fill-comment" style="display:inline;fill:#616161;stroke-width:.0762529"/>
  <path d="M17.949 13.92 35.462 1.589" class="stroke-comment fill-comment" style="display:inline;fill:none;stroke:#616161;stroke-width:1.065;stroke-dasharray:none;stroke-opacity:1"/>
  <path d="m35.463 1.588 17.39 11.935" class="stroke-comment fill-comment" style="fill:none;stroke:#616161;stroke-width:1.06583;stroke-linejoin:round;stroke-miterlimit:4.1;stroke-dasharray:none"/>
  <path d="M52.45 14.632a1.165 1.18 20 0 1-.69-1.508 1.165 1.18 20 0 1 1.498-.71 1.165 1.18 20 0 1 .69 1.507 1.165 1.18 20 0 1-1.498.71" class="stroke-comment fill-comment" style="display:inline;fill:#616161;stroke-width:.0762529"/>
  <path d="M52.855 13.523 42.948 28.92m-.118-.16" class="stroke-comment fill-comment" style="fill:none;stroke:#616161;stroke-width:1.06583;stroke-linejoin:round;stroke-miterlimit:4.1;stroke-dasharray:none"/>
  <path d="M10.885 79.369q-.244 0-.366.239-.12.237-.12.714 0 .476.12.715.122.237.364.237.245 0 .365-.237.123-.24.123-.715 0-.477-.124-.714-.12-.24-.363-.24zm0-.248q.39 0 .592.308.206.307.206.893 0 .585-.206.893-.205.307-.594.307-.387 0-.593-.307-.206-.308-.206-.893 0-.586.205-.893.206-.308.595-.308z" aria-label="0" class="stroke-comment fill-comment stroke-comment" style="font-size:3.175px;fill:#616161;stroke:#616161;stroke-width:.265"/>
  <path d="M25.79 95.453 25 96.69h.79zm-.08-.272h.394v1.509h.33v.26h-.33v.546h-.313v-.546h-1.045v-.302z" aria-label="4" class="stroke-comment fill-comment stroke-comment" style="font-size:3.175px;fill:#616161;stroke:#616161;stroke-width:.265"/>
  <path d="M1.18 96.819q.226.048.35.2.127.152.127.375 0 .342-.235.53-.236.188-.67.188-.147 0-.3-.03-.155-.028-.32-.085v-.302q.13.076.286.114.155.04.324.04.295 0 .45-.117.155-.116.155-.338 0-.205-.144-.32-.143-.116-.4-.116h-.27V96.7h.282q.23 0 .355-.092.123-.093.123-.266 0-.18-.128-.273-.126-.096-.36-.096-.13 0-.279.028-.147.028-.324.086v-.28q.178-.05.334-.073.156-.025.294-.025.357 0 .564.163.208.16.208.437 0 .192-.11.326-.11.13-.313.183z" aria-label="3" class="stroke-comment fill-comment stroke-comment" style="font-size:3.175px;fill:#616161;stroke:#616161;stroke-width:.265"/>
  <path d="m33.043 44.319-19.94 37.63 10 15" class="stroke-comment fill-comment" style="fill:none;stroke:#616161;stroke-width:1.06583;stroke-dasharray:none;stroke-opacity:1"/>
  <path d="m13.104 81.95-10 15M33.08 62.083l-.04-17.764" class="stroke-comment fill-comment" style="fill:none;stroke:#616161;stroke-width:1.065;stroke-dasharray:none;stroke-opacity:1"/>
  <path d="M12.794 83.052a1.165 1.18 20 0 1-.69-1.508 1.165 1.18 20 0 1 1.498-.71 1.165 1.18 20 0 1 .69 1.507 1.165 1.18 20 0 1-1.499.71M2.848 97.844a1.165 1.18 20 0 1-.69-1.508 1.165 1.18 20 0 1 1.496-.711 1.165 1.18 20 0 1 .69 1.508 1.165 1.18 20 0 1-1.497.71m19.865 0a1.165 1.18 20 0 1-.692-1.507 1.165 1.18 20 0 1 1.498-.711 1.165 1.18 20 0 1 .69 1.508 1.165 1.18 20 0 1-1.496.71" class="stroke-comment fill-comment" style="fill:#616161;stroke-width:.0762529"/>
  <path d="M52.437 86.686h.51V84.92l-.556.11v-.284l.554-.112h.313v2.05h.513v.265h-1.335z" aria-label="1" class="stroke-comment fill-comment stroke-comment" style="font-size:3.175px;fill:#616161;stroke:#616161;stroke-width:.265"/>
  <path d="M65.746 97.686h1.092v.264h-1.47v-.264q.179-.184.486-.494.309-.312.388-.402.15-.17.21-.285.06-.118.06-.23 0-.185-.13-.302t-.337-.116q-.147 0-.311.05-.164.053-.35.156v-.316q.19-.076.354-.115.165-.038.3-.038.36 0 .574.18t.214.48q0 .143-.055.27-.053.128-.194.302-.038.045-.246.26zm-25.943.094h1.095v.263h-1.47v-.264q.178-.184.485-.494.309-.312.388-.402.15-.17.21-.285.06-.118.06-.231 0-.184-.13-.3-.131-.117-.337-.117-.148 0-.313.05-.161.052-.347.156v-.316q.188-.076.352-.115.165-.04.3-.04.36 0 .575.18.213.18.212.48 0 .145-.054.273-.053.127-.194.3-.038.046-.246.26z" aria-label="2" class="stroke-comment fill-comment stroke-comment" style="font-size:3.175px;fill:#616161;stroke:#616161;stroke-width:.265"/>
  <path d="M33.104 64.95q-.225 0-.354.12-.126.119-.126.328t.126.329q.13.12.353.12t.351-.12.13-.33q0-.21-.13-.328-.126-.12-.352-.12zm-.315-.133q-.202-.05-.315-.188-.11-.138-.11-.336 0-.278.197-.44.197-.16.541-.16.348 0 .545.16.194.162.194.44 0 .198-.113.336-.11.138-.31.188.225.052.351.206.127.153.127.375 0 .336-.206.516-.205.18-.588.18t-.59-.18q-.204-.18-.204-.516 0-.222.127-.375.127-.154.354-.206zm-.115-.495q0 .18.112.28.113.102.316.102t.317-.101.113-.28q0-.18-.114-.281-.113-.101-.315-.101t-.315.1-.113.28z" aria-label="8" class="stroke-comment fill-comment stroke-comment" style="font-size:3.175px;fill:#616161;stroke:#616161;stroke-width:.265"/>
  <path d="m32.925 44.16 20.178 37.79 10 15" class="stroke-comment fill-comment" style="fill:none;stroke:#616161;stroke-width:1.06583;stroke-dasharray:none;stroke-opacity:1"/>
  <path d="m53.104 81.95-10 15" class="stroke-comment fill-comment" style="fill:none;stroke:#616161;stroke-width:1.065;stroke-dasharray:none;stroke-opacity:1"/>
  <path d="M54.104 82.672a1.18 1.165 33.033 0 1-1.627.333 1.18 1.165 33.033 0 1-.352-1.62 1.18 1.165 33.033 0 1 1.622-.333 1.18 1.165 33.033 0 1 .356 1.62M44.085 97.63a1.18 1.165 33.033 0 1-1.625.332 1.18 1.165 33.033 0 1-.354-1.62 1.18 1.165 33.033 0 1 1.626-.333 1.18 1.165 33.033 0 1 .354 1.62M34.08 62.727a1.18 1.165 33.033 0 1-1.625.333 1.18 1.165 33.033 0 1-.355-1.62 1.18 1.165 33.033 0 1 1.626-.333 1.18 1.165 33.033 0 1 .354 1.62M64.105 97.57a1.18 1.165 33.033 0 1-1.624.333 1.18 1.165 33.033 0 1-.356-1.62 1.18 1.165 33.033 0 1 1.626-.333 1.18 1.165 33.033 0 1 .354 1.62" class="stroke-comment fill-comment" style="fill:#616161;stroke-width:.0762529"/>
  <path d="M52.855 13.523 42.948 28.92m0 0-9.906 15.398m-.117-.16" class="stroke-comment fill-comment" style="fill:none;stroke:#616161;stroke-width:1.06583;stroke-linejoin:round;stroke-miterlimit:4.1;stroke-dasharray:none"/>
  <path d="M42.639 29.967a1.165 1.18 20 0 1-.69-1.508 1.165 1.18 20 0 1 1.498-.711 1.165 1.18 20 0 1 .69 1.508 1.165 1.18 20 0 1-1.499.71z" class="stroke-orange fill-orange stroke-orange" style="display:inline;fill:#ff851b;stroke:#ff851b;stroke-width:.0762529"/>
  <path d="m43.706 22.63.02-.052.023-.053.02-.053.023-.052.02-.053.023-.052.02-.053.023-.052.02-.053.023-.053.02-.052.023-.053.02-.052.023-.053.02-.052.022-.053-.21-.058-.257-.068-.21-.056-.262-.05-.262-.05-.216-.031-.266-.03-.265-.03-.22-.01-.266-.01-.22-.005-.266.01-.268.01-.22.017-.264.03-.266.03-.01-.07-.008-.071-.01-.07-.008-.071-.01-.07-.008-.07-.01-.071-.008-.07-.01-.071-.008-.07-.01-.07-.008-.071-.01-.07-.008-.071-.01-.07-.008-.071.266-.03.266-.03.315-.024.267-.01.268-.01.316.006.267.01.316.017.266.03.266.03.312.047.262.05.263.049.306.077.257.07.303.086.02-.052.023-.053.02-.053.023-.052.02-.053.023-.052.02-.053.023-.052.02-.053.023-.052.02-.053.023-.053.02-.052.023-.053.02-.052.023-.053.138.147.138.148.138.147.224.186.124.157.125.157.125.157.183.192.11.167.11.167.108.166.11.167.127.188.09.175.093.176.09.176-.207-.028-.207-.028-.208-.028h-.18l-.21-.01-.21-.008-.208-.01-.21-.008-.144.036-.21.01-.21.008-.21.01-.117.055-.208.024-.208.024zm4.421 3.645q.026-.014.053-.026l.055-.024q.027-.014.054-.025l.054-.025.054-.025q.028-.014.055-.025l.054-.025.054-.025q.027-.014.054-.025l.054-.025.054-.025q.027-.014.054-.025l.054-.025.054-.025.054-.025.054-.025-.12-.223-.12-.223-.104-.17-.142-.211-.142-.212-.118-.16-.163-.198-.163-.198-.131-.152-.183-.183-.182-.182-.143-.142-.2-.166-.2-.165-.2-.166-.17-.113.045-.058.045-.057.045-.058.044-.057.045-.057.044-.058.045-.057.045-.058.044-.057.045-.057.044-.058.045-.057.045-.058.044-.057.045-.057.045-.058.26.183.2.166.2.166.202.165.227.219.183.183.182.183.207.235.163.198.163.198.184.25.142.212.142.212.16.263.12.224.12.223.055-.025.054-.025.054-.025.054-.025.054-.025.054-.025.054-.025.054-.025.054-.024.054-.025.054-.025.055-.025.054-.025q.027-.014.054-.025.027-.014.054-.025.027-.014.054-.025l.05.315-.026.194-.026.194-.026.194-.025.194-.006.28-.046.19-.045.19-.046.192-.034.242-.065.186-.065.185-.065.186-.065.186-.075.195-.084.18-.112-.166-.116-.146-.13-.154-.128-.154-.13-.155-.128-.154-.13-.09-.144-.142-.144-.142-.144-.142-.12-.048-.158-.13-.157-.127-.158-.13-.102-.008zm.053 5.274.055.024.055.023.055.024.054.023.055.024.055.024.055.023.054.024q.028.01.055.024l.055.023.055.024.054.024.055.023.055.024.055.024.054.023.113-.227.076-.176.086-.236.084-.236.063-.182.057-.244.06-.243.045-.187.031-.248.03-.247.028-.191.005-.25.005-.25.006-.25-.018-.191-.021-.25.075-.005.076-.005.076-.006.076-.006.076-.006.075-.006.076-.006.076-.005.076-.006.075-.006.076-.006.076-.006.076-.006.075-.006.076-.005.076-.006.02.249.023.305-.005.25-.005.25-.005.25-.036.304-.031.249-.032.248-.066.3-.06.245-.058.243-.096.295-.085.237-.086.237-.124.286-.112.227.055.024.055.024.055.023.054.024.055.024.055.023.055.024.054.024.055.023.055.024.055.024.054.024.055.022q.028.014.055.024l.054.024.055.024-.167.119-.167.117-.24.224-.18.1-.178.1-.18.102-.178.102-.24.155-.19.083-.19.084-.19.083-.22.107-.197.065-.198.064-.198.065-.197.064.053-.19.054-.188.053-.188.054-.19.01-.16.033-.192.032-.194.032-.193-.02-.122.01-.195.01-.195.01-.195.01-.196-.063-.08-.011-.195zm-4.282 3.42.013.055.015.055.014.055.015.054.014.055.014.055.014.055.014.055.014.054.014.055.014.055.014.055.014.055.014.054.014.055.014.055.2-.056.253-.082.252-.081.195-.073.243-.103.243-.104.186-.086.23-.127.232-.125.177-.1.216-.147.217-.146.165-.115.2-.165.2-.167.154-.127.056.047.056.05.056.047.056.047.056.049.056.047.056.048.056.049.056.047.056.048.056.048.056.048.056.047.056.05.056.047.056.047-.242.209-.2.166-.2.166-.262.187-.217.146-.217.146-.277.163-.232.125-.231.126-.292.138-.243.103-.244.105-.303.112-.253.08-.253.083-.312.087.014.053.014.055.014.055.014.055.013.055.014.054.014.055.014.055.014.055.014.055.014.054.014.055.014.055.014.055.014.054.014.055-.203-.05-.203-.048-.202-.05-.314-.034-.197-.066-.197-.067-.196-.067-.197-.066-.263-.074-.19-.083-.19-.085-.187-.084-.217-.088-.18-.1-.18-.1-.18-.1.19-.083.19-.083.19-.084.152-.095.18-.1.18-.1.18-.097.107-.098.17-.115.17-.115.17-.115.169-.115.048-.105.157-.13.157-.13zm-5.826-.752-.03.049-.03.047-.03.049-.03.049-.03.049-.03.048-.03.05-.03.048-.03.049-.03.049-.03.048-.03.05-.03.048-.032.049-.03.049-.03.048.232.124.232.124.195.084.243.103.243.105.194.07.252.083.253.082.198.06.26.058.26.059.203.046.265.035.265.035.264.035.21.01-.005.07-.004.072-.004.07-.002.07-.006.07-.003.072-.003.072-.004.07-.004.07-.003.072-.004.07-.004.07-.004.073-.004.07-.003.07-.004.072-.325-.018-.265-.037-.265-.035-.265-.035-.318-.067-.26-.06-.26-.058-.313-.09-.253-.082-.253-.083-.303-.112-.244-.104-.243-.105-.29-.13-.232-.123-.232-.123-.03.048-.03.048-.03.049-.03.048-.031.05-.03.048-.03.049-.03.049-.031.048-.03.049-.03.049-.03.049-.03.048-.03.049-.031.049-.03.049-.205-.224-.097-.173-.097-.174-.098-.172-.16-.224-.082-.18-.082-.18-.083-.18-.115-.217-.068-.185-.068-.185-.087-.205-.053-.19-.053-.19-.053-.188-.047-.193.192.07.197.064.198.065.198.065.18.03.202.053.202.05.16.013.206.037.206.036.206.036.138-.02.208.023.209.022.208.02z" class="stroke-orange fill-orange" style="fill:#ff851b;fill-opacity:1;stroke:none;stroke-width:2.51146;stroke-linejoin:miter;stroke-miterlimit:4.1;stroke-dasharray:none"/>
  <path d="M45.437 31.435h.51v-1.766l-.556.112v-.285l.554-.112h.313v2.05h.513v.265h-1.335z" aria-label="1" class="stroke-comment fill-comment stroke-comment" style="font-size:3.175px;fill:#ff851b;fill-opacity:1;stroke:#ff851b;stroke-width:.265;stroke-opacity:1"/>
  <path d="M33.562 43.259c.578.283.814.987.527 1.572a1.173 1.173 0 0 1-1.565.548 1.173 1.173 0 0 1-.527-1.572 1.173 1.173 0 0 1 1.565-.55M35.982.529c.577.283.813.987.526 1.572a1.173 1.173 0 0 1-1.565.548 1.173 1.173 0 0 1-.526-1.572 1.173 1.173 0 0 1 1.564-.55" style="display:inline;fill:#616161;stroke-width:.0762529"/>
  <path d="m63.103 96.422 3.861-9.286" style="fill:#616161;fill-opacity:1;stroke:#616161;stroke-width:1.066;stroke-linejoin:round;stroke-dasharray:none;stroke-opacity:1;paint-order:stroke fill markers" transform="translate(0 .528)"/>
  <path d="m52.854 12.995 3.861-9.286" style="fill:#616161;fill-opacity:1;stroke:#616161;stroke-width:1.066;stroke-linejoin:round;stroke-dasharray:none;stroke-opacity:1;paint-order:stroke fill markers" transform="translate(.249 68.955)"/>
  <text x="56.964" y="72.136" style="font-size:8.47591px;font-family:Inter;-inkscape-font-specification:Inter;text-align:start;writing-mode:lr-tb;direction:ltr;text-anchor:start;fill:#616161;fill-opacity:1;stroke:#616161;stroke-width:.0806726;stroke-linejoin:round;stroke-dasharray:none;stroke-opacity:1;paint-order:stroke fill markers" transform="translate(0 .528)">
    <tspan x="56.964" y="72.136" style="stroke-width:.0806726">&#953;</tspan>
  </text>
  <text x="39.267" y="-8.107" style="font-size:8.47591px;font-family:Inter;-inkscape-font-specification:Inter;text-align:start;writing-mode:lr-tb;direction:ltr;text-anchor:start;fill:#616161;fill-opacity:1;stroke:#616161;stroke-width:.0806726;stroke-linejoin:round;stroke-dasharray:none;stroke-opacity:1;paint-order:stroke fill markers" transform="translate(27.004 94.64)">
    <tspan x="39.267" y="-8.107" style="stroke-width:.0806726">&#953;</tspan>
  </text>
  <path d="m52.854 12.995 3.861-9.286" style="fill:#616161;fill-opacity:1;stroke:#616161;stroke-width:1.066;stroke-linejoin:round;stroke-dasharray:none;stroke-opacity:1;paint-order:stroke fill markers" transform="rotate(32.926 -23.815 183.166)"/>
  <text x="39.267" y="-8.107" style="font-size:8.47591px;font-family:Inter;-inkscape-font-specification:Inter;text-align:start;writing-mode:lr-tb;direction:ltr;text-anchor:start;fill:#616161;fill-opacity:1;stroke:#616161;stroke-width:.0806726;stroke-linejoin:round;stroke-dasharray:none;stroke-opacity:1;paint-order:stroke fill markers" transform="translate(101.423 84.416)">
    <tspan x="39.267" y="-8.107" style="stroke-width:.0806726">&#958;</tspan>
  </text>
  <path d="m142.41 96.926 3.862-9.286" style="fill:#616161;fill-opacity:1;stroke:#616161;stroke-width:1.066;stroke-linejoin:round;stroke-dasharray:none;stroke-opacity:1;paint-order:stroke fill markers"/>
  <text x="39.032" y="-9.779" style="font-size:8.47591px;font-family:Inter;-inkscape-font-specification:Inter;text-align:start;writing-mode:lr-tb;direction:ltr;text-anchor:start;fill:#616161;fill-opacity:1;stroke:#616161;stroke-width:.0806726;stroke-linejoin:round;stroke-dasharray:none;stroke-opacity:1;paint-order:stroke fill markers" transform="translate(106.974 95.655)">
    <tspan x="39.032" y="-9.779" style="stroke-width:.0806726">&#951;</tspan>
  </text>
</svg>
