
<svg xmlns:inkscape="http://www.inkscape.org/namespaces/inkscape" xmlns:sodipodi="http://sodipodi.sourceforge.net/DTD/sodipodi-0.dtd" xmlns="http://www.w3.org/2000/svg" xmlns:svg="http://www.w3.org/2000/svg" viewBox="0 0 87.90035 93.177857" version="1.1" id="svg1" inkscape:version="1.3.2 (091e20ef0f, 2023-11-25)" sodipodi:docname="arbor_graph_ring.svg">
  <sodipodi:namedview id="namedview1" pagecolor="#282a36" bordercolor="#000000" borderopacity="0.25" inkscape:showpageshadow="2" inkscape:pageopacity="0.0" inkscape:pagecheckerboard="0" inkscape:deskcolor="#44475a" inkscape:document-units="mm" showgrid="true" inkscape:zoom="4.333007" inkscape:cx="48.349794" inkscape:cy="12.000904" inkscape:window-width="1920" inkscape:window-height="1126" inkscape:window-x="0" inkscape:window-y="0" inkscape:window-maximized="1" inkscape:current-layer="g5">
    <inkscape:grid id="grid1" units="mm" originx="-62.756374" originy="-40.918204" spacingx="0.99999998" spacingy="1" empcolor="#0099e5" empopacity="0.30196078" color="#0099e5" opacity="0.14901961" empspacing="5" dotted="false" gridanglex="30" gridanglez="30" visible="true"/>
  </sodipodi:namedview>
  <defs id="defs1"/>
  <g inkscape:label="Layer 1" inkscape:groupmode="layer" id="layer1" transform="translate(-62.756376,-40.918208)">
    <g id="g5" inkscape:label="graph" transform="translate(0,-1.0550802)">
      <path style="fill:none;stroke:#111111;stroke-width:5.51562;stroke-dasharray:none;stroke-opacity:1" d="M 62.756376,85.845977 H 100.27096 L 133.09101,53.025922" id="path2" sodipodi:nodetypes="ccc" class="stroke-foreground"/>
      <path style="fill:none;stroke:#111111;stroke-width:5.51562;stroke-dasharray:none;stroke-opacity:1" d="m 100.27096,85.845977 33.5242,33.524203" id="path3" sodipodi:nodetypes="cc" class="stroke-foreground"/>
      <path id="path5-19-3" style="fill:#111111;stroke-width:0.394911" d="m 107.28178,85.826607 a 6.1140947,6.0319862 0 0 1 -6.11409,6.031986 6.1140947,6.0319862 0 0 1 -6.114098,-6.031986 6.1140947,6.0319862 0 0 1 6.114098,-6.031986 6.1140947,6.0319862 0 0 1 6.11409,6.031986 z" class="fill-foreground"/>
      <path id="path5-19-3-5" style="fill:#111111;stroke-width:0.394911" d="m 138.39405,53.650761 a 6.1140947,6.0319862 0 0 1 -6.1141,6.031986 6.1140947,6.0319862 0 0 1 -6.11409,-6.031986 6.1140947,6.0319862 0 0 1 6.11409,-6.031987 6.1140947,6.0319862 0 0 1 6.1141,6.031987 z" class="fill-foreground"/>
      <path id="path5-19-3-5-2" style="fill:#111111;stroke-width:0.394911" d="m 140,119.52 a 6.1140947,6.0319862 0 0 1 -6.11409,6.03198 6.1140947,6.0319862 0 0 1 -6.11409,-6.03198 6.1140947,6.0319862 0 0 1 6.11409,-6.03199 A 6.1140947,6.0319862 0 0 1 140,119.52 Z" class="fill-foreground"/>
      <text xml:space="preserve" style="font-weight:bold;font-size:1.95741px;font-family:FreeMono;-inkscape-font-specification:'FreeMono Bold';fill:none;stroke:#B10DC9;stroke-width:197.64;stroke-linejoin:round;stroke-miterlimit:4.1" x="141.70276" y="49.878418" id="text1" class="stroke-purple"><tspan sodipodi:role="line" id="tspan1" x="141.70276" y="49.878418" style="font-size:1.95741px;stroke-width:197.64" class=""/></text>
      <text xml:space="preserve" style="font-weight:bold;font-size:1.95741px;font-family:FreeMono;-inkscape-font-specification:'FreeMono Bold';fill:none;stroke:#B10DC9;stroke-width:1.95741;stroke-linejoin:round;stroke-miterlimit:4.1;stroke-dasharray:none;stroke-opacity:1" x="141.71294" y="47.618767" id="text2" class="stroke-purple"><tspan sodipodi:role="line" id="tspan2" x="141.71294" y="47.618767" style="stroke-width:1.95741" class=""/></text>
      <path style="font-size:1.95741px;font-family:FreeMono;-inkscape-font-specification:FreeMono;fill:none;stroke:#B10DC9;stroke-width:0;stroke-linejoin:round;stroke-miterlimit:4.1" d="m 149.92466,48.958435 q 0,-0.08808 0.1057,-0.187911 0.10765,-0.101785 0.25837,-0.101785 0.14289,0 0.25055,0.101785 0.10962,0.101785 0.10962,0.234889 0,0.08808 -0.0529,0.16638 -0.0509,0.07634 -0.22902,0.242719 l -0.40518,0.37778 v 0.0059 h 0.61462 v -0.07047 q 0,-0.05285 0.0411,-0.05285 0.0392,0 0.0392,0.05285 v 0.150721 h -0.77122 v -0.117445 l 0.46195,-0.434545 q 0.13701,-0.135061 0.17812,-0.195741 0.0431,-0.06068 0.0431,-0.127231 0,-0.101786 -0.0842,-0.178125 -0.0842,-0.07634 -0.19574,-0.07634 -0.0998,0 -0.18204,0.05872 -0.0802,0.05872 -0.10374,0.146805 -0.0117,0.03915 -0.0411,0.03915 -0.0137,0 -0.0255,-0.0098 -0.0117,-0.01175 -0.0117,-0.02545 z" id="text3" aria-label="2" class="stroke-purple"/>
      <text xml:space="preserve" style="font-style:normal;font-variant:normal;font-weight:normal;font-stretch:normal;font-size:1.95741px;font-family:FreeMono;-inkscape-font-specification:FreeMono;fill:none;stroke:#B10DC9;stroke-width:19.5741;stroke-linejoin:round;stroke-miterlimit:4.1;stroke-dasharray:none;stroke-opacity:1" x="17.407299" y="-64.059105" id="text4" class="stroke-purple"><tspan sodipodi:role="line" id="tspan4" x="17.407299" y="-64.059105" style="stroke-width:19.5741" class=""/></text>
      <text xml:space="preserve" style="font-style:normal;font-variant:normal;font-weight:normal;font-stretch:normal;font-size:1.95741px;font-family:FreeMono;-inkscape-font-specification:FreeMono;fill:none;stroke:#B10DC9;stroke-width:19.5741;stroke-linejoin:round;stroke-miterlimit:4.1;stroke-dasharray:none;stroke-opacity:1" x="13.454607" y="-64.942245" id="text5" class="stroke-purple"><tspan sodipodi:role="line" id="tspan5" x="13.454607" y="-64.942245" style="stroke-width:19.5741" class=""/></text>
      <path d="m 140.6185,44.799144 q 0,-0.64224 0.77069,-1.370112 0.78496,-0.742144 1.8839,-0.742144 1.04186,0 1.82682,0.742144 0.79923,0.742144 0.79923,1.71264 0,0.64224 -0.38535,1.21312 -0.37107,0.556608 -1.66982,1.769728 l -2.9543,2.754496 v 0.04282 h 4.4814 v -0.513792 q 0,-0.385344 0.29972,-0.385344 0.28544,0 0.28544,0.385344 v 1.098944 h -5.62317 v -0.85632 l 3.36819,-3.168384 q 0.99904,-0.984768 1.29875,-1.4272 0.31399,-0.442432 0.31399,-0.92768 0,-0.742144 -0.6137,-1.298752 -0.6137,-0.556608 -1.4272,-0.556608 -0.72787,0 -1.3273,0.42816 -0.58515,0.42816 -0.75641,1.0704 -0.0856,0.28544 -0.29971,0.28544 -0.0999,0 -0.18554,-0.07136 -0.0856,-0.08563 -0.0856,-0.185536 z" id="text6" style="font-size:14.272px;font-family:FreeMono;-inkscape-font-specification:FreeMono;fill:none;stroke:#B10DC9;stroke-width:1.4272;stroke-linejoin:round;stroke-miterlimit:4.1" aria-label="2" class="stroke-purple"/>
      <path d="m 141.77453,127.72971 q 0,-0.64224 0.77069,-1.37012 0.78496,-0.74214 1.8839,-0.74214 1.04186,0 1.82682,0.74214 0.79923,0.74215 0.79923,1.71264 0,0.64224 -0.38535,1.21312 -0.37107,0.55661 -1.66982,1.76973 l -2.9543,2.7545 v 0.0428 h 4.4814 v -0.51379 q 0,-0.38534 0.29972,-0.38534 0.28544,0 0.28544,0.38534 v 1.09895 h -5.62317 v -0.85632 l 3.36819,-3.16839 q 0.99904,-0.98477 1.29875,-1.4272 0.31399,-0.44243 0.31399,-0.92768 0,-0.74214 -0.6137,-1.29875 -0.6137,-0.55661 -1.4272,-0.55661 -0.72787,0 -1.3273,0.42816 -0.58515,0.42816 -0.75641,1.0704 -0.0856,0.28544 -0.29971,0.28544 -0.0999,0 -0.18554,-0.0714 -0.0856,-0.0856 -0.0856,-0.18553 z" id="text6-1" style="font-size:14.272px;font-family:FreeMono;-inkscape-font-specification:FreeMono;fill:none;stroke:#B10DC9;stroke-width:1.4272;stroke-linejoin:round;stroke-miterlimit:4.1" aria-label="2" class="stroke-purple"/>
      <path d="m 117.60394,81.502192 v 8.149312 h 1.98381 q 0.38534,0 0.38534,0.28544 0,0.299712 -0.38534,0.299712 h -4.55277 q -0.39962,0 -0.39962,-0.299712 0,-0.28544 0.39962,-0.28544 h 1.98381 V 82.27288 l -1.61274,1.612736 q -0.11417,0.114176 -0.29971,0.114176 -0.11418,0 -0.19981,-0.08563 -0.0714,-0.0999 -0.0714,-0.242624 0,-0.128448 0.15699,-0.28544 l 1.88391,-1.883904 z" id="text6-1-6" style="font-size:14.272px;font-family:FreeMono;-inkscape-font-specification:FreeMono;fill:none;stroke:#2ECC40;stroke-width:1.4272;stroke-linejoin:round;stroke-miterlimit:4.1" aria-label="1" class="stroke-green"/>
    </g>
  </g>
</svg>
