<svg xmlns="http://www.w3.org/2000/svg" viewBox="0 0 253.103 60.548">
  <path d="m24.03 187.247 24.803-24.802m0-35.076v35.076m25.004 25.003-24.802-24.802" class="stroke-comment fill-comment stroke-comment" style="fill:#616161;stroke:#616161;stroke-width:1.3257;stroke-miterlimit:4.1" transform="translate(-23.561 -127.369)"/>
  <path d="M49.813 161.801a1.165 1.18 56.967 0 0-1.624-.333 1.165 1.18 56.967 0 0-.355 1.62 1.165 1.18 56.967 0 0 1.624.333 1.165 1.18 56.967 0 0 .355-1.62" class="stroke-comment fill-comment" style="fill:#616161;stroke-width:.0762529" transform="translate(-23.561 -127.369)"/>
  <text x="16.773" y="48.173" style="font-size:8.13251px;font-family:Inter;-inkscape-font-specification:Inter;text-align:start;writing-mode:lr-tb;direction:ltr;text-anchor:start;fill:#ff851b;stroke:#ff4136;stroke-width:.254359;stroke-linejoin:round;paint-order:stroke fill markers" transform="translate(0 -14.125)">
    <tspan x="16.773" y="48.173" style="fill:#616161;fill-opacity:1;stroke:none;stroke-width:.254359">4</tspan>
  </text>
  <path d="m15.534 39.357-1.75-1.666-.038.038-.036.04-.038.039-.037.04-.038.039-.038.04-.036.04-.039.039-.036.04-.038.038-.038.04-.037.04-.038.04-.036.04-.039.038.014-.014-.035.042-.036.04-.035.042-.036.04-.036.042-.034.042-.037.04-.034.042-.037.04-.035.042-.035.042-.036.04-.035.042-.036.04-.036.043.015-.015-.035.042-.032.044-.034.042-.034.043-.033.044-.034.042-.033.043-.034.043-.034.043-.032.043-.035.042-.032.044-.035.042-.033.043.012-.016-.032.044-.03.045-.033.043-.031.045-.03.045-.033.044-.03.045-.033.044-.031.044-.031.045-.032.044-.03.045-.033.044-.032.045-.03.045.01-.018-.028.047-.03.045-.03.047-.028.046-.03.045-.028.047-.03.045-.03.046-.028.047-.03.045-.028.046-.03.045-.03.047-.028.046-.03.045.012-.017-.028.046-.027.048-.026.048-.028.046-.026.048-.028.047-.027.047-.026.048-.028.047-.026.048-.028.046-.027.048-.026.048-.028.046-.026.048.01-.02-.024.05-.024.049-.026.047-.023.05-.026.047-.025.05-.023.048-.026.048-.024.049-.025.048-.025.049-.024.049-.025.048-.024.049-.026.047.011-.019-.021.05-.023.05-.022.05-.023.049-.022.05-.022.05-.023.049-.021.05-.023.049-.023.05-.021.05-.023.05-.021.05-.024.048.008-.02-.019.05-.02.05-.02.052-.02.05-.02.05-.019.052-.02.05-.02.051-.02.05-.02.051-.019.051-.02.05-.02.051-.02.05-.02.052.008-.022-.018.05-.016.053-.019.05-.017.053-.016.052-.018.051-.017.052-.018.051-.017.052-.017.052-.018.051-.016.052-.019.051-.017.052-.016.052.005-.024-.014.053-.015.052-.015.053-.014.052-.016.052-.013.053-.016.052-.015.053-.013.052-.016.052-.014.053-.015.052-.015.053-.014.052-.016.052-.013.053.006-.024-.012.054-.011.053-.013.053-.011.053-.013.052-.013.054-.01.053-.014.053-.01.053-.014.053-.012.053-.011.054-.013.052-.011.053-.013.053.005-.024-.008.054-.01.053-.009.054-.01.053-.01.054-.008.054-.01.053-.009.054-.01.053-.01.054-.008.054-.01.053-.01.054-.01.053-.01.054.005-.025-.007.054-.006.054-.008.054-.006.054-.006.054-.008.054-.006.054-.007.054-.007.054-.006.054-.007.054-.006.054-.008.054-.007.054-.005.054-.008.054.005-.026-.005.054-.004.055-.003.054-.005.055-.003.054-.005.054-.004.055-.003.054-.005.054-.003.054-.005.054-.004.055-.003.054-.005.054-.003.055v-.027l-.001.055v.054l-.003.055v.054l-.002.054-.001.055v.054l-.003.055v.054l-.002.054-.002.055v.055l-.002.054v.054l-.002.054-.002.055h-.092l-.009-.001h-.081l-.01-.001h-.102l-.01-.001H8.63l-.01-.001h-.07l-.01-.001h-.081l-.01-.001h-.072l-.01-.001h-.112l-.01-.001h-.071l-.01-.001h-.071l-.01-.001H7.98l-.01-.001h-.113l-.01-.001h-.041l-.009-.001h-.081l-.01-.001h-.102l-.01-.001h-.113l-.01-.001H7.4l-.01-.001h-.07l-.01-.001h-.161l-.01-.001h-.072l-.01-.001h-.07l-.011-.001h-.101l-.01-.001h-.113l-.01-.001H6.67l-.01-.001h-.07l-.011-.001h-.08l-.01-.001h-.042l.002-.055.002-.055v-.054l.002-.054v-.054l.002-.055.002-.055v-.054l.002-.054v-.055l.002-.054.002-.055v-.054l.003-.054v-.109l.007-.106.003-.054.005-.054.002-.054.004-.055.005-.054.003-.054.005-.054.003-.055.004-.054.005-.054.003-.055.005-.054.003-.054.004-.055.005-.054.003-.054.011-.105.006-.054.007-.054.008-.054.005-.054.008-.054.006-.054.006-.054.008-.054.006-.054.008-.054.005-.054.007-.054.008-.054.005-.054.008-.054.006-.054.017-.104.01-.054.009-.053.01-.054.009-.053.01-.054.01-.054.008-.053.01-.054.009-.053.01-.054.01-.054.008-.053.01-.054.009-.053.01-.054.022-.103.01-.053.014-.053.011-.053.012-.054.013-.052.011-.054.013-.052.011-.054.013-.053.013-.053.01-.053.014-.053.01-.053.013-.053.013-.053.025-.102.015-.052.014-.053.015-.053.016-.052.013-.052.016-.052.014-.053.015-.053.015-.052.014-.052.016-.052.013-.053.015-.053.016-.052.013-.052.032-.1.016-.052.017-.052.019-.051.016-.052.018-.051.016-.052.018-.052.018-.051.016-.052.019-.051.016-.052.017-.052.019-.051.016-.052.018-.051.034-.1.02-.05.02-.05.02-.052.02-.05.02-.051.02-.051.02-.05.019-.051.02-.05.02-.052.02-.05.02-.05.019-.052.02-.05.02-.05.04-.098.023-.05.02-.05.024-.048.021-.05.023-.05.023-.05.021-.05.023-.049.021-.05.023-.05.023-.049.021-.05.024-.05.02-.05.023-.05.046-.093.024-.049.025-.048.024-.049.025-.049.025-.048.024-.049.025-.048.024-.048.025-.05.025-.047.024-.05.026-.047.023-.049.025-.049.026-.048.048-.092.028-.047.026-.047.028-.048.027-.047.026-.047.028-.047.026-.048.028-.047.027-.047.026-.048.028-.046.026-.048.028-.048.027-.046.026-.048.056-.088.028-.047.03-.046.03-.045.028-.047.03-.045.028-.046.03-.046.03-.046.028-.046.03-.045.028-.047.03-.046.03-.045.029-.048.03-.045.058-.086.032-.045.032-.044.03-.045.033-.043.03-.045.032-.045.032-.044.03-.045.033-.044.03-.045.032-.044.032-.044.03-.045.033-.044.06-.084.034-.044.034-.042.033-.043.034-.042.033-.044.034-.043.034-.042.033-.044.034-.042.032-.043.034-.044.034-.042.033-.043.034-.042.033-.044.066-.08.037-.041.034-.042.036-.04.035-.042.036-.042.036-.04.035-.042.036-.04.035-.043.035-.041.037-.04.034-.042.037-.04.034-.043.036-.041.071-.076.037-.04.038-.04.036-.04.038-.04.038-.038.037-.04.038-.039.037-.04.037-.04.039-.038.036-.04.039-.04.036-.04.037-.037-2.12-2.018 9.104-1.396zm15.327-2.81.994-2.203-.049-.023-.049-.02-.05-.024-.05-.021-.049-.024-.05-.022.02.01-.05-.02-.052-.019-.05-.02-.051-.02-.05-.02-.051-.02-.051-.019-.05-.02-.051-.02-.051-.02-.05-.02-.052-.02-.05-.02-.05-.02-.052-.019.021.008-.052-.016-.05-.018-.053-.018-.052-.016-.05-.018-.053-.016-.05-.019-.053-.017-.052-.016-.05-.019-.053-.016-.051-.018-.052-.017-.052-.017-.051-.018.021.01-.052-.017-.053-.014-.052-.014-.052-.016-.053-.014-.052-.015-.053-.015-.052-.014-.052-.015-.053-.014-.052-.016-.053-.015-.052-.013-.052-.016-.053-.014.023.006-.053-.012-.053-.011-.053-.013-.053-.011-.053-.013-.054-.013-.053-.01-.053-.014-.054-.01-.053-.014-.053-.012-.053-.011-.053-.013-.053-.011-.053-.013.023.004-.054-.008-.053-.01-.053-.009-.054-.01-.054-.01-.054-.008-.053-.01-.054-.009-.053-.01-.054-.01-.054-.008-.053-.01-.054-.009-.053-.01-.054-.01.024.004-.053-.007-.054-.006-.054-.008-.055-.007-.054-.005-.053-.008-.054-.006-.054-.007-.055-.007-.054-.006-.054-.007-.054-.006-.053-.008-.055-.007-.054-.005-.054-.008.025.004-.054-.005-.055-.004-.054-.003-.054-.005-.054-.003-.054-.005-.055-.004-.054-.003-.054-.005-.055-.003-.054-.005-.054-.004-.055-.003-.054-.005-.054-.003-.054-.005.025.003h-.055l-.054-.002h-.054l-.055-.003h-.055l-.054-.001-.054-.002h-.055l-.054-.003h-.055l-.054-.001-.054-.002h-.055l-.054-.003-.055-.001h.026-.055l-.054.003h-.054l-.055.002-.054.003h-.055l-.054.003h-.054l-.055.002-.054.003h-.055l-.054.003h-.054l-.055.002-.054.002h-.055.026l-.054.003-.055.005-.054.005-.054.003-.054.006-.055.003-.054.004-.054.005-.055.004-.054.005-.054.003-.055.005-.054.005-.054.003-.054.006-.054.003.025-.002-.054.008-.054.006-.054.008-.054.006-.054.007-.054.008-.054.006-.054.008-.054.006-.054.007-.054.008-.054.006-.053.008-.054.006-.055.007.025-.004-.053.009-.054.01-.053.01-.054.01-.053.01-.054.009-.053.01-.054.01-.054.009-.053.01-.054.01-.053.01-.054.009-.054.01-.053.01-.054.009.026-.003-.054.011-.053.013-.053.013-.053.011-.052.014-.054.011-.053.013-.053.013-.053.011-.052.014-.054.011-.053.012-.053.014-.053.011-.052.014.024-.008-.053.016-.052.016-.053.014-.052.016-.052.014-.053.015-.052.016-.052.014-.052.016-.053.014-.052.015-.052.016-.053.014-.052.016-.052.014.023-.007-.051.018-.052.017-.051.018-.052.017-.052.017-.05.02-.053.016-.05.018-.052.017-.052.018-.051.018-.052.017-.051.018-.052.017-.052.017.023-.007-.05.019-.05.021-.051.019-.051.02-.004-.01-.005-.009-.003-.01-.004-.009-.004-.01-.003-.008-.004-.01-.004-.009-.004-.01-.004-.008-.004-.01-.004-.01-.004-.01-.003-.008-.004-.01-.004-.009-.004-.01-.004-.008-.004-.01-.004-.01-.004-.01-.003-.008-.004-.009-.004-.01-.004-.01-.004-.009-.004-.009-.004-.01-.004-.009-.003-.01-.004-.009-.004-.01-.005-.009-.003-.01-.004-.008-.004-.01-.004-.01-.003-.01-.005-.008-.004-.01-.004-.01-.003-.009-.004-.01-.004-.01-.004-.008-.003-.01-.005-.009-.004-.01-.003-.008-.004-.01-.004-.01-.004-.01-.003-.008-.004-.01-.005-.009-.004-.01-.003-.008-.004-.01-.003-.009-.004-.009-.004-.01-.005-.01-.003-.009-.004-.009-.004-.01-.004-.009-.003-.01-.005-.009-.004-.01-.004-.009-.003-.01-.004-.008-.004-.01-.004-.01-.003-.01-.005-.008-.004-.01-.004-.01-.003-.01-.004-.008-.004-.01-.003-.008-.004-.01-.005-.01-.004-.01-.003-.008-.004-.01-.004-.01-.004-.01-.003-.007-.004-.01-.005-.01-.004-.01-.003-.008-.004-.01-.004-.01-.004-.01-.003-.007-.004-.01-.004-.01-.005-.009-.003-.01-.004-.008-.004-.01-.004-.01-.003-.01-.005-.008-.004-.01-.004-.01-.003-.009-.004-.01-.004-.01-.004-.008-.004-.01-.004-.009-.004-.01-.004-.01-.003-.009-.003-.008-.004-.01-.005-.009-.004-.01-.003-.008-.004-.01-.004-.01-.004-.01-.003-.008-.004-.01-.004-.01-.004-.01-.004-.007-.004-.01-.004-.01-.004-.01-.003-.008-.004-.009-.004-.01-.005-.01-.003-.009-.004-.009-.004-.01-.004-.009-.003-.01-.004-.009-.004-.01-.005-.009-.003-.01-.004-.008-.004-.01-.004-.01-.003-.01-.005-.008-.004-.01-.004-.01-.003-.01-.004-.008-.004-.01-.004-.01-.004-.009-.004-.009-.004-.01-.003-.008-.004-.01-.004-.01-.004-.01-.003-.008-.004-.01-.005-.009-.004-.01-.003-.008-.004-.01-.004-.01-.004-.01-.003-.008-.004-.01-.005-.009-.004-.01-.003-.008-.004-.01-.004-.01-.004-.009-.003-.008-.005-.009-.003-.01-.004-.008-.004-.01-.004-.01-.003-.01-.005-.008-.004-.01-.004-.01-.003-.009-.004-.01-.004-.01-.004-.008-.003-.01-.005-.009-.004-.01-.003-.008-.004-.01-.004-.01-.004-.01-.003-.008-.004-.01-.005-.009-.004-.01-.003-.008-.004-.01-.004-.01-.004-.01-.003-.008-.004-.01-.004-.009-.005-.01-.003-.009-.004-.009-.004-.01-.004-.009-.003-.01-.005-.008-.004-.01-.004-.01-.003-.01-.004-.008-.004-.01-.004-.01-.004-.01-.004-.008-.004-.01-.004-.01-.003-.009-.004-.01-.004-.01-.005-.008-.003-.01-.004-.009-.004-.01-.003-.008-.004-.01-.004-.01-.004-.01-.004-.008-.004-.01-.003-.008-.004-.01-.004-.01-.004-.01-.003-.007-.004-.01-.004-.01-.005-.009-.003-.01-.004-.008-.004-.01-.004-.01-.003-.01.05-.02.051-.018.05-.022.051-.019.05-.02.099-.036.052-.016.05-.019.052-.016.052-.019.051-.018.052-.016.051-.019.052-.016.051-.019.052-.018.052-.016.05-.019.053-.016.05-.019.053-.017.1-.03.052-.015.052-.014.052-.016.053-.016.052-.014.052-.016.053-.014.052-.016.052-.015.053-.014.052-.016.052-.014.052-.016.053-.015.052-.014.102-.026.053-.012.052-.013.054-.012.053-.012.053-.013.053-.012.052-.013.054-.012.053-.012.053-.013.053-.011.052-.014.054-.012.053-.012.053-.013.103-.02.053-.01.054-.01.054-.01.053-.01.053-.009.054-.01.054-.01.053-.009.054-.01.053-.01.053-.01.054-.01.054-.008.053-.011.054-.009.104-.018.054-.007.054-.006.054-.008.054-.006.054-.008.054-.007.054-.006.054-.008.054-.006.054-.008.054-.007.054-.006.054-.008.054-.006.053-.008.055-.007.105-.01.054-.005.054-.003.054-.005.055-.005.054-.003.054-.005.055-.003.054-.006.054-.004.055-.003.054-.006.054-.003.054-.005.055-.005.054-.003.106-.008h.054l.054-.003.055-.001h.054l.055-.003.054-.001.054-.003.055-.001h.054l.055-.003h.054l.054-.003.055-.002h.054l.055-.003h.054l.106-.002h.055l.054.003h.055l.054.003h.109l.054.003h.055l.054.003h.109l.054.003h.055l.054.002h.054l.055.002.106.006.054.002.055.005.054.003.055.004.054.005.054.003.054.005.054.003.055.004.054.005.054.003.054.005.055.003.054.004.054.005.055.003.105.012.054.005.055.007.054.008.054.005.053.008.054.006.055.007.054.007.054.006.053.008.054.005.055.007.054.008.054.006.053.007.106.014.054.01.053.01.054.008.053.01.054.01.054.009.053.01.054.009.053.01.054.008.054.01.053.01.054.009.053.01.054.009.054.009.104.023.053.01.052.014.054.01.053.013.053.013.054.011.053.014.053.01.054.013.052.013.054.01.052.014.053.011.054.012.053.013.103.026.052.015.052.014.053.015.052.016.053.013.052.016.052.014.053.014.052.016.053.014.052.016.052.013.053.015.052.016.053.013.1.033.052.016.052.017.051.018.052.017.051.018.052.016.052.018.051.018.052.016.051.019.052.016.052.017.052.018.051.017.052.018.1.035.05.02.05.02.052.02.05.02.05.019.052.02.05.02.051.02.05.02.051.019.051.02.05.02.052.02.05.02.05.019.099.04.049.024.05.021.05.024.049.02.048.023 1.203-2.668 4.457 7.958zm8.264 13.682 2.415-.063v-.053l-.003-.053v-.056l-.003-.054v-.054l-.002-.055-.003-.054v-.055l-.003-.054v-.054l-.002-.055-.003-.054v-.055l-.003-.054v-.054l-.002-.055-.002-.054v-.055l-.004-.054v-.054l-.002-.055-.002-.054v-.055l-.003-.054v-.054l-.002-.055-.003-.054v-.055l-.003-.054v-.054l-.002-.055-.003-.055v-.054l.001.025-.003-.054-.005-.055-.005-.054-.003-.054-.006-.055-.003-.054-.004-.054-.005-.055-.004-.054-.005-.054-.003-.054-.004-.055-.006-.054-.003-.054-.005-.054-.004-.054.003.024-.008-.054-.006-.054-.008-.054-.006-.054-.007-.054-.008-.054-.006-.054-.008-.054-.006-.054-.007-.054-.008-.054-.006-.054-.009-.055-.006-.054-.007-.054-.008-.054.004.024-.011-.053-.009-.054-.01-.054-.01-.053-.01-.053-.01-.054-.008-.053-.01-.054-.011-.054-.009-.053-.01-.053-.009-.054-.01-.054-.01-.053-.01-.054.004.024-.011-.053-.013-.053-.013-.053-.011-.053-.014-.053-.011-.053-.013-.053-.013-.053-.011-.053-.014-.053-.011-.053-.013-.053-.013-.053-.011-.053-.014-.053.007.023-.015-.053-.016-.052-.014-.052-.016-.052-.014-.053-.015-.052-.016-.052-.014-.053-.016-.052-.014-.052-.015-.053-.016-.052-.014-.052-.016-.052-.014-.053.008.022-.019-.05-.016-.053-.019-.05-.016-.052-.018-.052-.019-.051-.016-.052-.019-.051-.016-.052-.018-.052-.019-.05-.016-.053-.019-.05-.017-.052-.017-.052.008.022-.02-.051-.02-.05-.02-.051-.02-.051-.021-.05-.02-.051-.02-.05-.02-.05-.02-.052-.02-.05-.02-.05-.02-.05-.02-.052-.02-.05-.021-.05.01.02-.023-.05-.022-.05-.022-.05-.024-.048-.021-.05-.024-.049-.021-.05-.023-.05-.024-.049-.021-.05-.024-.049-.021-.05-.023-.05-.024-.048-.021-.05.01.02-.025-.048-.025-.049-.026-.048-.024-.049-.026-.047-.024-.049-.025-.049-.026-.048-.024-.048-.025-.048-.024-.049-.026-.049-.025-.047-.024-.05-.026-.047.011.02-.027-.048-.028-.047-.026-.047-.029-.047-.026-.047-.027-.048-.029-.046-.026-.048-.028-.046-.026-.048-.028-.047-.028-.047-.026-.047-.028-.047-.027-.047.011.018-.03-.045-.029-.046-.03-.045-.029-.046-.03-.046-.03-.045-.028-.046-.03-.046-.03-.046-.029-.046-.03-.045-.029-.046-.03-.045-.029-.046-.03-.047.011.02-.03-.045-.033-.043-.03-.045-.033-.045-.032-.043-.031-.045-.032-.044-.031-.045-.032-.044-.033-.044-.03-.045-.033-.043-.03-.045-.032-.044.012.017-.032-.043-.035-.042-.033-.043-.034-.043-.034-.042-.033-.043-.035-.042-.033-.044-.034-.043-.034-.042-.033-.043-.034-.042-.033-.043-.034-.043-.035-.042.015.016-.037-.04-.034-.042-.036-.041-.037-.04-.035-.042-.036-.04-.035-.042-.036-.042-.037-.04-.035-.041-.036-.04-.035-.042-.036-.042.008-.007.007-.007.008-.006.007-.007.009-.007.006-.006.009-.007.007-.007.008-.007.007-.006.008-.007.007-.007.008-.007.007-.006.008-.007.007-.007.008-.007.007-.006.008-.007.007-.007.009-.007.006-.006.007-.007.009-.007.007-.007.008-.006.007-.007.008-.007.007-.007.008-.006.008-.007.008-.008.007-.007.008-.006.007-.007.008-.007.008-.007.007-.006.008-.007.008-.007.007-.007.008-.006.007-.007.008-.007.008-.007.008-.006.007-.007.008-.008.007-.005.008-.007.007-.007.008-.008.007-.005.008-.007.007-.007.008-.008.007-.005.007-.007.008-.006.007-.007.009-.008.007-.007.008-.006.007-.007.008-.007.007-.007.008-.006.007-.007.009-.007.007-.007.008-.006.007-.007.008-.007.007-.007.008-.006.007-.007.009-.007.007-.008.008-.006.007-.007.008-.007.007-.006.008-.007.007-.007.008-.007.007-.005.008-.008.007-.007.009-.007.006-.005.008-.008.008-.007.008-.007.006-.005.009-.008.007-.007.008-.007.007-.005.008-.008.007-.007.007-.007.008-.006.007-.007.009-.007.007-.007.008-.006.007-.007.008-.007.007-.007.008-.006.008-.007.008-.007.007-.007.008-.007.007-.006.008-.008.007-.007.008-.006.007-.005.008-.008.007-.007.009-.007.006-.005.008-.008.008-.007.008-.007.006-.005.009-.008.007-.007.008-.007.007-.006.008-.007.007-.007.008-.007.007-.006.007-.007.008-.007.008-.007.008-.006.007-.007.008-.007.007-.007.008-.006.007-.007.009-.007.007-.007.008-.006.007-.007.008-.007.007-.007.008-.007.007-.007.009-.007.007-.007.008-.006.007-.007.008-.007.007-.007.008-.006.007-.007.009-.007.006-.006.008-.007.008-.007.008-.007.006-.006.009-.007.007-.007.008-.007.007-.006.008-.007.007-.007.008-.007.007-.006.008-.007.007-.007.009-.007.006-.006.007-.007.009-.007.007-.007.006-.006.008-.007.008-.006.007-.007.008-.007.007-.007.008-.006.007-.007.009-.007.007-.007.008-.006.007-.007.008-.008.007-.007.008-.006.007-.007.009-.007.006-.006.008-.007.008-.007.008-.007.006-.006.009-.007.007-.007.008-.007.007-.006.008-.007.007-.007.008-.007.007-.006.008-.007.007-.007.008-.007.007-.006.008-.007.008-.007.007-.007.008-.006.007-.007.008-.007.008-.007.008-.006.007-.007.008-.007.007-.007.008-.007.007-.007.008-.007.008-.007.008-.006.007-.007.008-.007.007-.007.008-.006.007-.007.009-.007.006-.006.008-.007.008-.007.008-.007.006-.006.009-.007.006-.006.008-.007.008-.007.008-.007.006-.006.009-.007.007-.007.007-.007.008-.006.007-.007.008-.007.008-.007.008-.006.036.041.034.042.037.04.035.042.036.04.036.041.035.042.037.04.035.042.036.04.036.041.035.042.037.04.034.042.066.079.034.043.033.043.034.042.033.043.035.042.034.043.032.044.035.042.033.043.034.042.034.043.033.043.035.042.033.043.063.081.032.045.03.045.033.043.03.045.033.043.032.045.03.045.033.043.031.045.032.044.032.044.031.045.033.044.03.045.033.043.058.086.028.046.03.045.03.046.03.045.03.046.028.047.03.045.029.046.03.045.03.046.029.046.03.045.028.047.03.045.03.046.053.089.028.046.026.048.028.046.028.048.026.047.028.047.027.047.028.047.027.047.027.048.028.046.026.048.028.046.028.048.026.047.05.091.023.049.026.048.025.048.024.05.026.047.024.049.026.048.025.048.024.05.026.047.024.049.026.047.025.05.024.048.047.093.022.05.023.048.023.05.022.05.023.05.022.049.023.049.023.05.022.05.023.049.022.05.023.049.023.05.021.05.024.048.04.096.022.05.02.052.02.05.02.05.02.051.02.05.02.051.02.051.02.05.02.051.02.05.021.051.02.051.02.05.02.051.037.098.018.052.017.051.018.051.017.052.019.051.017.052.017.052.018.05.017.053.019.05.017.053.017.051.019.051.016.052.019.051.032.1.014.053.016.052.014.053.016.052.016.052.014.053.016.052.014.052.016.052.015.053.014.052.016.052.014.053.016.052.015.052.014.053.026.102.012.053.013.053.012.053.012.054.013.052.011.053.014.053.012.053.012.054.013.052.011.053.014.053.012.053.012.054.013.052.02.104.01.054.01.054.01.053.01.054.008.053.011.053.01.054.009.054.01.053.009.054.01.053.01.054.01.054.01.053.009.054.017.105.007.054.006.054.009.055.006.054.008.054.007.054.006.054.008.054.006.054.008.053.007.055.006.054.008.054.006.054.008.053.007.055.009.106.005.054.003.054.006.054.004.055.003.054.006.054.003.055.005.054.004.054.004.055.005.054.003.054.006.054.004.055.003.054.008.107v.054l.003.054.001.055v.054l.003.055v.054l.003.054.002.055v.054l.003.055v.054l.003.054.002.055v.054l.003.055v.054l.003.054.001.055v.054l.003.055v.054l.003.054.002.055v.054l.003.055v.054l.003.054.002.055v.054l.003.055v.055l.003.053v.053l2.926-.076-3.715 7.617z" style="display:inline;fill:#ff851b;stroke-width:4.13491;stroke-miterlimit:4.1" transform="translate(0 -14.125)"/>
  <path d="m24.03 187.247 24.803-24.802m0-35.076v35.076m25.004 25.003-24.802-24.802" class="stroke-comment fill-comment stroke-comment" style="fill:#616161;stroke:#616161;stroke-width:1.3257;stroke-miterlimit:4.1" transform="translate(178.797 -127.369)"/>
  <path d="M49.813 161.801a1.165 1.18 56.967 0 0-1.624-.333 1.165 1.18 56.967 0 0-.355 1.62 1.165 1.18 56.967 0 0 1.624.333 1.165 1.18 56.967 0 0 .355-1.62" class="stroke-comment fill-comment" style="fill:#616161;stroke-width:.0762529" transform="translate(178.797 -127.369)"/>
  <text x="16.773" y="48.173" style="font-size:8.13251px;font-family:Inter;-inkscape-font-specification:Inter;text-align:start;writing-mode:lr-tb;direction:ltr;text-anchor:start;fill:#ff851b;stroke:#ff4136;stroke-width:.254359;stroke-linejoin:round;paint-order:stroke fill markers" transform="translate(202.359 -14.125)">
    <tspan x="16.773" y="48.173" style="fill:#616161;fill-opacity:1;stroke:none;stroke-width:.254359">4</tspan>
  </text>
  <path d="m64.934 72.547 24.803-24.802m0-35.076v35.076m25.004 25.003L89.94 47.946" class="stroke-comment fill-comment stroke-comment" style="fill:#616161;stroke:#616161;stroke-width:1.3257;stroke-miterlimit:4.1" transform="translate(2.987 -12.67)"/>
  <path d="M90.717 47.101a1.165 1.18 56.967 0 0-1.624-.333 1.165 1.18 56.967 0 0-.355 1.62 1.165 1.18 56.967 0 0 1.624.333 1.165 1.18 56.967 0 0 .355-1.62" class="stroke-comment fill-comment" style="fill:#616161;stroke-width:.0762529" transform="translate(2.987 -12.67)"/>
  <text x="81.239" y="46.717" style="font-size:8.13251px;font-family:Inter;-inkscape-font-specification:Inter;text-align:start;writing-mode:lr-tb;direction:ltr;text-anchor:start;fill:#ff851b;stroke:#ff4136;stroke-width:.254359;stroke-linejoin:round;paint-order:stroke fill markers" transform="translate(2.987 -12.67)">
    <tspan x="81.239" y="46.717" style="fill:#616161;fill-opacity:1;stroke:none;stroke-width:.254359">3</tspan>
  </text>
  <text x="81.239" y="46.717" style="font-size:8.13251px;font-family:Inter;-inkscape-font-specification:Inter;text-align:start;writing-mode:lr-tb;direction:ltr;text-anchor:start;fill:#ff851b;stroke:#ff4136;stroke-width:.254359;stroke-linejoin:round;paint-order:stroke fill markers" transform="translate(15.565 -12.47)">
    <tspan x="81.239" y="46.717" style="fill:#616161;fill-opacity:1;stroke:none;stroke-width:.254359">1</tspan>
  </text>
  <path d="m106.659 48.86 2.317-.683-.014-.052-.016-.05-.015-.054-.016-.052-.015-.052-.015-.053-.017-.051-.014-.053-.017-.051-.014-.053-.016-.052-.016-.052-.015-.053-.016-.051-.015-.053.006.019-.019-.051-.017-.052-.019-.05-.017-.052-.018-.052-.019-.051-.016-.052-.02-.05-.016-.052-.018-.052-.02-.05-.016-.053-.02-.05-.016-.052-.018-.052.005.02-.02-.05-.021-.05-.02-.052-.02-.05-.021-.05-.02-.051-.021-.05-.02-.05-.02-.052-.021-.05-.02-.05-.021-.05-.02-.051-.02-.051.008.019-.022-.05-.024-.049-.021-.05-.023-.05-.024-.048-.022-.05-.023-.049-.022-.05-.023-.05-.024-.048-.021-.05-.024-.049-.022-.05-.023-.05-.024-.049.01.019-.026-.049-.024-.049-.026-.048-.026-.048-.024-.049-.026-.047-.024-.05-.025-.048-.026-.047-.024-.049-.026-.048-.025-.048-.025-.049-.026-.048-.024-.048.009.019-.026-.047-.028-.048-.028-.046-.027-.048-.028-.046-.027-.047-.027-.048-.029-.046-.026-.048-.029-.046-.026-.047-.028-.048-.028-.046-.026-.048-.029-.046.012.019-.03-.046-.03-.045-.03-.047-.03-.045-.029-.046-.03-.046-.03-.045-.029-.046-.03-.045-.03-.046-.029-.046-.03-.045-.03-.046-.03-.045-.028-.046.01.019-.032-.043-.03-.045-.034-.043-.03-.045-.033-.045-.032-.043-.031-.045-.033-.043-.03-.045-.033-.044-.033-.044-.03-.044-.033-.044-.031-.044.014.017-.035-.042-.033-.043-.035-.042-.033-.043-.034-.043-.035-.041-.033-.044-.035-.041-.033-.043-.034-.043-.035-.042-.033-.043-.035-.042-.033-.043-.034-.043.015.018-.035-.041-.037-.04-.035-.041-.037-.042-.037-.04-.035-.041-.036-.04-.036-.041-.036-.041-.037-.04-.035-.042-.037-.04-.035-.041-.036-.041-.037-.04.018.016-.039-.038-.037-.04-.038-.039-.039-.038-.037-.04-.039-.038-.037-.04-.038-.039-.04-.038-.036-.04-.04-.038-.036-.04-.039-.038-.038-.039-.038-.04-.038-.037.017.017-.04-.037-.04-.036-.04-.038-.04-.036-.04-.038-.04-.037-.04-.036-.04-.038-.04-.036-.039-.038-.04-.037-.04-.036-.04-.038-.04-.036-.04-.038.018.017-.042-.034-.04-.036-.043-.034-.04-.036-.043-.035-.042-.034-.041-.036-.043-.034-.04-.036-.043-.035-.042-.034-.04-.036-.043-.034-.041-.035-.042-.036.02.017-.043-.034-.044-.032-.043-.033-.044-.033-.044-.032-.042-.034-.044-.032-.043-.033-.044-.033-.044-.032-.042-.034-.044-.032-.043-.033-.044-.033-.044-.032-.042-.034.02.017-.045-.032-.045-.03-.046-.03-.044-.031-.046-.03-.044-.031-.046-.031-.045-.03-.044-.031-.046-.03-.044-.031-.046-.03-.045-.03-.045-.032-.045-.03.023.013-.047-.028-.047-.028-.046-.029-.047-.027-.046-.03-.047-.028-.047-.027-.045-.03-.047-.026-.046-.03-.047-.028-.047-.027-.046-.03-.047-.027-.046-.029-.047-.028.006-.01.005-.008.006-.009.005-.008.006-.01.004-.007.006-.01.005-.008.006-.01.005-.007.006-.01.005-.008.006-.01.005-.007.006-.01.005-.008.006-.01.005-.007.006-.01.005-.008.006-.01.005-.007.005-.009.006-.01.005-.008.006-.008.005-.009.006-.01.005-.008.006-.008.005-.01.006-.009.005-.008.006-.009.005-.008.006-.01.005-.009.006-.008.005-.009.006-.01.005-.008.006-.008.005-.01.006-.008.005-.01.006-.007.005-.01.006-.009.005-.007.006-.01.005-.008.006-.01.005-.007.006-.01.005-.008.006-.01.005-.007.005-.009.006-.008.005-.009.006-.01.005-.008.006-.008.005-.01.006-.008.005-.01.006-.008.005-.008.006-.01.005-.009.006-.008.005-.009.006-.009.005-.009.006-.008.005-.009.006-.01.005-.008.006-.008.005-.01.006-.009.005-.007.006-.01.005-.008.006-.01.004-.007.006-.01.005-.008.006-.01.005-.007.006-.01.005-.008.006-.01.004-.007.006-.01.005-.008.006-.01.004-.007.006-.009.005-.009.005-.009.006-.008.005-.009.006-.009.005-.009.006-.008.005-.009.006-.01.005-.008.006-.008.005-.01.006-.009.005-.008.006-.009.005-.008.006-.01.005-.009.006-.008.005-.007.006-.01.005-.008.006-.01.005-.007.006-.01.005-.008.006-.01.005-.007.006-.01.005-.008.006-.01.004-.007.006-.01.005-.008.006-.01.005-.007.005-.009.006-.01.005-.008.006-.008.005-.01.006-.008.005-.01.006-.007.005-.01.006-.009.005-.008.006-.009.005-.009.006-.009.005-.009.006-.008.005-.009.006-.01.005-.008.006-.008.005-.01.006-.008.005-.01.006-.008.005-.008.006-.01.005-.007.006-.01.005-.008.006-.01.004-.007.006-.01.005-.008.006-.01.005-.007.006-.01.005-.008.006-.01.005-.007.006-.01.005-.008.006-.01.005-.007.005-.009.006-.009.005-.009.005-.007.005-.009.006-.008.005-.01.006-.008.005-.01.006-.008.005-.008.006-.01.005-.009.006-.008.005-.009.006-.009.005-.009.006-.008.005-.009.006-.01.004-.007.006-.009.005-.009.006-.01.004-.007.006-.009.005-.009.006-.01.005-.006.006-.01.005-.009.006-.009.004-.007.006-.01.005-.009.005-.008.006-.009.005-.008.006-.01.005-.009.006-.008.005-.009.006-.01.005-.008.006-.008.005-.01.006-.008.005-.01.006-.007.005-.01.006-.009.005-.008.006-.009.005-.009.006-.009.005-.009.006-.008.005-.009.006-.01.004-.007.006-.009.005-.009.006-.01.004-.006.006-.01.005-.007.006-.01.005-.008.006-.01.005-.007.006-.01.005-.008.005-.01.006-.007.005-.01.006-.008.005-.01.006-.008.047.029.046.029.047.027.046.03.047.027.047.028.046.03.047.027.045.029.047.027.047.028.046.03.047.027.046.029.047.027.047.029.088.057.046.03.044.031.045.03.046.03.044.032.046.03.044.031.045.03.046.03.044.032.046.03.044.03.046.03.045.031.044.032.046.03.085.062.044.032.044.033.042.033.044.032.043.034.044.032.044.033.042.033.044.032.043.034.044.032.044.033.042.033.044.032.043.034.044.032.082.067.04.036.043.034.041.035.042.035.042.035.041.035.042.035.041.035.043.034.042.036.04.035.043.034.04.036.043.034.042.036.078.07.04.036.04.038.04.036.04.038.04.037.04.036.04.038.04.036.04.038.04.037.04.036.039.038.04.036.04.038.04.037.076.073.037.04.039.037.038.04.037.04.04.037.036.04.039.038.038.04.037.039.04.038.036.04.04.038.037.039.038.04.038.038.071.077.037.04.037.041.035.041.037.04.035.042.036.04.037.04.035.042.037.04.035.042.037.04.036.04.035.042.037.04.035.042.069.079.034.042.033.043.035.042.033.043.035.042.034.043.033.043.035.042.033.043.035.042.034.042.033.044.035.041.033.043.035.042.064.083.031.045.033.043.03.045.033.043.033.045.03.045.033.043.031.045.033.043.032.044.031.045.033.044.03.044.033.044.032.044.059.087.03.044.03.047.03.045.03.045.028.047.03.045.03.046.03.045.03.046.029.046.03.045.029.046.03.045.03.046.03.046.055.088.026.048.028.046.028.047.026.048.029.046.026.048.028.046.028.047.026.048.029.046.026.048.028.046.028.047.027.048.028.046.049.092.026.048.025.049.024.048.026.048.024.049.026.047.026.049.024.049.026.047.024.049.026.048.026.048.024.049.026.049.024.048.046.094.023.05.022.05.024.048.021.05.024.049.023.05.022.05.023.048.022.05.024.05.023.049.021.05.024.049.022.05.043.094.02.05.02.052.021.05.02.05.021.05.02.051.02.051.021.05.02.05.02.05.022.052.019.05.021.05.02.051.021.05.037.098.017.052.019.05.016.052.02.051.018.052.016.051.02.051.016.052.02.05.017.053.017.051.02.051.016.052.02.05.017.053.03.1.017.05.014.053.017.052.016.053.014.052.016.052.015.052.016.052.016.053.014.052.017.052.015.053.016.05.014.052 2.807-.827-3.343 8.583zm-5.23 14.679 1.41 1.961.044-.03.043-.032.045-.032.044-.032.044-.031.045-.032-.02.01.044-.032.042-.035.043-.033.043-.034.041-.035.043-.033.042-.035.043-.033.043-.034.042-.035.043-.033.042-.035.043-.033.043-.034.041-.035-.017.014.04-.036.041-.036.041-.036.04-.037.042-.035.04-.037.041-.035.041-.036.04-.037.042-.035.04-.037.041-.035.041-.037.04-.036.042-.036-.019.014.04-.037.039-.038.038-.039.04-.037.038-.039.04-.037.039-.038.038-.039.04-.037.038-.039.04-.037.038-.038.039-.04.04-.036.037-.039-.016.017.037-.04.036-.04.038-.04.036-.04.038-.04.037-.04.036-.04.038-.04.037-.04.038-.04.037-.04.036-.04.038-.04.036-.04.038-.04-.016.018.034-.042.036-.041.034-.043.035-.04.036-.043.034-.042.035-.04.034-.043.036-.041.035-.042.035-.042.035-.041.034-.043.036-.04.035-.043-.015.02.033-.043.032-.044.034-.043.033-.044.032-.044.033-.043.032-.043.034-.043.033-.044.032-.044.033-.043.032-.044.034-.042.033-.044.032-.044.034-.043-.016.02.031-.045.03-.045.03-.046.032-.044.03-.046.031-.044.03-.045.03-.046.032-.044.03-.046.031-.044.03-.045.03-.046.032-.044.03-.046.031-.044-.015.02.028-.047.029-.046.027-.047.03-.046.028-.047.027-.047.03-.045.026-.048.03-.045.028-.047.027-.047.03-.046.027-.047.029-.046.028-.047-.013.022.027-.047.025-.048.027-.048.026-.048.025-.048.026-.048.025-.048.027-.047.026-.049.025-.048.027-.047.025-.048.026-.048.027-.048.025-.048.026-.048-.012.023.024-.049.024-.05.022-.049.025-.048.022-.05.024-.048.024-.05.022-.05.025-.048.022-.05.024-.048.024-.05.022-.049.025-.048.022-.05.024-.049-.01.023.02-.05.021-.05.02-.05.022-.05.021-.051.02-.05.022-.05.02-.051.022-.05.02-.05.02-.051.023-.05.02-.05.021-.05.021-.05-.009.023.02-.05.017-.052.02-.051.018-.052.017-.051.02-.051.017-.052.02-.05.018-.052.017-.052.02-.05.016-.052.02-.05.018-.052.017-.052.02-.05-.01.023.017-.052.016-.052.014-.053.017-.051.015-.053.016-.051.016-.053.015-.052.017-.052.015-.052.016-.052.016-.052.015-.053.017-.051.015-.053-.006.025.013-.054.012-.053.014-.052.012-.053.014-.052.014-.054.012-.053.014-.052.012-.053.014-.052.013-.054.012-.053.014-.052.012-.053.015-.053-.005.024.01-.054.011-.053.01-.053.012-.053.01-.054.01-.054.01-.053.01-.053.011-.053.01-.054.01-.054.012-.053.01-.053.012-.053.01-.054-.005.024.01-.054.006-.054.01-.053.007-.055.011.002h.01l.01.003h.01l.011.002.01.002.01.001.01.001.01.002.01.001.01.002h.01l.011.002.01.001.01.002.01.001.01.002h.01l.01.002.01.001.011.002.01.001.01.001.01.002h.01l.01.003h.01l.01.002.01.001.01.002.01.001.012.002h.01l.01.003h.01l.01.002.01.001.01.002h.01l.011.003h.01l.01.002.01.001.01.002h.01l.01.003h.01l.012.002.009.002.01.001.01.001.011.002.01.001.01.002h.01l.01.002.01.001.01.001.01.002.01.001.01.002h.01l.01.003h.01l.011.002.01.001.01.002.01.001.011.002h.01l.01.003h.01l.01.002.01.001.01.002.01.001.012.002h.01l.01.003h.01l.01.002.01.001.01.002h.01l.011.002.009.002.01.001.01.001.012.002.009.001.01.002h.01l.011.002.01.001.01.002h.01l.01.002.01.002.01.001.01.001.01.001.01.002.01.001.011.002h.01l.01.003h.01l.011.002.01.001.01.002.01.001.011.002h.01l.01.002.01.001.01.002h.01l.01.003.01.001.01.002h.01l.011.002.01.002.01.001.01.001.011.002h.01l.01.002.01.001.01.002.01.001.01.002h.01l.011.002.01.002h.01l.01.002.01.001.01.002.01.001.011.002h.01l.01.003h.01l.01.002.01.001.01.002h.01l.012.003h.01l.01.003h.01l.01.002h.01l.01.003h.01l.011.002.01.001.01.002.01.001.011.002.009.001.01.002h.01l.012.002.009.002.01.001.01.001.011.002.01.001.01.002h.01l.01.002.01.001.01.002h.01l.011.002.01.002h.01l.01.002.01.001.01.001.01.001.01.002.01.001.01.002h.01l.01.003h.01l.01.002.01.001.01.002.01.001.012.002h.01l.01.003h.01l.01.002.01.002.01.001.01.001.01.002h.01l.01.003h.01l.011.002.01.001.01.002h.01l.011.002.009.002.01.001.01.001.01.001.01.002.01.001.012.002h.01l.01.003h.01l.01.002.01.001.01.002.01.001.011.002h.01l.01.002.01.001.01.002h.01l.01.003h.01l.012.002.01.001.01.002.01.001.01.002.01.001.01.002h.01l.011.002.01.002.01.001.009.001.01.002.01.001.011.001.01.002.01.001.01.001.01.001.01.002.01.001.011.002h.01l.01.003-.008.054-.009.054-.007.054-.009.053-.007.054-.019.103-.012.053-.009.053-.011.053-.01.054-.01.054-.011.053-.01.053-.012.053-.01.054-.01.054-.012.053-.009.053-.012.053-.01.054-.01.054-.025.1-.012.054-.014.052-.012.053-.013.054-.015.052-.012.053-.014.052-.012.053-.013.054-.014.052-.012.053-.015.053-.012.053-.013.053-.014.052-.028.101-.017.052-.014.052-.016.053-.017.051-.015.053-.016.051-.015.053-.016.052-.017.052-.014.052-.017.052-.015.052-.016.053-.017.051-.014.053-.035.099-.017.051-.018.052-.02.05-.017.052-.02.051-.017.052-.018.051-.02.05-.017.052-.02.051-.017.052-.018.051-.02.051-.017.052-.019.05-.036.1-.021.05-.022.05-.02.05-.022.05-.02.05-.02.051-.023.05-.02.05-.022.05-.02.05-.02.052-.022.05-.02.05-.022.05-.02.05-.021.05-.045.097-.022.049-.025.049-.022.05-.023.049-.025.048-.022.05-.025.048-.022.05-.023.05-.025.048-.022.05-.025.048-.022.05-.023.049-.025.049-.046.095-.027.047-.024.049-.026.048-.027.047-.025.048-.027.048-.025.048-.026.048-.027.048-.025.048-.026.047-.025.049-.026.048-.027.047-.025.048-.027.048-.05.092-.03.047-.029.046-.027.047-.029.046-.027.047-.029.047-.029.046-.027.047-.03.046-.027.047-.028.047-.03.045-.026.047-.03.046-.027.047-.028.047-.058.09-.03.045-.031.044-.03.046-.03.045-.032.044-.03.046-.03.044-.03.046-.031.045-.032.045-.03.045-.03.045-.03.045-.031.045-.032.045-.03.045-.063.086-.031.044-.033.043-.034.043-.032.044-.034.043-.032.044-.033.044-.033.042-.032.044-.034.043-.032.044-.033.044-.033.042-.032.044-.034.043-.065.084-.035.042-.035.041-.034.043-.036.04-.034.043-.035.042-.036.04-.034.043-.036.041-.034.042-.035.043-.036.04-.034.043-.036.04-.034.043-.035.042-.071.078-.037.04-.037.04-.036.04-.038.04-.037.04-.037.041-.038.04-.036.04-.037.04-.038.04-.036.04-.038.04-.036.04-.037.04-.038.04-.074.075-.04.038-.037.038-.04.039-.04.037-.037.038-.04.038-.038.038-.04.039-.039.037-.038.039-.04.037-.038.038-.04.039-.039.037-.038.039-.078.071-.04.037-.041.036-.042.035-.04.037-.041.035-.04.037-.041.036-.041.035-.04.037-.042.035-.04.037-.041.037-.042.035-.04.037-.04.035-.08.069-.044.034-.043.033-.042.035-.043.033-.041.035-.043.034-.043.033-.042.035-.043.033-.042.035-.043.034-.043.033-.042.035-.043.033-.041.035-.085.064-.044.03-.044.034-.045.031-.043.032-.044.03 1.71 2.377-9.12-.12zm-15.982.314-1.152 2.124.046.026.047.024.049.027.048.025.047.026.048.027.049.025.047.026.049.025.047.027.048.025.049.025.047.027.049.024.047.027.048.026.049.024.047.027.049.024.047.027.048.026.049.025.047.027.048.025.048.026.048.026.049.025.047.026.048.025.048.027.048.026.048.025.047.027-.021-.012.048.025.05.023.049.023.048.025.05.022.048.025.05.024.049.023.048.024.05.023.048.024.05.024.049.023.048.024.05.023.048.025-.022-.01.05.02.05.021.051.02.05.022.05.02.05.02.05.023.051.02.05.021.05.022.051.02.05.021.051.02.05.023.05.02.051.02-.022-.009.051.017.051.02.052.018.052.017.05.02.052.016.05.02.053.018.051.017.051.02.052.016.05.02.052.018.052.017.05.02-.022-.01.052.016.053.016.052.015.052.017.052.014.052.017.052.016.052.015.052.016.052.015.052.017.053.016.052.014.052.017.052.015-.023-.005.053.013.053.012.052.014.053.012.053.014.053.014.053.012.052.014.053.012.053.014.053.013.053.012.052.015.053.012.053.014-.023-.005.054.01.053.01.053.01.054.012.053.01.054.01.053.012.053.009.053.012.054.01.054.01.053.01.053.01.054.012.053.01-.023-.004.054.01.054.006.053.01.055.007.054.007.053.009.054.006.054.01.054.007.054.007.054.009.053.007.054.009.054.008.054.006h-.023l.054.003.054.007.055.005.054.004.054.006.054.004.054.007.055.005.054.004.054.006.054.004.054.007.055.005.054.004.054.006-.023-.002.054.003.055.003.055.001.054.004.054.001.054.004.055.002.054.002.055.004.054.001.054.004.055.002.054.002.055.004.054.001h-.023.436l.054-.001.054.001h.055l.055-.001h.163-.022l.054-.003.055-.002.054-.004.054-.001.055-.003.054-.004.054-.001.055-.004.054-.002.055-.002.054-.004.054-.002.054-.004.055-.001.054-.003h-.022l.054-.005.054-.006.055-.004.054-.006.054-.006.054-.004.054-.006.054-.005.055-.005.054-.006.054-.005.054-.006.054-.004.055-.006-.022.003.054-.007.053-.01.054-.006.055-.008.053-.009.054-.007.054-.009.054-.006.054-.008.054-.01.053-.006.054-.009.054-.007.054-.008.054-.009-.021.005.053-.011.053-.01.054-.01.053-.012.054-.009.053-.012.053-.009.054-.01.053-.012.054-.01.053-.01.053-.01.054-.01.002.01.003.01.001.01.003.009.002.01.001.01.002.01.003.01.002.01.002.009.002.01.002.01.003.01v.01l.003.01.003.01.002.01.001.009.002.01.003.01.002.01.002.01.002.009.002.01.003.01.001.01.003.01.002.01.003.01v.01l.003.01.003.01.002.01.002.01.002.01.002.01.003.01.001.01.003.009.002.01.003.01v.01l.003.01.003.01.002.01.002.01.002.01.002.01.002.008.002.011.002.01.003.01.001.008.003.01.002.01.002.01.002.01.002.01.002.01.002.009.002.01.003.01.001.01.003.01.002.01.003.01.001.01.003.01.002.01.002.01.002.01.002.009.002.01.003.01.001.01.003.01.002.01.003.01v.01l.004.01.002.01.001.009.002.01.003.01.002.01.001.01.003.01.002.01.002.01.002.009.002.01.003.01.002.01.002.008.002.01.002.01.002.01.002.01.002.01.003.01.002.01.002.01.002.009.002.01.003.01.001.01.003.01.002.01.003.01v.01l.003.01.003.01.002.01.002.01.002.009.002.01.003.01.001.01.002.009.002.01.002.01.002.01.002.01.002.01.003.01.002.01.002.008.002.01.002.01.003.01.001.01.002.01.003.01.002.01.001.01.003.009.002.01.003.01v.01l.004.01.002.01.002.01.002.01.002.01.002.01.003.01.001.01.003.009.002.01.003.01v.01l.004.01.002.01.002.01.002.01.002.01.002.01.003.01.001.01.003.01.002.01.001.008.003.011.002.01.002.01.002.009.002.01.002.01.003.01.001.01.002.01.003.01.002.01.001.009.003.01.002.01.002.01.002.01.002.009.002.01.003.01.001.009.003.01.001.01.003.01.002.01.003.01v.01l.004.009.002.01.002.01.002.01.002.01.002.01.003.01.001.01.003.01.002.01.001.009.003.01.002.01.002.01.002.009.002.01.002.01.003.01.001.01.002.01.003.01.002.01.001.009.003.01.002.01.003.01.001.01.003.01.002.01.002.01.002.01.002.009.002.01.003.01.001.01.003.01.002.01.003.01v.01l.004.01.002.01.002.01.002.01.002.01.002.01.003.01.001.01.003.009.002.01.001.01.003.01.002.01.002.01.002.009.002.01.001.01.002.01.003.01.002.01.002.009.002.01.002.01.003.01.001.01.003.009.002.01.003.01v.01l-.053.01-.053.01-.053.011-.054.01-.053.011-.054.01-.054.01-.053.012-.053.009-.053.012-.054.01-.054.01-.053.011-.053.01-.101.016-.054.008-.054.007-.054.01-.054.006-.053.009-.055.008-.054.007-.053.008-.054.007-.054.01-.054.007-.054.007-.053.009-.054.007-.102.014-.055.005-.054.005-.054.006-.054.004-.054.007-.054.005-.055.004-.054.006-.054.005-.054.006-.054.005-.054.005-.054.006-.055.004-.054.006-.103.008-.054.002-.054.003-.055.002-.054.004-.055.002-.054.002-.054.004-.054.001-.054.004-.055.003-.055.001-.054.004-.054.002-.054.003-.055.003-.103.001-.055.001h-.653l-.055.001-.054-.001-.103-.002-.055-.004-.054-.002-.055-.002-.054-.004-.054-.001-.054-.004-.055-.002-.055-.002-.054-.004-.054-.001-.054-.004-.054-.002-.055-.002-.055-.004-.103-.005-.054-.006-.054-.004-.055-.006-.054-.006-.054-.004-.054-.006-.054-.005-.055-.005-.054-.006-.054-.004-.054-.006-.054-.004-.055-.006-.054-.006-.054-.004-.104-.013-.054-.007-.054-.008-.053-.009-.054-.006-.054-.01-.054-.006-.054-.008-.054-.009-.054-.007-.053-.008-.054-.007-.054-.008-.054-.01-.054-.006-.054-.009-.103-.016-.054-.01-.053-.012-.053-.01-.054-.01-.053-.01-.054-.01-.053-.012-.054-.01-.053-.011-.053-.01-.054-.01-.053-.012-.054-.009-.053-.012-.053-.009-.104-.022-.052-.014-.053-.012-.053-.014-.053-.012-.053-.014-.052-.014-.053-.012-.053-.014-.053-.012-.053-.013-.052-.015-.053-.012-.053-.014-.053-.012-.053-.013-.052-.014-.102-.029-.052-.016-.052-.015-.053-.016-.051-.017-.053-.014-.051-.017-.053-.015-.052-.016-.052-.017-.052-.014-.052-.017-.052-.015-.053-.016-.051-.016-.053-.015-.1-.035-.051-.017-.052-.019-.05-.019-.052-.017-.051-.02-.052-.016-.052-.019-.05-.019-.052-.017-.05-.02-.052-.016-.052-.019-.051-.019-.052-.017-.05-.02-.1-.036-.05-.021-.05-.022-.052-.02-.05-.022-.05-.02-.051-.021-.05-.022-.05-.02-.05-.022-.05-.02-.051-.021-.05-.022-.05-.02-.05-.022-.05-.02-.052-.02-.096-.046-.05-.023-.048-.024-.05-.023-.049-.024-.048-.024-.05-.023-.048-.025-.05-.022-.049-.024-.048-.025-.05-.022-.048-.025-.05-.023-.049-.023-.048-.025-.096-.047-.047-.027-.048-.025-.049-.026L84.49 69l-.048-.025-.047-.027-.049-.024-.048-.026-.047-.027-.049-.025-.047-.026-.049-.025-.048-.026-.047-.026-.049-.025-.047-.027-.048-.025-.049-.026-.047-.026-.049-.025-.047-.027-.048-.024-.049-.026-.047-.027-.048-.024-.048-.027-.048-.025-.049-.025-.047-.027-.049-.025-.048-.027-.047-.024-.047-.026-1.396 2.572-4.74-7.026z" style="display:inline;fill:#ff851b;stroke-width:4.13491;stroke-miterlimit:4.1" transform="translate(2.987 -12.67)"/>
  <path d="m64.934 72.547 24.803-24.802m0-35.076v35.076m25.004 25.003L89.94 47.946" class="stroke-comment fill-comment stroke-comment" style="fill:#616161;stroke:#616161;stroke-width:1.3257;stroke-miterlimit:4.1" transform="translate(70.44 -12.67)"/>
  <path d="M90.717 47.101a1.165 1.18 56.967 0 0-1.624-.333 1.165 1.18 56.967 0 0-.355 1.62 1.165 1.18 56.967 0 0 1.624.333 1.165 1.18 56.967 0 0 .355-1.62" class="stroke-comment fill-comment" style="fill:#616161;stroke-width:.0762529" transform="translate(70.44 -12.67)"/>
  <text x="81.239" y="46.717" style="font-size:8.13251px;font-family:Inter;-inkscape-font-specification:Inter;text-align:start;writing-mode:lr-tb;direction:ltr;text-anchor:start;fill:#ff851b;stroke:#ff4136;stroke-width:.254359;stroke-linejoin:round;paint-order:stroke fill markers" transform="translate(70.44 -12.67)">
    <tspan x="81.239" y="46.717" style="fill:#616161;fill-opacity:1;stroke:none;stroke-width:.254359">3</tspan>
  </text>
  <path d="m89.061 65.22-.144 2.412.053.004.053.002.056.005.054.002.054.004.055.003.054.002.054.004.055.002.054.005.055.003.054.002.054.004.054.002.054.004h-.019l.054-.001.055.002.054-.001.054.002h.11l.054.001h.054l.054.001h.11l.054.002h.108l.055.001-.02-.001.054-.001.055-.004h.054l.055-.003.054-.003h.054l.055-.004h.054l.055-.003.054-.003h.054l.055-.004h.054l.055-.003-.02.001.053-.004.054-.005.055-.004.054-.005.054-.005.055-.004.054-.005.054-.004.055-.005.054-.005.054-.004.054-.006.054-.003.055-.005.054-.006-.021.004.055-.009.054-.006.054-.007.054-.008.054-.007.054-.008.054-.006.054-.007.054-.009.054-.006.053-.008.054-.006.055-.008.053-.008.054-.006-.021.002.054-.009.054-.01.053-.01.053-.01.054-.01.053-.01.054-.01.053-.01.054-.009.053-.01.054-.01.054-.01.053-.01.054-.009.053-.01-.021.004.053-.013.053-.014.053-.01.053-.014.053-.012.053-.012.053-.014.053-.011.052-.013.054-.012.053-.012.053-.014.053-.011.052-.013.053-.012-.021.004.052-.016.052-.014.052-.016.053-.014.053-.015.052-.016.052-.014.052-.016.052-.014.053-.015.052-.016.053-.014.052-.016.052-.014-.02.008.05-.019.052-.016.05-.019.053-.016.052-.018.05-.019.052-.016.052-.019.051-.016.052-.018.051-.018.052-.017.051-.018.052-.017.052-.018-.022.008.05-.019.05-.02.052-.02.05-.02.05-.021.052-.019.05-.021.05-.02.052-.02.05-.02.05-.02.05-.02.052-.02.05-.02.05-.02-.02.01.048-.023.05-.021.05-.023.05-.024.049-.021.049-.024.05-.021.05-.023.049-.023.05-.022.049-.023.05-.022.05-.023.048-.023.05-.022.05-.023-.023.01.049-.025.048-.026.048-.024.048-.026.049-.023.049-.026.047-.026.05-.024.047-.025.049-.024.048-.026.048-.025.049-.024.048-.026.048-.024-.021.01.046-.027.047-.027.047-.028.047-.026.048-.028.046-.028.048-.026.046-.029.048-.026.047-.028.047-.028.047-.026.046-.029.048-.026.047-.028-.022.013.046-.029.045-.03.046-.029.046-.03.045-.03.047-.029.044-.03.047-.03.046-.03.045-.03.046-.028.045-.03.046-.03.046-.03.045-.03.046-.029-.023.013.045-.03.044-.033.043-.033.045-.031.043-.033.045-.03.044-.033.043-.033.045-.031.043-.033.045-.03.044-.033.044-.033.044-.03.044-.034-.02.018.043-.035.041-.035.043-.033.042-.035.043-.033.043-.034.041-.035.043-.034.042-.034.043-.034.043-.034.041-.035.043-.033.042-.035.043-.034.042-.034.007.009.006.007.006.008.006.008.007.009.005.006.007.009.006.007.007.009.005.007.007.009.006.007.007.009.005.006.007.009.006.008.007.008.005.007.007.009.006.007.007.009.005.006.006.008.007.009.006.007.006.008.006.008.007.008.006.008.006.008.006.008.007.008.006.008.006.008.006.008.007.008.006.008.006.008.006.008.007.008.006.008.006.008.006.007.007.009.006.008.006.008.006.007.007.009.005.007.007.008.006.008.007.008.005.007.007.009.006.007.007.009.005.007.006.007.006.009.006.007.007.009.006.007.006.009.006.007.007.009.006.007.006.008.006.008.007.009.006.007.006.008.006.008.007.008.006.008.006.008.006.008.007.008.006.008.006.008.006.008.007.008.005.007.007.009.006.007.007.009.005.007.007.008.006.008.007.008.005.007.007.009.006.007.007.009.005.007.007.008.006.008.007.008.005.007.007.009.006.007.006.008.006.008.006.008.007.008.006.008.006.008.006.007.007.009.006.008.006.008.006.007.007.009.006.007.006.009.006.007.007.009.006.007.006.009.005.006.007.009.006.008.007.008.005.007.007.009.006.007.007.009.005.007.007.008.006.008.007.008.005.007.007.009.006.007.007.009.005.007.006.007.007.009.006.007.006.008.006.008.007.009.006.007.006.008.006.008.007.008.006.008.006.008.006.008.007.008.006.008.006.008.006.008.007.008.006.008.006.008.006.008.007.008.006.008.006.008.006.007.007.009.005.007.007.008.006.008.007.009.005.006.007.009.006.007.007.009.005.007.007.008.006.008.007.009.005.006.007.009.006.008.007.008.005.007.006.007.007.009.006.008.005.006.006.008.006.008.006.008.007.008.006.008.006.008.006.008.007.008.006.008.006.008.006.007.007.009.006.008.006.008.006.007.007.009.005.007.007.008.006.008.007.008.005.007.007.009.006.007.007.009.005.007.007.008.006.008.007.009.005.006.007.009.006.007.006.008.006.008.006.008.007.008.006.008.006.008.006.008.007.008.006.008.006.008.006.008.007.008.006.008.006.008.006.007.007.009.006.008.006.008.006.007.007.009.006.007.006.009.006.007.007.009.005.007.007.008.006.008.007.008.005.007.007.009.005.007.007.008.006.008.007.008.005.007.007.009.006.007.006.008.006.008.006.007.007.009.006.008.006.008-.042.034-.043.034-.042.035-.043.033-.041.035-.043.034-.043.033-.042.035-.043.034-.041.035-.043.034-.043.033-.042.035-.043.033-.041.035-.043.035-.084.063-.044.033-.044.03-.043.034-.045.032-.044.03-.044.034-.044.03-.044.034-.044.032-.045.03-.043.034-.045.03-.043.033-.044.033-.045.03-.043.034-.088.058-.045.03-.046.03-.046.03-.045.03-.046.029-.045.03-.046.03-.046.029-.045.03-.046.03-.045.03-.045.03-.047.028-.045.031-.046.029-.045.03-.09.054-.048.027-.046.028-.048.026-.046.029-.048.027-.047.027-.047.028-.047.026-.047.028-.047.028-.048.026-.046.028-.047.027-.047.028-.047.028-.093.049-.048.026-.049.024-.048.026-.048.025-.05.024-.047.026-.049.024-.047.026-.05.025-.048.024-.048.026-.048.024-.048.025-.049.026-.049.024-.094.047-.05.021-.048.024-.05.022-.05.022-.05.023-.05.022-.048.023-.05.023-.05.021-.049.024-.05.022-.049.023-.05.023-.05.021-.049.024-.096.04-.05.021-.051.02-.051.02-.05.02-.051.02-.05.02-.051.02-.051.02-.05.02-.051.02-.05.02-.051.021-.051.02-.05.02-.051.02-.098.037-.052.018-.052.016-.05.019-.052.016-.051.019-.052.017-.052.017-.051.018-.052.017-.051.018-.052.018-.052.017-.05.018-.053.017-.05.018-.1.032-.053.014-.052.016-.053.014-.052.016-.052.015-.053.014-.052.016-.052.014-.052.016-.053.015-.053.014-.051.016-.053.014-.052.016-.053.015-.1.026-.053.013-.054.012-.052.013-.054.013-.053.01-.052.014-.054.012-.052.013-.054.013-.053.01-.052.014-.054.012-.052.013-.054.013-.053.011-.101.022-.054.01-.053.01-.054.01-.054.009-.053.01-.054.01-.053.01-.054.01-.054.009-.053.01-.053.01-.054.01-.054.01-.053.01-.053.01-.104.015-.053.008-.055.007-.054.006-.053.009-.054.006-.054.008-.054.007-.054.007-.054.008-.054.006-.054.008-.054.008-.054.006-.055.008-.054.006-.103.012-.055.004-.054.004-.054.005-.054.004-.054.006-.055.004-.054.004-.054.005-.055.004-.054.006-.054.004-.055.004-.054.006-.054.003-.103.008-.055.003h-.055l-.054.004h-.054l-.054.004-.055.002h-.055l-.054.004h-.054l-.054.004-.055.002h-.055l-.054.004h-.054l-.054.004-.105.001-.054-.001h-.055l-.054-.001h-.109l-.054-.002h-.055l-.054-.001h-.109l-.055-.002h-.217l-.104-.006-.055-.002-.054-.004-.054-.002-.055-.004-.054-.004-.054-.002-.054-.004-.055-.002-.054-.003-.055-.005-.054-.002-.055-.004-.053-.002-.053-.004-.176 2.922-6.937-6.06zm-12.03-9.903-2.325.661.014.051.016.051.014.054.016.052.014.052.015.053-.004-.022.016.052.019.051.016.052.018.052.018.051.017.052.019.05.016.053.018.052.018.05.017.052.018.052.017.051.017.052.019.051-.008-.02.021.05.02.05.02.051.02.05.02.051.02.05.02.051.02.05.021.051.02.051.02.05.02.051.02.05.02.051.02.05-.007-.021.021.05.023.05.023.049.022.05.023.049.022.05.023.05.023.048.022.05.023.05.022.049.022.05.024.049.021.05.024.049-.01-.021.025.048.025.048.024.049.026.048.024.048.025.05.026.047.024.049.027.049.024.048.025.049.026.048.024.049.026.047.024.049-.012-.02.029.046.026.047.028.046.027.048.027.047.029.047.026.047.028.047.027.047.027.048.028.046.027.048.028.046.026.047.028.048-.013-.021.03.046.03.045.029.046.03.046.03.045.029.046.03.045.029.046.03.046.03.045.03.046.03.045.029.046.03.046.03.045.029.046-.013-.022.031.045.032.044.033.044.031.044.033.044.03.044.033.045.033.043.03.045.034.043.03.045.033.044.033.043.03.045.033.043.031.045-.013-.02.034.04.034.044.035.041.033.043.034.043.035.042.034.043.035.041.033.043.034.043.035.041.033.043.035.042.034.043.034.043-.016-.02.035.041.037.04.036.041.036.041.037.04.035.041.037.04.036.041.036.041.037.04.036.041.037.04.035.041.037.041.037.04.035.041-.017-.019.037.04.039.039.039.037.037.04.04.038.037.039.038.04.04.037.037.04.039.037.037.04.039.039.039.037.037.04.039.038.037.04-.017-.019.04.036.04.038.04.036.04.037.04.037.041.036.04.037.04.036.04.038.04.037.041.036.04.037.04.036.04.037.04.037-.019-.016.041.035.043.034.041.035.043.035.042.034.041.035.043.034.041.035.042.035.043.034.041.036.043.033.04.036.043.035.043.033.041.036-.019-.017.043.033.044.033.044.031.043.034.045.031.043.033.044.033.044.032.043.033.044.032.043.033.044.033.044.032.043.033.044.031-.02-.013.045.03.045.03.045.03.046.03.044.031.046.03.046.03.044.031.046.03.044.03.046.031.046.03.044.03.046.03.044.031-.02-.013.047.027.046.03.047.026.046.03.047.028.047.027.046.028.048.027.046.03.047.028.047.027.046.028.047.028.046.028.047.029-.02-.013.047.027.048.024.047.027.049.026-.005.01-.005.008-.005.009-.004.009-.005.01-.005.007-.005.01-.004.009-.005.01-.004.007-.005.01-.005.009-.005.01-.004.007-.005.01-.004.009-.006.01-.004.007-.005.01-.004.009-.005.01-.004.007-.004.01-.006.009-.004.009-.005.008-.004.01-.005.01-.005.008-.005.009-.004.009-.005.01-.005.009-.005.008-.004.01-.005.009-.005.009-.005.008-.004.01-.005.009-.005.01-.005.008-.004.009-.005.01-.005.009-.005.008-.004.01-.005.009-.004.007-.006.01-.004.01-.005.009-.004.007-.005.01-.005.009-.005.01-.004.007-.004.01-.005.008-.005.009-.005.01-.004.009-.005.008-.005.01-.005.009-.004.009-.005.009-.004.009-.006.01-.004.009-.005.008-.004.01-.006.009-.004.009-.005.008-.004.01-.006.01-.004.008-.005.009-.004.009-.006.01-.004.007-.005.01-.004.009-.005.01-.004.007-.006.01-.004.009-.005.01-.004.007-.005.01-.005.009-.005.01-.004.007-.005.01-.004.009-.006.01-.004.007-.005.01-.004.009-.004.009-.006.008-.004.01-.005.01-.004.008-.006.009-.004.009-.005.01-.004.009-.006.008-.004.01-.005.009-.004.009-.006.009-.004.009-.005.01-.004.009-.006.008-.004.008-.005.01-.004.008-.005.01-.004.008-.006.01-.004.008-.005.01-.004.008-.005.01-.005.009-.005.009-.004.008-.005.01-.004.008-.005.01-.005.008-.004.009-.005.01-.004.009-.006.008-.004.01-.005.009-.004.009-.006.008-.004.01-.005.009-.004.01-.006.008-.004.009-.005.01-.004.008-.006.009-.004.009-.005.01-.004.009-.006.008-.004.01-.005.009-.004.009-.006.009-.004.009-.005.01-.004.007-.005.01-.005.009-.005.01-.004.007-.005.01-.004.008-.005.01-.005.008-.005.01-.004.008-.005.01-.004.008-.005.01-.005.008-.005.01-.004.008-.004.009-.005.01-.005.008-.004.008-.004.01-.005.008-.005.009-.005.01-.004.009-.005.008-.005.01-.005.009-.004.009-.005.008-.005.01-.005.01-.004.008-.005.009-.005.009-.005.01-.004.007-.005.01-.004.009-.005.01-.004.007-.006.01-.004.009-.005.01-.004.007-.005.01-.005.009-.005.01-.004.007-.005.01-.004.009-.005.009-.005.008-.004.01-.005.009-.005.01-.005.008-.004.009-.005.01-.005.009-.005.008-.004.01-.005.009-.005.009-.005.008-.004.01-.005.009-.005.01-.005.008-.004.009-.005.01-.004.008-.006.009-.004.009-.005.01-.004.007-.005.01-.005.009-.005.01-.004.007-.005.01-.004.007-.005.01-.005.01-.005.009-.004.007-.005.01-.004.01-.005.008-.005.009-.004.009-.005.01-.005.009-.005.008-.048-.026-.048-.026-.048-.025-.047-.026-.049-.025-.09-.053-.046-.029-.047-.027-.046-.029-.047-.027-.047-.028-.046-.029-.047-.027-.046-.029-.047-.027-.048-.028-.046-.029-.047-.027-.046-.029-.047-.027-.047-.028-.087-.058-.045-.03-.045-.03-.045-.03-.046-.03-.045-.032-.045-.029-.045-.031-.046-.03-.045-.03-.045-.031-.045-.03-.045-.03-.046-.03-.045-.03-.045-.032-.085-.06-.043-.033-.044-.032-.044-.033-.043-.033-.045-.032-.042-.033-.045-.032-.044-.032-.043-.034-.044-.031-.043-.034-.044-.031-.044-.033-.043-.033-.044-.032-.082-.066-.042-.033-.043-.035-.04-.036-.043-.034-.041-.035-.043-.034-.042-.035-.042-.035-.042-.034-.041-.035-.043-.034-.042-.035-.041-.036-.043-.033-.041-.036-.08-.068-.041-.037-.04-.037-.04-.036-.04-.037-.04-.036-.041-.037-.04-.038-.04-.035-.04-.038-.04-.036-.041-.037-.04-.037-.04-.036-.04-.038-.04-.036-.04-.037-.076-.074-.039-.038-.037-.04-.04-.037-.038-.04-.037-.039-.039-.037-.037-.04-.04-.038-.038-.039-.037-.04-.04-.037-.037-.04-.039-.037-.038-.04-.038-.039-.074-.075-.035-.041-.037-.04-.037-.041-.035-.041-.037-.04-.036-.041-.037-.04-.036-.041-.036-.041-.037-.04-.035-.041-.037-.04-.037-.041-.035-.041-.037-.04-.035-.041-.07-.08-.035-.043-.033-.043-.035-.041-.033-.043-.035-.042-.035-.043-.033-.042-.035-.042-.033-.043-.035-.042-.034-.042-.034-.043-.035-.042-.033-.043-.035-.041-.034-.043-.064-.085-.033-.043-.031-.045-.033-.043-.032-.045-.031-.044-.033-.043-.03-.045-.034-.043-.032-.045-.031-.044-.033-.044-.03-.044-.034-.044-.032-.044-.03-.044-.034-.044-.059-.088-.03-.045-.03-.046-.029-.046-.03-.045-.03-.046-.03-.045-.03-.046-.028-.046-.03-.045-.03-.046-.03-.045-.03-.046-.029-.046-.03-.045-.029-.046-.057-.09-.028-.047-.026-.048-.029-.046-.026-.048-.028-.046-.028-.048-.026-.047-.028-.046-.027-.048-.028-.046-.028-.048-.026-.047-.028-.047-.027-.047-.028-.047-.028-.047-.049-.094-.026-.048-.024-.049-.026-.047-.025-.049-.024-.049-.026-.049-.024-.048-.026-.048-.025-.049-.024-.048-.026-.048-.024-.049-.026-.048-.025-.049-.024-.048-.047-.095-.022-.05-.023-.05-.023-.05-.021-.05-.024-.048-.021-.05-.024-.049-.023-.05-.021-.05-.024-.049-.021-.05-.023-.049-.023-.05-.022-.05-.023-.048-.04-.098-.022-.05-.02-.051-.019-.051-.02-.05-.02-.051-.02-.05-.021-.051-.02-.051-.02-.05-.02-.051-.02-.05-.02-.051-.02-.051-.02-.05-.02-.051-.037-.099-.018-.052-.016-.052-.019-.05-.016-.052-.019-.051-.018-.052-.016-.052-.019-.051-.016-.052-.019-.051-.017-.052-.017-.052-.018-.05-.017-.053-.018-.05-.032-.102-.014-.052-.016-.052-.014-.054-.016-.05-.014-.052-2.815.8 3.209-8.537zm5.13-15.139-1.606-1.805-.04.035-.04.036-.041.037-.04.037-.041.035-.041.036-.04.038-.04.035-.04.037-.042.036-.04.037-.04.037-.041.035-.04.037-.041.036-.04.037-.04.037-.041.035-.04.038-.041.035-.04.037-.041.036-.041.036-.04.037-.041.036-.04.036-.04.038-.041.035-.04.037-.041.036-.041.036-.04.037-.041.036.018-.017-.04.037-.039.038-.038.04-.04.036-.037.04-.04.036-.04.039-.037.038-.04.038-.038.038-.04.038-.039.038-.038.039-.04.037-.037.039-.04.037.017-.017-.036.04-.037.04-.036.04-.038.04-.037.04-.036.041-.037.04-.036.04-.037.04-.037.04-.036.041-.038.04-.036.041-.038.04-.037.04-.036.04.017-.017-.034.042-.035.042-.035.042-.034.043-.035.041-.034.043-.035.041-.035.043-.034.042-.035.042-.033.042-.036.042-.035.042-.033.043-.035.041.016-.018-.033.043-.033.044-.032.045-.033.042-.031.045-.034.043-.033.044-.031.044-.033.043-.032.044-.033.043-.033.044-.032.044-.033.043-.032.044.013-.02-.03.046-.03.045-.03.045-.03.046-.031.044-.03.046-.03.045-.031.045-.03.046-.03.044-.031.046-.03.045-.03.045-.03.046-.031.044.012-.02-.027.048-.029.046-.027.047-.029.046-.028.047-.027.047-.03.046-.026.047-.03.046-.027.047-.027.048-.03.046-.026.047-.029.046-.028.047.011-.02-.026.047-.025.048-.026.048-.026.048-.025.048-.027.048-.024.048-.027.047-.026.049-.024.048-.027.048-.025.048-.026.047-.026.049-.025.048.009-.021-.022.05-.025.048-.023.05-.022.05-.025.048-.022.05-.024.048-.024.05-.022.05-.024.048-.022.05-.024.048-.024.05-.022.05-.025.048.01-.02-.021.05-.021.05-.02.05-.022.05-.02.05-.022.05-.02.051-.02.05-.022.05-.02.051-.022.05-.021.05-.02.051-.022.05-.02.05.008-.02-.019.05-.017.052-.02.051-.017.052-.02.05-.018.052-.017.051-.02.051-.017.052-.02.05-.018.052-.017.051-.02.051-.017.052-.02.05.008-.02-.015.052-.017.052-.015.052-.017.052-.016.052-.015.053-.017.051-.015.052-.017.052-.016.053-.014.052-.017.051-.015.053-.017.051-.016.053.008-.021-.015.052-.012.053-.014.053-.014.053-.012.053-.015.052-.012.053-.014.052-.014.054-.012.053-.015.052-.012.053-.014.052-.014.053.005-.02-.012.052-.01.054-.011.053-.011.053-.01.054-.012.053-.01.053-.012.053-.01.054-.01.053-.012.053-.01.054-.012.053-.011.054-.01.053.003-.022-.008.054-.009.054-.008.054-.008.054-.009.053-.007.054-.01.054-.008.054-.007.054-.01.053-.007.054-.01.054-.007.054-.011-.002h-.01l-.01-.003h-.01l-.01-.002-.01-.002-.01-.001-.01-.001-.01-.002-.01-.001-.01-.002h-.01l-.01-.002-.009-.002-.01-.001-.01-.001-.011-.002-.009-.001-.01-.002h-.01l-.011-.002-.009-.002h-.01l-.01-.002-.01-.001-.01-.002-.01-.001-.01-.002h-.01l-.01-.003h-.01l-.01-.002h-.01l-.01-.003h-.01l-.011-.002-.01-.001-.01-.002-.01-.001-.01-.002h-.01l-.01-.003h-.01l-.01-.002h-.01l-.01-.003h-.01l-.01-.002-.01-.002-.01-.001-.01-.001-.01-.002h-.009l-.01-.002-.01-.001-.011-.002-.009-.001-.01-.001-.01-.002-.01-.001-.01-.002h-.01l-.01-.003h-.01l-.01-.002h-.01l-.01-.003h-.01l-.01-.002-.01-.001-.01-.002-.01-.001-.01-.002h-.01l-.01-.003h-.01l-.011-.002-.01-.001-.01-.002-.01-.001-.01-.002-.009-.001-.01-.002h-.01l-.011-.002-.009-.002-.01-.001-.01-.001-.011-.002-.009-.001-.01-.002h-.01l-.011-.002-.008-.001-.01-.001-.01-.001-.011-.002-.01-.002-.01-.001h-.01l-.01-.002-.01-.002h-.01l-.01-.002-.01-.001-.01-.002-.01-.001-.01-.002h-.01l-.01-.003h-.01l-.01-.002h-.01l-.01-.003h-.01l-.01-.002-.01-.001-.01-.002-.01-.002-.01-.001-.01-.001-.01-.002-.009-.002-.01-.001h-.01l-.011-.003h-.008l-.011-.002h-.01l-.01-.002-.01-.002-.01-.001-.01-.001-.01-.002-.01-.001-.01-.001-.01-.002h-.01l-.01-.003h-.01l-.01-.002-.01-.001-.01-.002-.01-.001-.01-.002h-.01l-.01-.003h-.01l-.01-.002h-.01l-.01-.003h-.01l-.01-.003h-.01L72.71 49h-.01l-.011-.002h-.01l-.01-.003h-.01l-.01-.002-.009-.002-.01-.002h-.01l-.011-.002-.009-.001-.01-.002h-.01l-.011-.002-.009-.002-.01-.001-.01-.001-.011-.002-.009-.001-.01-.002h-.01l-.01-.002-.01-.002h-.01l-.01-.002-.01-.001-.009-.002h-.01l-.01-.003h-.01l-.01-.002h-.01l-.01-.003h-.01l-.01-.002-.01-.001-.01-.002-.01-.001-.01-.002h-.01l-.01-.003h-.01l-.01-.002-.01-.002-.01-.001-.01-.001-.01-.001-.01-.002-.01-.002h-.01l-.01-.002-.01-.002-.01-.001-.01-.001-.01-.001-.01-.002-.01-.001-.01-.001-.01-.001-.01-.002-.01-.001-.01-.002h-.01l-.01-.003h-.01l-.01-.002-.01-.001-.01-.002-.01-.001-.01-.002H72l-.01-.003h-.01l-.01-.002h-.01l-.01-.003h-.01l-.011-.003h-.01l-.01-.003h-.01l-.01-.002-.01-.002-.01-.001h-.01l-.01-.002-.009-.002-.01-.001-.01-.002-.01-.002h-.01l-.01-.002-.01-.002-.01-.001h-.01l-.01-.002-.01-.002h-.01l-.01-.002-.01-.001-.01-.002.009-.055.009-.053.007-.054.01-.053.007-.054.008-.055.01-.053.007-.054.01-.053.006-.054.009-.054.01-.054.006-.054.01-.053.018-.101.01-.054.013-.053.01-.053.012-.053.01-.054.01-.053.012-.054.01-.053.012-.053.01-.053.01-.054.013-.053.01-.054.011-.053.022-.1.013-.053.014-.053.013-.052.014-.053.013-.053.013-.053.014-.052.013-.053.014-.053.013-.053.013-.053.015-.052.012-.053.014-.052.013-.053.028-.1.017-.052.015-.052.016-.051.015-.053.016-.052.017-.052.015-.052.017-.052.015-.052.016-.052.017-.052.015-.052.017-.052.015-.052.016-.053.034-.097.017-.051.02-.051.017-.052.019-.051.019-.051.017-.052.02-.05.017-.052.019-.051.02-.051.017-.052.019-.05.017-.052.019-.052.02-.05.037-.097.022-.05.02-.05.02-.05.022-.05.02-.051.022-.05.02-.05.02-.051.023-.05.02-.05.021-.05.02-.05.021-.051.022-.05.04-.096.025-.049.022-.05.023-.049.025-.048.022-.05.024-.049.022-.05.024-.049.024-.048.022-.05.024-.049.023-.05.023-.049.024-.048.023-.05.047-.093.025-.048.026-.049.026-.047.025-.049.026-.047.025-.048.026-.049.027-.047.024-.048.027-.048.025-.048.025-.049.027-.047.025-.048.026-.048.05-.092.029-.047.028-.046.027-.047.03-.046.026-.047.029-.047.028-.046.027-.047.03-.046.026-.048.029-.047.028-.046.027-.047.03-.046.026-.047.056-.09.031-.044.03-.046.03-.045.03-.045.03-.046.032-.044.029-.046.031-.045.03-.045.03-.046.031-.045.03-.045.03-.045.03-.046.03-.045.032-.045.06-.086.034-.043.032-.044.033-.044.033-.043.032-.044.033-.043.031-.044.033-.044.034-.043.031-.044.033-.043.032-.044.033-.044.033-.043.032-.044.067-.083.033-.042.035-.043.035-.041.034-.043.035-.041.034-.043.035-.042.035-.042.034-.042.035-.042.034-.042.035-.043.035-.041.034-.043.035-.041.069-.081.037-.04.037-.04.037-.042.037-.04.036-.04.037-.04.038-.04.035-.04.038-.04.036-.04.037-.041.037-.04.036-.04.038-.04.035-.04.038-.04.075-.076.038-.039.04-.037.038-.039.039-.038.04-.038.038-.038.04-.037.037-.04.04-.038.039-.037.038-.038.04-.038.038-.038.039-.039.04-.037.076-.074.042-.036.04-.036.04-.037.042-.035.04-.037.041-.035.04-.038.04-.036.041-.036.04-.037.041-.035.04-.038.04-.037.042-.035.04-.037.04-.036.04-.036.041-.037.041-.035.04-.038.041-.035.04-.037.04-.037.042-.036.04-.037.04-.035.04-.037.04-.037.042-.036.04-.037.042-.036.038-.037.04-.034-1.944-2.187 8.217-2.073z" style="display:inline;fill:#ff851b;stroke-width:4.13491;stroke-miterlimit:4.1" transform="translate(70.44 -12.67)"/>
  <text x="81.239" y="46.717" style="font-size:8.13251px;font-family:Inter;-inkscape-font-specification:Inter;text-align:start;writing-mode:lr-tb;direction:ltr;text-anchor:start;fill:#ff851b;stroke:#ff4136;stroke-width:.254359;stroke-linejoin:round;paint-order:stroke fill markers" transform="translate(77.59 .14)">
    <tspan x="81.239" y="46.717" style="fill:#616161;fill-opacity:1;stroke:none;stroke-width:.254359">1</tspan>
  </text>
</svg>
