<svg xmlns:inkscape="http://www.inkscape.org/namespaces/inkscape" xmlns:sodipodi="http://sodipodi.sourceforge.net/DTD/sodipodi-0.dtd" xmlns="http://www.w3.org/2000/svg" xmlns:svg="http://www.w3.org/2000/svg" version="1.1" id="svg444" viewBox="0 0 701.00085 701.15515" sodipodi:docname="T.svg" inkscape:version="1.3.2 (091e20ef0f, 2023-11-25)">
  <defs id="defs448"/>
  <sodipodi:namedview id="namedview446" pagecolor="#282a36" bordercolor="#666666" borderopacity="1.0" inkscape:showpageshadow="2" inkscape:pageopacity="0.0" inkscape:pagecheckerboard="0" inkscape:deskcolor="#d1d1d1" showgrid="false" inkscape:zoom="0.92709556" inkscape:cx="221.66" inkscape:cy="385.61289" inkscape:window-width="3840" inkscape:window-height="2091" inkscape:window-x="0" inkscape:window-y="0" inkscape:window-maximized="1" inkscape:current-layer="g452" showguides="true">
    <inkscape:page x="0" y="0" id="page450" width="701.00085" height="701.15515" margin="0" bleed="0"/>
    <sodipodi:guide position="701.00086,700.99997" orientation="0.70710678,-0.70710678" id="guide1" inkscape:locked="false"/>
    <sodipodi:guide position="-8.4481812e-10,719.84482" orientation="-0.70710678,-0.70710678" id="guide2" inkscape:locked="false"/>
    <sodipodi:guide position="350.50043,350.49954" orientation="1,0" id="guide3" inkscape:locked="false"/>
    <sodipodi:guide position="-601.12611,370.49413" orientation="0,-1" id="guide4" inkscape:locked="false"/>
    <sodipodi:guide position="360.42902,451.6724" orientation="0,-1" id="guide5" inkscape:locked="false"/>
    <sodipodi:guide position="306.22881,251.15515" orientation="0,-1" id="guide6" inkscape:locked="false"/>
    <sodipodi:guide position="-71.508186,426.00885" orientation="0,-1" id="guide7" inkscape:locked="false"/>
    <sodipodi:guide position="-68.83898,275.49258" orientation="0,-1" id="guide8" inkscape:locked="false"/>
    <sodipodi:guide position="324.91525,360.22295" orientation="1,0" id="guide9" inkscape:locked="false"/>
  </sodipodi:namedview>
  <g id="g452" inkscape:groupmode="layer" inkscape:label="Page 1" transform="matrix(1.3333333,0,0,-1.3333333,-0.09129184,719.75481)">
    <g id="g454" transform="matrix(0.09738616,0,0,0.0974701,0.00116015,13.655439)"/>
    <path class="stroke-orange fill-orange" style="fill:none;stroke:#FF851B;stroke-width:16.5705;stroke-linecap:butt;stroke-linejoin:miter;stroke-dasharray:none;stroke-opacity:1" d="M 441.62567,97.988834 519.50819,20.039183" id="path5612-4" sodipodi:nodetypes="cc"/>
    <path class="stroke-orange fill-orange" style="fill:none;stroke:#FF851B;stroke-width:16.5705;stroke-linecap:butt;stroke-linejoin:miter;stroke-dasharray:none;stroke-opacity:1" d="M 6.02988,533.96009 83.426519,456.49674" id="path5612-4-3" sodipodi:nodetypes="cc"/>
    <path class="stroke-orange fill-orange" style="fill:none;stroke:#FF851B;stroke-width:16.5705;stroke-linecap:butt;stroke-linejoin:miter;stroke-dasharray:none;stroke-opacity:1" d="m 443.95363,459.18029 74.29373,74.35777 M 7.1498592,22.000008 81.261882,96.175913" id="path5612-4-6" sodipodi:nodetypes="cccc"/>
    <g id="g30393" inkscape:label="brdr" style="display:inline" transform="matrix(2.7605527,0,0,-2.7629322,-25.391697,673.294)" class="">
      <path class="stroke-selection fill-selection" style="display:inline;fill:#DDDDDD;fill-opacity:1;stroke:none;stroke-width:0.352778;stroke-opacity:1" d="M 95.986727,238.49586 C 55.96666,234.86994 22.490082,206.59238 12.232833,167.74923 c -4.0133095,-15.198 -4.0133095,-33.36826 0,-48.56626 9.679369,-36.654787 39.637477,-63.733936 77.403894,-69.965414 6.991548,-1.153609 22.641783,-1.153609 29.633333,0 41.25671,6.807379 72.6245,38.175164 79.43188,79.431874 1.84983,11.21107 0.9976,27.64223 -2.02799,39.0998 -9.6571,36.57046 -39.81128,63.87166 -77.2275,69.92077 -4.45449,0.72016 -18.98182,1.23157 -23.459723,0.82586 z m 22.401393,-5.72037 c 52.7555,-8.69562 86.4767,-59.58006 73.70138,-111.21356 -8.70542,-35.184345 -37.59744,-61.552962 -73.87777,-67.425367 -6.89864,-1.116626 -21.006787,-1.117826 -27.693058,-0.0024 -39.312737,6.558542 -69.068477,36.348289 -75.385466,75.471627 -1.068038,6.61474 -1.147323,20.30013 -0.154896,26.73666 6.488217,42.08024 39.945426,73.56139 82.066751,77.21968 4.230239,0.3674 17.253599,-0.11262 21.343059,-0.78668 z" id="path21850" inkscape:label="path21850"/>
    </g>
    <path style="fill:#39CCCC;fill-opacity:0.766511;stroke:#FF4136;stroke-width:8.50393722;stroke-miterlimit:3.6;stroke-dasharray:none" d="m 187.06415,352.70405 h 151.7593" id="path7" class="stroke-teal fill-teal"/>
    <g id="g9" transform="translate(9.5944483)">
      <path style="fill:#39CCCC;fill-opacity:0.766511;stroke:#FF4136;stroke-width:8.50394;stroke-miterlimit:3.6;stroke-dasharray:none" d="M 262.9438,202.31611 V 352.70405" id="path6" class="stroke-teal fill-teal"/>
      <path style="fill:#39CCCC;fill-opacity:0.766511;stroke:#FF4136;stroke-width:8.50395;stroke-miterlimit:3.6;stroke-dasharray:none" d="M 243.75491,333.45639 V 202.31611" id="path9" sodipodi:nodetypes="cc" class="stroke-teal fill-teal"/>
    </g>
  </g>
</svg>
