<svg xmlns:inkscape="http://www.inkscape.org/namespaces/inkscape" xmlns:sodipodi="http://sodipodi.sourceforge.net/DTD/sodipodi-0.dtd" xmlns="http://www.w3.org/2000/svg" xmlns:svg="http://www.w3.org/2000/svg" viewBox="0 0 96.833923 13.050145" version="1.1" id="svg1" inkscape:version="1.3.2 (091e20ef0f, 2023-11-25)" sodipodi:docname="missing.svg">
  <sodipodi:namedview id="namedview1" pagecolor="#00000f" bordercolor="#000000" borderopacity="0.25" inkscape:showpageshadow="2" inkscape:pageopacity="0.0" inkscape:pagecheckerboard="0" inkscape:deskcolor="#d1d1d1" inkscape:document-units="mm" inkscape:zoom="0.7446131" inkscape:cx="169.88689" inkscape:cy="320.97206" inkscape:window-width="1920" inkscape:window-height="1126" inkscape:window-x="0" inkscape:window-y="0" inkscape:window-maximized="1" inkscape:current-layer="layer1"/>
  <defs id="defs1"/>
  <g inkscape:label="Layer 1" inkscape:groupmode="layer" id="layer1" transform="translate(-59.980946,-63.7443)">
    <path style="font-weight:bold;font-size:15.8159px;font-family:'Fira Code';-inkscape-font-specification:'Fira Code Bold';fill:#FF4136;stroke-width:31.6319;stroke-miterlimit:4.1" d="m 64.660839,63.7443 q 1.151722,0 2.003348,0.308208 0.851625,0.308207 1.435597,0.892179 0.592082,0.583971 0.940843,1.411264 0.356871,0.827294 0.510975,1.865466 0.162214,1.038171 0.162214,2.254779 0,2.043901 -0.210878,3.455166 -0.202768,1.403154 -0.754297,2.133119 -0.551529,0.729964 -1.589701,0.729964 -0.462311,0 -0.811071,-0.178435 -0.340651,-0.178436 -0.575861,-0.486643 -0.235211,-0.308208 -0.373093,-0.713744 -0.137883,-0.405536 -0.186547,-0.859736 h -0.06489 q -0.178435,0.405536 -0.494753,0.746186 -0.308208,0.348761 -0.754297,0.551529 -0.437979,0.210879 -1.021951,0.210879 -0.957064,0 -1.532925,-0.486643 -0.575861,-0.486643 -0.835404,-1.322047 -0.251433,-0.843515 -0.251433,-1.889798 0,-2.003347 0.835404,-3.179401 0.843515,-1.184165 2.611652,-1.184165 0.648857,0 1.354489,0.178436 0.705633,0.170325 1.370712,0.535307 v 4.866431 q 0,0.600193 0.06488,0.957065 0.073,0.348761 0.21899,0.502864 0.145993,0.154104 0.364982,0.154104 0.235211,0 0.364982,-0.243322 0.137883,-0.251432 0.202768,-0.79485 0.06489,-0.543418 0.08111,-1.419376 0.02433,-0.875957 0.02433,-2.125008 0,-1.273382 -0.145993,-2.254779 -0.137882,-0.989508 -0.494754,-1.662697 -0.348761,-0.681301 -0.981397,-1.030062 -0.624525,-0.34876 -1.597811,-0.34876 -0.867847,0 -1.735694,0.34065 -0.859736,0.332539 -1.800579,1.151722 l -1.01384,-1.192276 Q 61.092114,64.64459 62.211393,64.198501 63.338783,63.7443 64.66083,63.7443 Z m -1.005729,5.864049 q -0.640746,0 -0.875957,0.600193 -0.2271,0.600194 -0.2271,2.157451 0,0.738076 0.06488,1.200387 0.073,0.462311 0.243322,0.6813 0.178436,0.210879 0.478532,0.210879 0.364983,0 0.551529,-0.178436 0.186547,-0.186547 0.267654,-0.44609 0.08111,-0.267653 0.11355,-0.519086 v -3.552494 q -0.154104,-0.08111 -0.291986,-0.11355 -0.137882,-0.04055 -0.324429,-0.04055 z M 74.393707,63.7443 q 1.151722,0 2.003348,0.308208 0.851625,0.308207 1.435597,0.892179 0.592082,0.583971 0.940843,1.411264 0.356872,0.827294 0.510975,1.865466 0.162215,1.038171 0.162215,2.254779 0,2.043901 -0.210879,3.455166 -0.202768,1.403154 -0.754297,2.133119 -0.551529,0.729964 -1.5897,0.729964 -0.462311,0 -0.811072,-0.178435 -0.34065,-0.178436 -0.575861,-0.486643 -0.235211,-0.308208 -0.373093,-0.713744 -0.137882,-0.405536 -0.186547,-0.859736 h -0.06489 q -0.178435,0.405536 -0.494753,0.746186 -0.308208,0.348761 -0.754297,0.551529 -0.437979,0.210879 -1.021951,0.210879 -0.957064,0 -1.532925,-0.486643 -0.575861,-0.486643 -0.835404,-1.322047 -0.251432,-0.843515 -0.251432,-1.889798 0,-2.003347 0.835404,-3.179401 0.843514,-1.184165 2.611651,-1.184165 0.648857,0 1.35449,0.178436 0.705632,0.170325 1.370711,0.535307 v 4.866431 q 0,0.600193 0.06489,0.957065 0.073,0.348761 0.218989,0.502864 0.145993,0.154104 0.364982,0.154104 0.235211,0 0.364983,-0.243322 0.137882,-0.251432 0.202768,-0.79485 0.06489,-0.543418 0.08111,-1.419376 0.02433,-0.875957 0.02433,-2.125008 0,-1.273382 -0.145993,-2.254779 -0.137882,-0.989508 -0.494754,-1.662697 -0.348761,-0.681301 -0.981397,-1.030062 -0.624525,-0.34876 -1.597811,-0.34876 -0.867847,0 -1.735694,0.34065 -0.859736,0.332539 -1.800579,1.151722 l -1.01384,-1.192276 Q 70.824992,64.64459 71.944271,64.198501 73.07166,63.7443 74.393707,63.7443 Z m -1.005729,5.864049 q -0.640746,0 -0.875957,0.600193 -0.2271,0.600194 -0.2271,2.157451 0,0.738076 0.06489,1.200387 0.073,0.462311 0.243321,0.6813 0.178436,0.210879 0.478532,0.210879 0.364983,0 0.551529,-0.178436 0.186547,-0.186547 0.267654,-0.44609 0.08111,-0.267653 0.11355,-0.519086 v -3.552494 q -0.154104,-0.08111 -0.291986,-0.11355 -0.137882,-0.04055 -0.324429,-0.04055 z M 84.126576,63.7443 q 1.151722,0 2.003347,0.308208 0.851625,0.308207 1.435597,0.892179 0.592082,0.583971 0.940843,1.411264 0.356872,0.827294 0.510975,1.865466 0.162215,1.038171 0.162215,2.254779 0,2.043901 -0.210879,3.455166 -0.202768,1.403154 -0.754297,2.133119 -0.551528,0.729964 -1.5897,0.729964 -0.462311,0 -0.811072,-0.178435 -0.34065,-0.178436 -0.575861,-0.486643 -0.235211,-0.308208 -0.373093,-0.713744 -0.137882,-0.405536 -0.186547,-0.859736 h -0.06489 q -0.178436,0.405536 -0.494754,0.746186 -0.308207,0.348761 -0.754297,0.551529 -0.437979,0.210879 -1.02195,0.210879 -0.957065,0 -1.532926,-0.486643 -0.575861,-0.486643 -0.835404,-1.322047 -0.251432,-0.843515 -0.251432,-1.889798 0,-2.003347 0.835404,-3.179401 0.843514,-1.184165 2.611651,-1.184165 0.648857,0 1.35449,0.178436 0.705632,0.170325 1.370711,0.535307 v 4.866431 q 0,0.600193 0.06489,0.957065 0.073,0.348761 0.218989,0.502864 0.145993,0.154104 0.364983,0.154104 0.23521,0 0.364982,-0.243322 0.137882,-0.251432 0.202768,-0.79485 0.06489,-0.543418 0.08111,-1.419376 0.02433,-0.875957 0.02433,-2.125008 0,-1.273382 -0.145993,-2.254779 -0.137882,-0.989508 -0.494754,-1.662697 -0.34876,-0.681301 -0.981396,-1.030062 -0.624526,-0.34876 -1.597812,-0.34876 -0.867847,0 -1.735693,0.34065 -0.859737,0.332539 -1.80058,1.151722 l -1.01384,-1.192276 Q 80.55786,64.64459 81.677139,64.198501 82.804529,63.7443 84.126576,63.7443 Z m -1.005729,5.864049 q -0.640747,0 -0.875958,0.600193 -0.2271,0.600194 -0.2271,2.157451 0,0.738076 0.06489,1.200387 0.073,0.462311 0.243321,0.6813 0.178436,0.210879 0.478533,0.210879 0.364982,0 0.551528,-0.178436 0.186547,-0.186547 0.267654,-0.44609 0.08111,-0.267653 0.11355,-0.519086 v -3.552494 q -0.154103,-0.08111 -0.291986,-0.11355 -0.137882,-0.04055 -0.324428,-0.04055 z m 14.899395,-5.580174 0.632636,11.241455 h -2.319665 l -0.137882,-4.809655 q -0.01622,-0.67319 -0.01622,-1.200387 0.0081,-0.527196 0.02433,-0.989507 0.01622,-0.470422 0.04866,-0.940843 0.04055,-0.478533 0.08111,-1.038172 l -1.265272,7.064435 H 93.056481 L 91.69388,66.291066 q 0.04866,0.535307 0.08111,1.013839 0.04055,0.470422 0.05678,0.948954 0.01622,0.478533 0.02433,1.030062 0.0081,0.543418 -0.0081,1.216607 l -0.08111,4.769102 h -2.279112 l 0.632636,-11.241455 h 2.733312 l 1.24905,7.267204 1.184165,-7.267204 z m 9.432768,0 v 1.946573 h -2.31966 v 7.340199 h 2.31966 v 1.954683 h -7.29964 v -1.954683 h 2.31966 v -7.340199 h -2.31966 v -1.946573 z m 10.43039,7.956615 q 0,1.046282 -0.55153,1.849243 -0.54341,0.802961 -1.56536,1.257162 -1.02195,0.4542 -2.45755,0.4542 -1.5897,0 -2.66843,-0.462311 -1.07061,-0.470422 -1.77624,-1.159833 l 1.34637,-1.492372 q 0.62453,0.543418 1.37883,0.843515 0.75429,0.291986 1.65458,0.291986 0.55964,0 0.9814,-0.162215 0.42176,-0.162214 0.65697,-0.470421 0.23521,-0.308208 0.23521,-0.746186 0,-0.413647 -0.18655,-0.697522 -0.18654,-0.283875 -0.63263,-0.510975 -0.43798,-0.2271 -1.22472,-0.462311 -1.31394,-0.405536 -2.1169,-0.892179 -0.79485,-0.486643 -1.15983,-1.12739 -0.35687,-0.640747 -0.35687,-1.492372 0,-1.030061 0.56775,-1.760026 0.57586,-0.729964 1.54103,-1.111168 0.96518,-0.389315 2.12501,-0.389315 1.30583,0 2.30344,0.381204 0.99762,0.373093 1.72759,1.070615 l -1.25716,1.443708 q -0.56775,-0.478533 -1.22472,-0.705633 -0.65697,-0.235211 -1.33827,-0.235211 -0.50286,0 -0.88407,0.129772 -0.3812,0.121661 -0.59208,0.364982 -0.21088,0.243322 -0.21088,0.608304 0,0.356872 0.20277,0.600193 0.20277,0.243322 0.70563,0.462311 0.50287,0.210879 1.39504,0.494754 1.06251,0.324429 1.81681,0.778629 0.7624,0.446089 1.15983,1.12739 0.40553,0.6813 0.40553,1.719472 z m 9.73287,0 q 0,1.046282 -0.55153,1.849243 -0.54342,0.802961 -1.56537,1.257162 -1.02195,0.4542 -2.45754,0.4542 -1.5897,0 -2.66843,-0.462311 -1.07061,-0.470422 -1.77625,-1.159833 l 1.34638,-1.492372 q 0.62453,0.543418 1.37882,0.843515 0.7543,0.291986 1.65459,0.291986 0.55964,0 0.9814,-0.162215 0.42176,-0.162214 0.65697,-0.470421 0.23521,-0.308208 0.23521,-0.746186 0,-0.413647 -0.18655,-0.697522 -0.18655,-0.283875 -0.63264,-0.510975 -0.43797,-0.2271 -1.22471,-0.462311 -1.31394,-0.405536 -2.1169,-0.892179 -0.79485,-0.486643 -1.15983,-1.12739 -0.35688,-0.640747 -0.35688,-1.492372 0,-1.030061 0.56775,-1.760026 0.57587,-0.729964 1.54104,-1.111168 0.96518,-0.389315 2.12501,-0.389315 1.30582,0 2.30344,0.381204 0.99762,0.373093 1.72759,1.070615 l -1.25717,1.443708 q -0.56775,-0.478533 -1.22471,-0.705633 -0.65697,-0.235211 -1.33827,-0.235211 -0.50287,0 -0.88407,0.129772 -0.3812,0.121661 -0.59208,0.364982 -0.21088,0.243322 -0.21088,0.608304 0,0.356872 0.20277,0.600193 0.20276,0.243322 0.70563,0.462311 0.50286,0.210879 1.39504,0.494754 1.06251,0.324429 1.8168,0.778629 0.76241,0.446089 1.15984,1.12739 0.40553,0.6813 0.40553,1.719472 z m 9.03535,-7.956615 v 1.946573 h -2.31966 v 7.340199 h 2.31966 v 1.954683 h -7.29964 v -1.954683 h 2.31966 v -7.340199 h -2.31966 v -1.946573 z m 6.87789,11.241455 -2.96041,-9.04345 q 0.0568,0.364982 0.12166,0.884068 0.073,0.510975 0.13788,1.143611 0.0649,0.624526 0.10544,1.330158 0.0406,0.705633 0.0406,1.443708 v 4.241905 h -2.26289 V 64.028175 h 3.31728 l 2.8712,8.994787 q -0.0892,-0.510976 -0.18655,-1.216608 -0.0892,-0.713743 -0.15411,-1.589701 -0.0649,-0.875957 -0.0649,-1.881686 v -4.306792 h 2.26289 V 75.26963 Z m 9.35166,0.275765 q -1.59781,0 -2.69275,-0.67319 -1.09495,-0.6813 -1.6627,-1.995236 -0.55964,-1.322047 -0.55964,-3.252398 0,-1.435597 0.39742,-2.530544 0.40554,-1.103058 1.11928,-1.841133 0.71375,-0.746186 1.6627,-1.12739 0.94895,-0.381204 2.0439,-0.381204 1.23283,0 2.07635,0.381204 0.84351,0.381204 1.50048,1.005729 l -1.39505,1.443708 q -0.51097,-0.4542 -0.98139,-0.67319 -0.47042,-0.218989 -1.07062,-0.218989 -0.56775,0 -1.04628,0.2271 -0.47042,0.218989 -0.82729,0.697522 -0.34876,0.470421 -0.54342,1.224718 -0.19466,0.746186 -0.19466,1.80869 0,1.46804 0.23521,2.335887 0.24332,0.867847 0.72997,1.249051 0.48664,0.373093 1.23283,0.373093 0.39742,0 0.74618,-0.08922 0.34876,-0.09733 0.64886,-0.251433 v -2.571097 h -1.41126 l -0.25955,-1.865465 h 4.18513 v 5.588284 q -0.84351,0.519086 -1.8168,0.827294 -0.96517,0.308207 -2.1169,0.308207 z" id="text1" aria-label="@@@MISSING" class=""/>
  </g>
</svg>
