<?xml version="1.0" encoding="UTF-8" standalone="no"?>

<svg xmlns:inkscape="http://www.inkscape.org/namespaces/inkscape" xmlns:sodipodi="http://sodipodi.sourceforge.net/DTD/sodipodi-0.dtd" xmlns="http://www.w3.org/2000/svg" xmlns:svg="http://www.w3.org/2000/svg" viewBox="0 0 393.30829 215.65363" version="1.1" id="svg1" sodipodi:docname="arborescent_and_non.svg" inkscape:version="1.3.2 (091e20ef0f, 2023-11-25)">
    <sodipodi:namedview id="namedview1" pagecolor="#282a36" bordercolor="#000000" borderopacity="0.25" inkscape:showpageshadow="2" inkscape:pageopacity="0.0" inkscape:pagecheckerboard="0" inkscape:deskcolor="#d1d1d1" inkscape:document-units="mm" showguides="true" inkscape:zoom="0.35648864" inkscape:cx="998.62929" inkscape:cy="260.87788" inkscape:window-width="1920" inkscape:window-height="1126" inkscape:window-x="0" inkscape:window-y="0" inkscape:window-maximized="1" inkscape:current-layer="layer1">
        <sodipodi:guide position="50.508744,172.34722" orientation="0,-1" id="guide6" inkscape:locked="false"/>
        <sodipodi:guide position="49.508744,114.51152" orientation="0,-1" id="guide7" inkscape:locked="false"/>
        <sodipodi:guide position="131.05291,173.35271" orientation="1,0" id="guide14" inkscape:locked="false"/>
    </sodipodi:namedview>
    <defs id="defs1"/>
    <g inkscape:label="Layer 1" inkscape:groupmode="layer" id="layer1" transform="translate(31.215135,6.2736385)">
        <g id="g2" style="stroke-width:2;stroke-dasharray:none">
            <path id="path1" style="fill:none;stroke:#ffb86c;stroke-width:2;stroke-linecap:round;stroke-linejoin:round;stroke-miterlimit:4.1;stroke-dasharray:none" d="M 90.609759,147.5998 A 25.925527,25.925527 0 0 1 64.684234,173.52533 25.925527,25.925527 0 0 1 38.758706,147.5998 25.925527,25.925527 0 0 1 64.684234,121.67427 25.925527,25.925527 0 0 1 90.609759,147.5998 Z"/>
            <path id="path1-5" style="fill:none;stroke:#ffb86c;stroke-width:2;stroke-linecap:round;stroke-linejoin:round;stroke-miterlimit:4.1;stroke-dasharray:none" d="m 160.88192,147.59979 a 25.925527,25.925527 0 0 1 -25.92552,25.92553 25.925527,25.925527 0 0 1 -25.92553,-25.92553 25.925527,25.925527 0 0 1 25.92553,-25.92553 25.925527,25.925527 0 0 1 25.92552,25.92553 z"/>
            <path id="path1-2" style="fill:none;stroke:#ffb86c;stroke-width:2;stroke-linecap:round;stroke-linejoin:round;stroke-miterlimit:4.1;stroke-dasharray:none" d="m 288.27636,147.59979 a 25.925527,25.925527 0 0 1 -25.92552,25.92552 25.925527,25.925527 0 0 1 -25.92553,-25.92552 25.925527,25.925527 0 0 1 25.92553,-25.92552 25.925527,25.925527 0 0 1 25.92552,25.92552 z"/>
            <g id="g1" transform="translate(40.338531,-99.810225)" style="stroke-width:2;stroke-dasharray:none">
                <path id="path1-2-7" style="fill:#ffb86c;fill-opacity:1;stroke:#ffb86c;stroke-width:2;stroke-linecap:round;stroke-linejoin:round;stroke-miterlimit:4.1;stroke-dasharray:none" d="m 148.26659,247.41002 a 4.889296,4.889296 0 0 1 -4.8893,4.8893 4.889296,4.889296 0 0 1 -4.8893,-4.8893 4.889296,4.889296 0 0 1 4.8893,-4.8893 4.889296,4.889296 0 0 1 4.8893,4.8893 z"/>
                <path id="path1-2-2" style="fill:#ffb86c;fill-opacity:1;stroke:#ffb86c;stroke-width:2;stroke-linecap:round;stroke-linejoin:round;stroke-miterlimit:4.1;stroke-dasharray:none" d="m 163.20438,247.41002 a 4.889296,4.889296 0 0 1 -4.8893,4.8893 4.889296,4.889296 0 0 1 -4.88929,-4.8893 4.889296,4.889296 0 0 1 4.88929,-4.8893 4.889296,4.889296 0 0 1 4.8893,4.8893 z"/>
                <path id="path1-2-3" style="fill:#ffb86c;fill-opacity:1;stroke:#ffb86c;stroke-width:2;stroke-linecap:round;stroke-linejoin:round;stroke-miterlimit:4.1;stroke-dasharray:none" d="m 178.14218,247.41002 a 4.889296,4.889296 0 0 1 -4.8893,4.8893 4.889296,4.889296 0 0 1 -4.8893,-4.8893 4.889296,4.889296 0 0 1 4.8893,-4.8893 4.889296,4.889296 0 0 1 4.8893,4.8893 z"/>
            </g>
            <path id="path1-7" style="fill:none;stroke:#ffb86c;stroke-width:2;stroke-linecap:round;stroke-linejoin:round;stroke-miterlimit:4.1;stroke-dasharray:none" d="M 327.99664,147.59979 A 164.47911,60.780184 0 0 1 163.51757,208.37998 164.47911,60.780184 0 0 1 -0.9615696,147.59979 164.47911,60.780184 0 0 1 163.51757,86.81961 164.47911,60.780184 0 0 1 327.99664,147.59979 Z"/>
        </g>
        <g id="g16">
            <path style="font-variation-settings:normal;opacity:1;vector-effect:none;fill:none;fill-opacity:1;stroke:#ff5555;stroke-width:2;stroke-linecap:round;stroke-linejoin:round;stroke-miterlimit:4.1;stroke-dasharray:none;stroke-dashoffset:0;stroke-opacity:1;-inkscape-stroke:none" d="m 18.293609,176.21484 c 7.723895,-6.9399 19.974581,-3.63626 28.087052,-10.20127" id="path6" sodipodi:nodetypes="cc"/>
            <path style="font-variation-settings:normal;opacity:1;vector-effect:none;fill:none;fill-opacity:1;stroke:#ff5555;stroke-width:2;stroke-linecap:round;stroke-linejoin:round;stroke-miterlimit:4.1;stroke-dasharray:none;stroke-dashoffset:0;stroke-opacity:1;-inkscape-stroke:none" d="M 308.00145,118.55507 C 360.1726,61.185088 224.02002,64.193071 184.83328,35.886285 m -42.80351,0.653389 C 106.85308,62.355384 -29.683267,65.484604 19.293609,118.37914" id="path15" sodipodi:nodetypes="cccc"/>
            <path style="font-variation-settings:normal;opacity:1;vector-effect:none;fill:none;fill-opacity:1;stroke:#ff5555;stroke-width:2;stroke-linecap:round;stroke-linejoin:round;stroke-miterlimit:4.1;stroke-dasharray:none;stroke-dashoffset:0;stroke-opacity:1;-inkscape-stroke:none" d="M 18.293609,176.21484 C -28.179804,209.97546 -39.170375,106.98613 -23.543156,77.118275 3.4735386,25.482036 106.40359,-11.022755 142.44415,5.3441258 M 185.25033,5.632345 C 215.95048,-8.0913793 303.2567,2.4618058 336.41673,49.747177 380.71197,112.91108 362.04391,216.81812 306.77201,177.18938" id="path16" sodipodi:nodetypes="csccsc"/>
            <path style="font-variation-settings:normal;opacity:1;vector-effect:none;fill:none;fill-opacity:1;stroke:#ff5555;stroke-width:2;stroke-linecap:round;stroke-linejoin:round;stroke-miterlimit:4.1;stroke-dasharray:none;stroke-dashoffset:0;stroke-opacity:1;-inkscape-stroke:none" d="m 42.480697,229.14682 c 5.856975,-7.64066 11.261877,-11.20821 17.018539,-10.95745 5.512726,0.24013 11.381893,3.98183 16.78014,11.00135" id="path7" sodipodi:nodetypes="csc" transform="translate(40.338531,-99.810226)"/>
            <path style="font-variation-settings:normal;opacity:1;vector-effect:none;fill:none;fill-opacity:1;stroke:#ff5555;stroke-width:2;stroke-linecap:round;stroke-linejoin:round;stroke-miterlimit:4.1;stroke-dasharray:none;stroke-dashoffset:0;stroke-opacity:1;-inkscape-stroke:none" d="m 42.5999,265.70459 c 5.536311,6.7263 11.429118,10.14565 16.899336,10.32048 5.799493,0.18534 11.172347,-3.27532 16.89934,-10.27658" id="path8" sodipodi:nodetypes="csc" transform="translate(40.338531,-99.810226)"/>
            <path style="font-variation-settings:normal;opacity:1;vector-effect:none;fill:none;fill-opacity:1;stroke:#ff5555;stroke-width:2;stroke-linecap:round;stroke-linejoin:round;stroke-miterlimit:4.1;stroke-dasharray:none;stroke-dashoffset:0;stroke-opacity:1;-inkscape-stroke:none" d="m 240.23159,229.07152 c 10.05189,-7.97815 19.43098,-2.26667 27.43133,-10.70622" id="path9" transform="translate(40.338531,-99.810226)" sodipodi:nodetypes="cc"/>
            <path style="font-variation-settings:normal;opacity:1;vector-effect:none;fill:none;fill-opacity:1;stroke:#ff5555;stroke-width:2;stroke-linecap:round;stroke-linejoin:round;stroke-miterlimit:4.1;stroke-dasharray:none;stroke-dashoffset:0;stroke-opacity:1;-inkscape-stroke:none" d="m 240.35078,265.6293 c 8.58705,7.20605 21.9846,2.59095 28.31214,10.89252" id="path10" transform="translate(40.338531,-99.810226)" sodipodi:nodetypes="cc"/>
            <path style="font-variation-settings:normal;opacity:1;vector-effect:none;fill:none;fill-opacity:1;stroke:#ff5555;stroke-width:2;stroke-linecap:round;stroke-linejoin:round;stroke-miterlimit:4.1;stroke-dasharray:none;stroke-dashoffset:0;stroke-opacity:1;-inkscape-stroke:none" d="m 203.67382,229.19073 c -4.93487,-6.80864 -10.51549,-11.8547 -18.25748,-11.00136" id="path11" sodipodi:nodetypes="cc" transform="translate(40.338531,-99.810226)"/>
            <path style="font-variation-settings:normal;opacity:1;vector-effect:none;fill:none;fill-opacity:1;stroke:#ff5555;stroke-width:2;stroke-linecap:round;stroke-linejoin:round;stroke-miterlimit:4.1;stroke-dasharray:none;stroke-dashoffset:0;stroke-opacity:1;-inkscape-stroke:none" d="m 184.41634,275.83734 c 7.54467,1.22968 14.10673,-1.69692 19.37668,-10.08885" id="path12" sodipodi:nodetypes="cc" transform="translate(40.338531,-99.810226)"/>
            <path style="font-variation-settings:normal;opacity:1;vector-effect:none;fill:none;fill-opacity:1;stroke:#ff5555;stroke-width:2;stroke-linecap:round;stroke-linejoin:round;stroke-miterlimit:4.1;stroke-dasharray:none;stroke-dashoffset:0;stroke-opacity:1;-inkscape-stroke:none" d="m 112.83715,229.07153 c 4.77075,-4.73258 8.36772,-11.10446 16.68628,-10.88216" id="path13" sodipodi:nodetypes="cc" transform="translate(40.338531,-99.810226)"/>
            <path style="font-variation-settings:normal;opacity:1;vector-effect:none;fill:none;fill-opacity:1;stroke:#ff5555;stroke-width:2;stroke-linecap:round;stroke-linejoin:round;stroke-miterlimit:4.1;stroke-dasharray:none;stroke-dashoffset:0;stroke-opacity:1;-inkscape-stroke:none" d="m 112.95635,265.6293 c 4.69394,5.14116 8.37997,11.66572 17.56708,10.6399" id="path14" sodipodi:nodetypes="cc" transform="translate(40.338531,-99.810226)"/>
            <path style="font-variation-settings:normal;opacity:1;vector-effect:none;fill:none;fill-opacity:1;stroke:#ff5555;stroke-width:2;stroke-linecap:round;stroke-linejoin:round;stroke-miterlimit:4.1;stroke-dasharray:none;stroke-dashoffset:0;stroke-opacity:1;-inkscape-stroke:none" d="m 19.293609,118.37915 c 8.142542,8.73315 20.406163,4.56357 26.967852,11.07665" id="path5" sodipodi:nodetypes="cc" inkscape:label="path5"/>
        </g>
        <path id="path1-5-0" style="fill:none;stroke:#50fa7b;stroke-width:2;stroke-linecap:round;stroke-linejoin:round;stroke-miterlimit:4.1;stroke-dasharray:none" d="m 189.44306,20.651882 a 25.925527,25.925527 0 0 1 -25.92552,25.92553 25.925527,25.925527 0 0 1 -25.92553,-25.92553 25.925527,25.925527 0 0 1 25.92553,-25.9255205 25.925527,25.925527 0 0 1 25.92552,25.9255205 z"/>
    </g>
</svg>
