<!-- Created with Inkscape (http://www.inkscape.org/) -->
<svg xmlns:inkscape="http://www.inkscape.org/namespaces/inkscape" xmlns:sodipodi="http://sodipodi.sourceforge.net/DTD/sodipodi-0.dtd" xmlns:xlink="http://www.w3.org/1999/xlink" xmlns="http://www.w3.org/2000/svg" xmlns:svg="http://www.w3.org/2000/svg" viewBox="0 0 190.45123 190.28697" version="1.1" id="svg21826" xml:space="preserve" inkscape:version="1.2.2 (732a01da63, 2022-12-09)" sodipodi:docname="Mont.svg">
    <sodipodi:namedview id="namedview21828" pagecolor="#ffffff" bordercolor="#666666" borderopacity="1.0" inkscape:showpageshadow="2" inkscape:pageopacity="0.0" inkscape:pagecheckerboard="0" inkscape:deskcolor="#d1d1d1" inkscape:document-units="mm" showgrid="false" inkscape:zoom="1.1893044" inkscape:cx="284.19974" inkscape:cy="388.46237" inkscape:window-width="1920" inkscape:window-height="1120" inkscape:window-x="-11" inkscape:window-y="-11" inkscape:window-maximized="1" inkscape:current-layer="layer1"/>
    <defs id="defs21823"/>
    <g inkscape:label="Layer 1" inkscape:groupmode="layer" id="layer1" transform="translate(-9.2228509,-48.352349)">
        <g id="g28884">
            <path class=" fill-orange  stroke-orange  " style="fill:#ffb86c;fill-opacity:1;stroke-width:0.352778;stroke:#ffb86c;stroke-opacity:1" d="m 46.654052,213.00814 c -2.056233,-1.62536 -2.119983,-1.89587 -1.333765,-5.65953 0.454233,-2.17444 0.703404,-4.17862 1.64471,-13.22916 0.924271,-8.88671 2.326121,-12.44725 9.584754,-24.3442 5.48944,-8.99724 5.97179,-11.79378 2.740871,-15.89081 -0.7571,-0.96005 -1.688959,-2.14959 -2.070795,-2.64341 l -0.694245,-0.89786 1.578176,-1.64681 1.578176,-1.64682 2.01035,2.21926 c 3.443294,3.80111 4.130703,5.40347 4.106739,9.57287 -0.02808,4.88645 -1.018491,7.1513 -7.63626,17.4625 -4.591589,7.15419 -5.836874,11.41755 -7.0069,23.98889 -0.225728,2.42534 -0.631299,5.52097 -0.901263,6.87916 -0.269963,1.3582 -0.663575,3.34257 -0.874687,4.40973 -0.598975,3.02772 -0.659631,3.05945 -2.725861,1.42619 z m 113.974208,1.19147 c 0.25218,-0.41391 -0.41129,-2.86296 -2.60832,-9.6281 -3.05272,-9.4 -4.85469,-12.14697 -12.42736,-18.94453 l -2.77672,-2.4925 1.8546,-1.33241 c 2.33914,-1.6805 2.33707,-1.68145 7.58548,3.49793 4.86336,4.79939 6.7511,7.83504 9.43323,15.16945 2.49556,6.82423 3.28299,9.91885 2.70197,10.61893 -0.60513,0.72914 -4.04377,3.57229 -3.76288,3.11123 z m -44.43163,-30.33183 c -3.96516,-0.8694 -8.64495,-3.75377 -13.09206,-8.06924 l -2.22583,-2.15995 1.57352,-1.66582 c 1.90519,-2.01695 1.3506,-2.10113 4.28926,0.65105 3.26051,3.05361 7.10343,5.60703 9.47718,6.2971 9.25607,2.69081 27.17745,-4.66051 31.16702,-12.78467 1.14526,-2.33215 1.27692,-5.65803 0.31276,-7.90061 -0.78246,-1.81994 -0.77897,-1.82805 1.23255,-2.87167 2.27125,-1.17836 2.22267,-1.18493 2.88971,0.39089 1.814,4.28546 1.78439,8.46856 -0.0872,12.31354 -4.80814,9.87799 -23.8772,18.35591 -35.53694,15.79938 z m -42.439829,-2.28673 c -2.259955,-0.32036 -6.652112,-1.47676 -9.071438,-2.38839 -1.942073,-0.73179 -2.0086,-1.05735 -0.654441,-3.20248 1.104261,-1.74926 0.981759,-1.7454 5.845323,-0.18428 9.428074,3.02625 14.982402,0.62482 26.423976,-11.42449 10.558409,-11.11923 12.590359,-15.30323 11.725289,-24.14353 l -0.40685,-4.15764 1.65301,-1.58387 c 1.9996,-1.91595 2.02339,-1.91843 2.50533,-0.26095 1.56159,5.37057 1.51537,13.49638 -0.0986,17.3352 -2.19855,5.22925 -5.26444,9.30066 -12.874377,17.09678 -10.805453,11.06982 -16.68181,14.09951 -25.047222,12.91365 z M 131.90627,171.1007 c -2.01085,-2.3828 -3.28854,-8.33506 -2.38813,-11.12538 1.71824,-5.32475 5.19167,-8.07603 19.02755,-15.07159 12.59521,-6.36826 14.29684,-8.07067 14.27773,-14.28428 -0.008,-2.62689 -0.19595,-3.69977 -1.08828,-6.21475 l -1.07851,-3.03975 0.72294,-0.99243 c 2.47824,-3.40209 2.65661,-3.35001 4.44949,1.29909 3.09843,8.0345 2.43965,14.77711 -1.88533,19.29631 -2.11356,2.20847 -5.24856,4.13424 -13.53494,8.31424 -10.81051,5.45326 -14.21146,7.79975 -15.86803,10.94811 -0.85978,1.63405 -0.44518,5.00924 0.91038,7.41115 1.36464,2.418 1.42194,2.13778 -0.65206,3.18875 -2.08289,1.05548 -2.21959,1.06827 -2.89281,0.27053 z m -85.024641,-2.46945 c -5.066194,-5.15948 -6.102946,-10.57295 -3.192289,-16.66875 0.909584,-1.90494 3.980299,-6.34866 5.276852,-7.63628 0.998757,-0.99188 5.428598,-6.09102 6.85085,-7.88594 3.427973,-4.3262 3.620808,-6.7303 1.054897,-13.15169 -0.373331,-0.93429 -0.313507,-1.03061 1.259974,-2.02848 2.15271,-1.3652 2.360136,-1.33326 3.219937,0.49588 4.217127,8.97156 3.001878,12.61552 -8.505744,25.50474 -7.047057,7.89313 -7.717536,12.78808 -2.485457,18.14561 l 1.932231,1.97856 -0.997899,1.80872 c -1.286609,2.332 -1.612036,2.29053 -4.413352,-0.56237 z M 89.08248,160.1763 c -5.913801,-8.0362 -7.369842,-12.1487 -7.342117,-20.73741 0.03651,-11.30996 3.783577,-19.97271 9.916132,-22.92488 0.729682,-0.35126 1.602352,-0.77405 1.939268,-0.93953 2.177147,-1.06932 8.736037,0.66972 8.736037,2.31629 0,0.5716 -1.514,4.08562 -1.76027,4.08562 -0.12062,0 -0.757254,-0.39688 -1.414729,-0.88194 -6.411161,-4.73001 -13.583031,7.00787 -12.662578,20.72427 0.384147,5.72446 1.80975,9.24344 6.112613,15.08846 1.932477,2.62509 1.912923,2.38018 0.333879,4.1816 -1.66945,1.90454 -1.809584,1.8714 -3.858235,-0.91248 z m 45.79494,-17.14354 c -7.15456,-7.45073 -7.56793,-15.91185 -1.52558,-31.2268 3.5322,-8.95272 11.05104,-12.086557 18.63343,-7.76637 2.10666,1.20029 2.20359,1.5764 0.95527,3.7065 -1.07161,1.82856 -0.81924,1.80947 -3.81996,0.28898 -6.84468,-3.46827 -10.92973,0.88917 -14.39272,15.35243 -1.80715,7.54762 -0.8493,11.68011 3.85186,16.61823 3.04887,3.20255 2.99334,2.87318 0.70555,4.18521 -2.32643,1.3342 -1.9093,1.4438 -4.40785,-1.15818 z m -90.623776,-4.21607 c -8.322104,-10.67216 -2.80463,-20.30959 17.508712,-30.58263 11.537643,-5.83492 16.275703,-4.08207 21.045424,7.78574 0.501167,1.24699 0.482706,1.32314 -0.82962,3.4223 -0.738205,1.18082 -1.476901,2.10981 -1.641542,2.06444 -0.164645,-0.0454 -1.209421,-2.07154 -2.321726,-4.5026 -2.487613,-5.43692 -3.290133,-6.56228 -5.057292,-7.09173 -2.783903,-0.83408 -10.043428,2.45312 -19.706886,8.9235 -8.137737,5.4488 -10.044477,11.34246 -5.439943,16.81464 1.210793,1.43894 1.146711,1.81084 -0.608922,3.53386 l -1.50773,1.47973 z m 48.796905,-4.02242 c -1.317484,-0.22437 -1.467877,-0.77811 -0.818254,-3.01274 l 0.544851,-1.87422 2.768089,0.12571 c 6.222055,0.28256 8.275355,-2.00016 12.958825,-14.40663 3.34575,-8.86288 5.17808,-11.04738 9.23583,-11.01092 2.38437,0.0214 3.47187,0.44228 6.64052,2.56985 4.446,2.98523 4.41371,2.93217 3.44498,5.6597 -0.72601,2.04412 -0.93299,2.08197 -2.95328,0.53995 -7.97964,-6.09058 -8.17626,-5.99408 -12.83209,6.29836 -2.6194,6.91582 -3.34267,8.25431 -5.84232,10.81186 -3.60215,3.68557 -8.104606,5.15787 -13.147151,4.29908 z m 49.674311,-11.62254 c -2.96994,-0.4324 -3.05603,-0.57135 -2.09723,-3.3853 l 0.54862,-1.61009 2.89097,0.17278 c 5.82596,0.34821 10.48877,-2.97001 13.7406,-9.77829 2.70095,-5.65492 3.31306,-9.149732 3.8029,-21.712565 0.52611,-13.493229 0.4411,-13.22999 3.36419,-10.417808 l 1.78895,1.72107 -0.10142,2.063681 c -0.0558,1.135025 -0.27953,5.714932 -0.49723,10.17757 -0.40527,8.307903 -1.08664,12.888582 -2.48653,16.716242 -4.04923,11.0716 -12.21237,17.32538 -20.95382,16.05271 z m -93.998602,-14.5127 c -2.498443,-5.39411 -3.161397,-9.05109 -3.565381,-19.667363 -0.1772,-4.656666 -0.470094,-9.419166 -0.650871,-10.583333 l -0.328691,-2.116667 1.807849,-1.680798 c 2.125885,-1.976483 2.46996,-1.961361 2.76461,0.121504 0.88403,6.249098 1.36162,11.771375 1.370507,15.846794 0.01288,5.907896 0.415417,8.777387 1.776557,12.664233 0.584436,1.66891 1.145776,3.27355 1.247422,3.56587 0.125533,0.36102 -0.420754,0.89851 -1.703109,1.6757 -2.277667,1.38041 -2.163519,1.3731 -2.718893,0.17406 z" id="path28888"/>
        </g>
        <g id="g21848" style="display:inline">
            <path class="fill-highlight" style="fill:#6272a4;fill-opacity:1;stroke:none;stroke-width:0.352778;stroke-opacity:1" d="M 95.986727,238.49586 C 55.96666,234.86994 22.490082,206.59238 12.232833,167.74923 c -4.0133095,-15.198 -4.0133095,-33.36826 0,-48.56626 9.679369,-36.654787 39.637477,-63.733936 77.403894,-69.965414 6.991548,-1.153609 22.641783,-1.153609 29.633333,0 41.25671,6.807379 72.6245,38.175164 79.43188,79.431874 1.84983,11.21107 0.9976,27.64223 -2.02799,39.0998 -9.6571,36.57046 -39.81128,63.87166 -77.2275,69.92077 -4.45449,0.72016 -18.98182,1.23157 -23.459723,0.82586 z m 22.401393,-5.72037 c 52.7555,-8.69562 86.4767,-59.58006 73.70138,-111.21356 -8.70542,-35.184345 -37.59744,-61.552962 -73.87777,-67.425367 -6.89864,-1.116626 -21.006787,-1.117826 -27.693058,-0.0024 -39.312737,6.558542 -69.068477,36.348289 -75.385466,75.471627 -1.068038,6.61474 -1.147323,20.30013 -0.154896,26.73666 6.488217,42.08024 39.945426,73.56139 82.066751,77.21968 4.230239,0.3674 17.253599,-0.11262 21.343059,-0.78668 z" id="path21850" inkscape:label="path21850"/>
        </g>
        <ellipse class="stroke-purple" style="fill:none;stroke:#bd93f9;stroke-width:1.086;stroke-linejoin:round;stroke-dashoffset:130.744;paint-order:stroke markers fill" id="path861" cx="54.161583" cy="144.79265" rx="21.579491" ry="48.387001"/>
        <ellipse class="stroke-purple" style="fill:none;stroke:#bd93f9;stroke-width:1.086;stroke-linejoin:round;stroke-dashoffset:130.744;paint-order:stroke markers fill" id="path861-4" cx="98.877853" cy="144.45894" rx="21.579491" ry="48.387001"/>
        <ellipse class="stroke-purple" style="fill:none;stroke:#bd93f9;stroke-width:1.223;stroke-linejoin:round;stroke-dashoffset:130.744;paint-order:stroke markers fill" id="path861-4-4" cx="148.82214" cy="143.12413" rx="27.406416" ry="48.318501"/>
    </g>
</svg>
