<svg xmlns="http://www.w3.org/2000/svg" viewBox="0 0 185.239 100.338">
  <path d="m25 150 10-15m0 0 10 15" class="stroke-comment fill-comment" style="display:inline;fill:none;stroke:#616161;stroke-width:1.065;stroke-dasharray:none;stroke-opacity:1" transform="translate(-17.053 -119.158)"/>
  <path d="M22.523 148.425q.224.048.35.2.127.152.127.375 0 .343-.236.53-.235.188-.67.188-.145 0-.3-.03-.154-.028-.318-.085v-.302q.13.076.285.114.155.04.324.04.295 0 .448-.117.155-.116.155-.338 0-.205-.144-.32-.142-.116-.398-.116h-.27v-.257h.282q.231 0 .354-.092.122-.093.122-.266 0-.178-.127-.273-.126-.096-.361-.096-.129 0-.276.028t-.324.087v-.28q.178-.05.333-.074.157-.025.295-.025.356 0 .564.163.208.161.208.437 0 .193-.11.326-.11.132-.313.183z" aria-label="3" class="stroke-comment fill-comment stroke-comment" style="font-size:3.175px;display:inline;fill:#616161;stroke:#616161;stroke-width:.265" transform="translate(-17.053 -119.158)"/>
  <path d="M33.012 133.778h1.093v.264h-1.47v-.264q.179-.184.486-.494.308-.312.387-.402.15-.169.21-.285.06-.118.06-.231 0-.185-.13-.3-.129-.117-.336-.117-.148 0-.312.051-.163.051-.349.155v-.316q.19-.076.354-.115t.3-.039q.36 0 .574.18t.214.48q0 .143-.054.272-.053.127-.194.3-.039.046-.247.261-.207.214-.586.6zm39.084 1.606h1.093v.264h-1.47v-.264q.178-.184.485-.494.309-.312.388-.402.15-.169.21-.285.06-.118.06-.231 0-.184-.13-.3-.13-.117-.337-.117-.147 0-.312.051-.162.051-.348.155v-.316q.189-.076.353-.115t.3-.039q.36 0 .575.18.213.18.213.48 0 .143-.054.272-.053.127-.194.3-.038.046-.246.261z" aria-label="2" class="stroke-comment fill-comment stroke-comment" style="font-size:3.175px;display:inline;fill:#616161;stroke:#616161;stroke-width:.265" transform="translate(-17.053 -119.158)"/>
  <path d="M47.149 148.958h.836v.254h-.836Zm2.279-.25q.225.047.35.199.127.152.127.375 0 .343-.235.53-.236.188-.67.188-.146 0-.3-.03-.154-.027-.319-.085v-.302q.13.076.286.115.155.038.324.038.294 0 .448-.116t.155-.338q0-.204-.144-.32-.143-.115-.399-.115h-.27v-.258h.283q.23 0 .353-.091.123-.093.123-.267 0-.178-.128-.273-.125-.096-.36-.096-.13 0-.277.028t-.324.087v-.28q.178-.049.334-.074t.294-.024q.357 0 .564.162.208.162.208.437 0 .193-.11.326-.11.132-.313.183zm11.816 2.968h.835v.254h-.835Z" aria-label="-3" class="stroke-comment fill-comment stroke-comment" style="font-size:3.175px;display:inline;fill:#616161;stroke:#616161;stroke-width:.265" transform="translate(-17.053 -119.158)"/>
  <path d="M25.546 148.844a1.165 1.18 26.087 0 1 .527 1.573 1.165 1.18 26.087 0 1-1.565.548 1.165 1.18 26.087 0 1-.527-1.573 1.165 1.18 26.087 0 1 1.565-.548m10.634-13.856a1.18 1.165 0 0 1-1.18 1.165 1.18 1.165 0 0 1-1.18-1.165 1.18 1.165 0 0 1 1.18-1.164 1.18 1.165 0 0 1 1.18 1.164m9.293 13.846a1.165 1.18 26.087 0 1 .527 1.573 1.165 1.18 26.087 0 1-1.565.548 1.165 1.18 26.087 0 1-.527-1.573 1.165 1.18 26.087 0 1 1.565-.548" class="stroke-comment fill-comment" style="display:inline;fill:#616161;stroke-width:.0762529" transform="translate(-17.053 -119.158)"/>
  <path d="m35 135 16-11" class="stroke-comment fill-comment" style="display:inline;fill:none;stroke:#616161;stroke-width:1.065;stroke-dasharray:none;stroke-opacity:1" transform="translate(-17.053 -119.158)"/>
  <path d="m54 124 15.906 10.602" class="stroke-comment fill-comment" style="fill:none;stroke:#616161;stroke-width:1.06583;stroke-linejoin:round;stroke-miterlimit:4.1;stroke-dasharray:none" transform="translate(-17.053 -119.158)"/>
  <path d="M69.502 135.711a1.165 1.18 20 0 1-.69-1.508 1.165 1.18 20 0 1 1.497-.71A1.165 1.18 20 0 1 71 135a1.165 1.18 20 0 1-1.498.711" class="stroke-comment fill-comment" style="display:inline;fill:#616161;stroke-width:.0762529" transform="translate(-17.053 -119.158)"/>
  <path d="M69.906 134.602 60 150m-.118-.159" class="stroke-comment fill-comment" style="fill:none;stroke:#616161;stroke-width:1.06583;stroke-linejoin:round;stroke-miterlimit:4.1;stroke-dasharray:none" transform="translate(-17.053 -119.158)"/>
  <path d="M59.69 151.046a1.165 1.18 20 0 1-.69-1.508 1.165 1.18 20 0 1 1.498-.711 1.165 1.18 20 0 1 .69 1.508 1.165 1.18 20 0 1-1.497.71" class="stroke-comment fill-comment" style="display:inline;fill:#616161;stroke-width:.0762529" transform="translate(-17.053 -119.158)"/>
  <path d="M55.085 122.197a2.38 2.375 0 0 1-2.38 2.374 2.38 2.375 0 0 1-2.38-2.374 2.38 2.375 0 0 1 2.38-2.375 2.38 2.375 0 0 1 2.38 2.375z" style="display:inline;fill:none;stroke:#ff4136;stroke-width:.982677" transform="translate(-17.053 -119.158)"/>
  <path d="M52.178 123h.512v-1.766l-.557.112v-.285l.554-.112H53V123h.512v.264h-1.334z" aria-label="1" style="font-size:3.175px;display:inline;fill:#ff4136;stroke:#ff4136;stroke-width:.265" transform="translate(-17.053 -119.158)"/>
  <path d="M70.257 153.69h.512v-1.766l-.556.112v-.285l.553-.112h.313v2.051h.512v.264h-1.334z" aria-label="1" class="stroke-comment fill-comment stroke-comment" style="font-size:3.175px;fill:#616161;stroke:#616161;stroke-width:.265" transform="translate(-37.822 -104.082)"/>
  <path d="M73.211 152.775a2.38 2.375 0 0 1-2.38 2.375 2.38 2.375 0 0 1-2.38-2.375 2.38 2.375 0 0 1 2.38-2.374 2.38 2.375 0 0 1 2.38 2.374z" class="stroke-comment fill-comment" style="fill:none;stroke:#616161;stroke-width:.982677" transform="translate(-37.822 -104.082)"/>
  <path d="M47.781 167.419q-.242 0-.364.239-.121.237-.121.714 0 .476.12.715.123.237.365.237.244 0 .364-.237.123-.239.123-.715 0-.477-.123-.714-.12-.24-.364-.24zm0-.248q.39 0 .594.308.206.307.206.893 0 .585-.206.893-.205.307-.594.307t-.595-.307q-.205-.308-.205-.893 0-.586.205-.893.206-.308.595-.308z" aria-label="0" class="stroke-comment fill-comment stroke-comment" style="font-size:3.175px;fill:#616161;stroke:#616161;stroke-width:.265" transform="translate(-36.898 -86.129)"/>
  <path d="m62.688 183.504-.79 1.236h.79zm-.082-.273H63v1.509h.33v.26H63v.546h-.312V185h-1.045v-.302z" aria-label="4" class="stroke-comment fill-comment stroke-comment" style="font-size:3.175px;fill:#616161;stroke:#616161;stroke-width:.265" transform="translate(-36.898 -86.129)"/>
  <path d="M38.077 184.869q.225.048.35.2.127.152.127.375 0 .342-.235.53-.236.188-.67.188-.146 0-.3-.03-.154-.028-.319-.085v-.302q.13.076.286.114.155.04.324.04.294 0 .448-.117.155-.116.155-.338 0-.205-.144-.32-.143-.116-.399-.116h-.27v-.257h.283q.23 0 .353-.092.123-.093.123-.266 0-.179-.128-.273-.125-.096-.36-.096-.13 0-.277.028t-.324.086v-.279q.178-.05.334-.074.156-.025.294-.025.357 0 .564.163.208.161.208.437 0 .192-.11.326-.11.131-.313.183z" aria-label="3" class="stroke-comment fill-comment stroke-comment" style="font-size:3.175px;fill:#616161;stroke:#616161;stroke-width:.265" transform="translate(-36.898 -86.129)"/>
  <path d="M67.835 136.133 50 170l10 15" class="stroke-comment fill-comment" style="fill:none;stroke:#616161;stroke-width:1.06583;stroke-dasharray:none;stroke-opacity:1" transform="translate(-36.898 -86.129)"/>
  <path d="m50 170-10 15m29.978-34.867L70 137" class="stroke-comment fill-comment" style="fill:none;stroke:#616161;stroke-width:1.065;stroke-dasharray:none;stroke-opacity:1" transform="translate(-36.898 -86.129)"/>
  <path d="M49.69 171.102a1.165 1.18 20 0 1-.69-1.508 1.165 1.18 20 0 1 1.498-.71 1.165 1.18 20 0 1 .69 1.507 1.165 1.18 20 0 1-1.497.711m-9.948 14.792a1.165 1.18 20 0 1-.69-1.508 1.165 1.18 20 0 1 1.497-.711 1.165 1.18 20 0 1 .691 1.508 1.165 1.18 20 0 1-1.498.71m19.864.001a1.165 1.18 20 0 1-.691-1.508 1.165 1.18 20 0 1 1.498-.711 1.165 1.18 20 0 1 .69 1.508 1.165 1.18 20 0 1-1.497.71" class="stroke-comment fill-comment" style="fill:#616161;stroke-width:.0762529" transform="translate(-36.898 -86.129)"/>
  <path d="M89.333 174.736h.512v-1.765l-.557.111v-.285l.554-.112h.313v2.051h.512V175h-1.334z" aria-label="1" class="stroke-comment fill-comment stroke-comment" style="font-size:3.175px;fill:#616161;stroke:#616161;stroke-width:.265" transform="translate(-36.898 -86.129)"/>
  <path d="M102.642 185.736h1.093V186h-1.47v-.264q.178-.184.485-.494.309-.312.388-.402.15-.169.21-.285.06-.118.06-.23 0-.185-.13-.302t-.337-.116q-.147 0-.311.051-.163.052-.35.155v-.316q.19-.076.354-.115.165-.038.3-.038.36 0 .575.18.213.18.213.48 0 .143-.054.271-.053.127-.194.301-.038.045-.246.26zm-25.942.094h1.094v.263h-1.47v-.264q.178-.184.485-.494.309-.312.388-.402.15-.169.21-.285.06-.118.06-.231 0-.184-.13-.3Q77.206 184 77 184q-.147 0-.312.051-.162.051-.348.155v-.316q.189-.076.353-.115t.3-.039q.36 0 .574.18t.214.48q0 .144-.054.272-.053.127-.194.3-.038.046-.246.261z" aria-label="2" class="stroke-comment fill-comment stroke-comment" style="font-size:3.175px;fill:#616161;stroke:#616161;stroke-width:.265" transform="translate(-36.898 -86.129)"/>
  <path d="M70 153q-.223 0-.352.12-.127.119-.127.328t.127.329q.129.12.352.12t.352-.12q.129-.121.129-.329 0-.21-.13-.329Q70.226 153 70 153Zm-.313-.133q-.202-.05-.315-.188-.111-.138-.111-.336 0-.278.196-.439.199-.161.543-.161.346 0 .543.161.196.161.196.439 0 .198-.113.336-.111.138-.311.188.226.052.352.206.127.153.127.375 0 .336-.206.516-.205.18-.588.18t-.59-.18q-.204-.18-.204-.516 0-.222.127-.375.127-.154.354-.206zm-.115-.495q0 .18.112.28.113.102.316.102.202 0 .315-.101.114-.101.114-.28t-.114-.281q-.113-.101-.315-.101-.203 0-.316.1-.112.101-.112.281z" aria-label="8" class="stroke-comment fill-comment stroke-comment" style="font-size:3.175px;fill:#616161;stroke:#616161;stroke-width:.265" transform="translate(-36.898 -86.129)"/>
  <path d="m72 136 18 34 10 15" class="stroke-comment fill-comment" style="fill:none;stroke:#616161;stroke-width:1.06583;stroke-dasharray:none;stroke-opacity:1" transform="translate(-36.898 -86.129)"/>
  <path d="m90 170-10 15" class="stroke-comment fill-comment" style="fill:none;stroke:#616161;stroke-width:1.065;stroke-dasharray:none;stroke-opacity:1" transform="translate(-36.898 -86.129)"/>
  <path d="M91 170.722a1.18 1.165 33.033 0 1-1.625.333 1.18 1.165 33.033 0 1-.354-1.62 1.18 1.165 33.033 0 1 1.624-.333 1.18 1.165 33.033 0 1 .355 1.62M80.982 185.68a1.18 1.165 33.033 0 1-1.625.332 1.18 1.165 33.033 0 1-.354-1.62 1.18 1.165 33.033 0 1 1.624-.333 1.18 1.165 33.033 0 1 .355 1.62m-10.004-34.902a1.18 1.165 33.033 0 1-1.624.333 1.18 1.165 33.033 0 1-.355-1.62 1.18 1.165 33.033 0 1 1.625-.333 1.18 1.165 33.033 0 1 .354 1.62m30.026 34.843a1.18 1.165 33.033 0 1-1.625.333 1.18 1.165 33.033 0 1-.355-1.62 1.18 1.165 33.033 0 1 1.625-.333 1.18 1.165 33.033 0 1 .355 1.62" class="stroke-comment fill-comment" style="fill:#616161;stroke-width:.0762529" transform="translate(-36.898 -86.129)"/>
  <path d="M69.906 134.602 60 150m0 0-9.906 15.398m-.118-.159" class="stroke-comment fill-comment" style="fill:none;stroke:#616161;stroke-width:1.06583;stroke-linejoin:round;stroke-miterlimit:4.1;stroke-dasharray:none" transform="translate(-17.053 -119.158)"/>
  <path d="M62.904 152.718h1.093v.263h-1.47v-.263q.179-.185.486-.495.308-.311.387-.401.15-.17.21-.286.06-.117.06-.23 0-.185-.13-.301-.129-.117-.336-.117-.148 0-.312.052-.163.05-.349.155v-.317q.19-.076.354-.114.164-.04.3-.04.36 0 .574.18t.214.481q0 .143-.054.272-.053.127-.194.3-.039.045-.247.26-.207.215-.586.6z" aria-label="2" class="stroke-comment fill-comment stroke-comment" style="font-size:3.175px;display:inline;fill:#616161;stroke:#616161;stroke-width:.265" transform="translate(-17.053 -119.158)"/>
  <path d="m80.201 150.345-10-15m0 0-10 15" class="stroke-comment fill-comment" style="display:inline;fill:none;stroke:#616161;stroke-width:1.065;stroke-dasharray:none;stroke-opacity:1" transform="translate(97.091 -119.33)"/>
  <path d="M79.655 149.19a1.18 1.165 63.913 0 0-.527 1.572 1.18 1.165 63.913 0 0 1.565.548 1.18 1.165 63.913 0 0 .527-1.573 1.18 1.165 63.913 0 0-1.565-.548M69.02 135.333a1.18 1.165 0 0 0 1.181 1.165 1.18 1.165 0 0 0 1.18-1.165 1.18 1.165 0 0 0-1.18-1.164 1.18 1.165 0 0 0-1.18 1.164m-9.293 13.847a1.18 1.165 63.913 0 0-.527 1.572 1.18 1.165 63.913 0 0 1.565.548 1.18 1.165 63.913 0 0 .527-1.573 1.18 1.165 63.913 0 0-1.565-.548" class="stroke-comment fill-comment" style="display:inline;fill:#616161;stroke-width:.0762529" transform="translate(97.091 -119.33)"/>
  <path d="m35 135 16-11" class="stroke-comment fill-comment" style="display:inline;fill:none;stroke:#616161;stroke-width:1.065;stroke-dasharray:none;stroke-opacity:1" transform="translate(97.091 -119.33)"/>
  <path d="m54 124 15.906 10.602" class="stroke-comment fill-comment" style="fill:none;stroke:#616161;stroke-width:1.06583;stroke-linejoin:round;stroke-miterlimit:4.1;stroke-dasharray:none" transform="translate(97.091 -119.33)"/>
  <path d="M35.7 136.056a1.18 1.165 70 0 0 .69-1.508 1.18 1.165 70 0 0-1.498-.71 1.18 1.165 70 0 0-.69 1.507 1.18 1.165 70 0 0 1.497.711" class="stroke-comment fill-comment" style="display:inline;fill:#616161;stroke-width:.0762529" transform="translate(97.091 -119.33)"/>
  <path d="m35.296 134.947 9.905 15.398m.118-.159" class="stroke-comment fill-comment" style="fill:none;stroke:#616161;stroke-width:1.06583;stroke-linejoin:round;stroke-miterlimit:4.1;stroke-dasharray:none" transform="translate(97.091 -119.33)"/>
  <path d="M45.51 151.39a1.18 1.165 70 0 0 .691-1.507 1.18 1.165 70 0 0-1.498-.711 1.18 1.165 70 0 0-.69 1.508 1.18 1.165 70 0 0 1.497.71" class="stroke-comment fill-comment" style="display:inline;fill:#616161;stroke-width:.0762529" transform="translate(97.091 -119.33)"/>
  <path d="M55.085 122.197a2.38 2.375 0 0 1-2.38 2.374 2.38 2.375 0 0 1-2.38-2.374 2.38 2.375 0 0 1 2.38-2.375 2.38 2.375 0 0 1 2.38 2.375z" style="display:inline;fill:none;stroke:#ff4136;stroke-width:.982677" transform="translate(97.091 -119.33)"/>
  <path d="M52.759 168.196a2.38 2.375 0 0 0 2.38 2.375 2.38 2.375 0 0 0 2.38-2.375 2.38 2.375 0 0 0-2.38-2.375 2.38 2.375 0 0 0-2.38 2.375z" class="stroke-comment fill-comment" style="fill:none;stroke:#616161;stroke-width:.982677" transform="translate(97.091 -119.33)"/>
  <path d="m57.21 169.507 17.836 33.867-10 15" class="stroke-comment fill-comment" style="fill:none;stroke:#616161;stroke-width:1.06583;stroke-dasharray:none;stroke-opacity:1" transform="translate(97.091 -119.33)"/>
  <path d="m75.046 203.374 10 15m-29.977-34.867-.023-13.133" class="stroke-comment fill-comment" style="fill:none;stroke:#616161;stroke-width:1.065;stroke-dasharray:none;stroke-opacity:1" transform="translate(97.091 -119.33)"/>
  <path d="M75.355 204.477a1.18 1.165 70 0 0 .691-1.508 1.18 1.165 70 0 0-1.498-.711 1.18 1.165 70 0 0-.69 1.508 1.18 1.165 70 0 0 1.497.71m9.948 14.792a1.18 1.165 70 0 0 .69-1.508 1.18 1.165 70 0 0-1.497-.71 1.18 1.165 70 0 0-.691 1.507 1.18 1.165 70 0 0 1.498.711m-19.863 0a1.18 1.165 70 0 0 .69-1.508 1.18 1.165 70 0 0-1.498-.71 1.18 1.165 70 0 0-.69 1.507 1.18 1.165 70 0 0 1.497.711" class="stroke-comment fill-comment" style="fill:#616161;stroke-width:.0762529" transform="translate(97.091 -119.33)"/>
  <path d="m53.046 169.374-18 34-10 15" class="stroke-comment fill-comment" style="fill:none;stroke:#616161;stroke-width:1.06583;stroke-dasharray:none;stroke-opacity:1" transform="translate(97.091 -119.33)"/>
  <path d="m35.046 203.374 10 15" class="stroke-comment fill-comment" style="fill:none;stroke:#616161;stroke-width:1.065;stroke-dasharray:none;stroke-opacity:1" transform="translate(97.091 -119.33)"/>
  <path d="M34.046 204.096a1.165 1.18 56.967 0 0 1.625.333 1.165 1.18 56.967 0 0 .355-1.62 1.165 1.18 56.967 0 0-1.625-.333 1.165 1.18 56.967 0 0-.355 1.62m10.018 14.958a1.165 1.18 56.967 0 0 1.625.333 1.165 1.18 56.967 0 0 .355-1.62 1.165 1.18 56.967 0 0-1.625-.333 1.165 1.18 56.967 0 0-.355 1.62m10.004-34.903a1.165 1.18 56.967 0 0 1.624.333 1.165 1.18 56.967 0 0 .355-1.62 1.165 1.18 56.967 0 0-1.625-.333 1.165 1.18 56.967 0 0-.354 1.62m-30.025 34.843a1.165 1.18 56.967 0 0 1.624.333 1.165 1.18 56.967 0 0 .355-1.62 1.165 1.18 56.967 0 0-1.625-.333 1.165 1.18 56.967 0 0-.354 1.62" class="stroke-comment fill-comment" style="fill:#616161;stroke-width:.0762529" transform="translate(97.091 -119.33)"/>
  <path d="m35.296 134.947 9.905 15.398m0 0 9.906 15.398m.118-.158" class="stroke-comment fill-comment" style="fill:none;stroke:#616161;stroke-width:1.06583;stroke-linejoin:round;stroke-miterlimit:4.1;stroke-dasharray:none" transform="translate(97.091 -119.33)"/>
  <path d="M54.424 169.11h.512v-1.765l-.557.112v-.286l.554-.111h.313v2.05h.512v.264h-1.334z" aria-label="1" class="stroke-comment fill-comment stroke-comment" style="font-size:3.175px;fill:#616161;stroke:#616161;stroke-width:.265" transform="translate(97.091 -119.33)"/>
  <path d="M83.248 148.77q.224.048.35.2.127.152.127.375 0 .343-.236.53-.235.188-.67.188-.145 0-.3-.03-.154-.027-.318-.085v-.302q.13.076.285.115.155.038.324.038.295 0 .448-.116.155-.116.155-.338 0-.205-.144-.32-.142-.116-.398-.116h-.27v-.257h.282q.231 0 .354-.091.122-.093.122-.267 0-.178-.127-.273-.126-.096-.361-.096-.129 0-.276.028t-.324.087v-.28q.178-.049.333-.074.157-.025.295-.025.356 0 .564.163.208.161.208.437 0 .193-.11.326-.11.132-.313.183z" aria-label="3" class="stroke-comment fill-comment stroke-comment" style="font-size:3.175px;display:inline;fill:#616161;stroke:#616161;stroke-width:.265" transform="translate(97.091 -119.33)"/>
  <path d="M72.856 135.459h1.093v.263h-1.47v-.263q.178-.185.485-.495.309-.311.388-.401.15-.17.21-.286.06-.117.06-.23 0-.185-.13-.301-.13-.117-.337-.117-.147 0-.312.052-.162.05-.348.155v-.317q.189-.076.353-.114.164-.04.3-.04.36 0 .574.18t.214.481q0 .143-.054.272-.053.127-.194.3-.038.045-.246.26t-.586.6zm-40.855.195h1.093v.264h-1.47v-.264q.179-.184.486-.494.308-.312.387-.402.15-.169.21-.285.06-.118.06-.231 0-.185-.13-.3-.129-.117-.337-.117-.147 0-.311.051-.163.051-.349.155v-.316q.19-.076.353-.115.165-.039.301-.039.36 0 .574.18t.214.48q0 .143-.054.272-.053.127-.194.3-.039.046-.247.261z" aria-label="2" class="stroke-comment fill-comment stroke-comment" style="font-size:3.175px;display:inline;fill:#616161;stroke:#616161;stroke-width:.265" transform="translate(97.091 -119.33)"/>
  <path d="M55.296 149.303h.835v.255h-.835zm2.279-.25q.224.047.35.2.127.151.127.374 0 .343-.235.53-.236.188-.67.188-.146 0-.301-.03-.153-.027-.318-.085v-.302q.13.076.285.115.156.039.324.039.295 0 .449-.117.155-.116.155-.338 0-.204-.145-.32-.142-.115-.398-.115h-.27v-.258h.282q.231 0 .354-.091.122-.093.122-.267 0-.178-.127-.273-.125-.096-.361-.096-.129 0-.276.028t-.324.087v-.28q.178-.049.333-.074.157-.024.295-.024.356 0 .564.162t.208.438q0 .192-.11.325-.11.132-.313.183z" aria-label="-3" class="stroke-comment fill-comment stroke-comment" style="font-size:3.175px;display:inline;fill:#616161;stroke:#616161;stroke-width:.265" transform="translate(97.091 -119.33)"/>
  <path d="M52.178 123h.512v-1.766l-.557.112v-.285l.554-.112H53V123h.512v.264h-1.334z" aria-label="1" style="font-size:3.175px;display:inline;fill:#ff4136;stroke:#ff4136;stroke-width:.265" transform="translate(97.091 -119.33)"/>
  <path d="M77.29 201.204q.242 0 .365.239.12.237.12.715 0 .476-.12.714-.123.238-.365.238-.243 0-.364-.238-.123-.238-.123-.714 0-.478.123-.715.12-.239.364-.239zm0-.248q-.389 0-.593.309-.207.307-.207.893 0 .584.207.893.204.307.593.307.39 0 .596-.307.204-.309.204-.893 0-.586-.204-.893-.207-.309-.596-.309z" aria-label="0" class="stroke-comment fill-comment stroke-comment" style="font-size:3.175px;fill:#616161;stroke:#616161;stroke-width:.265" transform="translate(97.091 -119.33)"/>
  <path d="m62.76 216.878-.79 1.236h.79zm-.081-.272h.393v1.508h.33v.26h-.33v.546h-.311v-.546h-1.045v-.302z" aria-label="4" class="stroke-comment fill-comment stroke-comment" style="font-size:3.175px;fill:#616161;stroke:#616161;stroke-width:.265" transform="translate(97.091 -119.33)"/>
  <path d="M87.538 218.243q.225.048.35.2.128.152.128.375 0 .343-.236.53-.236.188-.67.188-.145 0-.3-.03-.154-.027-.318-.085v-.302q.13.076.285.115t.324.039q.295 0 .448-.117.155-.116.155-.338 0-.204-.144-.32-.143-.115-.399-.115h-.27v-.258h.283q.23 0 .353-.091.123-.093.123-.267 0-.178-.127-.273-.126-.096-.362-.096-.128 0-.276.028-.147.028-.324.087v-.28q.179-.049.334-.074t.294-.024q.357 0 .565.162t.207.438q0 .192-.11.325-.11.132-.313.183z" aria-label="3" class="stroke-comment fill-comment stroke-comment" style="font-size:3.175px;fill:#616161;stroke:#616161;stroke-width:.265" transform="translate(97.091 -119.33)"/>
  <path d="M34.424 208.11h.512v-1.765l-.557.112v-.286l.554-.111h.313v2.05h.512v.264h-1.334z" aria-label="1" class="stroke-comment fill-comment stroke-comment" style="font-size:3.175px;fill:#616161;stroke:#616161;stroke-width:.265" transform="translate(97.091 -119.33)"/>
  <path d="M21.688 219.11h1.093v.264h-1.47v-.263q.179-.185.485-.495.309-.311.388-.401.15-.17.21-.285.06-.118.06-.231 0-.185-.13-.301t-.337-.116q-.147 0-.311.05-.163.052-.35.156v-.316q.19-.076.354-.115.165-.039.301-.039.36 0 .574.18t.214.48q0 .143-.055.272-.052.127-.194.3-.038.045-.246.26t-.586.6zm25.9-.114h1.093v.264h-1.47v-.264q.179-.184.486-.494.308-.312.387-.402.15-.169.21-.285.06-.118.06-.23 0-.185-.13-.302-.129-.116-.336-.116-.148 0-.312.051-.163.051-.349.155v-.316q.19-.076.354-.115.164-.038.3-.038.36 0 .574.18t.214.48q0 .143-.054.271-.053.127-.194.301-.039.045-.247.26-.207.214-.586.6z" aria-label="2" class="stroke-comment fill-comment stroke-comment" style="font-size:3.175px;fill:#616161;stroke:#616161;stroke-width:.265" transform="translate(97.091 -119.33)"/>
  <path d="M55.046 186.374q.223 0 .352.12.127.12.127.328 0 .21-.127.33-.129.119-.352.119t-.352-.12-.129-.329.13-.328q.126-.12.351-.12zm.313-.133q.202-.05.315-.187.112-.138.112-.337 0-.277-.197-.439-.199-.16-.543-.16-.346 0-.543.16-.196.162-.196.44 0 .198.113.336.111.138.311.187-.226.053-.352.206-.127.154-.127.375 0 .337.207.517.204.18.587.18t.59-.18q.204-.18.204-.517 0-.221-.127-.375-.127-.153-.354-.206zm.115-.494q0 .18-.112.28-.113.101-.316.101-.201 0-.315-.1-.114-.102-.114-.281t.114-.281q.114-.1.315-.1.203 0 .316.1t.112.28z" aria-label="8" class="stroke-comment fill-comment stroke-comment" style="font-size:3.175px;fill:#616161;stroke:#616161;stroke-width:.265" transform="translate(97.091 -119.33)"/>
  <path d="M42.297 153.063h-1.093v.263h1.47v-.263q-.179-.185-.486-.495-.308-.311-.387-.401-.15-.17-.21-.285-.06-.118-.06-.231 0-.185.13-.301.129-.116.337-.116.147 0 .311.05.163.052.349.156v-.316q-.19-.076-.354-.115t-.3-.039q-.36 0-.574.18t-.214.48q0 .143.054.272.053.127.194.3.039.046.247.26.207.215.586.6z" aria-label="2" class="stroke-comment fill-comment stroke-comment" style="font-size:3.175px;display:inline;fill:#616161;stroke:#616161;stroke-width:.265" transform="matrix(-1 0 0 1 181.451 -120.084)"/>
  <path d="M43.122 152.021h.836v.254h-.836z" aria-label="-3" class="stroke-comment fill-comment stroke-comment" style="font-size:3.175px;display:inline;fill:#616161;stroke:#616161;stroke-width:.265" transform="matrix(-1 0 0 1 181.451 -120.084)"/>
  <path d="m112.41 162.277.068 10.977 13.111-5.53zm-18.973 3.68v3.63h13.587v-3.63z" class="stroke-comment fill-comment" style="fill:none;stroke:#616161;stroke-width:7.68828;stroke-linejoin:miter;stroke-miterlimit:4.1" transform="translate(-17.053 -119.887)"/>
</svg>
