<?xml version="1.0" encoding="UTF-8" standalone="no"?>

<svg xmlns:inkscape="http://www.inkscape.org/namespaces/inkscape" xmlns:sodipodi="http://sodipodi.sourceforge.net/DTD/sodipodi-0.dtd" xmlns="http://www.w3.org/2000/svg" xmlns:svg="http://www.w3.org/2000/svg" version="1.1" id="svg444" viewBox="0 0 4986.8282 1570.1964" sodipodi:docname="flype.svg" inkscape:version="1.3.2 (091e20ef0f, 2023-11-25)">
  <sodipodi:namedview id="namedview446" pagecolor="#282a36" bordercolor="#666666" borderopacity="1.0" inkscape:showpageshadow="2" inkscape:pageopacity="0.0" inkscape:pagecheckerboard="0" inkscape:deskcolor="#d1d1d1" showgrid="true" inkscape:zoom="0.26116479" inkscape:cx="3478.6465" inkscape:cy="1232.938" inkscape:window-width="1920" inkscape:window-height="1126" inkscape:window-x="0" inkscape:window-y="0" inkscape:window-maximized="1" showguides="true" inkscape:current-layer="g452">
    <inkscape:page x="0" y="0" id="page450" width="4986.8281" height="1570.1964" margin="0" bleed="0"/>
    <sodipodi:guide position="1408.8278,693.96414" orientation="0.70710678,-0.70710678" id="guide1" inkscape:locked="false"/>
    <sodipodi:guide position="707.82699,694.11932" orientation="-0.70710678,-0.70710678" id="guide2" inkscape:locked="false"/>
    <sodipodi:guide position="1071.12,244.11932" orientation="1,0" id="guide3" inkscape:locked="false"/>
    <sodipodi:guide position="1058.3274,343.61889" orientation="0,-1" id="guide4" inkscape:locked="false"/>
    <sodipodi:guide position="1068.256,444.63657" orientation="0,-1" id="guide5" inkscape:locked="false"/>
    <sodipodi:guide position="1014.0558,244.11932" orientation="0,-1" id="guide6" inkscape:locked="false"/>
    <sodipodi:guide position="636.3188,418.97302" orientation="0,-1" id="guide7" inkscape:locked="false"/>
    <sodipodi:guide position="638.98801,268.45675" orientation="0,-1" id="guide8" inkscape:locked="false"/>
    <sodipodi:guide position="1045.5348,244.11932" orientation="1,0" id="guide9" inkscape:locked="false"/>
    <sodipodi:guide position="1408.8278,622.92176" orientation="1,0" id="guide10" inkscape:locked="false"/>
    <sodipodi:guide position="2107.827,622.92176" orientation="-1,0" id="guide11" inkscape:label="" inkscape:locked="false" inkscape:color="rgb(0,134,229)"/>
    <sodipodi:guide position="956.05632,694.11932" orientation="0,-1" id="guide12" inkscape:locked="false"/>
    <sodipodi:guide position="882.9345,-7.0358345" orientation="0,-1" id="guide13" inkscape:locked="false"/>
    <sodipodi:guide position="7.8269959,595.98214" orientation="-1,0" id="guide14" inkscape:locked="false" inkscape:label="" inkscape:color="rgb(0,134,229)"/>
    <sodipodi:guide position="673.39429,644.80415" orientation="0,-1" id="guide15" inkscape:locked="false"/>
    <sodipodi:guide position="707.82699,694.11932" orientation="0.70710678,-0.70710678" id="guide16" inkscape:locked="false"/>
    <sodipodi:guide position="707.82788,-7.0358345" orientation="-0.70710678,-0.70710678" id="guide17" inkscape:locked="false"/>
    <sodipodi:guide position="647.55596,44.186423" orientation="0,-1" id="guide18" inkscape:locked="false"/>
    <sodipodi:guide position="193.36366,393.30749" orientation="0,-1" id="guide41" inkscape:locked="false"/>
    <sodipodi:guide position="233.58884,294.15122" orientation="0,-1" id="guide42" inkscape:locked="false"/>
    <sodipodi:guide position="355.72473,-510.52046" orientation="0,-1" id="guide43" inkscape:locked="false"/>
    <sodipodi:guide position="355.72473,-510.52046" orientation="1,0" id="guide44" inkscape:locked="false"/>
    <sodipodi:guide position="79.285195,-460.9315" orientation="0,-1" id="guide45" inkscape:locked="false"/>
    <sodipodi:guide position="118.41427,-561.97368" orientation="0,-1" id="guide46" inkscape:locked="false"/>
    <sodipodi:guide position="2127.8269,1181.7125" orientation="0.70710678,-0.70710678" id="guide47" inkscape:locked="false"/>
    <inkscape:grid id="grid78" units="px" originx="707.82697" originy="8.4839532" spacingx="0.99999999" spacingy="1" empcolor="#0099e5" empopacity="0.30196078" color="#0099e5" opacity="0.14901961" empspacing="5" dotted="false" gridanglex="30" gridanglez="30" visible="true"/>
  </sodipodi:namedview>
  <defs id="defs448"/>
  <g id="g452" inkscape:groupmode="layer" inkscape:label="Page 1" transform="matrix(1.3333333,0,0,-1.3333333,707.7357,728.23876)">
    <path style="fill:#f8f8f2;stroke:none;stroke-width:8.01542;stroke-miterlimit:4.1;stroke-dasharray:none" d="m 365.0037,-219.83321 -20.3956,-2.5264 -0.4555,2.10885 -0.4554,2.10779 -0.5222,2.2164 -0.5041,2.10147 -0.5056,2.10252 -0.5056,2.10146 -0.5056,2.10253 -0.5862,2.21429 -0.557,2.09409 -0.5585,2.09408 -0.5572,2.09409 -0.6072,2.21956 -0.6154,2.08565 -0.6142,2.08565 -0.6143,2.08565 -0.6142,2.08567 -0.6977,2.21429 -0.6754,2.0751 -0.6754,2.07511 -0.6755,2.07405 -0.7436,2.21957 -0.7409,2.0614 -0.7411,2.06245 -0.7408,2.06139 -0.8064,2.22168 -0.8118,2.04663 -0.812,2.04559 -0.8119,2.04663 -0.89,2.22167 -0.8899,2.02766 -0.8899,2.02661 -0.8899,2.02765 -1.0013,2.21429 -0.9763,2.00552 -0.9749,2.00551 -0.9749,2.00447 -1.1503,2.19847 -1.0682,1.97704 -1.0709,1.97811 -1.2382,2.20269 -1.1754,1.94225 -1.1739,1.9433 -1.312,2.1331 -1.2618,1.91062 -1.3996,2.03609 -1.4455,2.02977 -1.3899,1.86 -1.5697,1.99075 -1.6364,1.97916 -1.7087,1.96334 -1.6113,1.7535 -1.876,1.89691 -1.972,1.86422 -2.0848,1.82627 -2.2061,1.77565 -2.3424,1.71238 -2.4929,1.63436 -2.6545,1.53419 -2.8285,1.40976 -3.0068,1.25688 -3.6781,1.20204 -3.398,0.79609 -3.9177,0.55252 -4.0234,0.17925 v -0.19928 -0.20035 -0.19928 -0.19929 -0.19928 -0.19929 -0.20034 -0.19823 -0.20034 -0.19929 -0.19823 -0.19929 -0.20034 -0.19928 -0.19929 -0.19929 -0.19928 -0.19929 -0.19929 -0.20034 -0.19928 -0.19929 -0.19928 -0.19824 -0.19928 -0.20034 -0.19929 -0.19929 -0.19928 -0.19929 -0.19928 -0.19929 -0.20034 -0.19929 -0.19928 -0.19929 l -0.14886,-6.3215 6.88106,-0.51433 1.9427,-0.79398 1.8885,-0.93211 1.83,-1.05337 1.7743,-1.16092 1.7158,-1.25266 1.6614,-1.3349 1.6099,-1.4045 1.5599,-1.4667 1.5151,-1.51943 1.6115,-1.7535 1.3926,-1.60589 1.3593,-1.64385 1.3258,-1.67548 1.3885,-1.86 1.2311,-1.73137 1.2088,-1.75561 1.2603,-1.91062 1.0655,-1.74086 1.1754,-1.94224 1.1741,-1.94225 0.9664,-1.72926 1.0711,-1.9781 1.0695,-1.97704 0.9289,-1.77144 0.9763,-2.00551 0.9749,-2.00446 0.9748,-2.00552 0.8231,-1.82837 0.8899,-2.02766 0.89,-2.0266 0.8899,-2.02766 0.7437,-1.86949 0.8118,-2.04664 0.812,-2.04558 0.812,-2.04664 0.6837,-1.89901 0.741,-2.0614 0.7409,-2.06245 0.7409,-2.0614 0.642,-1.92222 0.6754,-2.07405 0.6755,-2.07511 0.674,-2.07511 0.6142,-1.94015 0.6142,-2.08459 0.6142,-2.08566 0.6142,-2.08565 0.614,-2.08565 0.5363,-1.96439 0.557,-2.09409 0.5585,-2.09408 0.5584,-2.09409 0.5251,-1.97704 0.5056,-2.10147 0.5056,-2.10147 0.5041,-2.10252 0.5054,-2.10147 0.4708,-1.99286 0.4554,-2.1078 0.4554,-2.10884 -20.3943,-2.5264 41.6214,-101.1003 z" id="path16" sodipodi:nodetypes="ccccccccccccccccccccccccccccccccccccccccccccccccccccccccccccccccccccccccccccccccccccccccccccccccccccccccccccccccccccccccccccccccccccccccccccccccccccccccccccccccccccccc"/>
    <path style="fill:#f8f8f2;stroke:none;stroke-width:8.01439;stroke-miterlimit:4.1;stroke-dasharray:none" d="m 365.0037,134.5681 -20.3956,2.52575 -0.4555,-2.10831 -0.4554,-2.10724 -0.5222,-2.21584 -0.5041,-2.10093 -0.5056,-2.10198 -0.5056,-2.10092 -0.5056,-2.10199 -0.5862,-2.21372 -0.557,-2.09355 -0.5585,-2.09355 -0.5572,-2.09355 -0.6072,-2.21899 -0.6154,-2.08511 -0.6142,-2.08512 -0.6143,-2.08511 -0.6142,-2.08514 -0.6977,-2.21372 -0.6754,-2.074569 -0.6754,-2.074577 -0.6755,-2.073522 -0.7436,-2.218993 -0.7409,-2.060871 -0.7411,-2.061925 -0.7408,-2.060864 -0.8064,-2.221102 -0.8118,-2.046112 -0.812,-2.045059 -0.8119,-2.046112 -0.89,-2.221101 -0.8899,-2.027139 -0.8899,-2.026082 -0.8899,-2.027138 -1.0013,-2.213723 -0.9763,-2.005 -0.9749,-2.005 -0.9749,-2.003948 -1.1503,-2.19791 -1.0682,-1.976536 -1.0709,-1.977595 -1.2382,-2.202126 -1.1754,-1.941752 -1.1739,-1.942804 -1.312,-2.132554 -1.2618,-1.910127 -1.3996,-2.03557 -1.4455,-2.029246 -1.3899,-1.859527 -1.5697,-1.990243 -1.6364,-1.978646 -1.7087,-1.962834 -1.6113,-1.753057 -1.876,-1.896423 -1.972,-1.863744 -2.0848,-1.825794 -2.2061,-1.775195 -2.3424,-1.711945 -2.4929,-1.633939 -2.6545,-1.533794 -2.8285,-1.409405 -3.0068,-1.256549 -3.6781,-1.201735 -3.398,-0.795887 -3.9177,-0.552377 -4.0234,-0.179205 v 0.199234 0.20029 0.199235 0.199235 0.199234 0.199236 0.200289 0.198181 0.200289 0.199235 0.198182 0.199234 0.200289 0.199236 0.199234 0.199236 0.199236 0.199234 0.199235 0.20029 0.199234 0.199236 0.199234 0.198181 0.199236 0.200289 0.199235 0.199235 0.199235 0.199235 0.199235 0.199234 0.200289 0.199237 0.199234 0.199236 l 0.2265,6.492119 6.5057,0.34196 1.9427,0.793777 1.8885,0.931872 1.83,1.0531 1.7743,1.160622 1.7158,1.252336 1.6614,1.334558 1.6099,1.404133 1.5599,1.466328 1.5151,1.519036 1.6115,1.753057 1.3926,1.605476 1.3593,1.643425 1.3258,1.67505 1.3885,1.859528 1.2311,1.73092 1.2088,1.755167 1.2603,1.910125 1.0655,1.740409 1.1754,1.941751 1.1741,1.941751 0.9664,1.728813 1.0711,1.977591 1.0695,1.976539 0.9289,1.770978 0.9763,2.005 0.9749,2.003946 0.9748,2.005 0.8231,1.827903 0.8899,2.027138 0.89,2.026083 0.8899,2.027138 0.7437,1.869014 0.8118,2.046112 0.812,2.045059 0.812,2.046112 0.6837,1.898526 0.741,2.06087 0.7409,2.061924 0.7409,2.060866 0.642,1.921727 0.6754,2.073518 0.6755,2.07458 0.674,2.07458 0.6142,1.93965 0.6142,2.08405 0.6142,2.08513 0.6142,2.08511 0.614,2.08512 0.5363,1.96388 0.557,2.09356 0.5585,2.09354 0.5584,2.09355 0.5251,1.97653 0.5056,2.10094 0.5056,2.10093 0.5041,2.10198 0.5054,2.10093 0.4708,1.99235 0.4554,2.10726 0.4554,2.1083 -20.3943,2.52575 41.6214,101.07436 z" id="path13" sodipodi:nodetypes="ccccccccccccccccccccccccccccccccccccccccccccccccccccccccccccccccccccccccccccccccccccccccccccccccccccccccccccccccccccccccccccccccccccccccccccccccccccccccccccccccccccccc"/>
    <g id="g3" transform="translate(0,-313.7085)">
      <path class="stroke-orange" style="fill:none;stroke:#ffb86c;stroke-width:16.5705;stroke-linecap:butt;stroke-linejoin:miter;stroke-dasharray:none;stroke-opacity:1" d="m 443.95363,-231.99121 66.00842,-64.18318 c 15.85708,-11.96524 15.85642,-11.95265 33.70278,-11.80139 l 506.69187,-1.49882 v 0" id="path2" sodipodi:nodetypes="ccccc"/>
      <path class="stroke-orange" style="fill:none;stroke:#ffb86c;stroke-width:16.5705;stroke-linecap:butt;stroke-linejoin:miter;stroke-dasharray:none;stroke-opacity:1" d="m 443.95363,135.18029 66.00842,64.18318 c 15.85708,11.96524 15.85642,11.95265 33.70278,11.80139 l 506.69187,1.49882 v 0" id="path3" sodipodi:nodetypes="ccccc"/>
    </g>
    <g id="g25" transform="translate(0,-639)">
      <path class="stroke-orange" style="fill:none;stroke:#ffb86c;stroke-width:16.5705;stroke-linecap:butt;stroke-linejoin:miter;stroke-dasharray:none;stroke-opacity:1" d="M 441.62567,97.988834 519.50819,20.039183" id="path18" sodipodi:nodetypes="cc"/>
      <path class="stroke-orange" style="fill:none;stroke:#ffb86c;stroke-width:16.5705;stroke-linecap:butt;stroke-linejoin:miter;stroke-dasharray:none;stroke-opacity:1" d="m 443.95363,459.18029 74.29373,74.35777" id="path19" sodipodi:nodetypes="cc"/>
      <g id="g20" inkscape:label="brdr" style="display:inline" transform="matrix(2.7605527,0,0,-2.7629322,-25.391697,673.294)">
        <path class="fill-highlight" style="display:inline;fill:#6272a4;fill-opacity:1;stroke:none;stroke-width:0.352778;stroke-opacity:1" d="M 95.986727,238.49586 C 55.96666,234.86994 22.490082,206.59238 12.232833,167.74923 c -4.0133095,-15.198 -4.0133095,-33.36826 0,-48.56626 9.679369,-36.654787 39.637477,-63.733936 77.403894,-69.965414 6.991548,-1.153609 22.641783,-1.153609 29.633333,0 41.25671,6.807379 72.6245,38.175164 79.43188,79.431874 1.84983,11.21107 0.9976,27.64223 -2.02799,39.0998 -9.6571,36.57046 -39.81128,63.87166 -77.2275,69.92077 -4.45449,0.72016 -18.98182,1.23157 -23.459723,0.82586 z m 22.401393,-5.72037 c 52.7555,-8.69562 86.4767,-59.58006 73.70138,-111.21356 -8.70542,-35.184345 -37.59744,-61.552962 -73.87777,-67.425367 -6.89864,-1.116626 -21.006787,-1.117826 -27.693058,-0.0024 -39.312737,6.558542 -69.068477,36.348289 -75.385466,75.471627 -1.068038,6.61474 -1.147323,20.30013 -0.154896,26.73666 6.488217,42.08024 39.945426,73.56139 82.066751,77.21968 4.230239,0.3674 17.253599,-0.11262 21.343059,-0.78668 z" id="path20" inkscape:label="path21850"/>
        <ellipse style="fill:#6272a4;stroke:none;stroke-width:6.80414;stroke-miterlimit:4.1;fill-opacity:0.62021375" id="path4" cx="104.31248" cy="142.7751" rx="92.372803" ry="92.293259"/>
      </g>
      <path style="fill:#ff79c6;fill-opacity:0.766511;stroke:#ff5555;stroke-width:8.50394;stroke-miterlimit:3.6;stroke-dasharray:none" d="m 187.06415,352.70405 h 151.7593" id="path21"/>
      <g id="g23" transform="translate(9.5944483)">
        <path style="fill:#ff79c6;fill-opacity:0.766511;stroke:#ff5555;stroke-width:8.50394;stroke-miterlimit:3.6;stroke-dasharray:none" d="M 262.9438,202.31611 V 352.70405" id="path22"/>
        <path style="fill:#ff79c6;fill-opacity:0.766511;stroke:#ff5555;stroke-width:8.50395;stroke-miterlimit:3.6;stroke-dasharray:none" d="M 243.75491,333.45639 V 202.31611" id="path23" sodipodi:nodetypes="cc"/>
      </g>
      <path style="fill:none;stroke:#ffb86c;stroke-width:16.5713;stroke-miterlimit:4.1;stroke-dasharray:none" d="M -524.93155,539.81612 -38.34756,52.366438 c 38.41669536,-38.416695 38.41669536,-38.416695 76.83339,0 l 42.776052,43.809475" id="path24" sodipodi:nodetypes="cccc"/>
      <path style="fill:none;stroke:#ffb86c;stroke-width:16.5713;stroke-miterlimit:4.1;stroke-dasharray:none" d="M -524.93155,13.949743 -303.0013,236.74634 m 75.78163,75.78164 190.30176,190.30176 c 36.98637888,36.98638 36.98637888,36.98638 73.972757,0 l 46.371672,-46.333" id="path25" sodipodi:nodetypes="cccccc"/>
    </g>
    <g id="g454" transform="matrix(0.09738616,0,0,0.0974701,0.00116015,13.655439)"/>
    <path class="stroke-orange" style="fill:none;stroke:#ffb86c;stroke-width:16.5705;stroke-linecap:butt;stroke-linejoin:miter;stroke-dasharray:none;stroke-opacity:1" d="M 443.95363,92.00879 509.96205,27.82561 C 525.81913,15.86037 525.81847,15.87296 543.66483,16.02422 L 1050.3567,14.5254 v 0" id="path1" sodipodi:nodetypes="ccccc"/>
    <path class="stroke-orange" style="fill:none;stroke:#ffb86c;stroke-width:16.5705;stroke-linecap:butt;stroke-linejoin:miter;stroke-dasharray:none;stroke-opacity:1" d="m 443.95363,459.18029 66.00842,64.18318 c 15.85708,11.96524 15.85642,11.95265 33.70278,11.80139 l 506.69187,1.49882 v 0" id="path5612-4-6" sodipodi:nodetypes="ccccc"/>
    <g id="g30393" inkscape:label="brdr" style="display:inline" transform="matrix(2.7605527,0,0,-2.7629322,-25.391697,673.294)">
      <path class="fill-highlight" style="display:inline;fill:#6272a4;fill-opacity:1;stroke:none;stroke-width:0.352778;stroke-opacity:1" d="M 95.986727,238.49586 C 55.96666,234.86994 22.490082,206.59238 12.232833,167.74923 c -4.0133095,-15.198 -4.0133095,-33.36826 0,-48.56626 9.679369,-36.654787 39.637477,-63.733936 77.403894,-69.965414 6.991548,-1.153609 22.641783,-1.153609 29.633333,0 41.25671,6.807379 72.6245,38.175164 79.43188,79.431874 1.84983,11.21107 0.9976,27.64223 -2.02799,39.0998 -9.6571,36.57046 -39.81128,63.87166 -77.2275,69.92077 -4.45449,0.72016 -18.98182,1.23157 -23.459723,0.82586 z m 22.401393,-5.72037 c 52.7555,-8.69562 86.4767,-59.58006 73.70138,-111.21356 -8.70542,-35.184345 -37.59744,-61.552962 -73.87777,-67.425367 -6.89864,-1.116626 -21.006787,-1.117826 -27.693058,-0.0024 -39.312737,6.558542 -69.068477,36.348289 -75.385466,75.471627 -1.068038,6.61474 -1.147323,20.30013 -0.154896,26.73666 6.488217,42.08024 39.945426,73.56139 82.066751,77.21968 4.230239,0.3674 17.253599,-0.11262 21.343059,-0.78668 z" id="path21850" inkscape:label="path21850"/>
    </g>
    <ellipse style="display:inline;fill:#6272a4;fill-opacity:0.620214;stroke:none;stroke-width:18.7913;stroke-miterlimit:4.1" id="path4-7" cx="262.94379" cy="-276.82474" rx="254.99998" ry="255.00002" transform="scale(1,-1)"/>
    <path style="fill:#ff79c6;fill-opacity:0.766511;stroke:#ff5555;stroke-width:8.50394;stroke-miterlimit:3.6;stroke-dasharray:none" d="m 187.06415,352.70405 h 151.7593" id="path7"/>
    <g id="g9" transform="translate(9.5944483)">
      <path style="fill:#ff79c6;fill-opacity:0.766511;stroke:#ff5555;stroke-width:8.50394;stroke-miterlimit:3.6;stroke-dasharray:none" d="M 262.9438,202.31611 V 352.70405" id="path6"/>
      <path style="fill:#ff79c6;fill-opacity:0.766511;stroke:#ff5555;stroke-width:8.50395;stroke-miterlimit:3.6;stroke-dasharray:none" d="M 243.75491,333.45639 V 202.31611" id="path9" sodipodi:nodetypes="cc"/>
    </g>
    <path style="fill:none;stroke:#ffb86c;stroke-width:16.5713;stroke-miterlimit:4.1;stroke-dasharray:none" d="m -524.93155,539.81612 224.74319,-225.60888 m 74.3672,-74.3672 187.4736,-187.473602 c 38.41669536,-38.416695 38.41669536,-38.416695 76.83339,0 l 42.776052,43.809475" id="path14" sodipodi:nodetypes="cccccc"/>
    <path style="fill:none;stroke:#ffb86c;stroke-width:16.5713;stroke-miterlimit:4.1;stroke-dasharray:none" d="M -524.93155,13.949743 -36.91791,502.82974 c 36.98637888,36.98638 36.98637888,36.98638 73.972757,0 l 46.371672,-46.333" id="path15" sodipodi:nodetypes="cccc"/>
    <path id="rect16-0-1" style="display:inline;fill:none;stroke-width:2.7727;stroke-miterlimit:4.1" d="m -269.1815,-135.45728 h 1.1715 v -0.0494 -0.0494 -0.0514 -0.0505 -0.0505 -0.0505 -0.0505 -0.0505 -0.0505 -0.0505 -0.0505 -0.0505 -0.0505 -0.0505 -0.0505 -0.0505 -0.0505 -0.0505 -0.0505 -0.0505 -0.0505 -0.0505 -0.0505 -0.0505 -0.0505 -0.0505 -0.0505 -0.0505 -0.0505 -0.0505 -0.0505 -0.0505 -0.0505 -0.0505 -0.0505 -0.0505 -0.0505 -0.0505 -0.0505 -0.0505 -0.0505 -0.0505 -0.0505 -0.0505 -0.0505 -0.0505 -0.0505 -0.0505 -0.0505 -0.0505 -0.0505 -0.0505 -0.0505 -0.0505 -0.0505 -0.0505 -0.0505 -0.0505 -0.0505 -0.0505 -0.0505 -0.0505 -0.0505 -0.0514 -0.0505 -0.0505 -0.0505 -0.0505 -0.0505 -0.0505 -0.0505 -0.0505 -0.0505 -0.0505 -0.0505 -0.0505 -0.0505 -0.0505 -0.0505 -0.0505 -0.0505 -0.0505 -0.0505 -0.0505 -0.0505 -0.0505 -0.0505 -0.0505 -0.0505 -0.0505 -0.0505 -0.0505 -0.0505 -0.0505 -0.0505 -0.0505 -0.0505 -0.0505 -0.0505 -0.0505 -0.0505 -0.0505 -0.0505 -0.0505 -0.0505 -0.0505 -0.0505 -0.0505 -0.0505 -0.0505 -0.0505 -0.0505 -0.0505 -0.0505 -0.0505 -0.0505 -0.0505 -0.0505 -0.0505 -0.0505 -0.0505 -0.0505 -0.0505 -0.0505 -0.0505 -0.0505 -0.0505 -0.0505 -0.0505 -0.0505 -0.0505 -0.0505 -0.0505 -0.0505 -0.0505 -0.0505 -0.0505 -0.0505 -0.0505 -0.0505 -0.0505 -0.0505 -0.0505 -0.0505 -0.0505 -0.0505 -0.0505 -0.0505 -0.0505 -0.0505 -0.0505 -0.0505 -0.0505 -0.0505 -0.0505 -0.0505 -0.0505 -0.0505 -0.0505 -0.0505 -0.0505 -0.0505 -0.0505 -0.0505 -0.0505 -0.0505 -0.0505 -0.0505 -0.0505 -0.0505 -0.0505 -0.0505 -0.0505 -0.0505 -0.0505 -0.0505 -0.0505 -0.0505 -0.0505 -0.0505 -0.0505 -0.0505 -0.0505 -0.0505 -0.0505 -0.0505 -0.0505 -0.0505 -0.0505 -0.0505 -0.0505 -0.0505 -0.0505 -0.0505 -0.0505 -0.0505 -0.0505 -0.0505 -0.0505 -0.0505 -0.0505 -0.0505 -0.0505 -0.0505 -0.0505 -0.0505 -0.0505 -0.0505 -0.0505 -0.0505 -0.0505 -0.0505 -0.0505 -0.0505 -0.0505 -0.0505 -0.0505 -0.0505 -0.0505 -0.0505 -0.0505 -0.0505 -0.0505 -0.0505 -0.0505 -0.0505 -0.0505 -0.0505 -0.0505 -0.0505 -0.0505 -0.0505 -0.0505 -0.0505 -0.0505 -0.0505 -0.0505 -0.0505 -0.0505 -0.0505 -0.0505 -0.0505 -0.0505 -0.0505 -0.0505 -0.0505 -0.0505 -0.0505 -0.0505 -0.0505 -0.0505 -0.0505 -0.0505 -0.0505 -0.0505 -0.0505 5.3e-4 -5.3e-4 5.3e-4 -5.3e-4 5.3e-4 -5.3e-4 5.3e-4 0 5.4e-4 -5.4e-4 5.4e-4 -5.4e-4 5.4e-4 0 5.3e-4 -5.3e-4 5.3e-4 -5.3e-4 5.3e-4 -5.3e-4 5.3e-4 0 0 5.2e-4 0 5.4e-4 0 5.3e-4 0 5.2e-4 0 5.4e-4 0 5.3e-4 0 5.3e-4 0 5.3e-4 0 5.3e-4 0 5.3e-4 0 5.3e-4 0 5.3e-4 0 5.3e-4 0 5.3e-4 0 5.3e-4 0 5.3e-4 0 5.3e-4 0 0 5.3e-4 0 5.3e-4 -5.3e-4 5.3e-4 0 5.3e-4 0 5.3e-4 0 5.3e-4 0 5.3e-4 0 5.4e-4 0 5.2e-4 0 5.3e-4 0 5.4e-4 0 5.2e-4 0 5.3e-4 0 5.4e-4 0 5.3e-4 0 5.2e-4 0 5.4e-4 0 5.3e-4 0 5.2e-4 0 5.4e-4 0 5.3e-4 0 -5.3e-4 5.3e-4 -5.3e-4 5.3e-4 -5.3e-4 5.3e-4 0 5.3e-4 -5.3e-4 5.3e-4 -5.3e-4 5.3e-4 0 5.3e-4 -5.3e-4 5.3e-4 -5.3e-4 5.3e-4 0 5.3e-4 0 5.3e-4 0 5.3e-4 0 5.3e-4 0 5.3e-4 0 5.3e-4 0 5.3e-4 0 5.3e-4 0 -5.3e-4 5.3e-4 0 5.3e-4 -5.3e-4 5.3e-4 0 5.3e-4 0 5.3e-4 0 5.3e-4 0 5.4e-4 0 5.2e-4 0 5.3e-4 0 5.4e-4 0 5.2e-4 0 5.3e-4 0 5.4e-4 0 5.2e-4 -5.2e-4 5.2e-4 0 5.3e-4 -5.3e-4 5.3e-4 -5.3e-4 5.3e-4 0 5.4e-4 -5.4e-4 5.4e-4 -5.4e-4 5.4e-4 -5.4e-4 0 5.4e-4 0 0 0 5.3e-4 0 5.2e-4 0 5.4e-4 0 5.3e-4 0 5.2e-4 0 5.4e-4 0 5.3e-4 0 5.3e-4 0 5.3e-4 0 5.3e-4 0 5.3e-4 0 5.3e-4 0 5.3e-4 0 5.3e-4 0 5.3e-4 0 -5.3e-4 5.3e-4 -5.3e-4 5.3e-4 0 5.3e-4 -5.3e-4 5.3e-4 -5.3e-4 5.3e-4 0 5.3e-4 -5.3e-4 5.3e-4 -5.3e-4 5.3e-4 -5.3e-4 5.3e-4 0 5.3e-4 -5.3e-4 5.3e-4 -5.3e-4 5.3e-4 0 5.3e-4 -5.3e-4 5.3e-4 -5.3e-4 5.3e-4 0 5.3e-4 0 5.3e-4 0 5.4e-4 0 0 5.2e-4 0 5.3e-4 0 5.4e-4 0.0505 0.0505 0.0505 0.0505 0.0505 0.0505 0.0505 0.0505 0.0505 0.0505 0.0505 0.0505 0.0505 0.0505 0.0505 0.0505 0.0505 0.0505 0.0505 0.0505 0.0505 0.0505 0.0505 0.0505 0.0505 0.0505 0.0505 0.0505 0.0505 0.0505 0.0505 0.0505 0.0505 0.0505 0.0505 0.0505 0.0505 0.0505 0.0505 0.0505 0.0505 0.0505 0.0505 0.0505 0.0505 0.0505 0.0505 0.0505 0.0505 0.0505 0.0505 0.0505 0.0505 0.0505 0.0505 0.0505 0.0505 0.0505 0.0505 0.0505 0.0505 0.0505 0.0505 0.0505 0.0505 0.0505 0.0505 0.0505 0.0505 0.0505 0.0505 0.0505 0.0505 0.0505 0.0505 0.0505 0.0505 0.0505 0.0505 0.0505 0.0505 0.0505 0.0505 0.0505 0.0505 0.0505 0.0505 0.0505 0.0505 0.0505 0.0505 0.0505 0.0505 0.0505 0.0505 0.0505 0.0505 0.0505 0.0505 0.0505 0.0505 0.0505 0.0505 0.0505 0.0505 0.0505 0.0505 0.0505 0.0505 0.0505 0.0505 0.0505 0.0505 0.0505 0.0505 0.0505 0.0505 0.0505 0.0505 0.0505 0.0505 0.0505 0.0505 0.0505 0.0505 0.0505 0.0505 0.0505 0.0505 0.0505 0.0505 0.0505 0.0505 0.0505 0.0505 0.0505 0.0505 0.0505 0.0505 0.0505 0.0505 0.0505 0.0505 0.0505 0.0505 0.0505 0.0505 0.0505 0.0505 0.0505 0.0505 0.0505 0.0505 0.0505 0.0505 0.0505 0.0505 0.0505 0.0505 0.0505 0.0505 0.0505 0.0505 0.0505 0.0505 0.0505 0.0505 0.0505 0.0505 0.0505 0.0505 0.0505 0.0505 0.0505 0.0505 0.0505 0.0505 0.0505 0.0505 0.0505 0.0505 0.0505 0.0505 0.0505 0.0505 0.0505 0.0505 0.0505 0.0505 0.0505 0.0505 0.0505 0.0514 0.0505 0.0505 0.0505 0.0505 0.0505 0.0505 0.0505 0.0505 0.0505 0.0505 0.0505 0.0505 0.0505 0.0505 0.0505 0.0505 0.0505 0.0505 0.0505 0.0505 0.0505 0.0505 0.0505 0.0505 0.0505 0.0505 0.0505 0.0505 0.0505 0.0505 0.0505 0.0505 0.0505 0.0505 0.0505 0.0505 0.0505 0.0505 0.0505 0.0505 0.0505 0.0505 0.0505 0.0505 0.0505 0.0505 0.0505 0.0505 0.0505 0.0505 0.0505 0.0505 0.0505 0.0505 0.0505 0.0505 0.0505 0.0505 0.0505 0.0505 0.0514 0.0494 0.0494 h 1.4184 l -1.9053,6.97614 z"/>
    <g id="g8" transform="matrix(-1,0,0,1,2678.0795,-313.7085)">
      <path class="stroke-orange" style="fill:none;stroke:#ffb86c;stroke-width:16.5705;stroke-linecap:butt;stroke-linejoin:miter;stroke-dasharray:none;stroke-opacity:1" d="m 443.95363,-231.99121 66.00842,-64.18318 c 15.85708,-11.96524 15.85642,-11.95265 33.70278,-11.80139 l 506.69187,-1.49882 v 0" id="path5" sodipodi:nodetypes="ccccc"/>
      <path class="stroke-orange" style="fill:none;stroke:#ffb86c;stroke-width:16.5705;stroke-linecap:butt;stroke-linejoin:miter;stroke-dasharray:none;stroke-opacity:1" d="m 443.95363,135.18029 66.00842,64.18318 c 15.85708,11.96524 15.85642,11.95265 33.70278,11.80139 l 506.69187,1.49882 v 0" id="path8" sodipodi:nodetypes="ccccc"/>
    </g>
    <g id="g11" transform="matrix(-1,0,0,1,2678.0795,325.23019)">
      <path class="stroke-orange" style="fill:none;stroke:#ffb86c;stroke-width:16.5705;stroke-linecap:butt;stroke-linejoin:miter;stroke-dasharray:none;stroke-opacity:1" d="m 443.95363,-231.99121 66.00842,-64.18318 c 15.85708,-11.96524 15.85642,-11.95265 33.70278,-11.80139 l 506.69187,-1.49882 v 0" id="path10" sodipodi:nodetypes="ccccc"/>
      <path class="stroke-orange" style="fill:none;stroke:#ffb86c;stroke-width:16.5705;stroke-linecap:butt;stroke-linejoin:miter;stroke-dasharray:none;stroke-opacity:1" d="m 443.95363,135.18029 66.00842,64.18318 c 15.85708,11.96524 15.85642,11.95265 33.70278,11.80139 l 506.69187,1.49882 v 0" id="path11" sodipodi:nodetypes="ccccc"/>
    </g>
    <g id="g64" inkscape:label="brdr" style="display:inline" transform="matrix(-2.7605527,0,0,-2.7629322,2703.9091,673.294)">
      <path class="fill-highlight" style="display:inline;fill:#6272a4;fill-opacity:1;stroke:none;stroke-width:0.352778;stroke-opacity:1" d="M 95.986727,238.49586 C 55.96666,234.86994 22.490082,206.59238 12.232833,167.74923 c -4.0133095,-15.198 -4.0133095,-33.36826 0,-48.56626 9.679369,-36.654787 39.637477,-63.733936 77.403894,-69.965414 6.991548,-1.153609 22.641783,-1.153609 29.633333,0 41.25671,6.807379 72.6245,38.175164 79.43188,79.431874 1.84983,11.21107 0.9976,27.64223 -2.02799,39.0998 -9.6571,36.57046 -39.81128,63.87166 -77.2275,69.92077 -4.45449,0.72016 -18.98182,1.23157 -23.459723,0.82586 z m 22.401393,-5.72037 c 52.7555,-8.69562 86.4767,-59.58006 73.70138,-111.21356 -8.70542,-35.184345 -37.59744,-61.552962 -73.87777,-67.425367 -6.89864,-1.116626 -21.006787,-1.117826 -27.693058,-0.0024 -39.312737,6.558542 -69.068477,36.348289 -75.385466,75.471627 -1.068038,6.61474 -1.147323,20.30013 -0.154896,26.73666 6.488217,42.08024 39.945426,73.56139 82.066751,77.21968 4.230239,0.3674 17.253599,-0.11262 21.343059,-0.78668 z" id="path64" inkscape:label="path21850"/>
    </g>
    <ellipse style="display:inline;fill:#6272a4;fill-opacity:0.620214;stroke:none;stroke-width:18.7913;stroke-miterlimit:4.1" id="path4-5" cx="2415.5735" cy="-276.82474" rx="254.99998" ry="255.00002" transform="scale(1,-1)"/>
    <path style="fill:#ff79c6;fill-opacity:0.766511;stroke:#ff5555;stroke-width:8.50394;stroke-miterlimit:3.6;stroke-dasharray:none" d="m 2339.694,206.56808 h 151.7593" id="path65"/>
    <g id="g67" transform="matrix(1,0,0,-1,2162.2242,559.27212)">
      <path style="fill:#ff79c6;fill-opacity:0.766511;stroke:#ff5555;stroke-width:8.50394;stroke-miterlimit:3.6;stroke-dasharray:none" d="M 262.9438,202.31611 V 352.70405" id="path66"/>
      <path style="fill:#ff79c6;fill-opacity:0.766511;stroke:#ff5555;stroke-width:8.50395;stroke-miterlimit:3.6;stroke-dasharray:none" d="M 243.75491,333.45639 V 202.31611" id="path67" sodipodi:nodetypes="cc"/>
    </g>
    <path style="fill:none;stroke:#ffb86c;stroke-width:16.5713;stroke-miterlimit:4.1;stroke-dasharray:none" d="M 3203.4489,539.81612 2978.7058,314.20724 M 2904.3386,239.84004 2716.865,52.366438 c -38.4167,-38.416695 -38.4167,-38.416695 -76.8334,0 l -42.7761,43.809475" id="path68" sodipodi:nodetypes="cccccc"/>
    <path style="fill:none;stroke:#ffb86c;stroke-width:16.5713;stroke-miterlimit:4.1;stroke-dasharray:none" d="M 3203.4489,13.949743 2715.4353,502.82974 c -36.9864,36.98638 -36.9864,36.98638 -73.9727,0 l -46.3717,-46.333" id="path69" sodipodi:nodetypes="cccc"/>
    <path class="fill-highlight" style="display:inline;fill:#6272a4;fill-opacity:1;stroke:none;stroke-width:0.974282;stroke-opacity:1" d="m 2438.9327,-624.65389 c 110.4775,10.01817 202.8913,88.14715 231.207,195.46814 11.079,41.99104 11.079,92.19424 0,134.18528 -26.7204,101.2747 -109.4213,176.09255 -213.6775,193.3097 -19.3005,3.187343 -62.5038,3.187343 -81.8044,0 -113.8913,-18.80833 -200.4837,-105.47539 -219.2759,-219.46488 -5.1065,-30.97543 -2.7539,-76.37361 5.5984,-108.0301 26.6589,-101.0417 109.9011,-176.47307 213.1906,-193.18635 12.2968,-1.98975 52.4003,-3.40274 64.7618,-2.28179 z m -61.8402,15.80499 c -145.6344,24.02541 -238.7235,164.61567 -203.4566,307.27553 24.0318,97.21196 103.7897,170.06666 203.9435,186.29172 19.044,3.08516 57.9903,3.08847 76.4481,0.007 108.5249,-18.12081 190.6672,-100.42786 208.1056,-208.52299 2.9484,-18.27608 3.1672,-56.08788 0.4276,-73.87158 -17.9111,-116.26485 -110.2715,-203.24513 -226.5496,-213.35274 -11.6778,-1.0151 -47.6295,0.31116 -58.9186,2.17354 z" id="path72" inkscape:label="path21850"/>
    <ellipse style="display:inline;fill:#6272a4;fill-opacity:0.620214;stroke:none;stroke-width:18.7913;stroke-miterlimit:4.1" id="path4-3" cx="2415.5737" cy="362.17526" rx="254.99998" ry="255.00002" transform="scale(1,-1)"/>
    <path style="fill:#ff79c6;fill-opacity:0.766511;stroke:#ff5555;stroke-width:8.50394;stroke-miterlimit:3.6;stroke-dasharray:none" d="m 2339.694,-432.43192 h 151.7593" id="path73"/>
    <path style="fill:#ff79c6;fill-opacity:0.766511;stroke:#ff5555;stroke-width:8.50394;stroke-miterlimit:3.6;stroke-dasharray:none" d="M 2425.168,-282.04399 V -432.43193" id="path74"/>
    <path style="fill:#ff79c6;fill-opacity:0.766511;stroke:#ff5555;stroke-width:8.50395;stroke-miterlimit:3.6;stroke-dasharray:none" d="m 2405.9791,-413.18427 v 131.14028" id="path75" sodipodi:nodetypes="cc"/>
    <path style="fill:none;stroke:#ffb86c;stroke-width:16.5713;stroke-miterlimit:4.1;stroke-dasharray:none" d="m 3203.449,-99.18388 -486.584,-487.44968 c -38.4167,-38.4167 -38.4167,-38.4167 -76.8334,0 l -42.7761,43.80947" id="path76" sodipodi:nodetypes="cccc"/>
    <path style="fill:none;stroke:#ffb86c;stroke-width:16.5713;stroke-miterlimit:4.1;stroke-dasharray:none" d="m 3203.449,-625.05026 -221.9303,222.7966 m -75.7816,75.78164 -190.3018,190.30176 c -36.9864,36.98638 -36.9864,36.98638 -73.9727,0 l -46.3717,-46.333" id="path77" sodipodi:nodetypes="cccccc"/>
    <path id="path79" style="display:inline;fill:#f8f8f2;stroke:none;stroke-width:10.6617;stroke-miterlimit:4.1;stroke-dasharray:none" inkscape:transform-center-x="-21.300072" inkscape:transform-center-y="1.2473992e-05" d="m 1353.6363,332.98033 v -39.84695 h -1.947 -1.9469 -1.947 -1.947 -1.9469 -1.947 -1.947 -1.9469 -1.947 -1.947 -1.947 -1.9467 -1.947 -1.947 -1.9469 -1.947 -1.9469 -1.947 -1.947 -1.9469 -1.9471 -1.9469 -1.947 -1.947 -1.9469 -1.9468 -1.9471 -1.9468 -1.9472 -1.9467 -1.947 -1.9469 -1.9471 -1.947 -1.9469 -1.947 -1.9469 -1.947 -1.947 -1.9467 -1.9472 -1.9467 -1.9472 -1.9468 -1.947 -1.947 -1.9469 -1.947 -1.947 -1.9469 -1.947 -1.9469 -1.947 -1.947 -1.9469 -1.9468 -1.9471 -1.9469 -1.947 -1.9469 -1.947 -1.9469 -1.947 -1.947 v -0.50723 -0.50858 -0.5075 -0.50858 -0.50723 -0.5075 -0.50858 -0.50723 -0.50884 -0.50724 -0.50857 -0.50751 -0.50857 -0.50723 -0.50858 -0.5075 -0.50724 -0.50857 -0.50723 -0.50885 -0.50723 -0.50885 -0.50723 -0.50858 -0.50723 -0.50884 -0.50724 -0.50857 -0.50724 -0.5075 -0.50857 -0.50751 -0.50857 -0.50723 -0.50858 -0.5075 -0.50858 -0.50723 -0.50858 -0.5075 -0.5075 -0.50858 -0.50723 -0.50858 -0.5075 -0.50857 -0.50724 -0.50857 -0.50751 -0.50857 -0.5075 -0.50858 -0.50723 -0.5075 -0.50858 -0.50723 -0.50858 -0.5075 -0.50858 -0.5075 -0.50857 -0.50724 -0.50857 -0.50751 h 1.947 1.947 1.9469 1.947 1.9469 1.947 1.9469 1.9471 1.9468 1.9469 1.947 1.947 1.9469 1.947 1.9469 1.947 1.947 1.9469 1.947 1.947 1.9468 1.9472 1.9467 1.9472 1.9467 1.947 1.947 1.9469 1.947 1.9469 1.947 1.9471 1.9469 1.947 1.9467 1.9472 1.9468 1.9471 1.9468 1.9469 1.947 1.947 1.9469 1.9471 1.9469 1.947 1.947 1.9469 1.947 1.9469 1.947 1.947 1.9467 1.947 1.947 1.947 1.9469 1.947 1.947 1.9469 1.947 1.947 1.9469 1.947 v -39.84668 l 95.8501,56.10097 z"/>
    <path id="path79-6" style="display:inline;fill:#f8f8f2;stroke:none;stroke-width:10.6617;stroke-miterlimit:4.1;stroke-dasharray:none" inkscape:transform-center-x="-21.300072" inkscape:transform-center-y="1.2473992e-05" d="m 1353.6363,-306.07483 v -39.84695 h -1.947 -1.947 -1.9469 -1.947 -1.947 -1.9469 -1.947 -1.947 -1.9469 -1.947 -1.947 -1.9468 -1.9469 -1.947 -1.9469 -1.947 -1.947 -1.9469 -1.947 -1.9469 -1.9471 -1.947 -1.9469 -1.947 -1.9469 -1.9468 -1.9472 -1.9467 -1.9472 -1.9467 -1.947 -1.947 -1.947 -1.947 -1.9469 -1.947 -1.947 -1.9469 -1.947 -1.9467 -1.9472 -1.9468 -1.9471 -1.9468 -1.947 -1.947 -1.947 -1.9469 -1.947 -1.9469 -1.947 -1.947 -1.9469 -1.947 -1.9469 -1.9468 -1.9472 -1.9468 -1.947 -1.9469 -1.947 -1.947 -1.9469 -1.947 v -0.50723 -0.50858 -0.5075 -0.50858 -0.50723 -0.5075 -0.50858 -0.50723 -0.50884 -0.50724 -0.50857 -0.50751 -0.50857 -0.50723 -0.50858 -0.5075 -0.50724 -0.50857 -0.50723 -0.50885 -0.50723 -0.50885 -0.50723 -0.50858 -0.50723 -0.50884 -0.50724 -0.50857 -0.50724 -0.5075 -0.50857 -0.50751 -0.50857 -0.50723 -0.50858 -0.5075 -0.50858 -0.50723 -0.50858 -0.5075 -0.5075 -0.50858 -0.50723 -0.50858 -0.5075 -0.50857 -0.50724 -0.50857 -0.50751 -0.50857 -0.5075 -0.50858 -0.50723 -0.5075 -0.50858 -0.50723 -0.50858 -0.5075 -0.50858 -0.5075 -0.50857 -0.50724 -0.50857 -0.50751 h 1.947 1.9469 1.947 1.947 1.9469 1.947 1.9468 1.9472 1.9468 1.9469 1.947 1.9469 1.947 1.947 1.9469 1.947 1.9469 1.947 1.947 1.947 1.9468 1.9471 1.9468 1.9472 1.9467 1.947 1.9469 1.947 1.947 1.9469 1.947 1.947 1.947 1.947 1.9467 1.9472 1.9467 1.9472 1.9468 1.9469 1.947 1.9469 1.947 1.9471 1.9469 1.947 1.9469 1.947 1.947 1.9469 1.947 1.9469 1.9468 1.947 1.947 1.9469 1.947 1.947 1.9469 1.947 1.947 1.9469 1.947 1.947 v -39.84668 l 95.8501,56.10097 z"/>
    <path style="fill:#f8f8f2;stroke:none;stroke-width:8.01542;stroke-miterlimit:4.1;stroke-dasharray:none" d="m 160.8839,419.21668 20.3874,-2.56225 0.461,2.10779 0.4623,2.10779 0.5028,2.21746 0.511,2.1004 0.5098,2.10149 0.5112,2.10145 0.511,2.10042 0.5696,2.21534 0.5626,2.09303 0.5626,2.09409 0.5628,2.09303 0.5626,2.09409 0.6503,2.2088 0.6169,2.08565 0.6184,2.08472 0.6171,2.08458 0.6907,2.21187 0.6754,2.07416 0.6768,2.07512 0.6756,2.07415 0.7436,2.21377 0.7396,2.0617 0.7394,2.06277 0.7396,2.06172 0.8106,2.21397 0.809,2.04686 0.8079,2.04694 0.8076,2.04686 0.8997,2.21219 0.883,2.02912 0.8829,2.02904 0.8829,2.02913 1.0153,2.20311 0.9666,2.00836 0.965,2.00752 1.0724,2.21291 1.0571,1.98085 1.057,1.98095 1.0571,1.98189 1.2576,2.18825 1.1573,1.94794 1.1586,1.94795 1.3244,2.12255 1.3385,2.05402 1.3035,1.89565 1.4469,2.0248 1.5,2.01765 1.4372,1.83849 1.635,1.97577 1.7075,1.95902 1.7895,1.93952 1.8815,1.91493 1.7591,1.67031 2.0819,1.82564 2.2033,1.77608 2.3397,1.71427 2.4915,1.63657 2.6544,1.53831 2.8313,1.41513 3.6223,1.47621 3.0904,0.98796 3.412,0.80105 3.9428,0.55574 3.6306,0.18279 v -0.19921 -0.20025 -0.19922 -0.19921 -0.19919 -0.19922 -0.20026 -0.19814 -0.20026 -0.19922 -0.1992 -0.1992 -0.20024 -0.19928 -0.19918 -0.19919 -0.19917 -0.1993 -0.19918 -0.20023 -0.19918 -0.19929 -0.19918 -0.19918 -0.19918 -0.20033 -0.19919 -0.19919 -0.19917 -0.19929 -0.19918 -0.19918 -0.20023 -0.19919 -0.19928 -0.19918 -0.19918 -0.19918 -0.20035 -0.19917 -0.19918 -0.19919 -0.19928 -0.19919 -0.19917 -0.20024 -0.19928 -0.19919 -0.19918 -0.20023 -0.19929 -0.19917 -0.19919 -0.19919 -0.19927 -0.19919 -0.20023 -0.19918 -0.19928 -0.19919 -0.19918 -0.19918 -0.20035 -0.19916 l -1.9957,-0.0922 -1.6044,-0.21098 -1.9789,-0.45636 -2.1003,-0.682 -1.3439,-0.55158 -1.8885,-0.92452 -1.8341,-1.04777 -1.777,-1.15576 -1.7228,-1.24991 -1.667,-1.33195 -1.617,-1.40418 -1.7589,-1.67021 -1.479,-1.51668 -1.4386,-1.56434 -1.401,-1.60643 -1.3677,-1.64458 -1.4372,-1.8386 -1.2645,-1.70658 -1.2394,-1.73253 -1.3037,-1.89564 -1.1544,-1.77923 -1.0877,-1.74002 -1.1588,-1.94793 -1.1573,-1.94806 -0.9986,-1.72747 -1.057,-1.98178 -1.0555,-1.98095 -1.0572,-1.98095 -0.8634,-1.79989 -0.9652,-2.00753 -0.9664,-2.00847 -0.8441,-1.83036 -0.8829,-2.02914 -0.8829,-2.02903 -0.883,-2.02913 -0.7589,-1.8734 -0.8093,-2.04685 -0.8076,-2.04695 -0.8079,-2.04684 -0.6948,-1.90377 -0.7382,-2.06172 -0.7409,-2.06278 -0.7382,-2.0617 -0.6461,-1.92759 -0.6754,-2.07417 -0.677,-2.0752 -0.6754,-2.07416 -0.6086,-1.94616 -0.6169,-2.0846 -0.6169,-2.08459 -0.6184,-2.08545 -0.5808,-1.96122 -0.5612,-2.09304 -0.5626,-2.09407 -0.5628,-2.09304 -0.5626,-2.09408 -0.5097,-1.98022 -0.511,-2.10146 -0.5112,-2.10148 -0.511,-2.1004 -0.5112,-2.10147 -0.4513,-1.99603 -0.461,-2.10778 -0.4623,-2.10781 20.3874,-2.56119 -41.6047,-101.05075 z" id="path12"/>
    <path style="fill:#f8f8f2;stroke:none;stroke-width:8.01542;stroke-miterlimit:4.1;stroke-dasharray:none" d="m 160.8839,-504.50955 20.3874,2.56225 0.461,-2.10779 0.4623,-2.10779 0.5028,-2.21746 0.511,-2.1004 0.5098,-2.10149 0.5112,-2.10145 0.511,-2.10042 0.5696,-2.21534 0.5626,-2.09303 0.5626,-2.09409 0.5628,-2.09303 0.5626,-2.09409 0.6503,-2.2088 0.6169,-2.08565 0.6184,-2.08472 0.6171,-2.08458 0.6907,-2.21187 0.6754,-2.07416 0.6768,-2.07512 0.6756,-2.07415 0.7436,-2.21377 0.7396,-2.0617 0.7394,-2.06277 0.7396,-2.06172 0.8106,-2.21397 0.809,-2.04686 0.8079,-2.04694 0.8076,-2.04686 0.8997,-2.21219 0.883,-2.02912 0.8829,-2.02904 0.8829,-2.02913 1.0153,-2.20311 0.9666,-2.00836 0.965,-2.00752 1.0724,-2.21291 1.0571,-1.98085 1.057,-1.98095 1.0571,-1.98189 1.2576,-2.18825 1.1573,-1.94794 1.1586,-1.94795 1.3244,-2.12255 1.3385,-2.05402 1.3035,-1.89565 1.4469,-2.0248 1.5,-2.01765 1.4372,-1.83849 1.635,-1.97577 1.7075,-1.95902 1.7895,-1.93952 1.8815,-1.91493 1.7591,-1.67031 2.0819,-1.82564 2.2033,-1.77608 2.3397,-1.71427 2.4915,-1.63657 2.6544,-1.53831 2.8313,-1.41513 3.6223,-1.47621 3.0904,-0.98796 3.412,-0.80105 3.9428,-0.55574 3.6306,-0.18279 v 0.19921 0.20025 0.19922 0.19921 0.19919 0.19922 0.20026 0.19814 0.20026 0.19922 0.1992 0.1992 0.20024 0.19928 0.19918 0.19919 0.19917 0.1993 0.19918 0.20023 0.19918 0.19929 0.19918 0.19918 0.19918 0.20033 0.19919 0.19919 0.19917 0.19929 0.19918 0.19918 0.20023 0.19919 0.19928 0.19918 0.19918 0.19918 0.20035 0.19917 0.19918 0.19919 0.19928 0.19919 0.19917 0.20024 0.19928 0.19919 0.19918 0.20023 0.19929 0.19917 0.19919 0.19919 0.19927 0.19919 0.20023 0.19918 0.19928 0.19919 0.19918 0.19918 0.20035 0.19916 l -1.9957,0.0922 -1.6044,0.21098 -1.9789,0.45636 -2.1003,0.682 -1.3439,0.55158 -1.8885,0.92452 -1.8341,1.04777 -1.777,1.15576 -1.7228,1.24991 -1.667,1.33195 -1.617,1.40418 -1.7589,1.67021 -1.479,1.51668 -1.4386,1.56434 -1.401,1.60643 -1.3677,1.64458 -1.4372,1.8386 -1.2645,1.70658 -1.2394,1.73253 -1.3037,1.89564 -1.1544,1.77923 -1.0877,1.74002 -1.1588,1.94793 -1.1573,1.94806 -0.9986,1.72747 -1.057,1.98178 -1.0555,1.98095 -1.0572,1.98095 -0.8634,1.79989 -0.9652,2.00753 -0.9664,2.00847 -0.8441,1.83036 -0.8829,2.02914 -0.8829,2.02903 -0.883,2.02913 -0.7589,1.8734 -0.8093,2.04685 -0.8076,2.04695 -0.8079,2.04684 -0.6948,1.90377 -0.7382,2.06172 -0.7409,2.06278 -0.7382,2.0617 -0.6461,1.92759 -0.6754,2.07417 -0.677,2.0752 -0.6754,2.07416 -0.6086,1.94616 -0.6169,2.0846 -0.6169,2.08459 -0.6184,2.08545 -0.5808,1.96122 -0.5612,2.09304 -0.5626,2.09407 -0.5628,2.09304 -0.5626,2.09408 -0.5097,1.98022 -0.511,2.10146 -0.5112,2.10148 -0.511,2.1004 -0.5112,2.10147 -0.4513,1.99603 -0.461,2.10778 -0.4623,2.10781 20.3874,2.56119 -41.6047,101.05075 z" id="path17"/>
  </g>
</svg>
