<?xml version="1.0" encoding="UTF-8" standalone="no"?>
<!-- Created with Inkscape (http://www.inkscape.org/) -->

<svg
   width="190.45123mm"
   height="190.28697mm"
   viewBox="0 0 190.45123 190.28697"
   version="1.1"
   id="svg21826"
   xml:space="preserve"
   inkscape:version="1.2.2 (732a01da63, 2022-12-09)"
   sodipodi:docname="rational.svg"
   xmlns:inkscape="http://www.inkscape.org/namespaces/inkscape"
   xmlns:sodipodi="http://sodipodi.sourceforge.net/DTD/sodipodi-0.dtd"
   xmlns:xlink="http://www.w3.org/1999/xlink"
   xmlns="http://www.w3.org/2000/svg"
   xmlns:svg="http://www.w3.org/2000/svg"><sodipodi:namedview
     id="namedview21828"
     pagecolor="#ffffff"
     bordercolor="#666666"
     borderopacity="1.0"
     inkscape:showpageshadow="2"
     inkscape:pageopacity="0.0"
     inkscape:pagecheckerboard="0"
     inkscape:deskcolor="#d1d1d1"
     inkscape:document-units="mm"
     showgrid="false"
     inkscape:zoom="0.5946522"
     inkscape:cx="242.99918"
     inkscape:cy="344.73933"
     inkscape:window-width="1920"
     inkscape:window-height="1120"
     inkscape:window-x="-11"
     inkscape:window-y="-11"
     inkscape:window-maximized="1"
     inkscape:current-layer="layer1" /><defs
     id="defs21823" /><g
     inkscape:label="Layer 1"
     inkscape:groupmode="layer"
     id="layer1"
     transform="translate(-9.2228509,-48.352349)"><image
       width="190.5"
       height="190.5"
       preserveAspectRatio="none"
       xlink:href="Rational.png"
       id="image21838"
       x="9.2033939"
       y="48.216099"
       style="display:none" /><g
       id="g21848"
       style="display:inline"><path
         style="fill:#ffb86c;fill-opacity:1;stroke:#ffb86c;stroke-width:0.352778;stroke-opacity:1"
         d="m 49.067283,214.89852 c -1.862727,-1.39934 -1.865987,-1.52917 -0.134899,-5.37212 5.854044,-12.99575 13.17873,-23.70414 21.176315,-30.95891 10.156102,-9.21281 12.081824,-11.23955 13.704228,-14.4231 1.624542,-3.18774 1.674541,-5.2069 0.193904,-7.83045 -1.181717,-2.09389 -1.155072,-2.15347 1.46533,-3.27671 1.934175,-0.82908 2.214619,-0.64839 3.498543,2.25413 2.977653,6.73147 -0.420331,13.27719 -12.386755,23.86127 -11.000817,9.73001 -18.562856,20.58211 -24.359139,34.95722 -0.947498,2.34984 -1.046459,2.37456 -3.157527,0.78867 z m 109.196297,0.0938 c -0.11696,-0.43683 -0.36067,-1.34986 -0.54157,-2.02896 -0.18091,-0.6791 -0.80376,-2.82222 -1.38413,-4.7625 -0.58036,-1.94028 -1.48035,-5.11528 -1.99996,-7.05555 -0.51961,-1.94028 -1.24542,-4.63903 -1.6129,-5.99723 -1.68309,-6.22065 -1.85606,-7.58453 -1.8343,-14.46389 0.0133,-4.20247 0.25475,-8.5451 0.64727,-11.64166 0.66705,-5.26218 0.59224,-10.43148 -0.2,-13.81988 l -0.42681,-1.82544 1.60823,-2.16418 c 1.70643,-2.29633 1.74752,-2.29534 2.58595,0.0629 1.68662,4.74398 2.00605,10.97766 1.0359,20.2159 -1.30974,12.47195 -1.00116,14.94601 4.07875,32.7014 1.14892,4.0157 2.08894,7.55726 2.08894,7.87012 0,0.3414 0.17632,0.47776 0.44097,0.34103 0.6493,-0.33545 -1.09684,1.10982 -2.7983,2.31613 l -1.47537,1.04602 z M 90.964368,179.46087 c -2.576968,-0.4694 -5.208196,-1.43264 -5.208196,-1.90662 0,-0.23505 0.696397,-1.11082 1.547548,-1.94616 l 1.547548,-1.51881 1.937162,0.43352 c 1.100349,0.24625 3.213001,0.36505 4.890647,0.27501 7.081963,-0.38007 10.850233,-4.10523 18.295383,-18.08608 9.61372,-18.05312 18.61,-25.06158 27.84671,-21.6937 2.67227,0.97436 2.81992,1.27382 1.68659,3.42067 -0.98026,1.8569 -1.23854,1.92262 -3.77659,0.96095 -3.99677,-1.51439 -9.26586,1.43587 -14.50819,8.12339 -2.53804,3.23773 -3.83373,5.41261 -9.54285,16.01818 -6.77064,12.5775 -14.77161,17.731 -24.715762,15.91965 z M 70.010825,168.07235 c -5.78104,-5.99318 -4.723529,-11.78638 3.405335,-18.65488 5.127414,-4.33241 10.10169,-6.55062 18.804806,-8.38574 6.187235,-1.30463 7.009094,-1.67872 8.356774,-3.80378 0.88228,-1.39121 1.26271,-2.61633 1.95183,-6.28546 0.11704,-0.62321 1.59396,-1.51175 4.13101,-2.48531 2.02986,-0.77893 -0.0756,8.9442 -2.65968,12.28247 -2.16375,2.79527 -3.47256,3.36302 -12.071117,5.23634 -6.95663,1.51561 -11.797863,3.87989 -16.390063,8.00432 -5.18765,4.65922 -5.572389,7.13662 -1.73796,11.19096 l 1.694674,1.79187 -1.437118,1.48065 c -1.813447,1.86837 -1.895203,1.86087 -4.048491,-0.37144 z m 61.782845,-11.69764 c -4.30526,-2.20469 -4.92743,-3.56714 -2.71311,-5.94125 1.12394,-1.20505 1.48687,-1.21075 2.56342,-0.0403 2.71201,2.94863 5.55941,2.66374 9.61495,-0.96198 7.57874,-6.77554 11.14563,-17.33094 10.10218,-29.89514 -1.28347,-15.45421 -0.79505,-19.771652 4.23706,-37.453304 0.93568,-3.287751 2.42507,-8.747429 2.62247,-9.613195 0.29021,-1.272803 0.51687,-1.233424 2.66244,0.462553 1.25298,0.990421 1.75636,1.616609 1.63064,2.028472 -0.10001,0.32768 -0.4142,1.468906 -0.6982,2.536059 -0.28399,1.067152 -0.8244,3.051527 -1.20092,4.409722 -5.10667,18.421223 -5.18891,18.930443 -4.78526,29.633333 0.71594,18.98371 0.24834,23.04184 -3.5364,30.69167 -5.62193,11.36319 -14.27285,17.33184 -20.49927,14.14333 z M 65.295061,144.85037 c -10.994302,-4.56543 -13.568299,-9.38333 -10.351735,-19.37594 2.230123,-6.92812 8.899525,-15.69666 13.630374,-17.92042 3.001666,-1.41095 6.891309,-0.97257 9.509555,1.07177 1.539596,1.20213 1.562347,1.29621 0.584941,2.41898 -0.405889,0.46625 -1.001201,1.2071 -1.322917,1.64632 l -0.584941,0.7986 -1.234722,-0.83698 c -3.050663,-2.06795 -4.498442,-1.74284 -8.103972,1.81979 -5.725217,5.65711 -9.217554,13.18417 -8.880645,19.14053 0.133319,2.35698 4.42764,5.30155 11.792282,8.08586 3.538742,1.33787 3.498589,1.21867 1.057575,3.1399 -2.210516,1.73982 -1.935201,1.7393 -6.095795,0.0116 z m 55.083219,-12.40858 c -1.45294,-16.25889 -2.20098,-16.86827 -12.71823,-10.3609 -8.355825,5.17002 -12.996709,6.13485 -18.381096,3.82139 -2.603761,-1.11872 -2.75505,-1.54196 -1.220576,-3.41459 1.513191,-1.84665 1.384501,-1.81244 3.391909,-0.90156 3.263643,1.48092 6.55706,0.72103 12.552473,-2.89622 7.26027,-4.38038 11.15907,-5.85113 13.70451,-5.16978 4.69037,1.25549 6.38931,5.00822 7.16877,15.83486 l 0.31748,4.40972 -1.8152,1.66042 c -2.53813,2.3217 -2.52478,2.33498 -3.00004,-2.98334 z m -52.963985,-5.14858 c -2.321747,-0.72797 -2.499776,-1.22018 -1.226915,-3.39216 0.959401,-1.63709 1.465764,-1.87484 2.646825,-1.24276 1.070659,0.573 3.975287,0.49238 5.206919,-0.14452 1.807143,-0.93451 3.487314,-2.58338 7.224934,-7.09035 9.326725,-11.24651 15.154843,-13.27945 20.512352,-7.15501 2.57314,2.94148 3.0395,4.04854 2.02771,4.81344 -1.71076,1.29333 -3.34296,2.00938 -3.50081,1.53582 -0.426957,-1.28086 -2.573899,-3.86007 -3.664684,-4.40252 -2.463843,-1.22529 -5.718641,1.00304 -11.152431,7.63529 -7.701499,9.4001 -11.642757,11.45923 -18.0739,9.44277 z M 52.606988,113.73922 c -1.368647,-3.01849 -1.904944,-6.01045 -1.638804,-9.14283 0.755992,-8.897919 0.685087,-10.767193 -0.599733,-15.810847 -1.18436,-4.649297 -3.939202,-13.691735 -4.272965,-14.025499 -0.09209,-0.09209 0.707419,-0.880084 1.776681,-1.751099 1.069262,-0.871015 2.032018,-1.495759 2.139456,-1.388319 0.627267,0.627266 4.666365,14.099783 5.763175,19.223221 0.81237,3.794749 0.810197,3.575381 0.13722,13.858753 -0.167544,2.56015 -0.08795,3.85099 0.324126,5.25673 l 0.546205,1.86328 -1.401233,2.06341 c -1.714489,2.5247 -1.559084,2.53292 -2.774128,-0.1468 z"
         id="path21852" /><path
         style="fill:#6272a4;fill-opacity:1;stroke:none;stroke-width:0.352778;stroke-opacity:1"
         d="M 95.986727,238.49586 C 55.96666,234.86994 22.490082,206.59238 12.232833,167.74923 c -4.0133095,-15.198 -4.0133095,-33.36826 0,-48.56626 9.679369,-36.654787 39.637477,-63.733936 77.403894,-69.965414 6.991548,-1.153609 22.641783,-1.153609 29.633333,0 41.25671,6.807379 72.6245,38.175164 79.43188,79.431874 1.84983,11.21107 0.9976,27.64223 -2.02799,39.0998 -9.6571,36.57046 -39.81128,63.87166 -77.2275,69.92077 -4.45449,0.72016 -18.98182,1.23157 -23.459723,0.82586 z m 22.401393,-5.72037 c 52.7555,-8.69562 86.4767,-59.58006 73.70138,-111.21356 -8.70542,-35.184345 -37.59744,-61.552962 -73.87777,-67.425367 -6.89864,-1.116626 -21.006787,-1.117826 -27.693058,-0.0024 -39.312737,6.558542 -69.068477,36.348289 -75.385466,75.471627 -1.068038,6.61474 -1.147323,20.30013 -0.154896,26.73666 6.488217,42.08024 39.945426,73.56139 82.066751,77.21968 4.230239,0.3674 17.253599,-0.11262 21.343059,-0.78668 z"
         id="path21850"
         inkscape:label="path21850" /></g></g></svg>
