<?xml version="1.0" encoding="UTF-8" standalone="no"?>
<!-- Created with Inkscape (http://www.inkscape.org/) -->

<svg
   viewBox="0 0 190.45123 190.28697"
   version="1.1"
   id="svg21826"
   xml:space="preserve"
   inkscape:version="1.3 (0e150ed6c4, 2023-07-21)"
   sodipodi:docname="322.svg"
   xmlns:inkscape="http://www.inkscape.org/namespaces/inkscape"
   xmlns:sodipodi="http://sodipodi.sourceforge.net/DTD/sodipodi-0.dtd"
   xmlns="http://www.w3.org/2000/svg"
   xmlns:svg="http://www.w3.org/2000/svg">&#10;&#10;    <sodipodi:namedview
   id="namedview21828"
   pagecolor="#000000"
   bordercolor="#666666"
   borderopacity="1.0"
   inkscape:showpageshadow="2"
   inkscape:pageopacity="0.0"
   inkscape:pagecheckerboard="0"
   inkscape:deskcolor="#d1d1d1"
   inkscape:document-units="mm"
   showgrid="false"
   inkscape:zoom="1.8328841"
   inkscape:cx="157.40221"
   inkscape:cy="91.386031"
   inkscape:window-width="1920"
   inkscape:window-height="1120"
   inkscape:window-x="-11"
   inkscape:window-y="-11"
   inkscape:window-maximized="1"
   inkscape:current-layer="layer1" />&#10;    &#10;&#10;    <defs
   id="defs21823" />&#10; &#10;    <g
   inkscape:label="Layer 1"
   inkscape:groupmode="layer"
   id="layer1"
   transform="translate(-9.2228509,-48.352349)">&#10;        &#10; &#10; &#10; &#10;        <g
   id="g137"
   transform="matrix(0.22112862,0,0,0.22112862,2.9448054,1.0788826)"><path
      class=" stroke-orange  "
     style="display:inline;fill:none;stroke:#ffb86c;stroke-width:25.638;stroke-dasharray:none;stroke-opacity:1"
     d="m 169.40853,480.63102 c -6.48628,-6.48623 -21.24596,-16.47583 -34.19979,-28.35327 -15.88907,-14.56878 -26.52589,-30.04541 -31.81164,-40.08131 m 101.26376,106.1542 c 8.97138,8.97137 13.91579,12.27651 22.99066,21.12554 5.64702,5.50647 12.81856,11.54401 21,11.97067 13.73789,0.71643 24.84862,-12.80462 34,-21.95602 l 64,-64 c 7.72832,-7.72778 17.17793,-18.05231 29,-17.73303 3.52771,0.0953 6.78836,1.22284 10,2.61267 6.18823,2.67792 9.58124,5.82617 14,10.13501 8.42313,8.21356 12.962,12.94738 21.37383,21.35918 m 35.86916,36.79439 c 7.36136,7.36136 10.55975,9.54894 17.75317,16.83178 3.00366,3.04102 5.36166,5.34851 7.52081,9 2.25973,3.82156 3.21451,9.31265 1.62884,14 -4.36819,12.91263 -23.62066,19.35767 -35.14581,24.74152 -12.00888,5.60983 -30.27267,11.776 -43,15.39892 -11.2698,3.20804 -25.40869,4.18122 -37,6.32331 -9.30557,1.71969 -19.4586,6.82879 -27,13.00076 -2.15169,1.76095 -3.87447,3.47174 -6,5.3696 -2.47052,2.20587 -4.51146,3.82571 -7,6.20526 -20.29101,19.40243 -41.94667,41.90729 -62,61.96063 -7.67955,7.67957 -17.34785,15.55472 -22.77623,25 -2.11413,3.67856 -3.62346,8.79471 -3.62346,13 0,7.01279 3.95436,14.05566 8.49304,19 2.82079,3.07291 5.08157,5.11554 7.90665,8 l 14.6729,14.98131 m 37.95327,38.8785 c 7.08878,7.08875 10.38663,9.15301 17.37383,16.14019 3.51749,3.51746 6.31271,6.48163 10,9.91052 8.75749,8.14368 20.91672,16.70612 33,17.91895 13.25675,1.33063 24.37683,-4.52008 35,-11.85492 5.0665,-3.49823 11.57822,-8.92706 16,-12.81946 2.08099,-1.83185 3.82919,-3.22247 6,-5.24457 4.30707,-4.01214 8.2915,-8.20202 13,-12.91052 46.66666,-46.66669 93.33337,-93.33337 140,-140 l 62,-62 c 7.86542,-7.86237 16.74945,-15.68372 28,-14.90894 18.70954,1.28846 30.19231,20.10113 43.37383,33.28277 m 33.71028,35.25234 c 7.82019,7.82025 13.16437,11.61931 20.91589,19.37383 2.41168,2.41266 4.57196,4.47415 6.82642,7 4.45373,4.98993 7.99231,10.96259 10.9151,17 2.41131,4.98093 4.33703,9.6713 5.60412,15 12.88466,54.18542 -24.07192,103.71963 29.85527,129.76116"
     id="path137"
     sodipodi:nodetypes="csccssscsssccssssssssssssssccsssssssscsccssssc"
     inkscape:label="org" /><path
   class=" stroke-red  "
     style="display:inline;fill:none;stroke:#ff5555;stroke-width:25.638;stroke-dasharray:none;stroke-opacity:1"
     d="m 810.58343,410.50311 c -42.22109,37.45679 -16.93191,104.10378 -16.93191,122.98772 0,15.70273 -0.3728,31.40167 -5.69519,46 -5.23969,14.37155 -15.67212,24.36734 -26.30481,35 l -46,46 c -11.28046,11.28046 -22.87769,27.12268 -37,34.50616 -4.53412,2.37055 -8.67969,2.90955 -14,2.38889 -11.36676,-1.1124 -17.77167,-10.50677 -25.01465,-17.89581 -6.7959,-6.93299 -10.07415,-9.1628 -16.97601,-16.06466 m -351.1028,-17.33645 c -12.25645,-12.25641 -17.2166,-18.84795 -30.90654,-29.36278 -17.91294,-13.75836 -39.31586,-23.03021 -60,-31.9545 -12.6823,-5.47183 -35.97182,-13.04416 -39.30093,-28.28085 -1.11368,-5.09711 0.30382,-10.06348 3.52932,-14 2.89809,-3.53693 5.49236,-5.72073 8.77161,-9 10.56854,-10.56854 21.59022,-21.59021 32,-32 12.31118,-12.31119 25.36555,-25.36639 38,-38 3.61376,-3.61353 6.05935,-6.43945 10,-9.4707 4.94876,-3.80677 11.07234,-6.53125 17,-6.25458 7.59584,0.35455 14.59056,4.62103 20,9.76538 9.84636,9.36389 14.75287,14.096 24.37383,23.71691 m 34.63551,35.86916 c 11.92185,11.92181 24.76218,31.53426 41.99066,34.16088 7.9393,1.21042 14.44837,-1.84393 21,-6.82718 3.05893,-2.32663 5.13806,-4.18289 8,-6.97452 15.78482,-15.39703 33.29953,-33.28488 49,-48.98535 8.54221,-8.54224 18.6225,-18.63647 27,-27 2.44519,-2.4411 4.30075,-4.52228 7,-6.60571 3.7742,-2.91315 8.97116,-4.88605 13.98535,-3.11573 4.10324,1.44867 6.29026,5.02955 8.22992,8.72144 8.23108,15.66693 11.48035,33.8728 16.36344,51 7.32519,25.69272 13.02883,53.70926 28.16745,76 5.81472,8.56186 12.06146,14.80762 19.25384,22 7.84931,7.8493 9.62774,10.55297 17.52337,18.4486 M 116.19557,886.7058 c 69.33962,-73.1022 58.45085,31.77332 131.62952,-50.21497 3.03994,-3.40588 5.38809,-5.56171 8.82638,-9 l 33,-33 20,-20 c 6.44588,-6.44586 13.65736,-13.62738 19.99924,-20 2.99486,-3.00937 5.53985,-5.51123 8.07252,-9 3.58986,-4.94504 6.1402,-10.91443 5.88117,-17 -0.37111,-8.71866 -6.01146,-15.98074 -11.95679,-22 -8.89261,-9.00317 -10.32373,-11.86965 -19.28586,-20.83178"
     id="path137-6"
     sodipodi:nodetypes="csssssssccssssssssssccsssssssssssccsscsssssc"
     inkscape:label="red" /></g><path
   class="stroke-highlight"
   style="display:inline;fill:#6272a4;fill-opacity:1;stroke:none;stroke-width:0.352778;stroke-opacity:1"
   d="M 95.986727,238.49586 C 55.96666,234.86994 22.490082,206.59238 12.232833,167.74923 c -4.0133095,-15.198 -4.0133095,-33.36826 0,-48.56626 9.679369,-36.654787 39.637477,-63.733936 77.403894,-69.965414 6.991548,-1.153609 22.641783,-1.153609 29.633333,0 41.25671,6.807379 72.6245,38.175164 79.43188,79.431874 1.84983,11.21107 0.9976,27.64223 -2.02799,39.0998 -9.6571,36.57046 -39.81128,63.87166 -77.2275,69.92077 -4.45449,0.72016 -18.98182,1.23157 -23.459723,0.82586 z m 22.401393,-5.72037 c 52.7555,-8.69562 86.4767,-59.58006 73.70138,-111.21356 -8.70542,-35.184345 -37.59744,-61.552962 -73.87777,-67.425367 -6.89864,-1.116626 -21.006787,-1.117826 -27.693058,-0.0024 -39.312737,6.558542 -69.068477,36.348289 -75.385466,75.471627 -1.068038,6.61474 -1.147323,20.30013 -0.154896,26.73666 6.488217,42.08024 39.945426,73.56139 82.066751,77.21968 4.230239,0.3674 17.253599,-0.11262 21.343059,-0.78668 z"
   id="path21850"
   inkscape:label="path21850" />&#10;    <text
   xml:space="preserve"
   class=" fill-foreground  "
   style="font-style:normal;font-variant:normal;font-weight:bold;font-stretch:normal;font-size:18.6667px;line-height:1.25;font-family:Arial;-inkscape-font-specification:'Arial Bold';fill:#f8f8f2;fill-opacity:1;stroke:none"
   x="14.898467"
   y="86.607079"
   id="text1"><tspan
     sodipodi:role="line"
     id="tspan1"
     x="14.898467"
     class=" fill-foreground  "
     y="86.607079"
     style="font-style:normal;font-variant:normal;font-weight:bold;font-stretch:normal;font-size:18.6667px;font-family:Arial;-inkscape-font-specification:'Arial Bold';fill:#f8f8f2;fill-opacity:1">NW</tspan></text><text
   xml:space="preserve"
   style="font-style:normal;font-variant:normal;font-weight:bold;font-stretch:normal;font-size:18.6667px;line-height:1.25;font-family:Arial;-inkscape-font-specification:'Arial Bold';fill:#f8f8f2;fill-opacity:1;stroke:none"
   x="23.76705"
   y="215.06128"
   id="text1-8"><tspan
     sodipodi:role="line"
     id="tspan1-46"
     class=" fill-foreground  "
     x="23.76705"
     y="215.06128"
     style="font-style:normal;font-variant:normal;font-weight:bold;font-stretch:normal;font-size:18.6667px;font-family:Arial;-inkscape-font-specification:'Arial Bold';fill:#f8f8f2;fill-opacity:1">SW</tspan></text><text
   xml:space="preserve"
   style="font-style:normal;font-variant:normal;font-weight:bold;font-stretch:normal;font-size:18.6667px;line-height:1.25;font-family:Arial;-inkscape-font-specification:'Arial Bold';fill:#f8f8f2;fill-opacity:1;stroke:none"
   x="171.26849"
   y="203.11136"
   id="text1-8-4"><tspan
     sodipodi:role="line"
     id="tspan1-46-1"
     class=" fill-foreground  "
     x="171.26849"
     y="203.11136"
     style="font-style:normal;font-variant:normal;font-weight:bold;font-stretch:normal;font-size:18.6667px;font-family:Arial;-inkscape-font-specification:'Arial Bold';fill:#f8f8f2;fill-opacity:1">SE</tspan></text><text
   xml:space="preserve"
   style="font-style:normal;font-variant:normal;font-weight:bold;font-stretch:normal;font-size:18.6667px;line-height:1.25;font-family:Arial;-inkscape-font-specification:'Arial Bold';fill:#f8f8f2;fill-opacity:1;stroke:none"
   x="173.15366"
   y="89.142784"
   id="text1-1"><tspan
     sodipodi:role="line"
     id="tspan1-4"
     class=" fill-foreground  "
     x="173.15366"
     y="89.142784"
     style="font-style:normal;font-variant:normal;font-weight:bold;font-stretch:normal;font-size:18.6667px;font-family:Arial;-inkscape-font-specification:'Arial Bold';fill:#f8f8f2;fill-opacity:1">NE</tspan></text></g>&#10;&#10;</svg>
